<?xml version="1.0" encoding="UTF-8" standalone="no"?>
<!-- Generator: Adobe Illustrator 16.0.0, SVG Export Plug-In . SVG Version: 6.00 Build 0)  -->

<svg
   xmlns:dc="http://purl.org/dc/elements/1.1/"
   xmlns:cc="http://creativecommons.org/ns#"
   xmlns:rdf="http://www.w3.org/1999/02/22-rdf-syntax-ns#"
   xmlns:svg="http://www.w3.org/2000/svg"
   xmlns="http://www.w3.org/2000/svg"
   xmlns:sodipodi="http://sodipodi.sourceforge.net/DTD/sodipodi-0.dtd"
   xmlns:inkscape="http://www.inkscape.org/namespaces/inkscape"
   version="1.1"
   id="Capa_1"
   x="0px"
   y="0px"
   width="512px"
   height="512px"
   viewBox="0 0 95.864 95.864"
   style="enable-background:new 0 0 95.864 95.864;"
   xml:space="preserve"
   inkscape:version="0.91 r13725"
   sodipodi:docname="abc.svg"><metadata
   id="metadata49"><rdf:RDF><cc:Work
       rdf:about=""><dc:format>image/svg+xml</dc:format><dc:type
         rdf:resource="http://purl.org/dc/dcmitype/StillImage" /><dc:title></dc:title></cc:Work></rdf:RDF></metadata><defs
   id="defs47" /><sodipodi:namedview
   pagecolor="#ffffff"
   bordercolor="#666666"
   borderopacity="1"
   objecttolerance="10"
   gridtolerance="10"
   guidetolerance="10"
   inkscape:pageopacity="0"
   inkscape:pageshadow="2"
   inkscape:window-width="643"
   inkscape:window-height="480"
   id="namedview45"
   showgrid="false"
   inkscape:zoom="0.4609375"
   inkscape:cx="523.9322"
   inkscape:cy="256"
   inkscape:window-x="0"
   inkscape:window-y="0"
   inkscape:window-maximized="0"
   inkscape:current-layer="Capa_1" />
<g
   id="g3"
   transform="translate(-9.8674733e-4,21.333999)">
	<g
   id="g5">
		<path
   d="m 26.847,43.907 c 0.279,0.805 1.037,1.345 1.889,1.345 l 5.59,0 c 0.656,0 1.271,-0.322 1.645,-0.862 0.374,-0.54 0.459,-1.229 0.227,-1.843 L 23.632,9.19 C 23.339,8.411 22.593,7.895 21.761,7.895 l -6.869,0 c -0.826,0 -1.568,0.509 -1.865,1.28 L 0.134,42.582 c -0.236,0.615 -0.156,1.308 0.217,1.852 0.373,0.543 0.99,0.868 1.65,0.868 l 5.07,0 c 0.836,0 1.584,-0.52 1.875,-1.303 l 2.695,-7.247 12.723,0 2.483,7.155 z m -12.82,-14.034 4.154,-12.524 3.9,12.524 -8.054,0 z"
   id="path7"
   inkscape:connector-curvature="0"
   style="fill:#ffffff" />
		<path
   d="m 39.711,45.25 10.01,0 c 3.274,0 9.371,0 13.272,-4.488 2.14,-2.482 2.39,-7.353 1.609,-9.807 -0.836,-2.395 -2.43,-4.028 -5.103,-5.193 2.015,-1.046 3.437,-2.515 4.234,-4.382 1.207,-2.857 0.596,-6.954 -1.434,-9.55 C 59.518,8.359 54.699,7.891 50.35,7.891 L 39.709,7.896 c -1.104,0 -1.998,0.896 -1.998,2 l 0,33.354 c 0,1.105 0.895,2 2,2 z m 15.664,-9.339 c -0.586,1.227 -1.813,2.361 -6.811,2.361 l -1.284,0 0,-8.712 1.813,-10e-4 c 2.971,0 4.705,0.295 5.93,1.894 0.854,1.134 0.897,3.353 0.352,4.458 z m -0.75,-15.613 c -0.854,1.514 -2.039,2.333 -5.712,2.333 l -1.633,0 0,-7.808 1.847,-0.001 c 2.609,0.064 4.123,0.343 5.115,1.658 0.808,1.112 0.765,2.978 0.383,3.818 z"
   id="path9"
   inkscape:connector-curvature="0"
   style="fill:#ffffff" />
		<path
   d="m 95.677,38.77 c -0.031,-0.632 -0.359,-1.212 -0.886,-1.563 -0.524,-0.353 -1.188,-0.436 -1.782,-0.224 -4.802,1.706 -8.121,1.787 -11.17,0.258 -3.761,-1.946 -5.666,-5.227 -5.824,-9.99 -0.062,-4.17 0.528,-8.79 5.358,-11.445 1.416,-0.775 3.07,-1.168 4.92,-1.168 2.461,0 4.9,0.723 6.515,1.328 0.598,0.227 1.266,0.149 1.799,-0.199 0.535,-0.351 0.869,-0.935 0.9,-1.572 l 0.18,-3.542 C 95.734,9.713 95.119,8.866 94.209,8.622 92.203,8.081 89.06,7.437 85.464,7.437 c -3.873,0 -7.265,0.733 -10.085,2.183 -7.836,4.055 -9.102,11.791 -9.278,14.92 -0.181,2.901 -0.123,12.788 8.117,18.195 3.883,2.5 8.541,3.024 11.764,3.024 2.816,0 5.812,-0.417 8.438,-1.175 0.892,-0.258 1.488,-1.094 1.443,-2.02 L 95.677,38.77 Z"
   id="path11"
   inkscape:connector-curvature="0"
   style="fill:#ffffff" />
		
	</g>
</g>
<g
   id="g15">
</g>
<g
   id="g17">
</g>
<g
   id="g19">
</g>
<g
   id="g21">
</g>
<g
   id="g23">
</g>
<g
   id="g25">
</g>
<g
   id="g27">
</g>
<g
   id="g29">
</g>
<g
   id="g31">
</g>
<g
   id="g33">
</g>
<g
   id="g35">
</g>
<g
   id="g37">
</g>
<g
   id="g39">
</g>
<g
   id="g41">
</g>
<g
   id="g43">
</g>
</svg>