<?xml version="1.0" encoding="iso-8859-1"?>
<!-- Generator: Adobe Illustrator 16.0.0, SVG Export Plug-In . SVG Version: 6.00 Build 0)  -->
<!DOCTYPE svg PUBLIC "-//W3C//DTD SVG 1.1//EN" "http://www.w3.org/Graphics/SVG/1.1/DTD/svg11.dtd">
<svg xmlns="http://www.w3.org/2000/svg" xmlns:xlink="http://www.w3.org/1999/xlink" version="1.1" id="Capa_1" x="0px" y="0px" width="512px" height="512px" viewBox="0 0 28.6 28.6" style="enable-background:new 0 0 28.6 28.6;" xml:space="preserve">
<g>
	<path d="M24.929,24.734V1.546c0-0.85-0.697-1.546-1.547-1.546H5.217c-0.85,0-1.546,0.696-1.546,1.546v1.546v21.643v2.319   c0,0.851,0.696,1.546,1.546,1.546h18.165c0.566,0,1.061-0.312,1.33-0.773H6.763c-0.85,0-1.546-0.695-1.546-1.545h18.165   C24.233,26.281,24.929,25.586,24.929,24.734z M8.952,20.684c-0.276,0.276-0.724,0.276-1,0c-0.275-0.275-0.275-0.724,0.001-1   l4.407-4.408l1,1L8.952,20.684z M19.681,20.746c-0.277,0.277-0.725,0.275-1.002,0l-7.494-7.495   c-0.033-0.033-0.05-0.074-0.076-0.111c-1.085,0.516-2.64,0.145-3.797-1.012c-1.379-1.38-1.658-3.338-0.624-4.373   C7.722,6.721,9.68,7.001,11.059,8.38c1.157,1.157,1.528,2.713,1.012,3.798c0.038,0.025,0.079,0.041,0.113,0.075l7.495,7.494   C19.954,20.023,19.956,20.471,19.681,20.746z M22.425,9.96l-3.211,3.211c-0.025,0.025-0.055,0.04-0.084,0.056   c-1.096,0.975-2.221,0.982-3.137,0.393c-0.018,0.022-0.025,0.049-0.047,0.069l-0.736,0.737l-1-0.999l0.738-0.738   c0.02-0.02,0.047-0.028,0.069-0.045c-0.59-0.917-0.583-2.043,0.393-3.137c0.016-0.028,0.029-0.059,0.055-0.083l3.211-3.212   c0.148-0.149,0.389-0.149,0.537,0c0.148,0.148,0.148,0.388-0.002,0.536l-3.104,3.104l0.535,0.536l3.105-3.105   c0.146-0.148,0.387-0.148,0.535,0c0.146,0.147,0.146,0.386,0,0.535l-3.104,3.105l0.537,0.536l3.104-3.104   c0.148-0.148,0.387-0.149,0.535-0.001s0.148,0.388,0,0.536l-3.104,3.104l0.535,0.535l3.104-3.105c0.148-0.148,0.389-0.148,0.535,0   C22.573,9.571,22.573,9.812,22.425,9.96z" fill="#FFFFFF"/>
</g>
<g>
</g>
<g>
</g>
<g>
</g>
<g>
</g>
<g>
</g>
<g>
</g>
<g>
</g>
<g>
</g>
<g>
</g>
<g>
</g>
<g>
</g>
<g>
</g>
<g>
</g>
<g>
</g>
<g>
</g>
</svg>
