<?xml version="1.0" encoding="iso-8859-1"?>
<!-- Generator: Adobe Illustrator 16.0.0, SVG Export Plug-In . SVG Version: 6.00 Build 0)  -->
<!DOCTYPE svg PUBLIC "-//W3C//DTD SVG 1.1//EN" "http://www.w3.org/Graphics/SVG/1.1/DTD/svg11.dtd">
<svg xmlns="http://www.w3.org/2000/svg" xmlns:xlink="http://www.w3.org/1999/xlink" version="1.1" id="Capa_1" x="0px" y="0px" width="512px" height="512px" viewBox="0 0 466.561 466.561" style="enable-background:new 0 0 466.561 466.561;" xml:space="preserve">
<g>
	<path d="M442.38,283.861l-82.354-47.547c-4.536-2.617-10.2,0.654-10.2,5.891v23.752H336.98c-29.553,0-56.706,10.309-78.2,27.432   V95.957h23.752c5.236,0,8.507-5.665,5.889-10.2L240.862,3.402c-2.618-4.536-9.16-4.536-11.778,0l-47.545,82.354   c-2.618,4.536,0.653,10.2,5.889,10.2h23.752v102.231c-21.495-17.123-48.647-27.432-78.2-27.432h-16.245v-23.752   c0-5.236-5.665-8.507-10.2-5.889L24.18,188.674c-4.536,2.618-4.536,9.16,0,11.778l82.354,47.546c4.536,2.617,10.2-0.652,10.2-5.889   v-23.753h16.245c43.187,0,78.2,35.013,78.2,78.2v145.574c0,11.355,7.704,21.672,18.836,23.93   c15.314,3.086,28.764-8.541,28.764-23.305v-51c0-43.186,35.013-78.199,78.2-78.199h12.845v23.752c0,5.236,5.664,8.508,10.2,5.889   l82.354-47.559C446.916,293.021,446.916,286.479,442.38,283.861z" fill="#FFFFFF"/>
</g>
<g>
</g>
<g>
</g>
<g>
</g>
<g>
</g>
<g>
</g>
<g>
</g>
<g>
</g>
<g>
</g>
<g>
</g>
<g>
</g>
<g>
</g>
<g>
</g>
<g>
</g>
<g>
</g>
<g>
</g>
</svg>
