<?xml version="1.0" encoding="UTF-8" standalone="no"?>
<svg
   xmlns:dc="http://purl.org/dc/elements/1.1/"
   xmlns:cc="http://creativecommons.org/ns#"
   xmlns:rdf="http://www.w3.org/1999/02/22-rdf-syntax-ns#"
   xmlns:svg="http://www.w3.org/2000/svg"
   xmlns="http://www.w3.org/2000/svg"
   xmlns:sodipodi="http://sodipodi.sourceforge.net/DTD/sodipodi-0.dtd"
   xmlns:inkscape="http://www.inkscape.org/namespaces/inkscape"
   viewBox="0 0 512.00001 512"
   height="512"
   width="512"
   xml:space="preserve"
   version="1.1"
   id="svg2"
   inkscape:version="0.91 r13725"
   sodipodi:docname="angry-birds-rio-logo-vector.svg"><sodipodi:namedview
     pagecolor="#ffffff"
     bordercolor="#666666"
     borderopacity="1"
     objecttolerance="10"
     gridtolerance="10"
     guidetolerance="10"
     inkscape:pageopacity="0"
     inkscape:pageshadow="2"
     inkscape:window-width="1366"
     inkscape:window-height="706"
     id="namedview93"
     showgrid="false"
     inkscape:zoom="0.43424444"
     inkscape:cx="490.3596"
     inkscape:cy="452.74725"
     inkscape:window-x="-8"
     inkscape:window-y="-8"
     inkscape:window-maximized="1"
     inkscape:current-layer="g10" /><metadata
     id="metadata8"><rdf:RDF><cc:Work
         rdf:about=""><dc:format>image/svg+xml</dc:format><dc:type
           rdf:resource="http://purl.org/dc/dcmitype/StillImage" /><dc:title></dc:title></cc:Work></rdf:RDF></metadata><defs
     id="defs6"><linearGradient
       id="linearGradient14"
       spreadMethod="pad"
       gradientTransform="matrix(-2320.87,4977.12,4977.12,2320.87,9414.56,748.82)"
       gradientUnits="userSpaceOnUse"
       y2="0"
       x2="1"
       y1="0"
       x1="0"><stop
         id="stop16"
         offset="0"
         style="stop-opacity:1;stop-color:#e21f2a" /><stop
         id="stop18"
         offset="0.52"
         style="stop-opacity:1;stop-color:#e72f26" /><stop
         id="stop20"
         offset="1"
         style="stop-opacity:1;stop-color:#f1781c" /></linearGradient><clipPath
       id="clipPath28"
       clipPathUnits="userSpaceOnUse"><path
         id="path30"
         d="m 0,0 0,4864 10906,0 L 10906,0 0,0 Z"
         inkscape:connector-curvature="0" /></clipPath><clipPath
       id="clipPath34"
       clipPathUnits="userSpaceOnUse"><path
         style="clip-rule:evenodd"
         id="path36"
         d="M 8724.42,79.7617 C 7571.18,105.648 6644.27,1009.22 6644.27,2119.73 c 0,1110.51 926.91,2014.08 2080.15,2039.97 l 0,-1634.02 c -206.01,0 -373.07,-181.79 -373.07,-405.95 0,-224.16 167.06,-405.96 373.07,-405.96 l 0,-1634.0083 z m 50.87,4080.5583 c 1176.75,0 2131.01,-913.79 2131.01,-2040.59 0,-1126.8 -954.26,-2040.5894 -2131.01,-2040.5894 -17,0 -33.95,0.2383 -50.87,0.6211 l 0,1634.0083 c 206.01,0 373.07,181.8 373.07,405.96 0,224.16 -167.06,405.95 -373.07,405.95 l 0,1634.02 c 16.92,0.38 33.87,0.62 50.87,0.62 z"
         inkscape:connector-curvature="0" /></clipPath><linearGradient
       id="linearGradient42"
       spreadMethod="pad"
       gradientTransform="matrix(-47734.6,-53014.6,-53014.6,47734.6,33814.4,27333)"
       gradientUnits="userSpaceOnUse"
       y2="0"
       x2="1"
       y1="0"
       x1="0"><stop
         id="stop44"
         offset="0"
         style="stop-opacity:1;stop-color:#e42429" /><stop
         id="stop46"
         offset="0.04"
         style="stop-opacity:1;stop-color:#f1781c" /><stop
         id="stop48"
         offset="0.74"
         style="stop-opacity:1;stop-color:#f3991d" /><stop
         id="stop50"
         offset="0.82"
         style="stop-opacity:1;stop-color:#ffffff" /><stop
         id="stop52"
         offset="0.89"
         style="stop-opacity:1;stop-color:#f3991d" /><stop
         id="stop54"
         offset="1"
         style="stop-opacity:1;stop-color:#e42429" /></linearGradient><linearGradient
       id="linearGradient58"
       spreadMethod="pad"
       gradientTransform="matrix(-742.067,-1187.56,-1187.56,742.067,9324.79,2592.3)"
       gradientUnits="userSpaceOnUse"
       y2="0"
       x2="1"
       y1="0"
       x1="0"><stop
         id="stop60"
         offset="0"
         style="stop-opacity:1;stop-color:#f3991d" /><stop
         id="stop62"
         offset="0.75"
         style="stop-opacity:1;stop-color:#f3991d" /><stop
         id="stop64"
         offset="0.8"
         style="stop-opacity:1;stop-color:#ffffff" /><stop
         id="stop66"
         offset="0.84"
         style="stop-opacity:1;stop-color:#f3991d" /><stop
         id="stop68"
         offset="1"
         style="stop-opacity:1;stop-color:#f3991d" /></linearGradient><linearGradient
       id="linearGradient72"
       spreadMethod="pad"
       gradientTransform="matrix(237491,446655,446655,-237491,-111090,-220427)"
       gradientUnits="userSpaceOnUse"
       y2="0"
       x2="1"
       y1="0"
       x1="0"><stop
         id="stop74"
         offset="0"
         style="stop-opacity:1;stop-color:#e42429" /><stop
         id="stop76"
         offset="0.02"
         style="stop-opacity:1;stop-color:#f1781c" /><stop
         id="stop78"
         offset="0.76"
         style="stop-opacity:1;stop-color:#f3991d" /><stop
         id="stop80"
         offset="0.82"
         style="stop-opacity:1;stop-color:#ffffff" /><stop
         id="stop82"
         offset="0.9"
         style="stop-opacity:1;stop-color:#f3991d" /><stop
         id="stop84"
         offset="1"
         style="stop-opacity:1;stop-color:#e42429" /></linearGradient><linearGradient
       id="linearGradient88"
       spreadMethod="pad"
       gradientTransform="matrix(-356.283,-2901.69,-2901.69,356.283,5902.03,3431.68)"
       gradientUnits="userSpaceOnUse"
       y2="0"
       x2="1"
       y1="0"
       x1="0"><stop
         id="stop90"
         offset="0"
         style="stop-opacity:1;stop-color:#f8d110" /><stop
         id="stop92"
         offset="1"
         style="stop-opacity:1;stop-color:#f4a818" /></linearGradient><linearGradient
       id="linearGradient96"
       spreadMethod="pad"
       gradientTransform="matrix(-6638.99,1051.51,1051.51,6638.99,5931.91,1664.43)"
       gradientUnits="userSpaceOnUse"
       y2="0"
       x2="1"
       y1="0"
       x1="0"><stop
         id="stop98"
         offset="0"
         style="stop-opacity:1;stop-color:#2955a5" /><stop
         id="stop100"
         offset="0.46"
         style="stop-opacity:1;stop-color:#2860af" /><stop
         id="stop102"
         offset="1"
         style="stop-opacity:1;stop-color:#287bc4" /></linearGradient><clipPath
       id="clipPath110"
       clipPathUnits="userSpaceOnUse"><path
         id="path112"
         d="m 0,0 0,4864 10906,0 L 10906,0 0,0 Z"
         inkscape:connector-curvature="0" /></clipPath><clipPath
       id="clipPath116"
       clipPathUnits="userSpaceOnUse"><path
         style="clip-rule:evenodd"
         id="path118"
         d="m 1014.28,3578.19 c 0,-1194.57 0,-2304.47 0,-3499.0494 689.62,0 1379.23,0 2068.85,0 C 3085.01,537 3109.5,910.07 3094.43,1373.59 3338.44,1025.73 3464.68,664.441 3467.5,0 c 629.32,3.76953 1258.65,7.53906 1887.97,11.3086 11.52,14.0625 23.05,28.1328 34.57,42.1914 -142.95,186.039 -275.09,430.891 -379.49,627.262 -283.29,632.668 -493.96,1024.528 -822.56,1183.988 -156.14,83.32 -530.74,210.42 -963.55,266.29 -11.3,278.86 0,433.36 -11.3,712.22 376.37,-10.54 650.4,-68.02 180.85,-618.7 579.81,-184 1913.98,704.24 1170.12,1709.65 -489.6,655.08 -1938.52,511.84 -3402.86,463.52 -254.316,53.08 -347.996,234.79 -425.355,446.67 -30.524,8.56 -44.68,11.39 -80.344,19.89 C 439.617,4643.13 516.93,4423.85 728.91,4181.04 393.035,4118.06 281.223,4321.38 143.176,4665.24 102.07,4660.93 92.1094,4659.98 46.9063,4653.92 -131.582,4159.4 228.492,3884.62 635.551,3860.73 531.285,3716.27 286.105,3778.64 53.3398,3792.9 237.191,3490.27 563.148,3463.87 1014.28,3578.19 Z"
         inkscape:connector-curvature="0" /></clipPath><linearGradient
       id="linearGradient120"
       spreadMethod="pad"
       gradientTransform="matrix(5299.72,0,0,-5299.72,-140.469,4375.12)"
       gradientUnits="userSpaceOnUse"
       y2="0"
       x2="1"
       y1="0"
       x1="0"><stop
         id="stop122"
         offset="0"
         style="stop-opacity:1;stop-color:#4ca7db" /><stop
         id="stop124"
         offset="0.51"
         style="stop-opacity:1;stop-color:#ffffff" /><stop
         id="stop126"
         offset="1"
         style="stop-opacity:1;stop-color:#4ca7db" /></linearGradient><linearGradient
       id="linearGradient136"
       spreadMethod="pad"
       gradientTransform="matrix(-3.46e-5,-791.515,-791.515,3.46e-5,3091.58,2965.98)"
       gradientUnits="userSpaceOnUse"
       y2="0"
       x2="1"
       y1="0"
       x1="0"><stop
         id="stop138"
         offset="0"
         style="stop-opacity:1;stop-color:#4ca7db" /><stop
         id="stop140"
         offset="0.46"
         style="stop-opacity:1;stop-color:#ffffff" /><stop
         id="stop142"
         offset="1"
         style="stop-opacity:1;stop-color:#4ca7db" /></linearGradient><linearGradient
       id="linearGradient146"
       spreadMethod="pad"
       gradientTransform="matrix(90.93,-1735.05,-1735.05,-90.93,2941.32,1637.64)"
       gradientUnits="userSpaceOnUse"
       y2="0"
       x2="1"
       y1="0"
       x1="0"><stop
         id="stop148"
         offset="0"
         style="stop-opacity:1;stop-color:#4ca7db" /><stop
         id="stop150"
         offset="0.5"
         style="stop-opacity:1;stop-color:#ffffff" /><stop
         id="stop152"
         offset="1"
         style="stop-opacity:1;stop-color:#4ca7db" /></linearGradient><linearGradient
       id="linearGradient156"
       spreadMethod="pad"
       gradientTransform="matrix(972.781,-875.896,-875.896,-972.781,-64.5313,4690.02)"
       gradientUnits="userSpaceOnUse"
       y2="0"
       x2="1"
       y1="0"
       x1="0"><stop
         id="stop158"
         offset="0"
         style="stop-opacity:1;stop-color:#4ca7db" /><stop
         id="stop160"
         offset="0.46"
         style="stop-opacity:1;stop-color:#ffffff" /><stop
         id="stop162"
         offset="1"
         style="stop-opacity:1;stop-color:#4ca7db" /></linearGradient><linearGradient
       id="linearGradient166"
       spreadMethod="pad"
       gradientTransform="matrix(57915.9,-57915.9,-57915.9,-57915.9,-24633.9,30357.8)"
       gradientUnits="userSpaceOnUse"
       y2="0"
       x2="1"
       y1="0"
       x1="0"><stop
         id="stop168"
         offset="0"
         style="stop-opacity:1;stop-color:#4ca7db" /><stop
         id="stop170"
         offset="0.42"
         style="stop-opacity:1;stop-color:#ffffff" /><stop
         id="stop172"
         offset="0.89"
         style="stop-opacity:1;stop-color:#4ca7db" /><stop
         id="stop174"
         offset="1"
         style="stop-opacity:1;stop-color:#2860af" /></linearGradient></defs><g
     transform="matrix(1.25,0,0,-1.25,0,512.00002)"
     id="g10"><g
       transform="matrix(0.07470727,0,0,0.07470727,3.4622869,23.101107)"
       id="g12"
       style="fill:#ffffff"><g
         id="g24"
         style="fill:#ffffff"><g
           clip-path="url(#clipPath28)"
           id="g26"
           style="fill:#ffffff"><g
             clip-path="url(#clipPath34)"
             id="g32"
             style="fill:#ffffff" /></g></g><path
         id="path104"
         style="fill:#ffffff;fill-opacity:1;fill-rule:evenodd;stroke:none"
         d="m 1014.28,3578.19 c 0,-1194.57 0,-2304.47 0,-3499.0494 689.62,0 1379.23,0 2068.85,0 C 3085.01,537 3109.5,910.07 3094.43,1373.59 3338.44,1025.73 3464.68,664.441 3467.5,0 c 629.32,3.76953 1258.65,7.53906 1887.97,11.3086 11.52,14.0625 23.05,28.1328 34.57,42.1914 -142.95,186.039 -275.09,430.891 -379.49,627.262 -283.29,632.668 -493.96,1024.528 -822.56,1183.988 -156.14,83.32 -530.74,210.42 -963.55,266.29 -11.3,278.86 0,433.36 -11.3,712.22 376.37,-10.54 650.4,-68.02 180.85,-618.7 579.81,-184 1913.98,704.24 1170.12,1709.65 -489.6,655.08 -1938.52,511.84 -3402.86,463.52 -254.316,53.08 -347.996,234.79 -425.355,446.67 -30.524,8.56 -44.68,11.39 -80.344,19.89 C 439.617,4643.13 516.93,4423.85 728.91,4181.04 393.035,4118.06 281.223,4321.38 143.176,4665.24 102.07,4660.93 92.1094,4659.98 46.9063,4653.92 -131.582,4159.4 228.492,3884.62 635.551,3860.73 531.285,3716.27 286.105,3778.64 53.3398,3792.9 237.191,3490.27 563.148,3463.87 1014.28,3578.19"
         inkscape:connector-curvature="0" /><g
         id="g106"
         style="fill:#ffffff"><g
           clip-path="url(#clipPath110)"
           id="g108"
           style="fill:#ffffff"><g
             clip-path="url(#clipPath116)"
             id="g114"
             style="fill:#ffffff" /></g></g></g></g></svg>