<?xml version="1.0" encoding="UTF-8" standalone="no"?>
<svg
   xmlns:dc="http://purl.org/dc/elements/1.1/"
   xmlns:cc="http://creativecommons.org/ns#"
   xmlns:rdf="http://www.w3.org/1999/02/22-rdf-syntax-ns#"
   xmlns:svg="http://www.w3.org/2000/svg"
   xmlns="http://www.w3.org/2000/svg"
   version="1.1"
   id="svg3423"
   viewBox="0 0 512.00001 512.00001"
   height="512"
   width="512">
  <defs
     id="defs3425" />
  <metadata
     id="metadata3428">
    <rdf:RDF>
      <cc:Work
         rdf:about="">
        <dc:format>image/svg+xml</dc:format>
        <dc:type
           rdf:resource="http://purl.org/dc/dcmitype/StillImage" />
        <dc:title></dc:title>
      </cc:Work>
    </rdf:RDF>
  </metadata>
  <g
     transform="translate(0,-540.36216)"
     id="layer1">
    <path
       style="fill:#ffffff"
       d="m 470.85249,1042.2077 c -20.36178,-12.5228 -54.83069,-35.3383 -58.86388,-38.963 -4.75912,-4.27707 -31.5788,-22.84449 -73.16444,-50.65212 C 276.1785,910.70241 237.1918,883.41811 222.78995,871.38761 l -3.42959,-2.86486 3.42959,0.63282 c 1.88627,0.34806 8.57396,2.01485 14.86152,3.70399 6.28757,1.68912 13.23248,3.5018 15.43313,4.02813 11.1801,2.67403 23.81239,5.84449 26.86506,6.7426 1.88628,0.55495 7.28787,1.85687 12.00355,2.89314 4.71567,1.03628 10.37448,2.3348 12.57513,2.88561 2.20065,0.55081 8.3739,1.85078 13.71833,2.88883 5.34444,1.03806 11.5609,2.41714 13.81437,3.06463 4.99381,1.43487 7.84962,0.97352 9.42095,-1.52187 0.93547,-1.48552 -1.32668,-6.83477 -10.63571,-25.15028 C 314.60046,836.72665 306.93774,822 300.28732,809.96047 c -3.11749,-5.64374 -7.48495,-13.60518 -9.70549,-17.6921 -8.28702,-15.25253 -24.42732,-44.68276 -35.73648,-65.16208 -6.42361,-11.632 -14.26604,-26.03625 -17.42766,-32.00944 -12.66865,-23.93407 -19.19229,-36.39541 -26.2626,-50.1664 l -7.40562,-14.42408 0.49626,-13.14674 c 0.273,-7.2307 1.40659,-16.74779 2.51915,-21.14909 1.11255,-4.4013 2.23426,-10.06011 2.4925,-12.57514 0.44585,-4.33972 1.86078,-9.37171 9.29829,-33.06856 l 3.20289,-10.20468 5.00056,7.91783 c 8.93692,14.15055 11.62606,19.00077 24.03955,43.35777 18.77708,36.84301 34.10708,66.61291 38.8534,75.45083 2.36378,4.4013 10.34534,19.83442 17.737,34.29583 7.39155,14.46141 17.16701,33.49559 21.7231,42.29819 15.82192,30.56876 40.92795,78.93843 46.2829,89.16916 2.96179,5.65881 9.64799,18.51975 14.8581,28.57986 5.21011,10.06011 11.3925,21.89217 13.73868,26.29347 2.34618,4.40129 9.04896,17.26223 14.89514,28.57985 5.84629,11.31763 14.4733,27.77964 19.17137,36.58223 4.69795,8.8026 10.5997,19.86301 13.11507,24.57868 8.59613,16.11607 37.60229,74.49554 37.20891,74.88894 -0.21583,0.2158 -8.10433,-4.3503 -17.52985,-10.1471 z M 23.978522,1002.0445 c 0.75619,-8.51561 1.40291,-10.2479 9.3896,-25.15023 10.79655,-20.14526 29.07566,-56.2413 35.31389,-69.73487 2.61614,-5.65881 7.04838,-15.17591 9.84941,-21.1491 5.89996,-12.58163 7.96876,-17.14742 14.50377,-32.00944 2.62648,-5.97319 5.94919,-13.43253 7.383788,-16.57632 1.43461,-3.14378 6.85783,-15.49028 12.0516,-27.43666 5.19378,-11.94638 10.91982,-24.94881 12.72454,-28.89428 1.8047,-3.94549 3.28128,-7.38748 3.28128,-7.64889 0,-0.26141 2.05775,-4.90892 4.57278,-10.3278 2.51503,-5.41888 4.57278,-10.06402 4.57278,-10.32254 0,-0.46489 2.3814,-5.78842 9.86646,-22.05618 2.11846,-4.60441 3.85188,-8.54083 3.85188,-8.74761 0,-0.45558 6.7445,-14.90291 17.26749,-36.98853 l 7.80562,-16.38236 5.43989,6.66521 c 23.26835,28.50918 26.3392,33.43631 27.40511,43.97128 1.19167,11.77681 6.31569,3.4971 -106.028,171.3269 -24.200818,36.15352 -47.646088,71.3925 -52.100598,78.30883 -4.45453,6.91632 -11.12326,17.16186 -14.81943,22.76797 -3.69615,5.60611 -7.66781,11.77932 -8.8259,13.71832 -3.93583,6.5898 -4.35203,6.1941 -3.50596,-3.3337 z"
       id="path3536" />
  </g>
</svg>
