<?xml version="1.0" encoding="UTF-8" standalone="no"?>
<svg
   xmlns:dc="http://purl.org/dc/elements/1.1/"
   xmlns:cc="http://creativecommons.org/ns#"
   xmlns:rdf="http://www.w3.org/1999/02/22-rdf-syntax-ns#"
   xmlns:svg="http://www.w3.org/2000/svg"
   xmlns="http://www.w3.org/2000/svg"
   xmlns:sodipodi="http://sodipodi.sourceforge.net/DTD/sodipodi-0.dtd"
   xmlns:inkscape="http://www.inkscape.org/namespaces/inkscape"
   width="512"
   height="512"
   id="svg2"
   version="1.1"
   inkscape:version="0.91 r13725"
   sodipodi:docname="aol.svg">
  <metadata
     id="metadata20">
    <rdf:RDF>
      <cc:Work
         rdf:about="">
        <dc:format>image/svg+xml</dc:format>
        <dc:type
           rdf:resource="http://purl.org/dc/dcmitype/StillImage" />
        <dc:title></dc:title>
      </cc:Work>
    </rdf:RDF>
  </metadata>
  <defs
     id="defs18" />
  <sodipodi:namedview
     pagecolor="#ffffff"
     bordercolor="#666666"
     borderopacity="1"
     objecttolerance="10"
     gridtolerance="10"
     guidetolerance="10"
     inkscape:pageopacity="0"
     inkscape:pageshadow="2"
     inkscape:window-width="1366"
     inkscape:window-height="706"
     id="namedview16"
     showgrid="false"
     inkscape:zoom="0.52325902"
     inkscape:cx="-337.23879"
     inkscape:cy="243.24131"
     inkscape:window-x="-8"
     inkscape:window-y="-8"
     inkscape:window-maximized="1"
     inkscape:current-layer="svg2" />
  <g
     transform="matrix(5.1723694,0,0,5.1723694,-1080.8641,-3182.2639)"
     id="g4"
     style="fill:#ffffff">
    <g
       transform="matrix(0.2576927,0,0,0.2576927,155.23992,508.16265)"
       id="g6"
       style="fill:#ffffff">
      <path
         d="m 420,564.1 c -34.5,0 -60.6,26.8 -60.6,60 0,35 27.2,60 60.6,60 33.4,0 60.5,-25 60.5,-60 0,-33.2 -26,-60 -60.5,-60 z m 0,31.7 c 14.9,-0.1 27.1,12.6 27.1,28.3 0,15.6 -12.2,28.3 -27.1,28.3 -14.9,0 -27.1,-12.7 -27.1,-28.3 0,-15.7 12.2,-28.3 27.1,-28.3 z"
         style="stroke:none;stroke-width:0.43820944;fill:#ffffff"
         id="path8"
         inkscape:connector-curvature="0" />
      <path
         d="m 507,397.4 c 0,11.6 -9.4,21 -21,21 -11.6,0 -21,-9.4 -21,-21 0,-11.6 9.4,-21 21,-21 11.6,0 21,9.4 21,21 z"
         style="stroke:none;stroke-width:0.1;fill:#ffffff"
         transform="translate(85.630073,265.696)"
         id="path10"
         inkscape:connector-curvature="0" />
      <path
         style="stroke:none;stroke-width:1px;fill:#ffffff"
         d="m 531.5,680.1 -33,0 0,-149 33,0 0,149 z"
         id="path12"
         inkscape:connector-curvature="0" />
      <path
         d="m 208.5,680.1 60,-149 31,0 59,149 -42,0 -7,-21 -52,0 -7,21 -42,0 z m 91,-52 -31,0 15.5,-50 15.5,50 z"
         style="fill-rule:evenodd;stroke:none;stroke-width:0.2;fill:#ffffff"
         id="path14"
         inkscape:connector-curvature="0" />
    </g>
  </g>
</svg>
