<?xml version="1.0" encoding="UTF-8" standalone="no"?>
<svg
   xmlns:dc="http://purl.org/dc/elements/1.1/"
   xmlns:cc="http://creativecommons.org/ns#"
   xmlns:rdf="http://www.w3.org/1999/02/22-rdf-syntax-ns#"
   xmlns:svg="http://www.w3.org/2000/svg"
   xmlns="http://www.w3.org/2000/svg"
   version="1.1"
   id="svg2"
   viewBox="0 0 512.00001 512.00001"
   height="512"
   width="512">
  <defs
     id="defs4" />
  <metadata
     id="metadata7">
    <rdf:RDF>
      <cc:Work
         rdf:about="">
        <dc:format>image/svg+xml</dc:format>
        <dc:type
           rdf:resource="http://purl.org/dc/dcmitype/StillImage" />
        <dc:title></dc:title>
      </cc:Work>
    </rdf:RDF>
  </metadata>
  <g
     transform="translate(0,-540.36216)"
     id="layer1">
    <path
       style="fill:#ffffff"
       d="m 252.62847,974.85696 -87.41403,-53.21966 -68.646898,0 c -76.97674,0 -82.16512,-1.06573 -91.6940342,-18.83353 C 0.31880984,894.31125 1.0383621e-4,883.88676 1.0383621e-4,743.39309 1.0383621e-4,579.009 -0.18925316,581.11246 15.565232,570.41647 c 6.6979,-4.54723 20.34866,-4.86487 238.488478,-5.54709 255.85782,-0.80063 241.87929,-1.69568 252.78384,16.1884 5.00302,8.20502 5.20438,14.42019 5.15771,159.22372 -0.0453,140.89452 -0.36938,151.39156 -4.98595,161.55548 -8.49172,18.69698 -13.51581,19.80032 -90.1605,19.80032 -48.09236,0 -67.2878,0.88251 -69.60542,3.2004 -2.26242,2.26214 -3.20067,17.89848 -3.20067,53.33994 0,27.57676 -0.89984,50.08536 -2.00024,50.01926 -1.09987,-0.067 -41.33632,-24.0691 -89.41401,-53.33994 z m 18.48495,-137.20393 c 7.36038,-2.18587 18.36921,-7.58654 24.4641,-12.00148 6.09462,-4.41495 11.69158,-8.02713 12.43781,-8.02713 0.74596,0 1.35643,2.95796 1.35643,6.57361 0,8.18262 6.90166,12.09537 21.33598,12.09537 22.6564,0 21.33597,5.74844 21.33597,-92.90538 0,-64.40904 -0.84117,-88.22506 -3.20039,-90.58402 -1.75995,-1.76021 -9.92096,-3.20039 -18.13558,-3.20039 -16.79515,0 -21.33598,2.97743 -21.33598,13.99053 l 0,7.58974 -12.46314,-9.51638 c -43.99692,-33.59429 -107.94724,-13.43686 -129.24481,40.73811 -8.44158,21.47333 -8.46718,59.55005 -0.0533,80.9399 17.03998,43.32483 61.65697,66.73493 103.50402,54.30752 z m -36.41597,-39.02697 c -9.46624,-3.7746 -18.2876,-12.64529 -24.86895,-25.00709 -4.34134,-8.15488 -5.67937,-15.38031 -5.67937,-30.67047 0,-23.68213 6.25944,-38.11512 21.60668,-49.8211 8.17461,-6.23517 12.88026,-7.60334 28.69475,-8.34424 17.17386,-0.8041 20.04195,-0.16268 31.12732,6.95473 16.4279,10.54851 24.51984,27.449 24.51984,51.21061 0,36.20235 -20.34999,58.84222 -52.58758,58.50485 -8.88057,-0.0933 -19.14637,-1.36524 -22.81269,-2.82729 z"
       id="path3353" />
  </g>
</svg>
