<?xml version="1.0" encoding="UTF-8" standalone="no"?>
<!-- Generator: Adobe Illustrator 18.1.1, SVG Export Plug-In . SVG Version: 6.00 Build 0)  -->

<svg
   xmlns:dc="http://purl.org/dc/elements/1.1/"
   xmlns:cc="http://creativecommons.org/ns#"
   xmlns:rdf="http://www.w3.org/1999/02/22-rdf-syntax-ns#"
   xmlns:svg="http://www.w3.org/2000/svg"
   xmlns="http://www.w3.org/2000/svg"
   xmlns:sodipodi="http://sodipodi.sourceforge.net/DTD/sodipodi-0.dtd"
   xmlns:inkscape="http://www.inkscape.org/namespaces/inkscape"
   version="1.1"
   id="Capa_1"
   x="0px"
   y="0px"
   viewBox="0 0 18.679 18.679"
   style="enable-background:new 0 0 18.679 18.679;"
   xml:space="preserve"
   width="512px"
   height="512px"
   inkscape:version="0.91 r13725"
   sodipodi:docname="ask.svg"><metadata
   id="metadata79"><rdf:RDF><cc:Work
       rdf:about=""><dc:format>image/svg+xml</dc:format><dc:type
         rdf:resource="http://purl.org/dc/dcmitype/StillImage" /><dc:title /></cc:Work></rdf:RDF></metadata><defs
   id="defs77" /><sodipodi:namedview
   pagecolor="#ffffff"
   bordercolor="#666666"
   borderopacity="1"
   objecttolerance="10"
   gridtolerance="10"
   guidetolerance="10"
   inkscape:pageopacity="0"
   inkscape:pageshadow="2"
   inkscape:window-width="1366"
   inkscape:window-height="706"
   id="namedview75"
   showgrid="false"
   inkscape:zoom="0.921875"
   inkscape:cx="418.31246"
   inkscape:cy="279.31405"
   inkscape:window-x="-8"
   inkscape:window-y="-8"
   inkscape:window-maximized="1"
   inkscape:current-layer="g5" />
<g
   id="g3">
	<g
   id="g5">
		
		
		<g
   id="g3367"
   style="fill:#ffffff"
   transform="matrix(1.0438517,0,0,1.0438517,-0.23679511,0.27208255)"><path
     style="fill:#ffffff"
     inkscape:connector-curvature="0"
     id="path7"
     d="M 3.1219443,12.969994 5.4560998,12.822448 5.4840139,14.671429 7.1243031,14.385641 6.3360604,2.6989128 0.22684722,15.397197 2.211411,15.175213 3.1219443,12.969994 Z m 2.3035828,-5.3236288 0,3.4959158 -1.4821089,0.135583 1.4821089,-3.6314988 z" /><path
     style="fill:#ffffff"
     inkscape:connector-curvature="0"
     id="path9"
     d="m 12.006623,12.051485 c 0,0 0.244581,-1.288039 -1.673521,-2.7369164 0,0 -0.8746434,-1.2255645 0.63538,-1.1644192 0,0 0.285788,-0.030573 0.820144,0.2857878 l 0.408079,-1.1989796 c 0,0 -1.228223,-1.260125 -2.7103323,-0.253886 0,0 -1.2601249,0.5051134 -1.0700427,1.9247478 0.030573,0.2193255 -0.253886,0.5662587 1.136505,1.8569566 0,0 0.752353,0.945093 0.389469,1.482109 0,0 0,0.576892 -1.8768949,0.124949 l -0.3735181,1.47945 c 0,0 3.716571,0.777609 4.314732,-1.799799 z" /><polygon
     style="fill:#ffffff"
     transform="matrix(1.3292457,0,0,1.3292457,-3.0205,-2.8599927)"
     id="polygon11"
     points="15.263,11.798 14.292,9.271 15.905,6.932 14.578,6.932 13.3,8.78 14.22,3.638 12.898,3.638 11.448,12.295 11.568,12.295 12.679,12.193 13.153,10.008 13.845,12.003 " /></g>
		
	</g>
	<g
   id="g15">
	</g>
	<g
   id="g17">
	</g>
	<g
   id="g19">
	</g>
	<g
   id="g21">
	</g>
	<g
   id="g23">
	</g>
	<g
   id="g25">
	</g>
	<g
   id="g27">
	</g>
	<g
   id="g29">
	</g>
	<g
   id="g31">
	</g>
	<g
   id="g33">
	</g>
	<g
   id="g35">
	</g>
	<g
   id="g37">
	</g>
	<g
   id="g39">
	</g>
	<g
   id="g41">
	</g>
	<g
   id="g43">
	</g>
</g>
<g
   id="g45">
</g>
<g
   id="g47">
</g>
<g
   id="g49">
</g>
<g
   id="g51">
</g>
<g
   id="g53">
</g>
<g
   id="g55">
</g>
<g
   id="g57">
</g>
<g
   id="g59">
</g>
<g
   id="g61">
</g>
<g
   id="g63">
</g>
<g
   id="g65">
</g>
<g
   id="g67">
</g>
<g
   id="g69">
</g>
<g
   id="g71">
</g>
<g
   id="g73">
</g>
</svg>