<?xml version="1.0" encoding="iso-8859-1"?>
<!-- Generator: Adobe Illustrator 16.0.0, SVG Export Plug-In . SVG Version: 6.00 Build 0)  -->
<!DOCTYPE svg PUBLIC "-//W3C//DTD SVG 1.1//EN" "http://www.w3.org/Graphics/SVG/1.1/DTD/svg11.dtd">
<svg xmlns="http://www.w3.org/2000/svg" xmlns:xlink="http://www.w3.org/1999/xlink" version="1.1" id="Capa_1" x="0px" y="0px" width="512px" height="512px" viewBox="0 0 901.417 901.418" style="enable-background:new 0 0 901.417 901.418;" xml:space="preserve">
<g>
	<g>
		<path d="M890.708,64.779c-39.6-27.7-162-95.8-298.1,4.9c-44.4-14.1-92.101-21.8-141.9-21.8s-97.5,7.7-141.9,21.8    c-136.1-100.7-258.5-32.7-298.1-4.9c-8.2,5.7-12.2,15.8-10.2,25.6l46.2,221.8c-13.1,36.7-20.2,75.9-20.2,116.5    c0,96.2,39.7,184.1,105.3,251.1c14.6,16.301,86.7,98.801,124.5,176.801c8.4,17.3,25.8,28.399,45.1,28.399h50.399    c27.601,0,50-22.399,50-50v-27.899c16,1.699,32.4,2.5,48.9,2.5s32.8-0.9,48.9-2.5v27.899c0,27.601,22.399,50,50,50h50.399    c19.2,0,36.7-11.1,45.101-28.399c37.699-77.9,109.899-160.4,124.5-176.801c65.5-67,105.3-154.899,105.3-251.1    c0-40.6-7.101-79.8-20.2-116.5l46.2-221.8C902.909,80.579,898.909,70.479,890.708,64.779z M273.109,315.779v-59.4    c0-13.8,11.199-25,25-25h2.699c13.801,0,25,11.2,25,25v59.4c0,13.8-11.199,25-25,25h-2.699    C284.308,340.778,273.109,329.679,273.109,315.779z M450.708,645.479c-93.9,0-170-58.899-170-131.6s76.1-131.601,170-131.601    s170,58.9,170,131.601S544.609,645.479,450.708,645.479z M630.609,315.779c0,13.8-11.2,25-25,25h-2.7c-13.8,0-25-11.199-25-25    v-59.4c0-13.8,11.2-25,25-25h2.7c13.8,0,25,11.2,25,25V315.779z" fill="#FFFFFF"/>
		<ellipse cx="383.409" cy="513.878" rx="33.399" ry="36.1" fill="#FFFFFF"/>
		<ellipse cx="518.008" cy="513.878" rx="33.4" ry="36.1" fill="#FFFFFF"/>
	</g>
</g>
<g>
</g>
<g>
</g>
<g>
</g>
<g>
</g>
<g>
</g>
<g>
</g>
<g>
</g>
<g>
</g>
<g>
</g>
<g>
</g>
<g>
</g>
<g>
</g>
<g>
</g>
<g>
</g>
<g>
</g>
</svg>
