<?xml version="1.0" encoding="UTF-8" standalone="no"?>
<svg
   xmlns:dc="http://purl.org/dc/elements/1.1/"
   xmlns:cc="http://creativecommons.org/ns#"
   xmlns:rdf="http://www.w3.org/1999/02/22-rdf-syntax-ns#"
   xmlns:svg="http://www.w3.org/2000/svg"
   xmlns="http://www.w3.org/2000/svg"
   version="1.1"
   id="svg2"
   viewBox="0 0 511.99999 511.99999"
   height="512"
   width="512">
  <defs
     id="defs4" />
  <metadata
     id="metadata7">
    <rdf:RDF>
      <cc:Work
         rdf:about="">
        <dc:format>image/svg+xml</dc:format>
        <dc:type
           rdf:resource="http://purl.org/dc/dcmitype/StillImage" />
        <dc:title></dc:title>
      </cc:Work>
    </rdf:RDF>
  </metadata>
  <g
     transform="translate(0,-540.36219)"
     id="layer1">
    <path
       style="fill:#ffffff"
       d="m 256.9984,1050.6972 c -29.03116,-4.503 -44.20981,-11.5209 -61.47998,-28.4253 -25.18556,-24.65222 -25.50545,-26.54138 -25.50545,-150.62703 0,-109.13381 -1.19635,-129.58888 -7.72576,-132.09294 -2.2087,-0.84704 -6.93165,1.19755 -10.49543,4.54356 -13.64592,12.81193 -30.12347,4.1441 -26.18546,-13.77461 2.59037,-11.7868 20.0056,-30.69828 31.87449,-34.613 15.01263,-4.95162 41.14653,-2.31953 51.72676,5.20971 16.83731,11.982 19.38294,21.97924 20.4343,80.25039 0.87881,48.70905 1.28667,52.14649 5.72514,48.2524 15.71398,-13.78671 52.22902,-23.72887 76.17049,-20.73938 61.39705,7.66642 93.6226,66.45464 77.70599,141.75695 -2.16183,10.2275 -3.58531,18.96975 -3.16341,19.42722 0.42195,0.45748 8.35205,-7.44079 17.62246,-17.55174 18.94384,-20.66139 40.23666,-58.83642 49.71451,-89.13112 9.62357,-30.76051 11.00433,-76.33659 3.25194,-107.33881 C 439.16164,685.83086 389.57473,630.68368 324.30884,608.64153 292.33665,597.8436 240.68116,595.23383 209.22323,602.82704 147.32153,617.7687 93.500101,660.49442 65.947676,716.56516 44.233719,760.75431 39.074483,802.18091 49.745365,846.66349 c 10.265487,42.79272 28.364305,75.11865 64.161435,114.59733 19.94672,21.99818 22.91383,30.42699 13.65789,38.79848 -6.45484,5.838 -20.02828,5.9863 -27.684649,0.3025 C 70.941997,978.87925 33.315628,929.68312 18.790325,894.33766 -8.9478185,826.84053 -5.8683534,750.285 27.315425,682.40317 100.56342,532.56474 292.49184,493.65999 422.00845,602.39712 c 74.17325,62.27298 106.74216,167.19409 81.60428,262.89002 -17.87713,68.05577 -74.10151,132.95777 -144.9073,167.27216 -34.89691,16.912 -69.65199,23.11 -101.70703,18.1379 z m 43.26144,-57.00543 c 14.14496,-6.49147 19.45189,-12.33005 27.70871,-30.48457 9.36664,-20.59474 9.51606,-63.93739 0.27165,-78.79257 -21.50854,-34.56279 -81.27842,-14.65462 -96.87246,32.26631 -6.8324,20.55809 -4.91763,59.96489 3.31334,68.1894 13.80236,13.79151 45.46749,18.05096 65.57879,8.82143 z"
       id="path3399" />
  </g>
</svg>
