<?xml version="1.0" encoding="iso-8859-1"?>
<!DOCTYPE svg PUBLIC "-//W3C//DTD SVG 1.1//EN" "http://www.w3.org/Graphics/SVG/1.1/DTD/svg11.dtd">
<svg xmlns="http://www.w3.org/2000/svg" xmlns:xlink="http://www.w3.org/1999/xlink" version="1.1" viewBox="0 0 512 512" enable-background="new 0 0 512 512" width="512px" height="512px">
  <g>
    <path d="m112,272c0-79.425 52.409-145.329 120.786-157.725-20.489-30.5-52.616-50.283-88.786-50.283-61.758,0-112,57.422-112,128 0,60.123 36.553,110.439 85.532,124.101-3.582-14.048-5.532-28.834-5.532-44.093z" fill="#FFFFFF"/>
    <path d="m113.687,328.836c-2.477,4.961-2.211,10.852 0.703,15.57 2.914,4.711 8.063,7.586 13.609,7.586 0,19.281-1.789,39.008-23.164,49.695-7.906,3.953-11.109,13.563-7.156,21.469 2.805,5.609 8.453,8.844 14.328,8.844 2.398,0 4.844-0.539 7.141-1.688 21.872-10.939 31.979-27.642 36.7-43.467-17.267-18.535-30.235-41.634-37.383-67.566l-4.778,9.557z" fill="#FFFFFF"/>
    <path d="M480,128C480,57.422,429.758,0,368,0S256,57.422,256,128c0,61.023,37.588,112.13,87.675,124.87l-5.987,11.974   c-2.477,4.961-2.211,10.852,0.703,15.57c2.913,4.709,8.06,7.583,13.602,7.585V288c0,17.32,0,57.891,40.852,78.313   c2.297,1.148,4.742,1.688,7.141,1.688c5.875,0,11.523-3.242,14.328-8.844c3.953-7.906,0.742-17.516-7.156-21.469   C385.781,327.008,383.992,307,383.992,288H384c5.547,0,10.695-2.875,13.609-7.586c2.914-4.719,3.18-10.609,0.703-15.57   l-5.987-11.974C442.412,240.13,480,189.023,480,128z" fill="#FFFFFF"/>
    <path d="m311.164,297.228c-4.911-7.952-7.326-16.902-7.199-25.867-42.813-23.388-72.401-69.009-78.635-122.361-46.876,15.293-81.33,64.587-81.33,123 0,61.023 37.588,112.13 87.675,124.87l-5.987,11.974c-2.477,4.961-2.211,10.852 0.703,15.57 2.914,4.711 8.062,7.586 13.609,7.586 0,19.281-1.789,39.008-23.164,49.688-7.898,3.953-11.109,13.563-7.156,21.469 2.805,5.609 8.453,8.844 14.328,8.844 2.398,0 4.844-0.539 7.141-1.688 40.851-20.422 40.851-60.993 40.851-78.313 5.547,0 10.695-2.875 13.609-7.586 2.914-4.719 3.18-10.609 0.703-15.57l-5.987-11.974c22.525-5.729 42.257-19.509 57.444-38.17-10.995-17.253-15.349-35.613-16.873-50.103-3.75-3.202-7.04-7.018-9.732-11.369z" fill="#FFFFFF"/>
  </g>
</svg>
