<?xml version="1.0" encoding="UTF-8" standalone="no"?>
<svg
   xmlns:dc="http://purl.org/dc/elements/1.1/"
   xmlns:cc="http://creativecommons.org/ns#"
   xmlns:rdf="http://www.w3.org/1999/02/22-rdf-syntax-ns#"
   xmlns:svg="http://www.w3.org/2000/svg"
   xmlns="http://www.w3.org/2000/svg"
   xmlns:sodipodi="http://sodipodi.sourceforge.net/DTD/sodipodi-0.dtd"
   xmlns:inkscape="http://www.inkscape.org/namespaces/inkscape"
   viewBox="0 0 512 512"
   height="512"
   width="512"
   xml:space="preserve"
   version="1.1"
   id="svg2"
   inkscape:version="0.91 r13725"
   sodipodi:docname="Booking.svg"><sodipodi:namedview
     pagecolor="#ffffff"
     bordercolor="#666666"
     borderopacity="1"
     objecttolerance="10"
     gridtolerance="10"
     guidetolerance="10"
     inkscape:pageopacity="0"
     inkscape:pageshadow="2"
     inkscape:window-width="1366"
     inkscape:window-height="706"
     id="namedview30"
     showgrid="false"
     inkscape:zoom="0.5"
     inkscape:cx="256"
     inkscape:cy="256"
     inkscape:window-x="-8"
     inkscape:window-y="-8"
     inkscape:window-maximized="1"
     inkscape:current-layer="svg2" /><metadata
     id="metadata8"><rdf:RDF><cc:Work
         rdf:about=""><dc:format>image/svg+xml</dc:format><dc:type
           rdf:resource="http://purl.org/dc/dcmitype/StillImage" /><dc:title></dc:title></cc:Work></rdf:RDF></metadata><defs
     id="defs6" /><g
     id="g3418"
     transform="matrix(8.8367454,0,0,8.9299924,-7.7923068e-4,-14.356916)"
     style="fill:#ffffff"><path
       inkscape:connector-curvature="0"
       d="M 12.274413,33.86875 C 11.113288,34.605 10.919925,36.08 10.889163,37.34 c -0.0093,3.6775 0.0044,7.355 0.0044,11.02875 3.3902,-0.01875 6.7852,0.02625 10.1802,-0.0087 2.318875,-0.04625 4.6865,-1.27875 5.78075,-3.37375 1.650375,-3.17 1.327625,-7.63625 -1.493125,-10.05 -2.310125,-1.9375 -5.498625,-1.695 -8.315,-1.7125 -1.587375,0.06625 -3.358875,-0.265 -4.771962,0.645 l 0,0 z M 11.95605,12.0275 c -0.950675,0.84 -1.03125,2.185 -1.066887,3.365 -0.0093,3.03125 0.0088,6.05875 0,9.09 2.950712,-0.01375 5.901837,0.04 8.853087,-0.01375 1.7665,-0.035 3.546875,-0.80625 4.627875,-2.2325 C 26.5005,19.33 26.379375,14.54 23.34325,12.2975 c -2.081,-1.52 -4.78125,-1.095 -7.193875,-1.16125 -1.408125,0.035 -3.08975,-0.18875 -4.193325,0.89125 l 0,0 z M 0.00927735,7.78125 C -0.1840825,4.615 2.7041,1.7575 5.8432625,1.83875 c 4.7856505,0 9.5708625,-0.00375 14.3559875,0 4.713875,0.1075 9.700125,1.49375 13.03225,5 5.140125,5.30125 4.8305,14.72875 -0.466375,19.81375 -0.623,0.58375 -1.28225,1.1175 -1.92825,1.66875 2.727125,1.3675 5.252,3.345 6.610375,6.14375 2.462375,5.0275 2.166,11.43625 -0.96825,16.11 -3.44875,5.12125 -9.857375,7.29125 -15.80425,7.42625 -6.88425,0.0225 -13.7729,0 -20.66107812,0.0087 C 0.00927735,41.26875 0.01806637,24.5275 0.00927735,7.78125 l 0,0"
       style="fill:#ffffff;fill-opacity:1;fill-rule:nonzero;stroke:none"
       id="path56" /><path
       inkscape:connector-curvature="0"
       d="m 49.30925,45.265 c 3.92375,-1.21125 8.38125,1.90125 8.5925,6.00125 0.4075,3.605 -2.4975,7.1575 -6.13125,7.39875 C 48.188,59.1225 44.63175,56.26625 44.32175,52.66875 43.8505,49.4 46.093,46.05 49.30925,45.265 l 0,0"
       style="fill:#ffffff;fill-opacity:1;fill-rule:nonzero;stroke:none"
       id="path58" /></g></svg>