<?xml version="1.0" encoding="iso-8859-1"?>
<!-- Generator: Adobe Illustrator 18.0.0, SVG Export Plug-In . SVG Version: 6.00 Build 0)  -->
<!DOCTYPE svg PUBLIC "-//W3C//DTD SVG 1.1//EN" "http://www.w3.org/Graphics/SVG/1.1/DTD/svg11.dtd">
<svg xmlns="http://www.w3.org/2000/svg" xmlns:xlink="http://www.w3.org/1999/xlink" version="1.1" id="Capa_1" x="0px" y="0px" viewBox="0 0 210 210" style="enable-background:new 0 0 210 210;" xml:space="preserve" width="512px" height="512px">
<path d="M93.655,0H0v93.655h93.655V0z M76.828,55.608h-21.22v21.22h-17.56v-21.22h-21.22v-17.56h21.22v-21.22h17.56v21.22h21.22  V55.608z M210,0h-93.655v93.655H210V0z M190.594,61.833L178.177,74.25l-15.005-15.005L148.167,74.25L135.75,61.833l15.005-15.005  L135.75,31.823l12.417-12.417l15.005,15.005l15.005-15.005l12.417,12.417l-15.005,15.005L190.594,61.833z M0,210h93.655v-93.655H0  V210z M21.828,154.393h50v17.561h-50V154.393z M116.345,210H210v-93.655h-93.655V210z M138.172,138.075h50v17.561h-50V138.075z   M138.172,170.709h50v17.561h-50V170.709z" fill="#FFFFFF"/>
<g>
</g>
<g>
</g>
<g>
</g>
<g>
</g>
<g>
</g>
<g>
</g>
<g>
</g>
<g>
</g>
<g>
</g>
<g>
</g>
<g>
</g>
<g>
</g>
<g>
</g>
<g>
</g>
<g>
</g>
</svg>
