<?xml version="1.0" encoding="UTF-8" standalone="no"?>
<!-- Generator: Adobe Illustrator 18.1.1, SVG Export Plug-In . SVG Version: 6.00 Build 0)  -->

<svg
   xmlns:dc="http://purl.org/dc/elements/1.1/"
   xmlns:cc="http://creativecommons.org/ns#"
   xmlns:rdf="http://www.w3.org/1999/02/22-rdf-syntax-ns#"
   xmlns:svg="http://www.w3.org/2000/svg"
   xmlns="http://www.w3.org/2000/svg"
   xmlns:sodipodi="http://sodipodi.sourceforge.net/DTD/sodipodi-0.dtd"
   xmlns:inkscape="http://www.inkscape.org/namespaces/inkscape"
   version="1.1"
   id="Capa_1"
   x="0px"
   y="0px"
   viewBox="0 0 32 32"
   style="enable-background:new 0 0 32 32;"
   xml:space="preserve"
   width="512px"
   height="512px"
   inkscape:version="0.91 r13725"
   sodipodi:docname="news.svg"><metadata
   id="metadata66"><rdf:RDF><cc:Work
       rdf:about=""><dc:format>image/svg+xml</dc:format><dc:type
         rdf:resource="http://purl.org/dc/dcmitype/StillImage" /></cc:Work></rdf:RDF></metadata><defs
   id="defs64" /><sodipodi:namedview
   pagecolor="#ffffff"
   bordercolor="#666666"
   borderopacity="1"
   objecttolerance="10"
   gridtolerance="10"
   guidetolerance="10"
   inkscape:pageopacity="0"
   inkscape:pageshadow="2"
   inkscape:window-width="1366"
   inkscape:window-height="706"
   id="namedview62"
   showgrid="false"
   inkscape:zoom="0.65186406"
   inkscape:cx="537.7261"
   inkscape:cy="181.75799"
   inkscape:window-x="-8"
   inkscape:window-y="-8"
   inkscape:window-maximized="1"
   inkscape:current-layer="Capa_1" />

<g
   id="g32">
</g>
<g
   id="g34">
</g>
<g
   id="g36">
</g>
<g
   id="g38">
</g>
<g
   id="g40">
</g>
<g
   id="g42">
</g>
<g
   id="g44">
</g>
<g
   id="g46">
</g>
<g
   id="g48">
</g>
<g
   id="g50">
</g>
<g
   id="g52">
</g>
<g
   id="g54">
</g>
<g
   id="g56">
</g>
<g
   id="g58">
</g>
<g
   id="g60">
</g>
<path
   style="fill:#ffffff"
   d="M 1.4967768,22.20103 C -0.34899662,21.605998 -0.51105872,18.463718 1.140864,15.300516 2.5155755,12.66816 4.7942372,10.616963 6.7442382,10.256483 c 1.116355,-0.206352 1.666164,0.246292 1.598074,1.315652 -0.07988,1.254152 -1.495535,3.196575 -2.329728,3.196575 -0.194466,0 -0.163087,-0.106296 0.180347,-0.610508 0.914471,-1.342645 1.263333,-2.87756 0.686914,-3.022235 -0.271067,-0.06804 -0.953008,0.1793 -1.507809,0.546854 -1.5735305,1.042499 -3.3371046,3.701315 -3.896851,5.87502 -0.2781266,1.080112 -0.2642362,2.333996 0.032335,2.902163 0.1968793,0.377409 0.5763329,0.659006 1.0118353,0.750965 0.4024115,0.08498 1.3344704,-0.166685 2.1082567,-0.569265 0.627126,-0.326265 1.766616,-1.256334 1.766616,-1.441937 0,-0.128748 1.410795,-3.66709 2.184517,-5.478862 1.120831,-2.624573 1.7914088,-3.9903081 1.9592458,-3.9903081 0.18563,0 0.604004,0.4499571 0.672632,0.7234021 0.09505,0.378639 -0.256403,1.202485 -2.1419208,5.020903 -1.015078,2.055682 -1.82747,3.755729 -1.805309,3.77789 0.02232,0.02232 0.256904,-0.276396 0.521691,-0.663496 0.526596,-0.769864 1.395256,-1.801096 1.692574,-2.009347 0.176522,-0.123648 0.201023,-0.117272 0.38843,0.100557 0.2736628,0.318158 0.2537608,0.632336 -0.09946,1.568717 -0.296389,0.785718 -0.388886,1.491514 -0.20995,1.602108 0.04859,0.03006 0.231081,-0.01822 0.405599,-0.107525 0.2323108,-0.118683 0.3934848,-0.304632 0.6018138,-0.694346 0.590984,-1.105489 2.012799,-2.30667 3.143901,-2.656034 1.004084,-0.310143 1.568876,-0.178253 1.565092,0.365476 -0.004,0.57295 -0.712555,1.040382 -1.056189,0.696752 -0.0991,-0.0991 -0.110941,-0.183627 -0.04878,-0.347124 0.116543,-0.30659 0.10329,-0.375814 -0.07187,-0.375814 -0.260274,0 -0.888037,0.455928 -1.418086,1.029906 -0.756338,0.819023 -1.084074,1.667963 -0.700713,1.815069 0.237048,0.09095 0.876402,-0.315699 1.582243,-1.006416 0.418534,-0.409561 0.776141,-0.694538 0.828728,-0.660408 0.05087,0.03279 0.138267,0.146965 0.194238,0.253215 0.08803,0.167185 0.06016,0.267561 -0.206944,0.745217 -0.325172,0.581479 -0.326037,0.726718 -0.0042,0.726718 0.429373,0 1.501233,-0.917167 1.501233,-1.284547 0,-0.861045 0.744388,-2.633322 1.618909,-3.854379 0.658864,-0.919949 2.046724,-2.280105 2.942445,-2.883722 2.186087,-1.473165 4.562127,-1.8896946 5.169902,-0.906296 0.419126,0.678138 0.04664,1.652633 -1.045618,2.735738 -0.385834,0.3826 -0.841808,0.760578 -1.013288,0.839968 -0.298849,0.138357 -0.926403,0.200841 -0.926403,0.09222 0,-0.02869 0.278582,-0.349947 0.619088,-0.713916 0.990093,-1.05838 1.449496,-1.962558 1.223798,-2.408612 -0.09026,-0.178435 -0.156802,-0.197699 -0.663592,-0.192006 -0.474864,0.0055 -0.675214,0.06016 -1.276877,0.349627 -2.712397,1.304928 -5.367488,4.830983 -5.367488,7.128212 0,0.764094 0.236774,1.203204 0.811222,1.504452 0.375313,0.196834 1.471434,0.162267 2.220185,-0.07 1.316453,-0.408378 1.981971,-0.860266 2.494959,-1.694154 1.608521,-2.614723 3.643782,-5.703631 4.574357,-6.942472 0.291789,-0.388476 0.557346,-0.74432 0.590095,-0.790787 0.08885,-0.126061 0.475238,0.274028 0.584594,0.605398 0.05174,0.156756 0.06836,0.372035 0.03689,0.478444 -0.134532,0.455728 -0.867881,1.533736 -2.683191,3.94417 -2.038085,2.70624 -2.737131,3.665023 -2.737131,3.754144 0,0.0296 0.317019,-0.257131 0.704479,-0.637514 0.77804,-0.763794 1.86103,-1.615735 2.053929,-1.615735 0.171194,0 0.304815,0.180393 0.368118,0.497017 0.04418,0.221836 -0.02915,0.412066 -0.433243,1.119356 -0.594163,1.040272 -0.725753,1.416013 -0.552423,1.577415 0.222382,0.207081 0.633574,-0.0073 1.440169,-0.750586 1.427736,-1.315798 3.224201,-1.973297 4.236237,-1.550446 0.375815,0.15703 0.440849,0.327586 0.265283,0.69569 -0.183671,0.385197 -0.604473,0.59322 -0.941094,0.465237 -0.248388,-0.09445 -0.268244,-0.219605 -0.09878,-0.622649 0.113719,-0.270476 -0.193919,-0.267652 -0.748009,0.0068 -1.18317,0.586129 -2.257403,1.808474 -1.932928,2.199441 0.05474,0.06595 0.16204,0.119549 0.238505,0.119093 0.259318,-0.0016 1.0758,-0.435976 1.694682,-0.901637 0.339017,-0.255082 0.65468,-0.463793 0.701479,-0.463793 0.101195,0 0.261868,0.278992 0.261868,0.45474 0,0.0684 -0.153705,0.310416 -0.341567,0.537749 -0.913186,1.105079 0.243742,0.975811 1.622443,-0.181258 0.36953,-0.310143 0.385333,-0.315107 0.412841,-0.130069 0.03734,0.252077 -0.35942,0.662148 -1.161979,1.200722 -0.688121,0.46178 -1.057255,0.593311 -1.667057,0.594021 -0.523554,5.97e-4 -0.867694,-0.292791 -0.80939,-0.690024 0.02049,-0.139359 0.01503,-0.242786 -0.0123,-0.229761 -0.02732,0.01321 -0.311828,0.155208 -0.632336,0.316018 -0.702908,0.352634 -1.392628,0.444174 -1.721812,0.228485 -0.117954,-0.07728 -0.215096,-0.187679 -0.215825,-0.245336 -0.0032,-0.259272 -0.130843,-0.324352 -0.388748,-0.198245 -0.449913,0.219969 -0.993063,0.204712 -1.232388,-0.03461 -0.403003,-0.403004 -0.141682,-1.404747 0.645357,-2.473888 0.208629,-0.28341 0.379321,-0.536957 0.379321,-0.563426 0,-0.141455 -1.191909,0.924494 -2.225441,1.990292 -0.649519,0.669795 -1.215505,1.217805 -1.257745,1.217805 -0.144824,0 -0.35942,-0.312329 -0.356733,-0.519072 0.0015,-0.113719 0.05916,-0.28136 0.128065,-0.372491 0.219059,-0.289648 0.156939,-0.423178 -0.109438,-0.235271 -1.198043,0.845101 -3.187447,1.243363 -4.22015,0.844846 -0.502363,-0.193874 -1.048943,-0.776123 -1.190347,-1.268052 -0.0587,-0.204166 -0.11841,-0.386654 -0.132711,-0.405508 -0.01412,-0.01867 -0.219195,0.146464 -0.455331,0.367344 -1.047873,0.980165 -2.39121,1.104864 -2.39121,0.221973 0,-0.140908 -0.02186,-0.256176 -0.04873,-0.256176 -0.02687,0 -0.228531,0.151428 -0.448318,0.336512 -0.777288,0.654561 -1.624465,0.872289 -1.986276,0.510479 -0.160399,-0.1604 -0.191778,-0.165 -0.321756,-0.04741 -0.2079908,0.188227 -0.8760138,0.477229 -1.1081798,0.479419 -0.109301,0.001 -0.311008,-0.11044 -0.448318,-0.24775 -0.204302,-0.204302 -0.249617,-0.321665 -0.249617,-0.646727 0,-0.456347 0.339609,-1.539106 0.64962,-2.071026 0.116315,-0.199612 0.177797,-0.362926 0.136581,-0.362926 -0.187179,0 -1.862556,2.280415 -2.525077,3.43702 -0.127792,0.223066 -0.263554,0.4056 -0.301672,0.4056 -0.03826,0 -0.171968,-0.09514 -0.297437,-0.211407 -0.175383,-0.162541 -0.215597,-0.261231 -0.173971,-0.426959 0.0685,-0.272889 0.0018,-0.271842 -0.288374,0.0046 -0.411839,0.392347 -1.2383489,0.917107 -1.8478775,1.173205 -0.6436761,0.27043 -1.7384211,0.385333 -2.2131719,0.232311 z"
   id="path3405"
   inkscape:connector-curvature="0"
   sodipodi:nodetypes="csccscccscccssscsssccscccssscsscscccsssscssscccsscssccccsscsccscccccsccssssccsccccsccsssssccccccsssssccsscscscccccc" /></svg>