<?xml version="1.0" encoding="iso-8859-1"?>
<!-- Generator: Adobe Illustrator 16.0.0, SVG Export Plug-In . SVG Version: 6.00 Build 0)  -->
<!DOCTYPE svg PUBLIC "-//W3C//DTD SVG 1.1//EN" "http://www.w3.org/Graphics/SVG/1.1/DTD/svg11.dtd">
<svg xmlns="http://www.w3.org/2000/svg" xmlns:xlink="http://www.w3.org/1999/xlink" version="1.1" id="Capa_1" x="0px" y="0px" width="512px" height="512px" viewBox="0 0 81.479 81.479" style="enable-background:new 0 0 81.479 81.479;" xml:space="preserve">
<g>
	<g>
		<path d="M67.098,43.643c0.006,0.018,0.083,1.598-0.621,3.49l5.102,2.709c2.479-3.399,1.258-6.945,1.234-7.021L67.098,43.643z" fill="#FFFFFF"/>
		<path d="M30.225,64.344l-0.187-0.11l-3.817,4.894l0.147,0.154c2.146,2.229,4.706,2.562,6.04,2.562c0.311,0,0.617-0.02,0.868-0.053    l0.21-0.025l0.19-5.983l0.001-0.231l-0.231-0.021C33.434,65.526,31.911,65.331,30.225,64.344z M33.009,71.324    c-0.183,0.018-0.39,0.023-0.599,0.023c-1.225,0-3.548-0.297-5.535-2.258l3.289-4.215c1.333,0.744,2.514,1.018,3.014,1.106    L33.009,71.324z" fill="#FFFFFF"/>
		<path d="M19.26,25.706l-3.867-4.29c-3.492,2.347-3.557,6.097-3.562,6.175l5.651,1.185C17.485,28.756,17.951,27.243,19.26,25.706z" fill="#FFFFFF"/>
		<path d="M59.213,21.932L59.35,22.1l5.26-3.293l-0.086-0.195c-1.672-3.775-5.228-4.633-5.633-4.72l-0.206-0.047l-2.226,5.556    l-0.15,0.251l0.279,0.065C56.601,19.723,57.968,20.43,59.213,21.932z M58.987,14.423c0.803,0.214,3.553,1.148,4.998,4.196    l-4.533,2.835c-0.965-1.118-1.988-1.802-2.453-2.071L58.987,14.423z" fill="#FFFFFF"/>
		<path d="M56.302,61.991l2.167,5.354c4.083-1.012,5.428-4.515,5.458-4.586l-4.905-3.045C59.014,59.732,58.057,60.993,56.302,61.991    z" fill="#FFFFFF"/>
		<path d="M19.408,55.01l-0.231-0.158c-0.01-0.012-1.044-1.117-1.709-2.981l-0.072-0.203l-6.069,1.296l0.015,0.213    c0.28,4.119,3.327,6.141,3.68,6.361l0.177,0.114l3.991-4.459L19.408,55.01z M15.114,59.008c-0.684-0.478-2.947-2.295-3.262-5.652    l5.228-1.116c0.529,1.394,1.254,2.382,1.597,2.788L15.114,59.008z" fill="#FFFFFF"/>
		<path d="M33.905,15.225l-0.206-5.772c-4.182-0.446-6.644,2.384-6.697,2.442l3.568,4.537    C30.583,16.419,31.913,15.562,33.905,15.225z" fill="#FFFFFF"/>
		<path d="M71.856,31.648l-0.128-0.167l-5.274,2.825l-0.256,0.098l0.15,0.226c0.006,0.014,0.6,1.415,0.586,3.386l-0.001,0.217    l6.146,0.859l0.061-0.205C74.286,34.91,72.11,31.974,71.856,31.648z M72.721,38.544l-5.295-0.741    c-0.021-1.485-0.363-2.666-0.547-3.165l4.708-2.521C72.069,32.798,73.575,35.274,72.721,38.544z" fill="#FFFFFF"/>
		<path d="M38.956,66.831l-1.782,5.494c3.777,1.851,7.059,0.031,7.129-0.004l-1.8-5.485C42.487,66.844,40.942,67.195,38.956,66.831z    " fill="#FFFFFF"/>
		<path d="M8.971,38.618l5.926-0.851l0.28-0.001l-0.071-0.267c0-0.016-0.081-1.531,0.607-3.384l0.075-0.201l-5.48-2.91l-0.126,0.174    c-2.427,3.328-1.398,6.839-1.271,7.237L8.971,38.618z M10.456,31.643l4.722,2.505c-0.485,1.398-0.567,2.629-0.567,3.162    l-5.288,0.759C9.107,37.266,8.543,34.414,10.456,31.643z" fill="#FFFFFF"/>
		<path d="M48.712,9.621l-0.185,5.771c0.02-0.002,1.59,0.196,3.332,1.219l3.553-4.555C52.497,9.024,48.792,9.611,48.712,9.621z" fill="#FFFFFF"/>
		<path d="M64.26,52.051l-0.021,0.278c-0.004,0.015-0.443,1.463-1.727,2.972l-0.141,0.164l4.156,4.609l0.178-0.12    c3.418-2.298,3.654-5.95,3.67-6.364l0.013-0.211l-5.86-1.229L64.26,52.051z M69.87,53.772c-0.073,0.827-0.521,3.7-3.264,5.649    l-3.58-3.97c0.939-1.155,1.432-2.276,1.614-2.776L69.87,53.772z" fill="#FFFFFF"/>
		<path d="M22.559,59.387l-4.897,3.065c1.704,3.845,5.386,4.562,5.463,4.579l2.146-5.359C25.253,61.667,23.844,60.945,22.559,59.387    z" fill="#FFFFFF"/>
		<path d="M23.431,13.58c-3.994,0.99-5.468,4.343-5.624,4.727l-0.086,0.196l5.088,3.157l0.219,0.187l0.115-0.258    c0.008-0.011,0.944-1.236,2.638-2.199l0.188-0.105l-2.33-5.754L23.431,13.58z M22.882,21.126l-4.538-2.817    c0.352-0.754,1.756-3.302,4.999-4.196l2.007,4.957C24.066,19.836,23.223,20.718,22.882,21.126z" fill="#FFFFFF"/>
		<path d="M64.723,29.211l5.648-1.206c-0.286-4.194-3.5-6.126-3.567-6.171l-3.851,4.304C62.969,26.147,64.045,27.308,64.723,29.211z    " fill="#FFFFFF"/>
		<path d="M51.442,64.328l-0.197,0.203c-0.012,0.009-1.307,0.839-3.23,1.165l-0.213,0.036l0.223,6.201l0.213,0.023    c0.305,0.032,0.611,0.051,0.914,0.051c3.483,0,5.596-2.136,5.987-2.567l0.147-0.154l-3.7-4.708L51.442,64.328z M49.149,71.514    c-0.214,0-0.432-0.01-0.648-0.025l-0.191-5.344c1.467-0.28,2.562-0.821,3.021-1.09l3.302,4.201    C54.086,69.801,52.133,71.514,49.149,71.514z" fill="#FFFFFF"/>
		<path d="M14.78,43.147l-5.722-0.8c-1.164,4.041,1.195,6.955,1.243,7.021l5.091-2.728C15.379,46.625,14.765,45.167,14.78,43.147z" fill="#FFFFFF"/>
		<path d="M39.271,14.69l0.253-0.124c0.006-0.001,0.641-0.149,1.649-0.149c0.603,0,1.203,0.053,1.786,0.16l0.213,0.039l1.914-5.904    l-0.192-0.095c-1.157-0.565-2.382-0.854-3.644-0.854c-1.972,0-3.426,0.715-3.703,0.859l-0.191,0.096l1.867,5.689L39.271,14.69z     M41.249,8.257c1.117,0,2.203,0.24,3.234,0.711l-1.647,5.089c-0.546-0.089-1.104-0.135-1.663-0.135    c-0.672,0-1.233,0.069-1.55,0.124L37.956,8.97C38.435,8.745,39.659,8.257,41.249,8.257z" fill="#FFFFFF"/>
		<path d="M44.97,47.277l-1.269-3.452c1.599-0.998,2.445-2.88,2.127-4.745l3.548-1.304c0.708,0.934,1.967,1.339,3.124,0.913    c1.418-0.521,2.146-2.095,1.625-3.513c-0.522-1.42-2.094-2.147-3.514-1.626c-1.1,0.405-1.781,1.439-1.791,2.545l-3.607,1.326    c-0.975-1.603-2.823-2.471-4.674-2.199l-1.228-3.339c0.836-0.725,1.184-1.913,0.78-3.013c-0.521-1.419-2.095-2.146-3.513-1.626    c-1.419,0.523-2.146,2.096-1.625,3.514c0.424,1.157,1.548,1.854,2.718,1.79l1.198,3.26c-1.676,0.968-2.585,2.878-2.28,4.784    l-3.161,1.16c-0.724-0.835-1.914-1.184-3.013-0.777c-1.418,0.521-2.146,2.093-1.624,3.513c0.521,1.419,2.094,2.146,3.513,1.624    c1.156-0.425,1.854-1.549,1.789-2.719l3.099-1.139c0.995,1.674,2.938,2.559,4.858,2.207l1.239,3.37    c-0.934,0.708-1.338,1.968-0.913,3.124c0.522,1.42,2.095,2.146,3.514,1.624c1.418-0.521,2.147-2.093,1.624-3.513    C47.112,47.969,46.077,47.288,44.97,47.277z" fill="#FFFFFF"/>
		<path d="M40.739,0C18.275,0,0,18.276,0,40.739s18.275,40.739,40.739,40.739c22.464,0,40.739-18.276,40.739-40.739    S63.204,0,40.739,0z M40.739,75.562c-19.202,0-34.822-15.621-34.822-34.822S21.537,5.917,40.739,5.917    c19.203,0,34.822,15.621,34.822,34.822S59.942,75.562,40.739,75.562z" fill="#FFFFFF"/>
	</g>
</g>
<g>
</g>
<g>
</g>
<g>
</g>
<g>
</g>
<g>
</g>
<g>
</g>
<g>
</g>
<g>
</g>
<g>
</g>
<g>
</g>
<g>
</g>
<g>
</g>
<g>
</g>
<g>
</g>
<g>
</g>
</svg>
