<?xml version="1.0" encoding="UTF-8" standalone="no"?>
<!-- Generator: Adobe Illustrator 14.0.0, SVG Export Plug-In . SVG Version: 6.00 Build 43363)  -->

<svg
   xmlns:dc="http://purl.org/dc/elements/1.1/"
   xmlns:cc="http://creativecommons.org/ns#"
   xmlns:rdf="http://www.w3.org/1999/02/22-rdf-syntax-ns#"
   xmlns:svg="http://www.w3.org/2000/svg"
   xmlns="http://www.w3.org/2000/svg"
   xmlns:sodipodi="http://sodipodi.sourceforge.net/DTD/sodipodi-0.dtd"
   xmlns:inkscape="http://www.inkscape.org/namespaces/inkscape"
   version="1.1"
   id="Layer_1"
   x="0px"
   y="0px"
   width="512"
   height="512"
   viewBox="0 0 512 512"
   enable-background="new 0 0 612 792"
   xml:space="preserve"
   inkscape:version="0.91 r13725"
   sodipodi:docname="cnet-2.svg"><metadata
   id="metadata65"><rdf:RDF><cc:Work
       rdf:about=""><dc:format>image/svg+xml</dc:format><dc:type
         rdf:resource="http://purl.org/dc/dcmitype/StillImage" /><dc:title></dc:title></cc:Work></rdf:RDF></metadata><defs
   id="defs63" /><sodipodi:namedview
   pagecolor="#ffffff"
   bordercolor="#666666"
   borderopacity="1"
   objecttolerance="10"
   gridtolerance="10"
   guidetolerance="10"
   inkscape:pageopacity="0"
   inkscape:pageshadow="2"
   inkscape:window-width="1366"
   inkscape:window-height="706"
   id="namedview61"
   showgrid="false"
   inkscape:zoom="0.42140707"
   inkscape:cx="111.90042"
   inkscape:cy="445.95452"
   inkscape:window-x="-8"
   inkscape:window-y="-8"
   inkscape:window-maximized="1"
   inkscape:current-layer="g3" />
<g
   id="g3"
   transform="translate(0,-280)">
	
	<path
   d="m 256.00296,284.43382 c -138.93472,0 -251.5691421,112.63442 -251.5691421,251.56914 0,138.93472 112.6314021,251.56322 251.5691421,251.56322 138.93777,0 251.56322,-112.6285 251.56322,-251.56322 0,-138.93472 -112.6285,-251.56914 -251.56322,-251.56914 z m -97.48388,117.32481 20.58022,0 0,283.07811 -20.58022,0 0,-283.07811 z m 254.23038,31.51489 27.87195,0 0,33.33042 11.69759,0 0,25.6129 -11.69759,0 0,94.36723 c 0.63588,6.46455 8.29425,5.6634 11.69759,5.12141 l 0,27.50531 c -16.38086,2.42232 -39.35663,4.30949 -39.35663,-24.00431 L 412.7496,433.27352 Z M 98.534958,462.55296 c 27.871732,0 38.087262,22.10437 37.872282,44.756 l 0,12.12931 -27.65909,0 0,-16.98457 c -0.42088,-8.35392 -3.61272,-12.93951 -9.568564,-12.93951 -10.640017,0 -10.638224,15.36566 -10.420231,33.97506 l 0,35.86158 c -0.644928,29.65817 2.117748,35.05534 10.420231,36.39973 8.505344,-0.2725 8.720774,-10.24235 9.568564,-22.37209 l 0,-14.02764 27.65909,0 0,14.02764 c 0,31.81405 -10.4305,49.33922 -37.872282,49.33922 -24.46837,0 -38.503219,-16.44755 -37.446464,-56.89712 l 0,-49.34512 c -0.208971,-42.59333 16.384475,-53.92249 37.446464,-53.92249 z m 248.635872,0 c 38.50868,0 42.5442,25.33447 42.5442,66.86195 l 0,20.49744 -55.31221,0 0,22.10002 c 0.21195,19.95681 6.16585,23.7323 14.46529,23.7323 10.21609,0 13.19203,-9.43631 12.76205,-28.58167 l 27.6591,0 c 1.06279,33.98506 -9.99063,55.55469 -38.28626,55.55469 -31.91092,0 -44.89206,-19.14071 -44.25922,-63.90502 l 0,-39.90664 c -1.26869,-35.86535 13.19722,-56.35307 40.42705,-56.35307 z m -91.91301,2.87415 c 15.74501,0 28.50687,8.71455 27.65906,35.94437 l 0,102.20308 12.54328,0 0,15.09215 -40.20234,0 0,-101.38106 c 0,-14.83059 -1.27241,-24.53288 -11.70352,-25.06881 -10.42199,-0.54199 -14.03455,11.85941 -13.61367,28.04348 l 0,98.40639 -37.20399,0 0,-15.09215 9.55085,0 0,-119.15808 -9.16647,0 0,-17.68242 9.16647,0 27.65314,-0.13588 0,15.63031 c 6.59474,-17.51634 18.93136,-16.80125 25.31719,-16.80125 z m 92.33288,24.08708 c -13.82534,0 -13.18788,13.48362 -13.18788,27.23328 l 0,6.20365 27.65317,0 0,-13.21748 c -0.20897,-15.36957 -3.4044,-20.21945 -14.46529,-20.21945 z"
   id="path7"
   style="fill:#ffffff"
   inkscape:connector-curvature="0" />
	
	
	
	
	
	
	
	
	
	
	
	
	
	
	
	
	
	
	
	
	
	
	
	
	
	
</g>
</svg>