<?xml version="1.0" encoding="UTF-8" standalone="no"?>
<!-- Created with Inkscape (http://www.inkscape.org/) -->

<svg
   xmlns:dc="http://purl.org/dc/elements/1.1/"
   xmlns:cc="http://creativecommons.org/ns#"
   xmlns:rdf="http://www.w3.org/1999/02/22-rdf-syntax-ns#"
   xmlns:svg="http://www.w3.org/2000/svg"
   xmlns="http://www.w3.org/2000/svg"
   xmlns:sodipodi="http://sodipodi.sourceforge.net/DTD/sodipodi-0.dtd"
   xmlns:inkscape="http://www.inkscape.org/namespaces/inkscape"
   id="svg2985"
   version="1.1"
   inkscape:version="0.91 r13725"
   width="512"
   height="512"
   xml:space="preserve"
   sodipodi:docname="cnn.svg"><metadata
     id="metadata2991"><rdf:RDF><cc:Work
         rdf:about=""><dc:format>image/svg+xml</dc:format><dc:type
           rdf:resource="http://purl.org/dc/dcmitype/StillImage" /><dc:title></dc:title></cc:Work></rdf:RDF></metadata><defs
     id="defs2989" /><sodipodi:namedview
     pagecolor="#ffffff"
     bordercolor="#666666"
     borderopacity="1"
     objecttolerance="10"
     gridtolerance="10"
     guidetolerance="10"
     inkscape:pageopacity="0"
     inkscape:pageshadow="2"
     inkscape:window-width="1366"
     inkscape:window-height="706"
     id="namedview2987"
     showgrid="false"
     fit-margin-top="0.05"
     fit-margin-left="0.05"
     fit-margin-right="0.05"
     fit-margin-bottom="0.05"
     inkscape:zoom="0.95353535"
     inkscape:cx="327.10987"
     inkscape:cy="247.00672"
     inkscape:window-x="-8"
     inkscape:window-y="-8"
     inkscape:window-maximized="1"
     inkscape:current-layer="g2993" /><g
     id="g2993"
     inkscape:groupmode="layer"
     inkscape:label="LanguageArts"
     transform="matrix(1.25,0,0,-1.25,-28.893659,1429.9929)"><path
       sodipodi:nodetypes="cccsccccscccssscccccscccccccsccccscccccccsccccccccccccccccccccccccccccssscccccccc"
       inkscape:connector-curvature="0"
       id="path2997-4"
       d="m 192.12321,1035.5049 c -16.78838,-1.1989 -31.02396,-15.3119 -31.02478,-35.2317 l 0,-94.75757 c 0.008,-3.42157 -2.55028,-6.37576 -6.25305,-6.37576 l -29.58174,0 c -64.062069,-0.0762 -58.377559,81.79515 -3.84803,81.89167 l 32.70825,0 1.5e-4,23.80876 -33.91093,0 c -21.714972,0 -37.829156,-8.10305 -48.701678,-20.20176 -10.872524,-12.09616 -16.3224,-28.3734 -16.354126,-44.61253 -0.03378,-16.23913 5.348906,-32.42238 16.474401,-44.49314 11.12547,-12.0733 27.933012,-20.20429 50.986433,-20.20429 l 55.79649,0 c 3.68166,0 6.73405,3.17771 6.73405,6.85838 l 0,115.5587 c -0.0203,5.95414 3.32766,10.55434 7.69609,11.90824 4.36839,1.3437 9.49434,-0.3683 12.50612,-4.6916 l 0.1204,-0.1271 c 15.8693,-25.96278 78.89733,-127.05031 79.00494,-127.22558 1.72557,-2.46901 3.78948,-2.90592 5.29104,-2.40552 1.50152,0.50041 3.01796,2.12611 3.00628,6.13445 l 0,116.40203 c -0.0203,5.94912 3.33246,10.55432 7.69605,11.90572 4.36356,1.3462 9.37523,-0.3658 12.38589,-4.6891 l 0,-0.1271 0.24029,0 c 15.86935,-25.96276 78.89735,-127.05029 79.00495,-127.22556 1.71115,-2.44362 3.70387,-2.92116 5.29105,-2.40552 1.58715,0.51565 3.13812,2.03212 3.1265,6.01506 l 0,153.67872 -23.92997,0 0,-89.70522 c 0,0 -14.26656,24.37268 -38.72082,66.37902 -23.94677,41.1351 -69.14198,24.106 -69.14435,-11.3036 l 0,-55.07542 c 0,0 -14.02469,24.37268 -38.48032,66.37902 -10.47693,17.9919 -25.062,24.8604 -38.1196,23.9282 z m -67.70134,-0.602 c -133.1698209,0 -131.8846076,-189.77662 1.80378,-189.87315 l 52.30922,0 c 22.47874,0 36.83051,13.31289 36.79679,37.87607 l 0,48.10014 c 0,0 29.37636,-48.55228 40.88534,-67.58049 19.55283,-32.3284 66.8582,-25.97296 66.73934,14.43054 l 0,53.14995 c 0,0 29.2547,-48.5472 40.76513,-67.58049 19.55277,-32.3284 66.97836,-25.96788 66.85958,14.43054 l 0,157.04689 -23.92998,2e-4 0,-153.68139 c 0.0203,-5.89313 -3.07204,-10.27235 -7.33529,-11.66434 -4.26328,-1.38438 -9.17055,0.34291 -12.14537,4.56972 l -0.1204,0 0,0.22861 c 0,0 -63.05567,100.82081 -79.12522,127.1062 -0.0386,0.051 -0.0815,-0.051 -0.12041,0 -0.0152,0 0.0152,0.127 0,0.127 -1.65721,2.2074 -3.79134,2.7028 -5.53154,2.1642 -1.79728,-0.5588 -3.49876,-2.1032 -3.48731,-6.01252 l 0,-116.40203 c 0.0203,-5.86772 -2.99119,-10.49587 -7.21502,-11.90311 -4.22385,-1.40978 -9.06473,0.45976 -12.02514,4.68657 l 0,0.127 -0.1204,0 c 0,0 -63.09688,101.01133 -79.12519,127.22569 -1.67274,2.3902 -3.84446,2.9618 -5.65179,2.4029 -1.80733,-0.5563 -3.49874,-2.0982 -3.48732,-6.00995 l 0,-0.12707 0,-115.5587 c 0,-7.00571 -5.75954,-12.86837 -12.74658,-12.86837 l -55.79649,0 c -24.485424,0 -43.045513,8.81684 -55.315495,22.12465 -12.269957,13.31035 -18.312576,30.96689 -18.278157,48.58277 0.03378,17.61335 6.063956,35.37911 18.037682,48.70217 11.973675,13.3205 29.921359,22.0866 53.15094,22.1272 l 33.91078,0 0,24.0476 -29.70199,0 z"
       style="fill:#ffffff;fill-opacity:1;fill-rule:nonzero;stroke:none" /></g></svg>