<?xml version="1.0" encoding="UTF-8" standalone="no"?>
<svg
   xmlns:dc="http://purl.org/dc/elements/1.1/"
   xmlns:cc="http://creativecommons.org/ns#"
   xmlns:rdf="http://www.w3.org/1999/02/22-rdf-syntax-ns#"
   xmlns:svg="http://www.w3.org/2000/svg"
   xmlns="http://www.w3.org/2000/svg"
   version="1.1"
   id="svg2"
   viewBox="0 0 511.99999 511.99999"
   height="512"
   width="512">
  <defs
     id="defs4" />
  <metadata
     id="metadata7">
    <rdf:RDF>
      <cc:Work
         rdf:about="">
        <dc:format>image/svg+xml</dc:format>
        <dc:type
           rdf:resource="http://purl.org/dc/dcmitype/StillImage" />
        <dc:title></dc:title>
      </cc:Work>
    </rdf:RDF>
  </metadata>
  <g
     transform="translate(0,-540.36219)"
     id="layer1">
    <path
       id="path3358"
       d="m 222.63901,1050.9278 c -13.91224,-1.8006 -33.78798,-6.4368 -48.45672,-11.3031 -14.83066,-4.9199 -45.83745,-19.2895 -45.83745,-21.2426 0,-0.657 4.03488,-8.1854 8.96638,-16.7298 9.80436,-16.98723 27.94107,-48.12977 28.34229,-48.66656 0.13836,-0.1851 5.7973,2.24189 12.57542,5.39331 21.91629,10.18975 42.37845,15.60504 65.69175,17.38527 l 11.45936,0.87504 0,37.86144 0,37.8614 -12.11418,-0.1663 c -6.6628,-0.091 -15.94488,-0.6622 -20.62685,-1.2681 z m 98.31732,-11.3555 c -11.83272,-44.21805 -18.3196,-69.07498 -18.07587,-69.2645 0.16581,-0.12895 3.54285,-1.27489 7.50452,-2.54652 28.63885,-9.19265 60.21617,-29.48956 78.32697,-50.3461 6.94865,-8.00212 20.5465,-26.48902 21.57132,-29.32719 0.48133,-1.33302 1.19659,-1.31375 3.57168,0.0963 1.6334,0.96969 4.94501,2.87429 7.35911,4.23244 14.57475,8.19955 54.98499,31.75758 55.72615,32.48677 0.48708,0.4792 -2.39654,5.88888 -6.40805,12.02148 -31.89864,48.76513 -79.70416,85.29622 -135.55819,103.58822 -6.68108,2.1881 -12.27203,3.9783 -12.42434,3.9783 -0.15231,0 -0.8693,-2.2136 -1.5933,-4.9192 z M 65.13382,968.0799 c -13.06255,-14.71657 -32.51474,-42.15228 -30.8712,-43.54126 1.9126,-1.61637 65.56531,-37.59968 65.89923,-37.25329 0.23733,0.24618 3.80395,5.17004 7.92583,10.9419 4.12188,5.77186 10.46311,13.93345 14.09163,18.13686 l 6.59731,7.64257 -26.72414,26.79183 c -14.69828,14.73551 -27.11857,26.79184 -27.60063,26.79184 -0.48206,0 -4.67517,-4.2797 -9.31803,-9.51045 z M 499.62814,864.66203 c -1.44061,-0.60555 -17.64742,-5.05565 -36.01514,-9.88912 -18.36772,-4.83347 -33.53217,-8.87781 -33.69877,-8.98743 -0.16661,-0.10966 0.92324,-6.35932 2.42191,-13.88825 3.71642,-18.67049 3.76887,-49.1517 0.11446,-66.51278 -1.4076,-6.68714 -2.19131,-12.38251 -1.74154,-12.6564 2.35326,-1.43298 71.38228,-19.21904 72.66984,-18.72414 1.54228,0.5928 5.07197,16.41914 7.36983,33.04467 1.6748,12.11754 1.6666,48.35134 -0.0141,62.34428 -1.51454,12.60948 -6.28694,35.10203 -7.60958,35.86435 -0.48268,0.27819 -2.05628,0.0105 -3.49689,-0.59518 z M 6.72272,857.23392 C 2.35218,839.84077 0,822.18227 0,806.76454 l 0,-10.20076 37.86203,0 37.86203,0 0.91338,11.47814 c 0.50237,6.31297 1.92705,16.67134 3.16594,23.01859 1.23891,6.34725 1.86563,11.77999 1.39269,12.07275 -0.47293,0.29276 -6.70674,2.07727 -13.85292,3.96558 -7.14617,1.88831 -22.75926,6.04801 -34.69573,9.24378 -11.93648,3.19578 -22.37453,5.8105 -23.19566,5.8105 -0.82112,0 -2.0492,-2.21364 -2.72904,-4.9192 z M 45.18262,740.45347 C 25.01415,735.00908 8.36131,730.44828 8.17633,730.31832 7.02806,729.51165 18.47533,698.87543 24.84138,685.7178 45.7552,642.49232 81.39055,602.70465 120.10506,579.35379 l 7.42727,-4.47979 7.80532,13.44473 c 4.29292,7.39459 12.72647,21.793 18.74122,31.99644 6.01477,10.20345 10.93593,19.40599 10.93593,20.45008 0,1.0441 -1.32601,2.50719 -2.9467,3.25131 -6.02885,2.76811 -24.22167,17.29048 -33.8697,27.03641 -5.48283,5.53845 -13.64878,15.23589 -18.14656,21.54988 -8.74516,12.27641 -21.85625,38.12962 -25.61323,50.50562 -1.25938,4.14853 -2.35643,7.47552 -2.4379,7.39332 -0.0815,-0.0822 -16.64961,-4.60395 -36.81809,-10.04832 z m 358.91171,-44.52375 c -7.95763,-12.27892 -26.64124,-32.0647 -39.26469,-41.58095 -13.60695,-10.25766 -33.61282,-21.10393 -48.61033,-26.35429 -10.42903,-3.65103 -12.95522,-5.02568 -12.62679,-6.87098 0.57001,-3.20259 13.09191,-50.83352 15.26306,-58.05775 0.97573,-3.24668 2.13228,-7.52638 2.57008,-9.51046 0.43778,-1.98408 1.61154,-3.60741 2.60832,-3.60741 4.09687,0 27.33327,8.67187 42.29562,15.78481 26.1626,12.43741 46.15147,26.36787 67.65018,47.14611 15.04745,14.54319 24.70124,26.04508 36.19278,43.12145 6.55476,9.74031 7.87224,12.49912 6.41126,13.42507 -8.31681,5.27105 -63.86581,36.61143 -64.80554,36.56286 -0.66316,-0.0342 -4.12094,-4.56059 -7.68395,-10.05846 z M 207.69281,616.59134 c -6.59423,-23.36202 -17.83995,-67.03553 -17.37996,-67.49628 1.63664,-1.63933 36.47947,-7.17672 49.67891,-7.89523 l 15.38828,-0.83764 0,38.16303 0,38.16302 -5.56597,0.69142 c -3.06129,0.38026 -9.69135,1.05372 -14.73347,1.49656 -8.46355,0.74334 -17.74163,2.34145 -23.18915,3.99422 -1.76787,0.53637 -2.64525,-0.77576 -4.19864,-6.2791 z"
       style="fill:#ffffff" />
  </g>
</svg>
