<?xml version="1.0" encoding="UTF-8" standalone="no"?>
<svg
   xmlns:dc="http://purl.org/dc/elements/1.1/"
   xmlns:cc="http://creativecommons.org/ns#"
   xmlns:rdf="http://www.w3.org/1999/02/22-rdf-syntax-ns#"
   xmlns:svg="http://www.w3.org/2000/svg"
   xmlns="http://www.w3.org/2000/svg"
   xmlns:sodipodi="http://sodipodi.sourceforge.net/DTD/sodipodi-0.dtd"
   xmlns:inkscape="http://www.inkscape.org/namespaces/inkscape"
   enable-background="new 0 0 512 512"
   height="512px"
   id="Layer_1"
   version="1.1"
   viewBox="0 0 512 512"
   width="512px"
   xml:space="preserve"
   inkscape:version="0.91 r13725"
   sodipodi:docname="crunchyroll.svg"><metadata
     id="metadata23"><rdf:RDF><cc:Work
         rdf:about=""><dc:format>image/svg+xml</dc:format><dc:type
           rdf:resource="http://purl.org/dc/dcmitype/StillImage" /><dc:title></dc:title></cc:Work></rdf:RDF></metadata><defs
     id="defs21" /><sodipodi:namedview
     pagecolor="#ffffff"
     bordercolor="#666666"
     borderopacity="1"
     objecttolerance="10"
     gridtolerance="10"
     guidetolerance="10"
     inkscape:pageopacity="0"
     inkscape:pageshadow="2"
     inkscape:window-width="1366"
     inkscape:window-height="706"
     id="namedview19"
     showgrid="false"
     inkscape:zoom="0.921875"
     inkscape:cx="325.86248"
     inkscape:cy="249.77637"
     inkscape:window-x="-8"
     inkscape:window-y="-8"
     inkscape:window-maximized="1"
     inkscape:current-layer="Layer_1" /><path
     style="clip-rule:evenodd;fill:#ffffff;fill-rule:evenodd"
     inkscape:connector-curvature="0"
     id="path15"
     d="m 300.65362,116.9838 c -99.72267,0 -180.39542,80.96732 -180.39542,180.40289 0,99.71025 80.67275,180.37187 180.39542,180.37187 99.41403,0 180.37622,-80.66162 180.37622,-180.37187 0,-10.72417 -1.18877,-21.43652 -2.9712,-31.57146 -14.88257,19.05894 -38.3952,31.57146 -64.59549,31.57146 -45.24284,0 -81.85562,-36.6249 -81.85562,-81.86814 0,-35.42726 22.62364,-65.78778 54.17268,-77.10265 -25.30096,-13.69097 -54.17268,-21.4321 -85.12659,-21.4321 l 0,0 z M 62.81012,287.25766 c 0,-123.83594 100.61167,-224.448476 224.44357,-224.448476 119.06204,0 216.4116,92.571626 224.14675,209.271896 C 511.70613,267.00992 512,261.36282 512,255.99778 512,114.60181 397.3918,0 256.00443,0 114.60229,0 0,114.60181 0,255.99778 0,397.39672 114.60229,512 256.00591,512 c 5.34727,0 11.00613,-0.29387 16.06543,-0.59957 C 155.38242,503.66522 62.81012,406.32073 62.81012,287.25766 l 0,0 z" /></svg>