<?xml version="1.0" encoding="iso-8859-1"?>
<!-- Generator: Adobe Illustrator 18.1.1, SVG Export Plug-In . SVG Version: 6.00 Build 0)  -->
<svg xmlns="http://www.w3.org/2000/svg" xmlns:xlink="http://www.w3.org/1999/xlink" version="1.1" id="Capa_1" x="0px" y="0px" viewBox="0 0 352.096 352.096" style="enable-background:new 0 0 352.096 352.096;" xml:space="preserve" width="512px" height="512px">
<g>
	<g id="Layer_5_33_">
		<g>
			<path d="M324.499,174.894c0-2.312,0.928-7.688,9.513-7.688c0,0,8.442,0,14.679,0c6.349,0,1.873-5.32,1.873-5.32l-40.022-63.14     c-0.136-0.152-2.166-2.574-4.138,0.349l-39.543,62.541c0,0-4.961,5.57,1.841,5.57c6.28,0,14.849,0,14.849,0     c4.422,0,9.498,1.07,9.498,9.424c0,71.804-58.675,130.222-130.797,130.222c-72.127,0-130.808-58.677-130.808-130.804     c0-72.126,58.681-130.806,130.808-130.806c19.281,0,37.843,4.094,55.17,12.167c2.102,0.979,4.333,1.475,6.628,1.475     c6.093,0,11.694-3.566,14.267-9.087c3.659-7.859,0.246-17.231-7.612-20.892c-21.517-10.024-44.547-15.108-68.452-15.108     C72.787,13.797,0,86.582,0,176.048S72.787,338.3,162.253,338.3c89.11,0,161.893-72.497,162.241-161.608     C324.492,176.688,324.499,175.343,324.499,174.894z" fill="#FFFFFF"/>
			<path d="M171.896,161.792c-20.886-8.372-26.925-13.438-26.925-22.581c0-7.318,5.544-15.863,21.167-15.863     c13.819,0,24.419,5.447,24.515,5.496c1.118,0.597,2.364,0.912,3.603,0.912c3.028,0,5.701-1.83,6.811-4.662l3.796-9.708     c1.321-3.534-0.686-6.618-3.241-7.722c-8.508-3.705-25.139-6.571-25.31-6.601c-0.268-0.046-1.196-0.246-1.196-1.335     l-0.057-14.078c0-4.24-3.538-7.691-7.888-7.691h-6.805c-4.347,0-7.885,3.451-7.885,7.693l0.017,14.803     c0,1.133-1.229,1.625-1.677,1.732c-20.993,5-34.112,20.376-34.112,39.775c0,24.178,19.986,35.105,41.567,43.306     c17.253,6.773,24.29,13.643,24.29,23.715c0,10.963-9.97,18.619-24.245,18.619c-12.192,0-28.694-7.729-28.86-7.808     c-1.056-0.5-2.174-0.754-3.324-0.754c-3.144,0-5.879,1.9-6.97,4.84l-3.626,9.813c-1.289,3.665,0.695,6.641,3.235,7.964     c10.133,5.277,29.746,8.371,30.615,8.506c0.234,0.036,1.43,0.456,1.43,1.545v14.738c0,4.239,3.539,7.69,7.888,7.69h7.04     c4.349,0,7.888-3.451,7.888-7.69v-15.51c0-1.45,1.071-1.578,1.29-1.631c22.362-5.021,36.14-21.385,36.14-41.929     C211.067,186.272,199.35,172.639,171.896,161.792z" fill="#FFFFFF"/>
		</g>
	</g>
</g>
<g>
</g>
<g>
</g>
<g>
</g>
<g>
</g>
<g>
</g>
<g>
</g>
<g>
</g>
<g>
</g>
<g>
</g>
<g>
</g>
<g>
</g>
<g>
</g>
<g>
</g>
<g>
</g>
<g>
</g>
</svg>
