<?xml version="1.0" encoding="UTF-8" standalone="no"?>
<!-- Generator: Adobe Illustrator 16.0.0, SVG Export Plug-In . SVG Version: 6.00 Build 0)  -->

<svg
   xmlns:dc="http://purl.org/dc/elements/1.1/"
   xmlns:cc="http://creativecommons.org/ns#"
   xmlns:rdf="http://www.w3.org/1999/02/22-rdf-syntax-ns#"
   xmlns:svg="http://www.w3.org/2000/svg"
   xmlns="http://www.w3.org/2000/svg"
   xmlns:sodipodi="http://sodipodi.sourceforge.net/DTD/sodipodi-0.dtd"
   xmlns:inkscape="http://www.inkscape.org/namespaces/inkscape"
   version="1.1"
   id="Capa_1"
   x="0px"
   y="0px"
   width="512px"
   height="512px"
   viewBox="0 0 42.078 42.078"
   style="enable-background:new 0 0 42.078 42.078;"
   xml:space="preserve"
   inkscape:version="0.91 r13725"
   sodipodi:docname="icon.svg"><metadata
   id="metadata41"><rdf:RDF><cc:Work
       rdf:about=""><dc:format>image/svg+xml</dc:format><dc:type
         rdf:resource="http://purl.org/dc/dcmitype/StillImage" /><dc:title></dc:title></cc:Work></rdf:RDF></metadata><defs
   id="defs39" /><sodipodi:namedview
   pagecolor="#ffffff"
   bordercolor="#666666"
   borderopacity="1"
   objecttolerance="10"
   gridtolerance="10"
   guidetolerance="10"
   inkscape:pageopacity="0"
   inkscape:pageshadow="2"
   inkscape:window-width="1366"
   inkscape:window-height="706"
   id="namedview37"
   showgrid="false"
   inkscape:zoom="0.65186406"
   inkscape:cx="432.30088"
   inkscape:cy="195.82917"
   inkscape:window-x="-8"
   inkscape:window-y="-8"
   inkscape:window-maximized="1"
   inkscape:current-layer="Capa_1" />
<g
   id="g3">
	<path
   d="m 33.318,17.46 c 0,0 -8.521,1.399 -7.742,8.313 0,0 -3.93,-2.795 0.864,-10.153 C 28.607,12.294 32.1,5.596 23.181,0 c 0,0 3.12,9.725 -0.886,13.413 -1.208,1.112 -4.006,0.274 -1.996,-6.34 0,0 -6.247,2.147 -4.764,8.12 0.39,1.562 0.351,1.341 2.087,3.531 0.725,0.909 2.377,4.41 -1.206,6.09 0,0 -1.171,-9.446 -7.657,-7.982 0,0 5.235,3.936 4.097,14.249 -0.574,5.207 1.646,9.335 4.479,10.237 0.821,0.261 1.599,0.451 2.356,0.58 1.811065,0.19714 1.883257,0.1783 4.012,0.022 1.056,-0.172 2.127,-0.475 3.276,-0.938 2.53,-1.021 5.627,-3.653 5.483,-7.459 -0.084,-2.178 -0.889,-3.575 -2.176,-8.35 0.007,0.005 -1.876,-4.852 3.032,-7.713 z"
   id="path5"
   inkscape:connector-curvature="0"
   style="fill:#ffffff"
   sodipodi:nodetypes="ccsccccccccccccccc" />
</g>
<g
   id="g7">
</g>
<g
   id="g9">
</g>
<g
   id="g11">
</g>
<g
   id="g13">
</g>
<g
   id="g15">
</g>
<g
   id="g17">
</g>
<g
   id="g19">
</g>
<g
   id="g21">
</g>
<g
   id="g23">
</g>
<g
   id="g25">
</g>
<g
   id="g27">
</g>
<g
   id="g29">
</g>
<g
   id="g31">
</g>
<g
   id="g33">
</g>
<g
   id="g35">
</g>
</svg>