<?xml version="1.0" encoding="iso-8859-1"?>
<!-- Generator: Adobe Illustrator 19.0.0, SVG Export Plug-In . SVG Version: 6.00 Build 0)  -->
<svg xmlns="http://www.w3.org/2000/svg" xmlns:xlink="http://www.w3.org/1999/xlink" version="1.1" id="Layer_1" x="0px" y="0px" viewBox="0 0 451.674 451.674" style="enable-background:new 0 0 451.674 451.674;" xml:space="preserve" width="512px" height="512px">
<g>
	<path d="M167.854,293.299c-7.104-6.834-15.43-12.632-24.85-17.025c-12.292-5.731-25.356-8.638-38.83-8.638   c-35.63,0-68.378,20.857-83.431,53.138c-10.385,22.271-11.476,47.255-3.071,70.347s25.299,41.529,47.571,51.914   c12.29,5.73,25.354,8.637,38.83,8.639c35.631,0,68.379-20.859,83.431-53.138c0-0.001,21.003-36.293,21.003-36.293l-40.276-69.596   L167.854,293.299z M160.313,385.858c-10.146,21.757-32.218,35.815-56.234,35.815c-9.069-0.001-17.868-1.962-26.159-5.828   c-15.009-6.999-26.394-19.423-32.058-34.985s-4.929-32.398,2.07-47.408c10.146-21.757,32.222-35.815,56.242-35.815   c9.061,0,17.859,1.961,26.151,5.827C161.308,317.912,174.761,354.874,160.313,385.858z" fill="#FFFFFF"/>
	<path d="M362.804,95.622c19.33-33.48,7.859-76.292-25.622-95.622l-94.025,162.864l40.318,69.836L362.804,95.622z" fill="#FFFFFF"/>
	<path d="M430.932,320.773c-15.053-32.279-47.801-53.137-83.431-53.137c-13.474,0-26.538,2.906-38.83,8.638   c-9.42,4.393-17.747,10.19-24.85,17.025L114.492,0C81.011,19.33,69.54,62.141,88.87,95.622l175.299,302.91   c15.055,32.284,47.803,53.142,83.432,53.142c13.475,0,26.539-2.907,38.831-8.639c22.271-10.385,39.166-28.822,47.571-51.914   S441.317,343.046,430.932,320.773z M405.812,380.86c-5.664,15.563-17.049,27.986-32.059,34.985   c-8.292,3.867-17.091,5.828-26.152,5.828c-24.02,0-46.095-14.059-56.241-35.815c-14.448-30.984-0.995-67.946,29.988-82.395   c8.292-3.866,17.091-5.827,26.152-5.827c24.02,0,46.096,14.059,56.242,35.815C410.741,348.462,411.476,365.298,405.812,380.86z" fill="#FFFFFF"/>
</g>
<g>
</g>
<g>
</g>
<g>
</g>
<g>
</g>
<g>
</g>
<g>
</g>
<g>
</g>
<g>
</g>
<g>
</g>
<g>
</g>
<g>
</g>
<g>
</g>
<g>
</g>
<g>
</g>
<g>
</g>
</svg>
