<?xml version="1.0" encoding="iso-8859-1"?>
<!-- Generator: Adobe Illustrator 16.0.0, SVG Export Plug-In . SVG Version: 6.00 Build 0)  -->
<!DOCTYPE svg PUBLIC "-//W3C//DTD SVG 1.1//EN" "http://www.w3.org/Graphics/SVG/1.1/DTD/svg11.dtd">
<svg xmlns="http://www.w3.org/2000/svg" xmlns:xlink="http://www.w3.org/1999/xlink" version="1.1" id="Capa_1" x="0px" y="0px" width="512px" height="512px" viewBox="0 0 512 512" style="enable-background:new 0 0 512 512;" xml:space="preserve">
<g>
	<g>
		<g>
			<path d="M302.188,279.562C313.36,263.875,320,244.727,320,224c0-53.032-42.984-96-96-96c-53.017,0-96,42.968-96,96     c0,53.016,42.983,96,96,96c20.727,0,39.875-6.641,55.562-17.812l77.124,77.125c6.25,6.252,16.375,6.252,22.624,0     c6.252-6.25,6.252-16.375,0-22.623L302.188,279.562z M278.953,256.318c-5.53,9.36-13.273,17.104-22.635,22.635     C246.805,284.562,235.843,288,224,288c-35.345,0-64-28.656-64-64s28.655-64,64-64c35.344,0,64,28.656,64,64     C288,235.843,284.562,246.805,278.953,256.318z M256,0C114.609,0,0,114.609,0,256c0,141.391,114.609,256,256,256     c141.391,0,256-114.609,256-256C512,114.609,397.391,0,256,0z M256,472c-119.298,0-216-96.702-216-216     c0-119.297,96.702-216,216-216s216,96.703,216,216C472,375.298,375.298,472,256,472z" fill="#FFFFFF"/>
		</g>
	</g>
</g>
<g>
</g>
<g>
</g>
<g>
</g>
<g>
</g>
<g>
</g>
<g>
</g>
<g>
</g>
<g>
</g>
<g>
</g>
<g>
</g>
<g>
</g>
<g>
</g>
<g>
</g>
<g>
</g>
<g>
</g>
</svg>
