<?xml version="1.0" encoding="UTF-8" standalone="no"?>
<!-- Created with Inkscape (http://www.inkscape.org/) -->

<svg
   xmlns:dc="http://purl.org/dc/elements/1.1/"
   xmlns:cc="http://creativecommons.org/ns#"
   xmlns:rdf="http://www.w3.org/1999/02/22-rdf-syntax-ns#"
   xmlns:svg="http://www.w3.org/2000/svg"
   xmlns="http://www.w3.org/2000/svg"
   xmlns:sodipodi="http://sodipodi.sourceforge.net/DTD/sodipodi-0.dtd"
   xmlns:inkscape="http://www.inkscape.org/namespaces/inkscape"
   width="512"
   height="512"
   viewBox="0 0 512.00001 512.00001"
   id="svg2"
   version="1.1"
   inkscape:version="0.91 r13725"
   sodipodi:docname="docscom.svg">
  <defs
     id="defs4" />
  <sodipodi:namedview
     id="base"
     pagecolor="#ffffff"
     bordercolor="#666666"
     borderopacity="1.0"
     inkscape:pageopacity="0.0"
     inkscape:pageshadow="2"
     inkscape:zoom="0.175"
     inkscape:cx="-508.90962"
     inkscape:cy="1038.2318"
     inkscape:document-units="px"
     inkscape:current-layer="layer1"
     showgrid="false"
     units="px"
     inkscape:window-width="1366"
     inkscape:window-height="706"
     inkscape:window-x="-8"
     inkscape:window-y="-8"
     inkscape:window-maximized="1" />
  <metadata
     id="metadata7">
    <rdf:RDF>
      <cc:Work
         rdf:about="">
        <dc:format>image/svg+xml</dc:format>
        <dc:type
           rdf:resource="http://purl.org/dc/dcmitype/StillImage" />
        <dc:title></dc:title>
      </cc:Work>
    </rdf:RDF>
  </metadata>
  <g
     inkscape:label="Layer 1"
     inkscape:groupmode="layer"
     id="layer1"
     transform="translate(0,-540.36216)">
    <path
       style="fill:#ffffff"
       d="M 271.4162,1052.3622 C 0.39284626,999.46062 272.57132,1052.8901 0.39284626,999.46062 0.07171526,864.08576 -0.08171594,728.70983 0.04361606,593.3355 L 274.07169,540.36216 l 0.44282,64.11662 176.35253,2.00128 c 9.31663,0.26751 11.81988,2.22873 11.98125,12.34944 l 0.25919,86.44128 0.25919,88.17398 48.63333,0 0,218.58784 -180.06072,0 c 0.01,-37.47769 -0.66504,-68.97802 -1.28923,-106.22965 l -56.13554,0 c -1.36037,146.55925 0,0 -1.36037,146.55925 z M 497.88733,806.69679 c -54.28737,0.0934 -107.20292,-0.0761 -154.26824,0.0337 l 0,193.03043 154.76472,0 c -0.16543,-64.35467 -0.33094,-128.70942 -0.49648,-193.06414 z m -82.68466,157.21443 c -17.88178,-2.73459 -32.42689,-13.08687 -42.17713,-30.01873 -3.60278,-6.25651 -8.67543,-21.92945 -9.10193,-28.12181 l -0.31428,-4.5642 c 20.26459,-0.17997 0,0 60.79376,-0.53983 l 0.72997,-64.31384 c 5.98396,0.0633 18.43082,3.50649 26.33432,7.28509 16.54125,7.90809 29.81017,26.40551 33.42686,46.59841 1.40019,7.81762 0.37745,22.79629 -2.06748,30.27739 -4.60294,14.0845 -13.21597,26.03389 -24.37877,33.82195 -8.04637,5.61372 -15.12315,8.39908 -24.63551,9.6963 -8.09913,1.10438 -10.70875,1.08753 -18.60981,-0.12073 z m -61.18921,-74.09779 c -1.57412,-1.65197 1.91711,-18.98833 5.36883,-26.66004 9.09842,-20.22161 28.22816,-34.67669 48.50904,-36.6548 l 6.77875,-0.66118 0,64.64394 z m -22.07398,-46.31822 0,-50.05045 119.68519,0 0.0195,-87.82536 0.0195,-87.82536 c -59.37526,-0.49881 -118.74889,-0.42142 -178.12297,-0.0171 0,9.86627 0,19.73254 0,29.59881 l 133.34226,0 0,10.7251 0,10.72509 -133.34226,0 c 0,10.89534 0,21.79067 0,32.68601 l 133.40815,0 -0.27632,10.98046 -0.27622,10.98045 c -44.28521,0.1749 -88.57041,0.34992 -132.85561,0.52492 l 0,31.63617 c 44.2852,0.17491 88.5704,0.34992 132.85561,0.52492 l 0.27622,10.98046 0.27632,10.98045 -133.40815,0 0,115.42247 58.39807,0 0,-50.05045 z m -183.40889,39.77193 c 14.31607,-5.241 25.44736,-14.40493 33.86583,-27.88035 16.49989,-36.25818 21.41623,-76.45298 5.33155,-111.7029 -4.41976,-9.45106 -14.20416,-20.10946 -23.04292,-25.10102 -11.06087,-6.2464 -25.99476,-6.82085 -53.92535,-6.83546 l -33.822216,-0.0174 0,174.81253 32.362266,-0.37967 c 31.40612,-0.36853 32.56528,-0.45413 39.23376,-2.89537 z m -42.32138,-140.69488 4.58536,-0.44586 c 2.52194,-0.24525 8.71711,-0.0643 13.76703,0.40245 20.02034,1.84982 31.24404,12.03243 37.28534,33.82705 1.59231,5.74436 2.04939,10.22184 2.05733,20.15317 0.0223,27.88199 -8.62863,46.2316 -25.65177,54.41046 -3.56908,1.71479 -6.9383,2.93347 -18.23029,2.97065 l -13.85044,0.046 0.0375,-111.36347 z"
       id="path4241"
       inkscape:connector-curvature="0"
       sodipodi:nodetypes="cccccccccccccccccccccssccccsssscscsscccccccccccccccccccccccccccccccscccscccscssssccc" />
  </g>
</svg>
