<?xml version="1.0" encoding="iso-8859-1"?>
<!-- Generator: Adobe Illustrator 16.0.0, SVG Export Plug-In . SVG Version: 6.00 Build 0)  -->
<!DOCTYPE svg PUBLIC "-//W3C//DTD SVG 1.1//EN" "http://www.w3.org/Graphics/SVG/1.1/DTD/svg11.dtd">
<svg xmlns="http://www.w3.org/2000/svg" xmlns:xlink="http://www.w3.org/1999/xlink" version="1.1" id="Capa_1" x="0px" y="0px" width="512px" height="512px" viewBox="0 0 31.999 31.999" style="enable-background:new 0 0 31.999 31.999;" xml:space="preserve">
<g>
	<g id="eye_on_money">
		<path d="M31.836,26.753L17.16,4.132c-0.186-0.287-0.506-0.463-0.848-0.467s-0.666,0.166-0.859,0.451L0.174,26.738    c-0.211,0.312-0.232,0.717-0.055,1.051c0.178,0.336,0.525,0.545,0.904,0.545h29.954c0.375,0,0.719-0.205,0.896-0.535    S32.039,27.068,31.836,26.753z M12.256,18.279c-0.113,0.365-0.174,0.754-0.174,1.156c0,2.164,1.754,3.918,3.918,3.918    c2.164,0,3.917-1.754,3.917-3.918c0-0.369-0.055-0.725-0.147-1.062c1.442,0.856,2.86,1.938,3.847,2.766    c-1.986,1.697-5.228,4.057-7.4,4.057c-2.209,0-5.705-2.424-7.832-4.133C9.167,20.371,10.659,19.195,12.256,18.279z M16.286,6.542    l6.934,10.687c-2.037-1.651-4.738-3.413-7.004-3.413c-2.199,0-4.93,1.666-7.057,3.275L16.286,6.542z M6.079,21.654    c0.979,0.855,3.92,3.324,6.854,4.633H2.95L6.079,21.654z M19.439,26.287c2.918-1.348,5.752-3.922,6.592-4.721l3.062,4.721H19.439z    " fill="#FFFFFF"/>
	</g>
</g>
<g>
</g>
<g>
</g>
<g>
</g>
<g>
</g>
<g>
</g>
<g>
</g>
<g>
</g>
<g>
</g>
<g>
</g>
<g>
</g>
<g>
</g>
<g>
</g>
<g>
</g>
<g>
</g>
<g>
</g>
</svg>
