<?xml version="1.0" encoding="UTF-8" standalone="no"?>
<svg
   xmlns:dc="http://purl.org/dc/elements/1.1/"
   xmlns:cc="http://creativecommons.org/ns#"
   xmlns:rdf="http://www.w3.org/1999/02/22-rdf-syntax-ns#"
   xmlns:svg="http://www.w3.org/2000/svg"
   xmlns="http://www.w3.org/2000/svg"
   xmlns:sodipodi="http://sodipodi.sourceforge.net/DTD/sodipodi-0.dtd"
   xmlns:inkscape="http://www.inkscape.org/namespaces/inkscape"
   height="512"
   width="512"
   id="svg2"
   version="1.1"
   inkscape:version="0.91 r13725"
   sodipodi:docname="duckduckgo.svg">
  <metadata
     id="metadata10">
    <rdf:RDF>
      <cc:Work
         rdf:about="">
        <dc:format>image/svg+xml</dc:format>
        <dc:type
           rdf:resource="http://purl.org/dc/dcmitype/StillImage" />
        <dc:title />
      </cc:Work>
    </rdf:RDF>
  </metadata>
  <defs
     id="defs8" />
  <sodipodi:namedview
     pagecolor="#ffffff"
     bordercolor="#666666"
     borderopacity="1"
     objecttolerance="10"
     gridtolerance="10"
     guidetolerance="10"
     inkscape:pageopacity="0"
     inkscape:pageshadow="2"
     inkscape:window-width="1366"
     inkscape:window-height="706"
     id="namedview6"
     showgrid="false"
     inkscape:zoom="0.472"
     inkscape:cx="460.70747"
     inkscape:cy="300.2491"
     inkscape:window-x="-8"
     inkscape:window-y="-8"
     inkscape:window-maximized="1"
     inkscape:current-layer="svg2" />
  <path
     d="M 0,256.77655 C 0,182.57364 24.172043,121.22683 72.516129,72.736098 120.86022,24.245366 182.02151,0 256,0 329.97849,0 391.13978,24.245366 439.48387,72.736098 487.82796,121.22683 512,182.57364 512,256.77655 c 0,62.81361 -17.72043,116.82642 -53.16129,162.03841 -35.44086,45.212 -83.6129,74.7206 -144.51613,88.52579 -3.09677,-5.86721 -8.86021,-14.84058 -17.29032,-26.92012 -8.43011,-12.07954 -14.36559,-21.74318 -17.80645,-28.99091 22.0215,8.97338 36.8172,13.46007 44.3871,13.46007 5.50537,0 8.25806,-8.62824 8.25806,-25.88473 0,-32.09707 -2.92473,-48.1456 -8.77419,-48.1456 -8.60215,0 -25.29033,9.49107 -50.06452,28.4732 0,-4.83182 -2.58065,-6.9026 -7.74194,-6.21233 l -2.58064,0 c -8.94624,-23.81396 -13.41936,-45.03944 -13.41936,-63.67645 0,-5.17695 0.51613,-10.35389 1.54839,-15.53084 31.65591,15.53084 57.11828,23.29626 76.3871,23.29626 10.66667,0 26.75269,-3.10617 48.25806,-9.3185 21.50537,-6.21233 32.25806,-12.94236 32.25806,-20.19009 0,-4.48669 -2.92473,-6.73003 -8.77419,-6.73003 -8.94623,0 -21.84946,1.20795 -38.70968,3.62386 -16.86021,2.41591 -29.76344,3.62387 -38.70968,3.62387 -9.29031,0 -19.52687,-2.41591 -30.70967,-7.24773 -11.1828,-4.83181 -16.7742,-11.38928 -16.7742,-19.6724 0,-1.72565 0.25807,-3.01988 0.7742,-3.88271 0.51613,-0.86282 1.29033,-1.38051 2.32258,-1.55308 1.03226,-0.17256 2.06452,-0.17256 3.09677,0 1.03226,0.17257 2.40861,0.34513 4.12904,0.51769 1.72043,0.17257 3.26881,0.25885 4.64516,0.25885 3.09677,0 7.56989,0.43141 13.41935,1.29423 5.84947,0.86283 10.15054,1.29424 12.90323,1.29424 10.66667,0 32.51613,-6.29862 65.54839,-18.89585 33.03225,-12.59724 49.54838,-22.34716 49.54838,-29.24975 0,-4.14155 -3.18279,-7.07515 -9.54838,-8.8008 -6.36559,-1.72565 -12.30108,-2.58848 -17.80645,-2.58848 -4.81721,0 -12.04302,1.29424 -21.67743,3.88271 -9.63441,2.58847 -20.12903,5.69464 -31.48387,9.31851 -11.35483,3.62386 -18.92472,5.95348 -22.70967,6.98887 1.37634,-6.90259 2.06451,-12.42467 2.06451,-16.56623 0,-16.22109 -4.30107,-35.11695 -12.90322,-56.68756 -8.60215,-21.57061 -18.58065,-37.53286 -29.93549,-47.88675 -9.29032,-8.28312 -21.67742,-13.97776 -37.16129,-17.08393 C 239.65591,109.23357 224.60215,97.930567 204.12903,87.749242 183.65591,77.567914 165.50537,72.47725 149.67742,72.47725 c -3.09677,0 -7.82796,0.603977 -14.19355,1.811931 -6.36559,1.207954 -10.4086,1.984496 -12.12903,2.329626 l -11.35483,16.048534 3.09677,0.517695 c 2.40859,0 6.10752,-0.34513 11.09677,-1.035389 4.98925,-0.69026 8.68817,-1.03539 11.09678,-1.03539 11.69892,0 25.11827,2.415907 40.25806,7.247722 -9.63441,4.831811 -18.06452,8.110551 -25.29032,9.836201 -0.68817,0.34513 -2.92473,0.77654 -6.70968,1.29423 -3.78495,0.5177 -6.96774,1.0354 -9.54839,1.55309 -2.58065,0.51769 -4.98925,1.55308 -7.22581,3.10617 -2.23656,1.55309 -3.35484,3.53758 -3.35484,5.95349 19.26882,-2.07078 33.72044,-3.10617 43.35485,-3.10617 13.07526,0 23.39784,1.20795 30.96774,3.62386 -26.49463,3.10617 -46.88173,12.25211 -61.1613,27.43782 -14.27957,15.18571 -21.41935,36.06606 -21.41935,62.64105 0,9.3185 0.68817,17.94674 2.06451,25.88473 6.53764,41.41557 19.09678,103.1938 37.67742,185.33469 11.35484,53.14998 17.72043,82.48601 19.09678,88.00808 L 176.51613,512 C 121.46237,494.74351 78.279569,462.73273 46.967742,415.96764 15.655914,369.20256 0,316.13886 0,256.77655 Z M 163.09677,231.4095 c 0,-4.48669 1.80645,-8.54196 5.41936,-12.16582 3.6129,-3.62386 7.65591,-5.43579 12.12903,-5.43579 4.47312,0 8.51613,1.81193 12.12903,5.43579 3.61291,3.62386 5.41936,7.67913 5.41936,12.16582 0,4.48669 -1.80645,8.54196 -5.41936,12.16583 -3.6129,3.62387 -7.65591,5.4358 -12.12903,5.4358 -4.47312,0 -8.51613,-1.81193 -12.12903,-5.4358 -3.61291,-3.62387 -5.41936,-7.67914 -5.41936,-12.16583 z m 119.22581,-10.35389 c 0,-4.14156 1.54839,-7.67914 4.64516,-10.61274 3.09678,-2.9336 6.53764,-4.4004 10.32258,-4.4004 4.12903,0 7.65592,1.4668 10.58065,4.4004 2.92473,2.9336 4.38709,6.47118 4.38709,10.61274 0,3.79643 -1.46236,7.24773 -4.38709,10.35389 -2.92473,3.10617 -6.45162,4.65926 -10.58065,4.65926 -3.78494,0 -7.2258,-1.55309 -10.32258,-4.65926 -3.09677,-3.10616 -4.64516,-6.55746 -4.64516,-10.35389 z"
     id="path4"
     inkscape:connector-curvature="0"
     style="fill:#ffffff"
     sodipodi:nodetypes="sssssscscssscccscssssssssssssssssssssscssccssscccssccssscscssccscssssssssssssssssssss" />
</svg>
