<?xml version="1.0" encoding="iso-8859-1"?>
<!-- Generator: Adobe Illustrator 16.0.0, SVG Export Plug-In . SVG Version: 6.00 Build 0)  -->
<!DOCTYPE svg PUBLIC "-//W3C//DTD SVG 1.1//EN" "http://www.w3.org/Graphics/SVG/1.1/DTD/svg11.dtd">
<svg xmlns="http://www.w3.org/2000/svg" xmlns:xlink="http://www.w3.org/1999/xlink" version="1.1" id="Capa_1" x="0px" y="0px" width="512px" height="512px" viewBox="0 0 44.834 44.834" style="enable-background:new 0 0 44.834 44.834;" xml:space="preserve">
<g>
	<g id="Layer_1_copy_38_">
		<path d="M38.607,25.422l-3.823-7.66H32.12l0.682,1.278c-0.901-1.345-2.68-1.687-4.306-1.687c-4.758,0-5.062,2.605-5.062,3.021    h2.367c0,0,0.124-1.521,2.531-1.521c1.564,0,2.775,0.716,2.775,2.092v0.49h-2.775c-3.077,0-4.941,0.752-5.475,2.273    c0.055-0.336,0.084-0.687,0.084-1.049c0-2.925-1.972-5.277-5.301-5.277c-3.119,0-4.088,1.684-4.088,1.684v-5.634h-2.286v8.574    c-0.034-1.863-1.242-4.654-5.469-4.654C2.634,17.354,0,18.694,0,22.744c0,3.207,1.772,5.227,5.879,5.227    c4.834,0,5.144-3.186,5.144-3.186H8.681c0,0-0.502,1.715-2.945,1.715c-1.989,0-3.42-1.345-3.42-3.228h8.951v2.664    c0,0.709-0.05,1.707-0.05,1.707h2.234c0,0,0.08-0.716,0.08-1.371c0,0,1.104,1.728,4.105,1.728c2.56,0,4.455-1.439,5.082-3.656    c-0.012,0.117-0.019,0.236-0.019,0.359c0,2.153,1.8,3.325,4.233,3.325c3.316,0,4.385-1.832,4.385-1.832    c0,0.729,0.057,1.447,0.057,1.447h2.104c0,0-0.082-0.892-0.082-1.459v-4.922c0-0.659-0.108-1.209-0.302-1.671l4.267,8.008    L35.355,31.4h2.53l6.948-13.636h-2.413L38.607,25.422z M2.369,21.765c0-1.846,1.685-2.898,3.347-2.898    c1.894,0,3.185,1.16,3.185,2.898H2.369z M17.08,26.455c-2.291,0-3.527-1.789-3.527-3.771c0-1.847,1.109-3.751,3.512-3.751    c2.146,0,3.511,1.593,3.511,3.729C20.576,24.955,18.999,26.455,17.08,26.455z M31.109,23.561c0,0.854-0.526,2.971-3.621,2.971    c-1.695,0-2.422-0.846-2.422-1.826c0-1.785,2.447-1.795,6.043-1.795V23.561z" fill="#FFFFFF"/>
	</g>
</g>
<g>
</g>
<g>
</g>
<g>
</g>
<g>
</g>
<g>
</g>
<g>
</g>
<g>
</g>
<g>
</g>
<g>
</g>
<g>
</g>
<g>
</g>
<g>
</g>
<g>
</g>
<g>
</g>
<g>
</g>
</svg>
