<?xml version="1.0" encoding="UTF-8" standalone="no"?>
<svg
   xmlns:dc="http://purl.org/dc/elements/1.1/"
   xmlns:cc="http://creativecommons.org/ns#"
   xmlns:rdf="http://www.w3.org/1999/02/22-rdf-syntax-ns#"
   xmlns:svg="http://www.w3.org/2000/svg"
   xmlns="http://www.w3.org/2000/svg"
   version="1.1"
   id="svg2"
   viewBox="0 0 511.99999 512.00001"
   height="512"
   width="512">
  <defs
     id="defs4" />
  <metadata
     id="metadata7">
    <rdf:RDF>
      <cc:Work
         rdf:about="">
        <dc:format>image/svg+xml</dc:format>
        <dc:type
           rdf:resource="http://purl.org/dc/dcmitype/StillImage" />
        <dc:title></dc:title>
      </cc:Work>
    </rdf:RDF>
  </metadata>
  <g
     transform="translate(0,-540.36216)"
     id="layer1">
    <path
       id="path3347"
       d="m 144.81952,1022.738 c -10.06498,-1.6002 -23.75586,-8.9008 -32.58025,-17.3733 -8.01634,-7.69667 -12.772525,-15.46801 -22.500435,-36.7646 l -8.959464,-19.61427 -5.292065,-1.80162 C 44.455283,936.62053 17.475681,908.82872 6.2701184,875.88344 -0.31904564,856.51065 -0.24793164,857.91606 0.14789836,754.89352 0.50336836,662.37443 0.54068036,660.96086 2.8380884,652.98025 16.355565,606.02385 51.627987,575.73477 99.163155,570.264 c 6.408875,-0.73765 59.823255,-0.98161 157.861235,-0.72112 162.50886,0.43186 152.15613,0.0215 172.84404,6.84976 42.68946,14.08971 75.762,52.87018 81.04932,95.03731 1.43713,11.46133 1.44558,163.76156 0.01,174.86168 -3.69233,28.54396 -16.0872,53.53225 -37.00943,74.61152 -16.4331,16.5565 -31.81131,26.4403 -52.4827,33.73125 -18.34701,6.47105 -19.61514,6.54643 -110.20077,6.54643 l -82.40929,0 -8.84351,16.36452 c -4.86394,9.00044 -10.22977,18.37937 -11.92406,20.84197 -7.4089,10.76838 -22.66598,20.41728 -37.13083,23.48218 -6.782,1.4371 -19.80606,1.8703 -26.1073,0.8685 z m 27.77429,-100.21148 16.48708,-32.21192 101.65964,0 c 111.98605,0 107.05498,0.27412 121.4009,-6.74969 9.09508,-4.45298 21.89614,-17.03173 26.71002,-26.24628 6.51297,-12.46687 6.57351,-13.36773 6.59406,-98.12106 0.0113,-46.70955 -0.40234,-79.16403 -1.05379,-82.67728 -3.7872,-20.4244 -24.26953,-40.35939 -46.17172,-44.93767 -4.32833,-0.90483 -44.90527,-1.14632 -151.93292,-0.9043 l -146.02739,0.33028 -8.052985,3.89421 c -14.189077,6.86135 -22.216482,16.05496 -27.336761,31.30795 l -2.727705,8.12567 0.01278,84.09857 c 0.01396,92.21738 -0.189234,89.03827 6.573734,102.84012 2.228808,4.54854 5.935982,9.49307 10.508099,14.01551 10.633386,10.51763 21.474648,14.98703 36.412638,15.01119 l 7.87362,0.0129 15.72828,32.21193 c 8.65055,17.71656 15.98188,32.21192 16.29184,32.21192 0.30995,0 7.98272,-14.49536 17.05062,-32.21192 z M 149.42157,802.91774 c -11.17906,-3.64038 -21.86174,-13.16587 -26.95706,-24.03697 -2.57534,-5.49471 -2.87766,-7.38233 -2.87766,-17.9677 0,-11.20793 0.18558,-12.20532 3.53995,-19.02426 4.49521,-9.1382 11.22469,-15.86952 20.36242,-20.36803 6.81752,-3.35627 7.80592,-3.53998 19.04686,-3.53998 11.21954,0 12.23891,0.18844 18.98325,3.50863 9.17093,4.51482 18.01669,13.84114 21.33328,22.49219 8.54637,22.29248 -0.89766,46.51155 -22.10847,56.69696 -5.40364,2.59478 -7.98103,3.12155 -16.59746,3.39213 -6.56508,0.20626 -11.81301,-0.20476 -14.72511,-1.15297 z m 180.60249,-0.37183 c -12.98006,-4.63605 -21.00243,-11.78227 -26.68084,-23.76682 -3.08182,-6.50434 -3.3696,-8.03355 -3.3696,-17.90478 0,-10.31577 0.17878,-11.15467 4.04355,-18.97455 4.66826,-9.44561 11.51493,-16.26992 20.98275,-20.91445 5.56267,-2.72878 7.17325,-2.9985 17.92294,-3.0014 11.0585,0 12.27218,0.21529 19.04879,3.42542 33.4165,15.82958 33.43879,63.34453 0.037,78.98439 -6.16752,2.88791 -8.74568,3.4572 -16.93838,3.74056 -7.23785,0.25028 -11.01472,-0.14839 -15.04625,-1.58837 z"
       style="fill:#ffffff" />
  </g>
</svg>
