<?xml version="1.0" encoding="UTF-8" standalone="no"?>
<!-- Generator: Adobe Illustrator 16.0.0, SVG Export Plug-In . SVG Version: 6.00 Build 0)  -->

<svg
   xmlns:dc="http://purl.org/dc/elements/1.1/"
   xmlns:cc="http://creativecommons.org/ns#"
   xmlns:rdf="http://www.w3.org/1999/02/22-rdf-syntax-ns#"
   xmlns:svg="http://www.w3.org/2000/svg"
   xmlns="http://www.w3.org/2000/svg"
   xmlns:sodipodi="http://sodipodi.sourceforge.net/DTD/sodipodi-0.dtd"
   xmlns:inkscape="http://www.inkscape.org/namespaces/inkscape"
   version="1.1"
   id="Capa_1"
   x="0px"
   y="0px"
   width="512px"
   height="512px"
   viewBox="0 0 491.535 491.535"
   style="enable-background:new 0 0 491.535 491.535;"
   xml:space="preserve"
   inkscape:version="0.91 r13725"
   sodipodi:docname="factslides.svg"><metadata
   id="metadata50"><rdf:RDF><cc:Work
       rdf:about=""><dc:format>image/svg+xml</dc:format><dc:type
         rdf:resource="http://purl.org/dc/dcmitype/StillImage" /><dc:title></dc:title></cc:Work></rdf:RDF></metadata><defs
   id="defs48" /><sodipodi:namedview
   pagecolor="#ffffff"
   bordercolor="#666666"
   borderopacity="1"
   objecttolerance="10"
   gridtolerance="10"
   guidetolerance="10"
   inkscape:pageopacity="0"
   inkscape:pageshadow="2"
   inkscape:window-width="1366"
   inkscape:window-height="706"
   id="namedview46"
   showgrid="false"
   inkscape:zoom="1.84375"
   inkscape:cx="262.59785"
   inkscape:cy="420.4003"
   inkscape:window-x="-8"
   inkscape:window-y="-8"
   inkscape:window-maximized="1"
   inkscape:current-layer="Capa_1" />
<g
   id="g3">
	<g
   id="g5">
		<g
   id="Icons_9_">
			<g
   id="g8">
				<path
   d="M306.545,367.594H185.003c-9.041,0-16.382,7.338-16.382,16.385c0,9.05,7.341,16.384,16.382,16.384h121.542      c9.041,0,16.389-7.334,16.389-16.384C322.934,374.932,315.586,367.594,306.545,367.594z"
   fill="#FFFFFF"
   id="path10" />
				<path
   d="M213.917,464.367v8.926c0,10.076,8.157,18.242,18.239,18.242h27.233c10.062,0,18.239-8.166,18.239-18.242v-8.926      c20.642-1.467,36.981-18.498,36.981-39.506H176.92C176.921,445.869,193.277,462.9,213.917,464.367z"
   fill="#FFFFFF"
   id="path12" />
				<path
   d="M 245.777,0 C 155.084,0 81.561,73.516 81.561,164.207 c 0,38.268 13.164,73.396 35.152,101.287 19.444,24.647 37.874,51.592 53.76,78.688 l 150.583,0 c 16.049,-27.353 34.146,-53.793 53.78,-78.707 21.968,-27.878 35.139,-63.011 35.139,-101.27 C 409.975,73.517 336.451,0 245.777,0 Z"
   id="path14"
   inkscape:connector-curvature="0"
   style="fill:#ffffff"
   sodipodi:nodetypes="ssccccss" />
			</g>
		</g>
	</g>
</g>
<g
   id="g16">
</g>
<g
   id="g18">
</g>
<g
   id="g20">
</g>
<g
   id="g22">
</g>
<g
   id="g24">
</g>
<g
   id="g26">
</g>
<g
   id="g28">
</g>
<g
   id="g30">
</g>
<g
   id="g32">
</g>
<g
   id="g34">
</g>
<g
   id="g36">
</g>
<g
   id="g38">
</g>
<g
   id="g40">
</g>
<g
   id="g42">
</g>
<g
   id="g44">
</g>
</svg>