<?xml version="1.0" encoding="UTF-8" standalone="no"?>
<svg
   xmlns:dc="http://purl.org/dc/elements/1.1/"
   xmlns:cc="http://creativecommons.org/ns#"
   xmlns:rdf="http://www.w3.org/1999/02/22-rdf-syntax-ns#"
   xmlns:svg="http://www.w3.org/2000/svg"
   xmlns="http://www.w3.org/2000/svg"
   version="1.1"
   id="svg2"
   viewBox="0 0 512.00001 512.00001"
   height="512"
   width="512">
  <defs
     id="defs4" />
  <metadata
     id="metadata7">
    <rdf:RDF>
      <cc:Work
         rdf:about="">
        <dc:format>image/svg+xml</dc:format>
        <dc:type
           rdf:resource="http://purl.org/dc/dcmitype/StillImage" />
        <dc:title></dc:title>
      </cc:Work>
    </rdf:RDF>
  </metadata>
  <g
     transform="translate(0,-540.36216)"
     id="layer1">
    <path
       id="path3347"
       d="m 237.73824,981.51621 c -23.75255,-2.7228 -64.74093,-11.04306 -71.32951,-14.47923 -2.51036,-1.30925 -2.65524,-2.13366 -0.92749,-5.2782 1.12616,-2.04962 2.01421,-9.04306 1.97345,-15.54095 -0.0819,-13.0458 -3.41838,-21.56091 -12.50247,-31.90711 -16.43056,-18.71338 -49.50404,-19.55186 -68.089872,-1.7262 l -4.88426,4.68448 1.2318,-6.62264 c 5.29103,-28.44683 20.014792,-48.12838 56.473292,-75.48894 33.55958,-25.18504 57.59389,-49.86861 75.04506,-77.07229 20.5429,-32.02321 31.57993,-66.81499 29.21838,-92.10438 l -0.96554,-10.33975 12.56846,0 12.56847,0 0,13.98165 c 0,54.07896 37.73151,115.21679 99.57811,161.35018 25.67442,19.15139 33.66578,26.35551 43.17895,38.92541 12.99224,17.16683 20.92281,38.76027 18.20799,49.57695 l -1.03826,4.13677 -3.81688,-5.57471 c -8.19952,-11.9757 -21.81016,-18.25435 -39.44441,-18.19589 -23.2589,0.0771 -40.69776,14.74894 -45.59402,38.35958 -1.83563,8.85172 -0.0542,24.14206 3.30196,28.34017 1.7198,2.15128 -19.76943,7.72433 -48.21309,12.50365 -11.43116,1.92076 -47.56538,3.50023 -56.54012,2.47145 z m 126.64173,-24.21696 c -2.84382,-5.31372 -2.03656,-17.33712 1.56007,-23.23578 6.05671,-9.93335 21.1682,-13.77042 32.05673,-8.13973 4.04385,2.09116 11.89347,11.86566 11.89347,14.81 0,1.45019 -40.05071,19.83009 -43.21074,19.83009 -0.30382,0 -1.3386,-1.46907 -2.29953,-3.26458 z m -230.43925,-1.28484 c -15.45326,-5.88895 -36.286942,-16.4065 -36.286942,-18.3189 0,-1.13045 3.040172,-4.80198 6.755912,-8.15894 5.76732,-5.21042 7.92835,-6.10264 14.76795,-6.09726 10.56685,0.008 18.26355,4.79839 22.41908,13.95262 3.75371,8.26905 3.90804,10.55219 1.12864,16.69831 -2.02297,4.47338 -2.06883,4.48342 -8.78464,1.92417 z M 36.879333,911.30653 C 19.629382,900.69083 9.02784,890.14839 3.507702,878.12099 c -6.052442,-13.18721 -4.793201,-20.71267 7.886772,-47.1331 10.988108,-22.89521 11.554505,-25.16569 15.462727,-61.98536 2.747056,-25.88015 7.231717,-48.41726 12.594353,-63.29117 6.613371,-18.34303 6.795666,-19.73557 2.75163,-21.0191 -5.215395,-1.65529 -15.56968,-12.71255 -19.038559,-20.33114 -1.954347,-4.29227 -3.087395,-10.77958 -3.110956,-17.81209 -0.07055,-21.05689 11.946505,-35.72724 29.134987,-35.56778 17.292132,0.1605 31.048192,9.13068 38.523382,25.12092 3.72436,7.96677 4.96844,8.10257 19.224442,2.0986 14.86587,-6.26081 31.67747,-8.71367 45.13133,-6.58478 5.81071,0.91948 20.62927,4.85614 32.93017,8.74816 l 22.36526,7.07639 3.37315,7.17607 c 10.05189,21.38449 -2.98297,64.14682 -30.75151,100.88381 -15.78256,20.87986 -28.23188,32.83544 -55.32687,53.13258 -45.617372,34.17248 -67.440134,64.79899 -70.302802,98.66445 -0.593249,7.01801 -1.568541,12.76002 -2.167343,12.76002 -0.598802,0 -7.48765,-3.93792 -15.308532,-8.75094 z M 106.70732,786.0847 c 12.42751,-5.19254 17.37671,-18.38893 11.09106,-29.57276 -7.81947,-13.91286 -23.484702,-15.77806 -34.325282,-4.08698 -3.53572,3.81311 -4.38473,6.40369 -4.38473,13.37913 0,9.94977 4.07842,16.5354 12.5151,20.20873 6.65229,2.89641 8.32475,2.90438 15.103852,0.0719 z m 352.1281,124.00786 c 0,-29.8007 -23.49308,-65.75962 -61.87349,-94.70467 -38.87761,-29.32001 -56.29816,-46.62384 -73.03506,-72.54571 -13.67701,-21.18274 -20.90084,-39.12839 -23.86385,-59.28314 -1.98921,-13.53091 -0.2485,-28.18356 3.99413,-33.62116 2.50255,-3.2074 41.81052,-15.84884 57.09696,-18.36236 13.15787,-2.16353 28.97701,0.26405 47.67125,7.31553 6.37634,2.40515 12.16749,4.37302 12.86921,4.37302 0.70172,0 1.73062,-2.27385 2.28645,-5.053 1.4658,-7.32909 13.27816,-19.27863 23.33316,-23.60417 22.19123,-9.54642 40.25442,-0.35041 45.51889,23.17375 3.66568,16.37993 -3.78743,34.97526 -17.55234,43.79279 -3.93943,2.52353 -7.45177,4.7824 -7.80519,5.01971 -0.35342,0.23732 0.97188,4.44613 2.94513,9.3529 7.3318,18.23174 14.31073,51.31912 16.29935,77.2759 2.2279,29.07989 3.81568,35.23225 14.80955,57.38399 C 511.39533,850.48462 512,852.39374 512,863.6637 c 0,10.95798 -0.51996,12.74382 -6.20238,21.30214 -3.41131,5.13781 -9.49729,12.04139 -13.5244,15.34131 -7.3176,5.99624 -29.70347,19.75032 -32.1452,19.75032 -0.71093,0 -1.2926,-4.4842 -1.2926,-9.96491 z m -33.58779,-126.8633 c 5.70352,-4.06127 9.99513,-11.48902 9.87802,-17.0965 -0.21923,-10.49606 -11.45814,-21.60281 -21.85988,-21.60281 -10.48666,0 -21.93146,11.3131 -21.93832,21.68587 -0.005,7.62091 5.31639,15.71909 12.52758,19.06455 7.9239,3.6761 14.1937,3.07495 21.3926,-2.05111 z"
       style="fill:#ffffff" />
  </g>
</svg>
