<?xml version="1.0" encoding="UTF-8" standalone="no"?>
<!-- Generator: Adobe Illustrator 17.1.0, SVG Export Plug-In . SVG Version: 6.00 Build 0)  -->

<svg
   xmlns:dc="http://purl.org/dc/elements/1.1/"
   xmlns:cc="http://creativecommons.org/ns#"
   xmlns:rdf="http://www.w3.org/1999/02/22-rdf-syntax-ns#"
   xmlns:svg="http://www.w3.org/2000/svg"
   xmlns="http://www.w3.org/2000/svg"
   xmlns:sodipodi="http://sodipodi.sourceforge.net/DTD/sodipodi-0.dtd"
   xmlns:inkscape="http://www.inkscape.org/namespaces/inkscape"
   version="1.1"
   id="Capa_1"
   x="0px"
   y="0px"
   viewBox="0 0 203.027 203.027"
   style="enable-background:new 0 0 203.027 203.027;"
   xml:space="preserve"
   width="512px"
   height="512px"
   inkscape:version="0.91 r13725"
   sodipodi:docname="filedropper.svg"><metadata
   id="metadata39"><rdf:RDF><cc:Work
       rdf:about=""><dc:format>image/svg+xml</dc:format><dc:type
         rdf:resource="http://purl.org/dc/dcmitype/StillImage" /><dc:title></dc:title></cc:Work></rdf:RDF></metadata><defs
   id="defs37" /><sodipodi:namedview
   pagecolor="#ffffff"
   bordercolor="#666666"
   borderopacity="1"
   objecttolerance="10"
   gridtolerance="10"
   guidetolerance="10"
   inkscape:pageopacity="0"
   inkscape:pageshadow="2"
   inkscape:window-width="1366"
   inkscape:window-height="706"
   id="namedview35"
   showgrid="false"
   inkscape:zoom="0.4609375"
   inkscape:cx="256"
   inkscape:cy="256"
   inkscape:window-x="-8"
   inkscape:window-y="-8"
   inkscape:window-maximized="1"
   inkscape:current-layer="Capa_1" />
<path
   d="m 145.992,166.534 c -2.398,3.801 -3.664,8.181 -3.664,12.685 0,13.128 10.681,23.809 23.809,23.809 13.128,0 23.809,-10.681 23.809,-23.809 0,-4.522 -1.276,-8.919 -3.692,-12.731 L 172.59,143.419 c -1.351,-2.28 -3.803,-3.678 -6.453,-3.678 -2.649,0 -5.103,1.398 -6.453,3.678 l -13.692,23.115 z M 12.512,43.376 l 49.038,0 0,-1.025 c 0,-4.142 3.357,-7.5 7.5,-7.5 l 11.233,0 0,-6.495 -30.661,0 c -4.143,0 -7.5,-3.358 -7.5,-7.5 l 0,-4.251 C 42.123,7.449 49.572,0 58.728,0 l 68.281,0 c 9.156,0 16.605,7.449 16.605,16.605 l 0,4.251 c 0,4.142 -3.358,7.5 -7.5,7.5 l -30.662,0 0,6.495 11.235,0 c 4.142,0 7.5,3.358 7.5,7.5 l 0,1.025 19.999,0 c 27.156,0 49.249,22.093 49.249,49.25 l 0,25.194 c 2.69,1.139 4.578,3.804 4.578,6.909 0,4.142 -3.358,7.5 -7.5,7.5 l -4.578,0 -35.714,0 -4.103,0 c -4.142,0 -7.5,-3.358 -7.5,-7.5 0,-2.918 1.67,-5.441 4.103,-6.681 l 0,-16.932 c 0,-4.429 -3.603,-8.032 -8.032,-8.032 l -10.502,0 0,2.547 c 0,4.142 -3.358,7.5 -7.5,7.5 l -47.636,0 c -4.143,0 -7.5,-3.358 -7.5,-7.5 l 0,-0.329 -49.038,0 c -4.1429998,0 -7.4999998,-3.358 -7.4999998,-7.5 l 0,-36.926 c -10e-4,-4.142 3.357,-7.5 7.4989998,-7.5 z"
   id="path3"
   inkscape:connector-curvature="0"
   style="fill:#ffffff" />
<g
   id="g5">
</g>
<g
   id="g7">
</g>
<g
   id="g9">
</g>
<g
   id="g11">
</g>
<g
   id="g13">
</g>
<g
   id="g15">
</g>
<g
   id="g17">
</g>
<g
   id="g19">
</g>
<g
   id="g21">
</g>
<g
   id="g23">
</g>
<g
   id="g25">
</g>
<g
   id="g27">
</g>
<g
   id="g29">
</g>
<g
   id="g31">
</g>
<g
   id="g33">
</g>
</svg>