<?xml version="1.0" encoding="iso-8859-1"?>
<!-- Generator: Adobe Illustrator 16.0.0, SVG Export Plug-In . SVG Version: 6.00 Build 0)  -->
<!DOCTYPE svg PUBLIC "-//W3C//DTD SVG 1.1//EN" "http://www.w3.org/Graphics/SVG/1.1/DTD/svg11.dtd">
<svg xmlns="http://www.w3.org/2000/svg" xmlns:xlink="http://www.w3.org/1999/xlink" version="1.1" id="Capa_1" x="0px" y="0px" width="512px" height="512px" viewBox="0 0 97.296 97.296" style="enable-background:new 0 0 97.296 97.296;" xml:space="preserve">
<g>
	<g>
		<path d="M68.052,42.539c2.183,0,4.21-0.075,6.23,0.02c2.458,0.116,4.115-1.064,4.859-3.224c0.651-1.895,1.075-3.935,1.177-5.932    c0.135-2.627-1.071-3.642-3.72-3.659c-2.064-0.013-4.129-0.002-6.443-0.002c0.733-3.377,1.209-6.47,2.092-9.443    c1.433-4.832,4.964-7.257,10.029-7.301c1.216-0.009,2.449-0.021,3.644-0.222c2.562-0.433,3.392-1.578,3.026-4.095    c-0.202-1.407-0.48-2.807-0.827-4.186c-0.759-3.013-2.156-4.255-5.256-4.437c-5.025-0.295-9.885,0.524-14.393,2.833    c-8.294,4.248-12.277,11.506-13.929,20.33c-0.396,2.12-0.758,4.246-1.157,6.491c-4.755,0-9.354-0.018-13.953,0.009    c-2.313,0.013-2.889,0.772-2.368,3.051c0.56,2.442,1.226,4.862,1.72,7.318c0.357,1.773,1.269,2.5,3.093,2.44    c2.968-0.101,5.941-0.028,9.173-0.028c-0.086,0.669-0.114,0.998-0.172,1.321c-1.856,10.404-3.647,20.819-5.601,31.203    c-1.054,5.602-4.049,7.893-9.822,7.9c-6.915,0.014-13.829-0.011-20.743,0.007c-2.547,0.007-3.736,0.929-4.344,3.38    c-0.684,2.761-1.297,5.539-1.937,8.312c-0.457,1.979-0.022,2.599,2.078,2.603c9.828,0.018,19.662,0.186,29.484-0.07    c12.221-0.317,19.691-6.93,21.738-18.715c1.137-6.54,2.287-13.079,3.438-19.617C66.121,53.438,67.079,48.052,68.052,42.539z" fill="#FFFFFF"/>
	</g>
</g>
<g>
</g>
<g>
</g>
<g>
</g>
<g>
</g>
<g>
</g>
<g>
</g>
<g>
</g>
<g>
</g>
<g>
</g>
<g>
</g>
<g>
</g>
<g>
</g>
<g>
</g>
<g>
</g>
<g>
</g>
</svg>
