<?xml version="1.0" encoding="UTF-8" standalone="no"?>
<svg
   xmlns:dc="http://purl.org/dc/elements/1.1/"
   xmlns:cc="http://creativecommons.org/ns#"
   xmlns:rdf="http://www.w3.org/1999/02/22-rdf-syntax-ns#"
   xmlns:svg="http://www.w3.org/2000/svg"
   xmlns="http://www.w3.org/2000/svg"
   xmlns:sodipodi="http://sodipodi.sourceforge.net/DTD/sodipodi-0.dtd"
   xmlns:inkscape="http://www.inkscape.org/namespaces/inkscape"
   viewBox="0 0 512 512"
   height="512"
   width="512"
   xml:space="preserve"
   version="1.1"
   id="svg2"
   inkscape:version="0.91 r13725"
   sodipodi:docname="fox.svg"><sodipodi:namedview
     pagecolor="#ffffff"
     bordercolor="#666666"
     borderopacity="1"
     objecttolerance="10"
     gridtolerance="10"
     guidetolerance="10"
     inkscape:pageopacity="0"
     inkscape:pageshadow="2"
     inkscape:window-width="1366"
     inkscape:window-height="706"
     id="namedview8"
     showgrid="false"
     inkscape:zoom="0.67368421"
     inkscape:cx="377.5971"
     inkscape:cy="270.13852"
     inkscape:window-x="-8"
     inkscape:window-y="-8"
     inkscape:window-maximized="1"
     inkscape:current-layer="svg2" /><metadata
     id="metadata8"><rdf:RDF><cc:Work
         rdf:about=""><dc:format>image/svg+xml</dc:format><dc:type
           rdf:resource="http://purl.org/dc/dcmitype/StillImage" /><dc:title></dc:title></cc:Work></rdf:RDF></metadata><defs
     id="defs6" /><g
     transform="matrix(2.9132622,0,0,-2.9132622,-2.5628e-6,366.18671)"
     id="g10"
     style="fill:#ffffff"><g
       transform="scale(0.1,0.1)"
       id="g12"
       style="fill:#ffffff"><path
         id="path14"
         style="fill:#ffffff;fill-opacity:1;fill-rule:evenodd;stroke:none"
         d="m 885.176,227.148 0,299.868 c 0,35.586 -26.504,65.879 -62.09,65.879 -32.559,0 -60.574,-30.293 -60.574,-65.879 l 0,-299.868 c 0,-33.3 28.015,-61.328 60.574,-61.328 35.586,0 62.09,24.239 62.09,61.328 l 0,0 z M 1757.48,2.26563 1530.32,392.984 l 207.47,360.43 -229.43,0 -92.38,-160.519 -93.9,160.519 -233.98,0 209.75,-362.707 -223.37,-388.44137 229.44,0 108.27,187.79337 109.8,-187.79337 235.49,0 0,0 z M 0,0 l 0,756.449 453.57,0 13.625,-207.48 -253.66,0 0,-99.199 207.473,0 0,-204.438 -207.473,0 L 213.535,0 0,0 0,0 Z m 461.895,377.086 c 0,202.176 161.289,365.73 361.191,365.73 199.144,0 359.664,-163.554 359.664,-365.73 0,-202.184 -160.52,-365.7383 -359.664,-365.7383 -199.902,0 -361.191,162.8123 -361.191,365.7383 l 0,0"
         inkscape:connector-curvature="0" /></g></g></svg>