<?xml version="1.0" encoding="iso-8859-1"?>
<!-- Generator: Adobe Illustrator 18.1.1, SVG Export Plug-In . SVG Version: 6.00 Build 0)  -->
<svg xmlns="http://www.w3.org/2000/svg" xmlns:xlink="http://www.w3.org/1999/xlink" version="1.1" id="Capa_1" x="0px" y="0px" viewBox="0 0 31.828 31.828" style="enable-background:new 0 0 31.828 31.828;" xml:space="preserve" width="512px" height="512px">
<g>
	<path d="M22.222,4.77c-1.367,0-11.347,0-12.555,0c-8.286,0-13.035,22.289-6.836,22.289   c5.229,0,5.933-6.518,13.094-6.518c5.792,0,9.192,6.436,13.056,6.436C35.175,26.977,30.509,4.77,22.222,4.77z M9.722,15.913   c-2.294,0-4.153-1.859-4.153-4.15c0-2.289,1.859-4.148,4.153-4.148c2.292,0,4.15,1.859,4.15,4.148   C13.872,14.053,12.013,15.913,9.722,15.913z M20.023,12.42c-0.677-0.211-1.055-0.932-0.84-1.611c0.211-0.676,0.932-1.053,1.61-0.84   c0.677,0.209,1.058,0.93,0.843,1.607C21.423,12.258,20.702,12.631,20.023,12.42z M23.914,15.499   c-0.322,1.033-1.422,1.611-2.457,1.285c-1.033-0.322-1.608-1.422-1.283-2.457c0.322-1.033,1.424-1.611,2.457-1.285   C23.664,13.366,24.238,14.467,23.914,15.499z M23.175,10.985c-0.953-0.303-1.484-1.32-1.186-2.271   c0.301-0.955,1.316-1.488,2.27-1.186c0.955,0.297,1.486,1.314,1.184,2.268C25.148,10.749,24.132,11.284,23.175,10.985z    M26.732,13.624c-0.217,0.68-0.936,1.055-1.613,0.844c-0.676-0.211-1.055-0.932-0.844-1.613c0.215-0.678,0.938-1.053,1.611-0.844   C26.566,12.225,26.943,12.944,26.732,13.624z M11.819,11.825c0,1.184-0.956,2.141-2.137,2.141c-1.183,0-2.139-0.957-2.139-2.141   c0-1.178,0.956-2.137,2.139-2.137C10.863,9.688,11.819,10.647,11.819,11.825z" fill="#FFFFFF"/>
</g>
<g>
</g>
<g>
</g>
<g>
</g>
<g>
</g>
<g>
</g>
<g>
</g>
<g>
</g>
<g>
</g>
<g>
</g>
<g>
</g>
<g>
</g>
<g>
</g>
<g>
</g>
<g>
</g>
<g>
</g>
</svg>
