<?xml version="1.0" encoding="iso-8859-1"?>
<!-- Generator: Adobe Illustrator 19.1.0, SVG Export Plug-In . SVG Version: 6.00 Build 0)  -->
<svg xmlns="http://www.w3.org/2000/svg" xmlns:xlink="http://www.w3.org/1999/xlink" version="1.1" id="Capa_1" x="0px" y="0px" viewBox="0 0 488.578 488.578" style="enable-background:new 0 0 488.578 488.578;" xml:space="preserve" width="512px" height="512px">
<g>
	<g>
		<g>
			<path d="M430.851,67.549c0.913-7.145,1.42-13.961,1.42-20.334H244.289H56.306c0,6.372,0.506,13.188,1.42,20.334H0     c0,95.826,52.906,173.706,119.061,176.645c19.402,41.014,14.765,53.274,35.783,70.479c21.017,17.205,24.501,15.473,56.306,23.474     c0,0,7.918,31.66,0,46.91s-32.375,15.25-32.375,15.25v41.056h65.514h65.514v-41.057c0,0-24.458,0-32.375-15.25     c-7.918-15.25,0-46.91,0-46.91c31.806-8.001,35.289-6.269,56.306-23.474s16.381-29.465,35.783-70.479     c66.154-2.938,119.061-80.818,119.061-176.644C488.578,67.549,430.851,67.549,430.851,67.549z M25.32,99.221     c-0.33-4.494,40.557,0.001,40.557,0.001l41.057,109.485C64.63,208.707,29.85,160.849,25.32,99.221z M381.644,208.707     l41.057-109.485c0,0,40.886-4.495,40.556-0.001C458.727,160.849,423.946,208.707,381.644,208.707z" fill="#FFFFFF"/>
		</g>
	</g>
	<g>
	</g>
	<g>
	</g>
	<g>
	</g>
	<g>
	</g>
	<g>
	</g>
	<g>
	</g>
	<g>
	</g>
	<g>
	</g>
	<g>
	</g>
	<g>
	</g>
	<g>
	</g>
	<g>
	</g>
	<g>
	</g>
	<g>
	</g>
	<g>
	</g>
</g>
<g>
</g>
<g>
</g>
<g>
</g>
<g>
</g>
<g>
</g>
<g>
</g>
<g>
</g>
<g>
</g>
<g>
</g>
<g>
</g>
<g>
</g>
<g>
</g>
<g>
</g>
<g>
</g>
<g>
</g>
</svg>
