<?xml version="1.0" encoding="UTF-8" standalone="no"?>
<!-- Created with Inkscape (http://www.inkscape.org/) -->

<svg
   xmlns:dc="http://purl.org/dc/elements/1.1/"
   xmlns:cc="http://creativecommons.org/ns#"
   xmlns:rdf="http://www.w3.org/1999/02/22-rdf-syntax-ns#"
   xmlns:svg="http://www.w3.org/2000/svg"
   xmlns="http://www.w3.org/2000/svg"
   xmlns:sodipodi="http://sodipodi.sourceforge.net/DTD/sodipodi-0.dtd"
   xmlns:inkscape="http://www.inkscape.org/namespaces/inkscape"
   version="1.0"
   width="512"
   height="512"
   id="svg2"
   inkscape:version="0.91 r13725"
   sodipodi:docname="Geogebra.svg">
  <metadata
     id="metadata42">
    <rdf:RDF>
      <cc:Work
         rdf:about="">
        <dc:format>image/svg+xml</dc:format>
        <dc:type
           rdf:resource="http://purl.org/dc/dcmitype/StillImage" />
        <dc:title></dc:title>
      </cc:Work>
    </rdf:RDF>
  </metadata>
  <sodipodi:namedview
     pagecolor="#ffffff"
     bordercolor="#666666"
     borderopacity="1"
     objecttolerance="10"
     gridtolerance="10"
     guidetolerance="10"
     inkscape:pageopacity="0"
     inkscape:pageshadow="2"
     inkscape:window-width="1366"
     inkscape:window-height="706"
     id="namedview40"
     showgrid="false"
     showguides="false"
     inkscape:zoom="0.7449875"
     inkscape:cx="220.91423"
     inkscape:cy="274.49734"
     inkscape:window-x="-8"
     inkscape:window-y="-8"
     inkscape:window-maximized="1"
     inkscape:current-layer="svg2" />
  <desc
     id="desc6">Creator: FreeHEP Graphics2D Driver Producer: geogebra.d.a Revision: 1.10  Source:  Date: Samstag, 7. August 2010 14:06 Uhr MESZ</desc>
  <defs
     id="defs85" />
  <g
     id="g4268"
     transform="matrix(19.02029,0,0,19.02029,-11.943498,-8.9451675)"
     style="fill:#ffffff">
    <path
       id="path22"
       d="m 17.101562,3.734375 c 0.120988,0.3855551 0.205079,0.7874176 0.205079,1.2128906 0,0.3286532 -0.04957,0.645053 -0.123047,0.9511719 1.531603,0.2265582 2.905879,0.796692 4.003906,1.6464844 C 21.656247,6.9607276 22.27459,6.5115933 22.994141,6.2558594 21.424556,4.8501047 19.364281,3.9890492 17.101562,3.734375 Z M 9.1835938,5.2070312 C 7.6927296,5.9477129 6.3784311,6.9017613 5.2851562,7.9980469 5.9798276,8.2663032 6.5749947,8.72111 7.0253906,9.2988281 7.8392309,8.5241467 8.789587,7.826239 9.8789062,7.2558594 9.4726297,6.6671244 9.2321009,5.9642066 9.1835938,5.2070312 Z M 25.796875,13.878906 c -0.450405,0.171537 -0.934689,0.275391 -1.445313,0.275391 -0.261172,0 -0.514211,-0.02921 -0.761718,-0.07617 -0.229159,1.224143 -0.741088,2.449516 -1.53125,3.583984 0.640602,0.36003 1.168799,0.882997 1.535156,1.519532 1.208777,-1.627018 1.970044,-3.45445 2.203125,-5.302735 z M 1.7519531,15.28125 c -0.1090641,1.503928 0.1319089,3.010915 0.8085938,4.425781 0.2685559,0.561518 0.5990927,1.073135 0.9667969,1.548828 C 3.8340447,20.568878 4.3226897,19.981517 4.9355469,19.558594 4.7710762,19.31186 4.6197805,19.056021 4.4902344,18.785156 4.052148,17.869171 3.8564348,16.876421 3.8710938,15.861328 c -0.016661,2.01e-4 -0.03212,0.0039 -0.048828,0.0039 -0.7597323,0 -1.4615322,-0.221899 -2.0703125,-0.583984 z m 14.3632809,6.841797 c -1.632194,0.59526 -3.273803,0.830675 -4.802734,0.738281 2.17e-4,0.01734 0.0059,0.03339 0.0059,0.05078 0,0.747527 -0.215025,1.438793 -0.566406,2.041016 2.058967,0.190091 4.26426,-0.107725 6.394531,-0.931641 -0.500447,-0.519793 -0.86224,-1.17134 -1.03125,-1.898437 z"
       style="color:#000000;font-style:normal;font-variant:normal;font-weight:normal;font-stretch:normal;font-size:medium;line-height:normal;font-family:sans-serif;text-indent:0;text-align:start;text-decoration:none;text-decoration-line:none;text-decoration-style:solid;text-decoration-color:#000000;letter-spacing:normal;word-spacing:normal;text-transform:none;direction:ltr;block-progression:tb;writing-mode:lr-tb;baseline-shift:baseline;text-anchor:start;white-space:normal;clip-rule:nonzero;display:inline;overflow:visible;visibility:visible;opacity:1;isolation:auto;mix-blend-mode:normal;color-interpolation:sRGB;color-interpolation-filters:linearRGB;solid-color:#000000;solid-opacity:1;fill:#ffffff;fill-opacity:1;fill-rule:nonzero;stroke:none;stroke-width:2.1385808;stroke-linecap:round;stroke-linejoin:round;stroke-miterlimit:10;stroke-dasharray:none;stroke-dashoffset:0;stroke-opacity:1;color-rendering:auto;image-rendering:auto;shape-rendering:auto;text-rendering:auto;enable-background:accumulate"
       inkscape:connector-curvature="0" />
    <g
       id="g24"
       transform="matrix(0.85543235,0,0,0.85543235,-0.4551044,0.6704056)"
       style="stroke-width:1;stroke-linecap:square;stroke-linejoin:miter;stroke-miterlimit:10;stroke-dasharray:none;stroke-dashoffset:0;fill:#ffffff">
      <g
         style="fill:#ffffff;fill-opacity:1;fill-rule:nonzero;stroke:none"
         id="g26">
        <path
           inkscape:connector-curvature="0"
           id="path28"
           d="m 19.49971,5 c 0,1.9328352 -1.566874,3.4997078 -3.49971,3.4997078 -1.932836,0 -3.49971,-1.5668726 -3.49971,-3.4997078 0,-1.9328352 1.566874,-3.4997078 3.49971,-3.4997078 1.932836,0 3.49971,1.5668726 3.49971,3.4997078 z"
           style="fill:#ffffff" />
      </g>
    </g>
    <g
       id="g36"
       transform="matrix(0.85543235,0,0,0.85543235,-0.4551044,0.6704056)"
       style="stroke-width:1;stroke-linecap:square;stroke-linejoin:miter;stroke-miterlimit:10;stroke-dasharray:none;stroke-dashoffset:0;fill:#ffffff">
      <g
         style="fill:#ffffff;fill-opacity:1;fill-rule:nonzero;stroke:none"
         id="g38">
        <path
           inkscape:connector-curvature="0"
           id="path40"
           d="M 8.49971,13 C 8.49971,14.932835 6.9328364,16.499708 5,16.499708 3.0671636,16.499708 1.50029,14.932835 1.50029,13 1.50029,11.067165 3.0671636,9.5002922 5,9.5002922 6.9328364,9.5002922 8.49971,11.067165 8.49971,13 Z"
           style="fill:#ffffff" />
      </g>
    </g>
    <g
       id="g48"
       transform="matrix(0.85543235,0,0,0.85543235,-0.4551044,0.6704056)"
       style="stroke-width:1;stroke-linecap:square;stroke-linejoin:miter;stroke-miterlimit:10;stroke-dasharray:none;stroke-dashoffset:0;fill:#ffffff">
      <g
         style="fill:#ffffff;fill-opacity:1;fill-rule:nonzero;stroke:none"
         id="g50">
        <path
           inkscape:connector-curvature="0"
           id="path52"
           d="m 12.49971,26 c 0,1.932835 -1.566874,3.499708 -3.49971,3.499708 -1.9328364,0 -3.49971,-1.566873 -3.49971,-3.499708 0,-1.932835 1.5668736,-3.499708 3.49971,-3.499708 1.932836,0 3.49971,1.566873 3.49971,3.499708 z"
           style="fill:#ffffff" />
      </g>
    </g>
    <g
       id="g60"
       transform="matrix(0.85543235,0,0,0.85543235,-0.4551044,0.6704056)"
       style="stroke-width:1;stroke-linecap:square;stroke-linejoin:miter;stroke-miterlimit:10;stroke-dasharray:none;stroke-dashoffset:0;fill:#ffffff">
      <g
         style="fill:#ffffff;fill-opacity:1;fill-rule:nonzero;stroke:none"
         id="g62">
        <path
           inkscape:connector-curvature="0"
           id="path64"
           d="m 27.49971,24 c 0,1.932835 -1.566874,3.499708 -3.49971,3.499708 -1.932836,0 -3.49971,-1.566873 -3.49971,-3.499708 0,-1.932835 1.566874,-3.499708 3.49971,-3.499708 1.932836,0 3.49971,1.566873 3.49971,3.499708 z"
           style="fill:#ffffff" />
      </g>
    </g>
    <g
       id="g72"
       transform="matrix(0.85543235,0,0,0.85543235,-0.4551044,0.6704056)"
       style="stroke-width:1;stroke-linecap:square;stroke-linejoin:miter;stroke-miterlimit:10;stroke-dasharray:none;stroke-dashoffset:0;fill:#ffffff">
      <g
         style="fill:#ffffff;fill-opacity:1;fill-rule:nonzero;stroke:none"
         id="g74">
        <path
           inkscape:connector-curvature="0"
           id="path76"
           d="m 32.49971,11 c 0,1.932835 -1.566874,3.499708 -3.49971,3.499708 -1.932836,0 -3.49971,-1.566873 -3.49971,-3.499708 0,-1.9328352 1.566874,-3.4997078 3.49971,-3.4997078 1.932836,0 3.49971,1.5668726 3.49971,3.4997078 z"
           style="fill:#ffffff" />
      </g>
    </g>
  </g>
</svg>
