<?xml version="1.0" encoding="UTF-8" standalone="no"?>
<!-- Generator: Adobe Illustrator 16.0.0, SVG Export Plug-In . SVG Version: 6.00 Build 0)  -->

<svg
   xmlns:dc="http://purl.org/dc/elements/1.1/"
   xmlns:cc="http://creativecommons.org/ns#"
   xmlns:rdf="http://www.w3.org/1999/02/22-rdf-syntax-ns#"
   xmlns:svg="http://www.w3.org/2000/svg"
   xmlns="http://www.w3.org/2000/svg"
   xmlns:sodipodi="http://sodipodi.sourceforge.net/DTD/sodipodi-0.dtd"
   xmlns:inkscape="http://www.inkscape.org/namespaces/inkscape"
   version="1.1"
   id="Capa_1"
   x="0px"
   y="0px"
   width="512px"
   height="512px"
   viewBox="0 0 45.001 45.001"
   style="enable-background:new 0 0 45.001 45.001;"
   xml:space="preserve"
   inkscape:version="0.91 r13725"
   sodipodi:docname="happywheels.svg"><metadata
   id="metadata47"><rdf:RDF><cc:Work
       rdf:about=""><dc:format>image/svg+xml</dc:format><dc:type
         rdf:resource="http://purl.org/dc/dcmitype/StillImage" /></cc:Work></rdf:RDF></metadata><defs
   id="defs45" /><sodipodi:namedview
   pagecolor="#ffffff"
   bordercolor="#666666"
   borderopacity="1"
   objecttolerance="10"
   gridtolerance="10"
   guidetolerance="10"
   inkscape:pageopacity="0"
   inkscape:pageshadow="2"
   inkscape:window-width="1366"
   inkscape:window-height="706"
   id="namedview43"
   showgrid="false"
   inkscape:zoom="0.4609375"
   inkscape:cx="256"
   inkscape:cy="256"
   inkscape:window-x="-8"
   inkscape:window-y="-8"
   inkscape:window-maximized="1"
   inkscape:current-layer="Capa_1" />
<g
   id="g3"
   transform="matrix(-1,0,0,1,45.000115,0)">
	<g
   id="g5">
		<g
   id="g7">
			<path
   d="m 22.039,18.379 16.272,0 c 0.188,0 0.362,-0.11 0.443,-0.282 0.493,-1.042 0.936,-2.119 0.462,-2.819 -0.454,-0.677 -1.562,-0.954 -3.829,-0.954 -1.442,0 -3.265,0.115 -5.191,0.237 -2.394,0.151 -5.105,0.323 -7.772,0.323 -0.177,0 -0.34,0.094 -0.427,0.247 -0.042,0.074 -0.415,0.772 -0.461,2.436 -0.005,0.143 0.002,0.265 0.014,0.375 0.028,0.248 0.238,0.437 0.489,0.437 z"
   id="path9"
   inkscape:connector-curvature="0"
   style="fill:#ffffff" />
			<path
   d="m 43.447,25.307 0.294,-0.102 c 0.163,-0.059 0.284,-0.196 0.319,-0.367 l 0.309,-1.502 C 44.405,23.165 44.346,22.987 44.215,22.87 L 42.582,21.413 C 42.494,21.335 42.381,21.29 42.265,21.288 l -1.986,-0.04 C 39.883,20.909 38.723,19.913 38.2,19.476 38.112,19.402 38,19.362 37.885,19.362 l -15.033,0 c -0.16,0 -0.309,0.077 -0.401,0.208 -0.092,0.13 -0.115,0.297 -0.062,0.448 0.125,0.352 0.38,0.652 0.732,1.069 0.376,0.444 0.892,1.052 1.493,2.013 0.429,0.688 0.509,1.392 0.238,2.097 -0.427,1.104 -1.607,1.964 -2.298,2.16 -0.551,0.158 -1.493,0.251 -2.52,0.251 -1.626,0 -3.317,-0.229 -4.76,-0.646 -2.678,-0.775 -3.188,-6.793 -2.903,-7.834 0.158,-0.581 0.862,-2.509 1.543,-4.373 0.192,-0.527 0.358,-0.98 0.504,-1.382 0.12,0.084 0.207,0.141 0.213,0.145 0.082,0.052 0.172,0.077 0.263,0.077 0.163,0 0.322,-0.081 0.415,-0.228 0.146,-0.23 0.078,-0.533 -0.151,-0.679 -0.002,-0.001 -0.179,-0.115 -0.392,-0.279 0.103,-0.289 0.19,-0.534 0.262,-0.74 0.009,10e-4 0.018,0.003 0.026,0.005 0.051,0.156 0.171,0.286 0.342,0.328 0.712,0.174 1.377,0.413 1.384,0.416 0.055,0.02 0.111,0.03 0.167,0.03 0.202,0 0.39,-0.125 0.463,-0.325 0.092,-0.255 -0.04,-0.538 -0.295,-0.629 -0.029,-0.01 -0.719,-0.259 -1.485,-0.446 -0.158,-0.04 -0.312,0.01 -0.428,0.108 0.125,-0.38 0.161,-0.542 0.161,-0.634 0,-0.917 -3.423,-2.179 -4.489,-2.216 -0.314,0 -0.589,0.131 -0.796,0.378 -0.767,0.915 -0.357,3.492 -0.267,4 0.037,0.213 0.209,0.375 0.424,0.402 l 1.289,0.159 c -0.433,1.377 -2.355,5.65 -2.764,6.287 -0.097,0.14 -0.744,0.255 -1.055,0.31 C 7.04,19.96 6.411,20.071 6.172,20.549 5.928,21.038 5.947,21.87 5.98,22.327 5.906,22.325 5.834,22.312 5.76,22.312 c -2.277,0 -4.398,1.227 -5.535,3.194 -0.25,0.433 -0.292,0.85 -0.126,1.242 0.174,0.407 0.593,0.756 1.154,1.069 -0.747,0.937 -1.197,2.118 -1.197,3.406 0,3.016 2.453,5.471 5.469,5.471 3.016,0 5.469,-2.455 5.469,-5.471 0,-0.146 -0.011,-0.292 -0.022,-0.438 0.49,0.18 1.128,0.479 1.307,0.573 0.179,0.095 0.327,-0.01 0.358,-0.157 0.032,-0.148 0.093,-0.546 0.108,-0.83 1.453,1.181 3.012,1.265 5.307,1.265 l 12.681,0 c 0.455,2.86 2.931,5.056 5.917,5.056 3.308,0 6,-2.69 6,-6 0,-0.177 -0.012,-0.351 -0.026,-0.522 1.742,-0.246 2.026,-0.535 2.162,-0.676 0.187,-0.19 0.219,-0.395 0.214,-0.529 -0.039,-1.088 -1.008,-2.785 -1.553,-3.658 z M 8.535,31.222 c 0,1.659 -1.35,3.01 -3.01,3.01 -1.66,0 -3.01,-1.351 -3.01,-3.01 0,-1 0.495,-1.88 1.247,-2.429 0.904,0.269 1.896,0.519 2.915,0.771 0.525,0.13 1.055,0.264 1.574,0.397 0.178,0.388 0.284,0.81 0.284,1.261 z M 40.189,30.69 c 0,1.953 -1.589,3.541 -3.541,3.541 -1.952,0 -3.54,-1.588 -3.54,-3.541 2.591,-0.019 5.394,-0.179 7.052,-0.286 0.008,0.096 0.029,0.19 0.029,0.286 z"
   id="path11"
   inkscape:connector-curvature="0"
   style="fill:#ffffff" />
		</g>
	</g>
</g>
<g
   id="g13">
</g>
<g
   id="g15">
</g>
<g
   id="g17">
</g>
<g
   id="g19">
</g>
<g
   id="g21">
</g>
<g
   id="g23">
</g>
<g
   id="g25">
</g>
<g
   id="g27">
</g>
<g
   id="g29">
</g>
<g
   id="g31">
</g>
<g
   id="g33">
</g>
<g
   id="g35">
</g>
<g
   id="g37">
</g>
<g
   id="g39">
</g>
<g
   id="g41">
</g>
</svg>