<?xml version="1.0" encoding="UTF-8" standalone="no"?>
<!-- Created with Inkscape (http://www.inkscape.org/) -->

<svg
   xmlns:dc="http://purl.org/dc/elements/1.1/"
   xmlns:cc="http://creativecommons.org/ns#"
   xmlns:rdf="http://www.w3.org/1999/02/22-rdf-syntax-ns#"
   xmlns:svg="http://www.w3.org/2000/svg"
   xmlns="http://www.w3.org/2000/svg"
   xmlns:sodipodi="http://sodipodi.sourceforge.net/DTD/sodipodi-0.dtd"
   xmlns:inkscape="http://www.inkscape.org/namespaces/inkscape"
   version="1.1"
   width="512"
   height="512"
   id="svg3956"
   inkscape:version="0.91 r13725"
   sodipodi:docname="The_Huffington_Post_logo.svg">
  <sodipodi:namedview
     pagecolor="#ffffff"
     bordercolor="#666666"
     borderopacity="1"
     objecttolerance="10"
     gridtolerance="10"
     guidetolerance="10"
     inkscape:pageopacity="0"
     inkscape:pageshadow="2"
     inkscape:window-width="643"
     inkscape:window-height="480"
     id="namedview24"
     showgrid="false"
     inkscape:zoom="0.34883935"
     inkscape:cx="276.84312"
     inkscape:cy="331.87471"
     inkscape:window-x="0"
     inkscape:window-y="0"
     inkscape:window-maximized="0"
     inkscape:current-layer="g3909" />
  <defs
     id="defs3958" />
  <metadata
     id="metadata3961">
    <rdf:RDF>
      <cc:Work
         rdf:about="">
        <dc:format>image/svg+xml</dc:format>
        <dc:type
           rdf:resource="http://purl.org/dc/dcmitype/StillImage" />
        <dc:title></dc:title>
      </cc:Work>
    </rdf:RDF>
  </metadata>
  <g
     id="g3909"
     transform="matrix(2.1040423,0,0,2.1040423,-94.681885,-205.33188)">
    <path
       inkscape:connector-curvature="0"
       style="fill:#ffffff;fill-opacity:1;fill-rule:nonzero;stroke:none"
       id="path3333"
       d="m 118.97383,221.59704 c -16.06911,0 -16.72803,0.65807 -16.72803,10.71274 l 0,47.18708 c 0,35.1565 1.65792,39.83269 20.40522,41.85196 l 9.71374,0.99986 c 1.99801,1.33824 1.33824,7.35438 -0.68018,8.37464 -18.06712,-0.68018 -29.43878,-1.02026 -42.510879,-1.02026 -14.389933,0 -25.761594,0.68017 -38.812434,1.02026 -2.019267,-1.02026 -2.678185,-6.35538 -0.680174,-8.37464 l 5.696458,-0.99986 c 18.747298,-3.35836 19.406217,-6.69546 19.406217,-41.85196 l 0,-120.49709 c 0,-35.13525 -2.338099,-40.8317 -19.746304,-42.1708 l -8.693475,-0.65807 c -2.019267,-1.33994 -1.338243,-7.37563 0.658068,-8.37464 16.4092,0.34009 27.780861,0.99816 42.170794,0.99816 13.072099,0 24.443759,-0.34009 38.833689,-0.99816 2.01927,0.99816 2.67819,7.03555 0.68018,8.37464 l -6.37664,0.65807 c -19.40621,2.01927 -20.06513,7.03555 -20.06513,42.1708 l 0,38.4936 c 0,10.37265 0.65977,10.71274 16.72803,10.71274 l 95.7345,0 c 16.04786,0 16.72804,-0.34009 16.72804,-10.71274 l 0,-38.4936 c 0,-35.13525 -0.68018,-40.15153 -20.40523,-42.1708 l -6.37663,-0.65807 c -1.99801,-1.33994 -1.33824,-7.37563 0.68017,-8.37464 15.38894,0.65807 26.78186,0.99816 40.49162,0.99816 13.05084,0 24.44375,-0.34009 39.49261,-0.99816 2.01926,0.99816 2.67818,7.03555 0.68017,8.37464 l -7.03555,0.65807 c -19.40622,2.01927 -20.08639,7.03555 -20.08639,42.1708 l 0,120.49709 c 0,35.1565 0.68017,39.49261 20.08639,41.85196 l 8.03456,0.99986 c 2.01926,1.33824 1.33824,7.35438 -0.65977,8.37464 -16.06912,-0.68018 -27.46203,-1.02026 -40.51287,-1.02026 -13.70976,0 -25.7616,0.34008 -40.49162,1.02026 -2.01926,-1.02026 -2.67818,-6.35538 -0.68017,-8.37464 l 6.37663,-0.99986 c 20.40522,-3.35836 20.40522,-6.69546 20.40522,-41.85196 l 0,-47.18708 c 0,-10.05382 -0.68017,-10.71274 -16.72803,-10.71274 l -95.7345,0 z" />
  </g>
</svg>
