<?xml version="1.0" encoding="UTF-8" standalone="no"?>
<svg
   xmlns:dc="http://purl.org/dc/elements/1.1/"
   xmlns:cc="http://creativecommons.org/ns#"
   xmlns:rdf="http://www.w3.org/1999/02/22-rdf-syntax-ns#"
   xmlns:svg="http://www.w3.org/2000/svg"
   xmlns="http://www.w3.org/2000/svg"
   height="512"
   width="512"
   xml:space="preserve"
   viewBox="0 0 512.00002 512"
   y="0px"
   x="0px"
   id="Layer_1"
   version="1.1"><metadata
   id="metadata45"><rdf:RDF><cc:Work
       rdf:about=""><dc:format>image/svg+xml</dc:format><dc:type
         rdf:resource="http://purl.org/dc/dcmitype/StillImage" /><dc:title></dc:title></cc:Work></rdf:RDF></metadata><defs
   id="defs43">
	
	
	
	
	
	
	
	
	
</defs>
<style
   id="style3"
   type="text/css">
	.st0{fill:#DD0031;}
	.st1{fill:#909295;}
	.st2{fill:#111820;}
</style>
<g
   style="fill:#ffffff"
   transform="matrix(3.8669497,0,0,3.8669497,-1.5467782,62.597356)"
   id="g7">
		<g
   style="fill:#ffffff"
   id="g9">
			<g
   style="fill:#ffffff"
   id="g11">
				<path
   class="st0"
   d="M 96.9,1 C 84.4,1 73.2,7.6 66.8,17.3 60.3,7.6 49.1,1 36.6,1 16.6,1 0.4,17.1 0.4,37.1 c 0,12.7 8,21.8 16.4,30.2 l 32.7,31 c 1.7,1.6 4.5,0.4 4.5,-2 l 0,-24.1 c 0,-7 5.7,-12.6 12.6,-12.7 7,0 12.6,5.7 12.6,12.7 l 0,24.1 c 0,2.4 2.8,3.6 4.5,2 l 32.7,-31 C 124.8,58.9 132.8,49.7 132.8,37.1 133.1,17.1 116.9,1 96.9,1 Z M 34,64.9 c -0.5,0.6 -1.2,0.8 -1.9,0.8 -0.6,0 -1.2,-0.2 -1.7,-0.6 C 19.6,55.5 14.1,45.6 14.1,35.4 l 0,-0.1 c 0,-8.7 5.3,-18.6 12.3,-23 1.2,-0.7 2.7,-0.4 3.5,0.8 0.7,1.2 0.4,2.7 -0.8,3.4 -5.6,3.5 -10,11.8 -10,18.8 l 0,0.1 c 0,8.6 4.9,17.3 14.6,25.9 1.1,1 1.2,2.6 0.3,3.6 z M 50.1,55.7 C 49.6,56.5 48.8,57 47.9,57 47.5,57 47.1,56.9 46.7,56.7 39.4,52.6 34.5,44.6 34.4,36.7 l 0,-0.1 c 0,-7.5 4.2,-14.3 10.8,-17.8 1.2,-0.6 2.7,-0.2 3.4,1.1 0.6,1.2 0.2,2.7 -1.1,3.4 -5,2.6 -8.1,7.8 -8.1,13.4 0,6.2 3.9,12.5 9.7,15.7 1.2,0.5 1.6,2.1 1,3.3 z m 16.7,-6.4 c -6,0 -10.9,-4.9 -10.9,-10.9 0,-6 4.9,-10.9 10.9,-10.9 6,0 10.9,4.9 10.9,10.9 -0.1,6 -5,10.9 -10.9,10.9 z m 20,7.3 c -0.4,0.2 -0.8,0.3 -1.2,0.3 -0.9,0 -1.7,-0.5 -2.2,-1.3 -0.7,-1.2 -0.2,-2.7 1,-3.4 5.8,-3.2 9.7,-9.6 9.7,-15.7 0,-5.7 -3.1,-10.8 -8.1,-13.4 -1.2,-0.6 -1.7,-2.2 -1.1,-3.4 0.6,-1.2 2.2,-1.7 3.4,-1.1 6.7,3.5 10.8,10.3 10.8,17.8 l 0,0.1 c 0,8 -4.9,16 -12.3,20.1 z m 32.5,-21.1 c 0,10.1 -5.5,20.1 -16.3,29.7 -0.5,0.4 -1.1,0.6 -1.7,0.6 -0.7,0 -1.4,-0.3 -1.9,-0.8 -0.9,-1 -0.8,-2.6 0.2,-3.5 9.7,-8.6 14.6,-17.3 14.6,-25.9 l 0,-0.1 c 0,-7 -4.4,-15.2 -10,-18.8 -1.2,-0.7 -1.5,-2.3 -0.8,-3.4 0.7,-1.2 2.3,-1.5 3.5,-0.8 7,4.4 12.3,14.3 12.3,23 l 0,0 z"
   id="path13"
   style="fill:#ffffff" />
			</g>
		</g>
	</g>
</svg>