<?xml version="1.0" encoding="UTF-8" standalone="no"?>
<!-- Generator: Adobe Illustrator 13.0.0, SVG Export Plug-In . SVG Version: 6.00 Build 14948)  -->

<svg
   xmlns:dc="http://purl.org/dc/elements/1.1/"
   xmlns:cc="http://creativecommons.org/ns#"
   xmlns:rdf="http://www.w3.org/1999/02/22-rdf-syntax-ns#"
   xmlns:svg="http://www.w3.org/2000/svg"
   xmlns="http://www.w3.org/2000/svg"
   xmlns:sodipodi="http://sodipodi.sourceforge.net/DTD/sodipodi-0.dtd"
   xmlns:inkscape="http://www.inkscape.org/namespaces/inkscape"
   version="1.1"
   id="Layer_1"
   x="0px"
   y="0px"
   width="512"
   height="512"
   viewBox="0 0 512 512"
   xml:space="preserve"
   inkscape:version="0.91 r13725"
   sodipodi:docname="imdb.svg"><metadata
   id="metadata40"><rdf:RDF><cc:Work
       rdf:about=""><dc:format>image/svg+xml</dc:format><dc:type
         rdf:resource="http://purl.org/dc/dcmitype/StillImage" /><dc:title></dc:title></cc:Work></rdf:RDF></metadata><defs
   id="defs38" /><sodipodi:namedview
   pagecolor="#ffffff"
   bordercolor="#666666"
   borderopacity="1"
   objecttolerance="10"
   gridtolerance="10"
   guidetolerance="10"
   inkscape:pageopacity="0"
   inkscape:pageshadow="2"
   inkscape:window-width="1366"
   inkscape:window-height="706"
   id="namedview36"
   showgrid="false"
   inkscape:zoom="0.69767869"
   inkscape:cx="117.00452"
   inkscape:cy="284.96498"
   inkscape:window-x="-8"
   inkscape:window-y="-8"
   inkscape:window-maximized="1"
   inkscape:current-layer="Layer_1" />
<linearGradient
   id="SVGID_1_"
   gradientUnits="userSpaceOnUse"
   x1="123.7358"
   y1="-22.5557"
   x2="176.34331"
   y2="173.7773">
	<stop
   offset="0"
   style="stop-color:#F8E643"
   id="stop4" />
	<stop
   offset="1"
   style="stop-color:#BFA233"
   id="stop6" />
</linearGradient>

<linearGradient
   id="SVGID_2_"
   gradientUnits="userSpaceOnUse"
   x1="126.8423"
   y1="162.1738"
   x2="173.2373"
   y2="-10.973">
	<stop
   offset="0"
   style="stop-color:#F8E643"
   id="stop11" />
	<stop
   offset="1"
   style="stop-color:#BFA233"
   id="stop13" />
</linearGradient>

<linearGradient
   id="SVGID_3_"
   gradientUnits="userSpaceOnUse"
   x1="127.9512"
   y1="-6.8291001"
   x2="172.12489"
   y2="158.0325">
	<stop
   offset="0"
   style="stop-color:#F8E643"
   id="stop18" />
	<stop
   offset="1"
   style="stop-color:#BFA233"
   id="stop20" />
</linearGradient>





<g
   id="g3368"
   transform="matrix(2.5656058,0,0,2.5656058,-130.40717,62.654664)"
   style="fill:#ffffff"><path
     id="path24"
     d="m 235.598,115.99 c -2.463,0 -4.795,-0.548 -6.933,-1.628 -1.522,-0.771 -2.952,-1.815 -4.274,-3.119 l -0.702,2.72 -0.23,0.899 -0.931,0 -18.099,0 -1.199,0 0,-1.199 0,-77.733 0,-1.199 1.199,0 19.39,0 1.199,0 0,1.199 0,15.604 c 1.146,-0.983 2.369,-1.782 3.653,-2.382 2.148,-0.991 4.482,-1.493 6.947,-1.493 2.803,0 5.29,0.45 7.396,1.338 2.169,0.927 3.849,2.249 5,3.929 1.125,1.655 1.815,3.308 2.053,4.917 0.217,1.537 0.325,4.688 0.325,9.377 l 0,28.674 c 0,4.836 -0.322,8.353 -0.991,10.753 -0.683,2.534 -2.319,4.758 -4.857,6.6 -2.518,1.823 -5.526,2.743 -8.946,2.743 l 0,0 z m -8.907,-54.621 c -0.995,0 -1.149,0.383 -1.225,0.566 -0.136,0.329 -0.449,1.589 -0.449,6.177 l 0,27.377 c 0,4.239 0.322,5.632 0.516,6.086 0.152,0.366 0.412,0.699 1.3,0.699 0.938,0 1.153,-0.364 1.282,-0.703 0.181,-0.479 0.485,-1.988 0.485,-6.711 l 0,-26.748 c 0,-4.068 -0.34,-5.486 -0.544,-5.969 -0.193,-0.464 -0.501,-0.774 -1.365,-0.774 l 0,0 z m -50.493,53.493 -25.431,0 -1.199,0 0,-1.199 0,-77.733 0,-1.199 1.199,0 15.083,0 c 9.938,0 16.5,0.452 20.062,1.38 3.658,0.959 6.494,2.569 8.435,4.784 1.928,2.226 3.147,4.724 3.631,7.43 0.466,2.604 0.693,7.516 0.693,15.013 l 0,27.227 c 0,7.133 -0.336,11.815 -1.029,14.313 -0.72,2.588 -2.007,4.653 -3.824,6.136 -1.77,1.438 -3.966,2.459 -6.531,3.033 -2.507,0.549 -6.134,0.815 -11.089,0.815 l 0,0 z m -4.037,-64.454 0,48.76 c 1.641,-0.125 2.736,-0.512 3.071,-1.107 0.25,-0.449 0.839,-2.229 0.839,-8.952 l 0,-30.261 c 0,-4.255 -0.169,-5.89 -0.311,-6.51 -0.151,-0.681 -0.454,-1.132 -0.951,-1.424 -0.279,-0.167 -0.967,-0.423 -2.648,-0.506 l 0,0 z m -28.247,64.454 -1.199,0 -17.62,0 -1.199,0 0,-1.197 -0.05,-34.689 -4.667,34.848 -0.14,1.039 -1.049,0 -12.606,0 -1.041,0 -0.148,-1.029 -4.988,-34.855 -0.056,34.688 -0.002,1.197 -1.197,0 -17.614,0 -1.199,0 0,-1.199 0,-77.735 0,-1.199 1.199,0 26.134,0 1.037,0 0.15,1.026 0.82,5.615 c 0.485,3.335 1.016,6.983 1.599,10.945 l 1.609,11.061 3.535,-27.6 0.135,-1.047 1.055,0 26.301,0 1.199,0 0,1.199 0,77.733 0,1.199 0.002,0 z m -70.486,0 -1.199,0 -20.201,0 -1.199,0 0,-1.199 0,-77.733 0,-1.199 1.199,0 20.201,0 1.199,0 0,1.199 0,77.733 0,1.199 0,0 z"
     style="fill:#ffffff"
     inkscape:connector-curvature="0" /><rect
     id="rect26"
     height="77.732002"
     width="20.200001"
     y="35.93"
     x="52.028"
     style="fill:#ffffff" /><path
     id="path28"
     d="m 142.714,35.93 0,77.732 -17.619,0 -0.078,-52.483 -7.027,52.483 -12.606,0 -7.349,-51.353 -0.083,51.353 -17.614,0 0,-77.732 26.134,0 c 0.692,4.721 1.489,10.243 2.42,16.562 l 2.873,19.737 4.648,-36.299 26.301,0 z"
     inkscape:connector-curvature="0"
     style="fill:#ffffff" /><path
     id="path30"
     d="m 170.962,49.182 0,51.228 c 2.878,0 4.653,-0.584 5.314,-1.76 0.655,-1.172 0.994,-4.352 0.994,-9.541 l 0,-30.261 c 0,-3.529 -0.114,-5.788 -0.339,-6.777 -0.224,-1 -0.724,-1.728 -1.515,-2.191 -0.784,-0.469 -2.268,-0.698 -4.454,-0.698 m -20.195,-13.252 15.084,0 c 9.738,0 16.328,0.448 19.758,1.343 3.436,0.9 6.049,2.374 7.834,4.414 1.785,2.056 2.904,4.33 3.352,6.85 0.453,2.514 0.677,7.443 0.677,14.803 l 0,27.227 c 0,6.98 -0.333,11.639 -0.983,13.992 -0.656,2.352 -1.796,4.193 -3.431,5.527 -1.629,1.326 -3.638,2.254 -6.032,2.789 -2.395,0.525 -6.001,0.787 -10.826,0.787 l -25.432,0 0,-77.732 z"
     inkscape:connector-curvature="0"
     style="fill:#ffffff" /><path
     id="path32"
     d="m 229.799,68.112 c 0,-3.284 -0.213,-5.423 -0.635,-6.433 -0.422,-1.005 -1.239,-1.51 -2.473,-1.51 -1.202,0 -1.983,0.443 -2.337,1.312 -0.359,0.879 -0.536,3.092 -0.536,6.631 l 0,27.378 c 0,3.414 0.203,5.596 0.609,6.553 0.4,0.963 1.207,1.432 2.404,1.432 1.229,0 2.03,-0.488 2.404,-1.479 0.375,-0.994 0.563,-3.367 0.563,-7.135 l 0,-26.749 z m -5.981,-32.182 0,18.503 c 1.608,-1.874 3.394,-3.274 5.361,-4.195 1.982,-0.917 4.127,-1.379 6.438,-1.379 2.659,0 4.966,0.417 6.928,1.244 1.957,0.838 3.451,2.004 4.477,3.503 1.025,1.504 1.645,2.978 1.857,4.414 0.203,1.437 0.313,4.502 0.313,9.202 l 0,28.674 c 0,4.67 -0.313,8.146 -0.947,10.432 -0.619,2.289 -2.098,4.273 -4.408,5.949 -2.316,1.676 -5.06,2.514 -8.239,2.514 -2.285,0 -4.414,-0.5 -6.393,-1.5 -1.982,-1.004 -3.794,-2.504 -5.423,-4.496 l -1.255,4.867 -18.097,0 0,-77.732 19.388,0 z"
     inkscape:connector-curvature="0"
     style="fill:#ffffff" /></g>

</svg>