<?xml version="1.0" encoding="iso-8859-1"?>
<!-- Generator: Adobe Illustrator 18.1.1, SVG Export Plug-In . SVG Version: 6.00 Build 0)  -->
<svg xmlns="http://www.w3.org/2000/svg" xmlns:xlink="http://www.w3.org/1999/xlink" version="1.1" id="Capa_1" x="0px" y="0px" viewBox="0 0 19.325 19.325" style="enable-background:new 0 0 19.325 19.325;" xml:space="preserve" width="512px" height="512px">
<g>
	<g>
		<path d="M11.857,4.448c0-0.635-0.799-0.915-1.683-0.915H2.413c-0.766,0-1.39,0.623-1.39,1.388v3.25    c0,0.023,0.006,0.097,0.009,0.119C1.051,8.407,1.11,8.513,1.201,8.588C1.285,8.656,1.51,8.859,1.662,9.059l-1.643,4.727    C0.016,13.811,0,13.907,0,13.935c0,1.025,0.836,1.858,1.863,1.858h2.914c0.432,0,0.88-0.245,1.3-0.713    c0.459-0.522,0.27-1.188,0.118-1.725c-0.05-0.179-0.104-0.354-0.123-0.517c-0.013-0.105,0.235-0.42,0.354-0.57    c0.288-0.364,0.874-1.106,0.301-1.794c0.01-0.09,0.055-0.309,0.25-0.716h3.198c0.617,0,1.689-0.224,1.689-0.979L11.857,4.448z     M10.613,8.37c0,0.242-0.197,0.438-0.438,0.438H6.686c-0.176,0-0.338,0.096-0.42,0.252c-0.539,1.007-0.636,1.662-0.296,1.999    c0.068,0.066,0.083,0.146-0.291,0.621c-0.272,0.345-0.611,0.774-0.552,1.273c0.025,0.21,0.088,0.437,0.153,0.664    c0.094,0.329,0.2,0.703,0.087,0.83c-0.262,0.29-0.481,0.394-0.589,0.394H1.865c-0.501,0-0.91-0.406-0.925-0.816l1.699-4.872    c0.042-0.124,0.033-0.26-0.027-0.375c-0.16-0.308-0.449-0.604-0.635-0.778V4.921c0-0.24,0.195-0.436,0.437-0.436h7.761    c0.235,0,0.426,0.184,0.434,0.419c0.008,0.24,0.192,0.435,0.43,0.458l0.005,2.508C10.798,7.893,10.613,8.125,10.613,8.37z" fill="#FFFFFF"/>
		<path d="M18.323,6.015h-2.408c-0.275-0.558-0.843-1.162-1.488-1.162h-0.661    c-0.07-0.142-0.212-0.245-0.379-0.262L12.57,4.512V8.72l0.816-0.08c0.194-0.019,0.353-0.152,0.408-0.331h0.633    c0.652,0,1.235-0.622,1.506-1.191h2.392c0.063,0,0.26-0.242,1-0.553C18.581,6.257,18.386,6.015,18.323,6.015z" fill="#FFFFFF"/>
	</g>
</g>
<g>
</g>
<g>
</g>
<g>
</g>
<g>
</g>
<g>
</g>
<g>
</g>
<g>
</g>
<g>
</g>
<g>
</g>
<g>
</g>
<g>
</g>
<g>
</g>
<g>
</g>
<g>
</g>
<g>
</g>
</svg>
