<?xml version="1.0" encoding="UTF-8" standalone="no"?>
<svg
   xmlns:dc="http://purl.org/dc/elements/1.1/"
   xmlns:cc="http://creativecommons.org/ns#"
   xmlns:rdf="http://www.w3.org/1999/02/22-rdf-syntax-ns#"
   xmlns:svg="http://www.w3.org/2000/svg"
   xmlns="http://www.w3.org/2000/svg"
   xmlns:sodipodi="http://sodipodi.sourceforge.net/DTD/sodipodi-0.dtd"
   xmlns:inkscape="http://www.inkscape.org/namespaces/inkscape"
   viewBox="0 0 512 512"
   id="svg2"
   version="1.1"
   inkscape:version="0.91 r13725"
   sodipodi:docname="jsfiddle.svg"
   width="512"
   height="512">
  <metadata
     id="metadata12">
    <rdf:RDF>
      <cc:Work
         rdf:about="">
        <dc:format>image/svg+xml</dc:format>
        <dc:type
           rdf:resource="http://purl.org/dc/dcmitype/StillImage" />
        <dc:title />
      </cc:Work>
    </rdf:RDF>
  </metadata>
  <defs
     id="defs10" />
  <sodipodi:namedview
     pagecolor="#ffffff"
     bordercolor="#666666"
     borderopacity="1"
     objecttolerance="10"
     gridtolerance="10"
     guidetolerance="10"
     inkscape:pageopacity="0"
     inkscape:pageshadow="2"
     inkscape:window-width="1366"
     inkscape:window-height="706"
     id="namedview8"
     showgrid="false"
     inkscape:zoom="0.74920635"
     inkscape:cx="288.89199"
     inkscape:cy="248.91664"
     inkscape:window-x="-8"
     inkscape:window-y="-8"
     inkscape:window-maximized="1"
     inkscape:current-layer="svg2" />
  <path
     d="m 316.55317,327.73222 c 15.45338,25.232 35.55862,43.77851 71.11724,43.77851 29.87169,0 48.954,-14.92975 48.954,-35.55862 0,-24.72055 -19.60595,-33.47625 -52.4855,-47.85801 l -18.02287,-7.73279 c -52.02275,-22.16325 -86.5828,-49.9282 -86.5828,-108.62429 0,-54.06858 41.19684,-95.228908 105.57988,-95.228908 45.83653,0 78.78913,15.952671 102.53547,57.721868 l -56.13877,36.04574 c -12.36028,-22.16325 -25.69477,-30.8946 -46.3967,-30.8946 -21.11598,0 -34.49918,13.39536 -34.49918,30.8946 0,21.62743 13.39537,30.38313 44.3265,43.7785 l 18.02287,7.7206 c 61.25338,26.26712 95.8378,53.04569 95.8378,113.25178 0,64.90667 -50.98766,100.46529 -119.46237,100.46529 -66.9525,0 -110.20738,-31.90534 -131.37205,-73.72325 z m -254.670372,6.24711 c 11.32517,20.09306 21.627431,37.08083 46.396702,37.08083 23.68544,0 38.62737,-9.26716 38.62737,-45.30072 l 0,-245.135297 72.09146,0 0,246.109517 c 0,74.64874 -43.76633,108.62428 -107.65008,108.62428 -57.721879,0 -91.149418,-29.87169 -108.149363,-65.85043 z"
     id="path6"
     inkscape:connector-curvature="0"
     style="fill:#ffffff" />
</svg>
