<?xml version="1.0" encoding="UTF-8" standalone="no"?>
<svg
   xmlns:dc="http://purl.org/dc/elements/1.1/"
   xmlns:cc="http://creativecommons.org/ns#"
   xmlns:rdf="http://www.w3.org/1999/02/22-rdf-syntax-ns#"
   xmlns:svg="http://www.w3.org/2000/svg"
   xmlns="http://www.w3.org/2000/svg"
   version="1.1"
   id="svg2"
   viewBox="0 0 512.00001 512.00001"
   height="512"
   width="512">
  <defs
     id="defs4" />
  <metadata
     id="metadata7">
    <rdf:RDF>
      <cc:Work
         rdf:about="">
        <dc:format>image/svg+xml</dc:format>
        <dc:type
           rdf:resource="http://purl.org/dc/dcmitype/StillImage" />
        <dc:title></dc:title>
      </cc:Work>
    </rdf:RDF>
  </metadata>
  <g
     transform="translate(0,-540.36216)"
     id="layer1">
    <g
       style="fill:#ffffff"
       transform="matrix(1.5677581,0,0,1.5677581,-4.02805e-6,540.36294)"
       id="g3460">
      <g
         style="fill:#ffffff"
         id="g3374">
	<g
   style="fill:#ffffff"
   id="g3376">
		<path
   style="fill:#ffffff"
   d="M 271.89,67.003 C 246.287,51.576 211.437,42.366 178.666,42.366 l -57.74,0 C 54.247,42.367 0,96.613 0,163.29 0,229.967 54.246,284.212 120.924,284.214 l 0,0 57.742,0 c 32.77,0 67.62,-9.21 93.224,-24.637 35.779,-21.558 54.691,-54.853 54.691,-96.287 0,-41.434 -18.912,-74.729 -54.691,-96.287 z M 15,163.29 C 15,104.884 62.519,57.366 120.926,57.366 c 58.406,0 105.923,47.518 105.923,105.924 0,58.406 -47.517,105.924 -105.923,105.924 C 62.519,269.214 15,221.697 15,163.29 Z"
   id="path3378" />

		<g
   style="fill:#ffffff"
   id="g3380">
			<path
   style="fill:#ffffff"
   d="m 120.926,206.074 c -23.591,0 -42.783,-19.192 -42.783,-42.783 0,-23.591 19.192,-42.783 42.783,-42.783 23.59,0 42.782,19.192 42.782,42.783 0,23.591 -19.192,42.783 -42.782,42.783 z m 0,-70.567 c -15.319,0 -27.783,12.464 -27.783,27.783 0,15.319 12.464,27.783 27.783,27.783 15.319,0 27.782,-12.464 27.782,-27.783 0,-15.319 -12.463,-27.783 -27.782,-27.783 z"
   id="path3382" />

		</g>

		<g
   style="fill:#ffffff"
   id="g3384">
			<g
   style="fill:#ffffff"
   id="g3386">
				<path
   style="fill:#ffffff"
   d="m 120.926,112.687 c -4.142,0 -7.5,-3.357 -7.5,-7.5 l 0,-12.633 c 0,-4.143 3.358,-7.5 7.5,-7.5 4.143,0 7.5,3.357 7.5,7.5 l 0,12.633 c 0,4.143 -3.358,7.5 -7.5,7.5 z"
   id="path3388" />

			</g>

			<g
   style="fill:#ffffff"
   id="g3390">
				<path
   style="fill:#ffffff"
   d="m 120.926,241.528 c -4.142,0 -7.5,-3.357 -7.5,-7.5 l 0,-12.633 c 0,-4.143 3.358,-7.5 7.5,-7.5 4.143,0 7.5,3.357 7.5,7.5 l 0,12.633 c 0,4.142 -3.358,7.5 -7.5,7.5 z"
   id="path3392" />

			</g>

		</g>

		<g
   style="fill:#ffffff"
   id="g3394">
			<g
   style="fill:#ffffff"
   id="g3396">
				<path
   style="fill:#ffffff"
   d="m 62.82,170.79 -12.632,0 c -4.143,0 -7.5,-3.357 -7.5,-7.5 0,-4.143 3.357,-7.5 7.5,-7.5 l 12.632,0 c 4.143,0 7.5,3.357 7.5,7.5 0,4.143 -3.357,7.5 -7.5,7.5 z"
   id="path3398" />

			</g>

			<g
   style="fill:#ffffff"
   id="g3400">
				<path
   style="fill:#ffffff"
   d="m 191.661,170.79 -12.633,0 c -4.143,0 -7.5,-3.357 -7.5,-7.5 0,-4.143 3.357,-7.5 7.5,-7.5 l 12.633,0 c 4.143,0 7.5,3.357 7.5,7.5 0,4.143 -3.357,7.5 -7.5,7.5 z"
   id="path3402" />

			</g>

		</g>

		<g
   style="fill:#ffffff"
   id="g3404">
			<g
   style="fill:#ffffff"
   id="g3406">
				<path
   style="fill:#ffffff"
   d="m 70.906,220.809 c -1.919,0 -3.839,-0.732 -5.303,-2.196 -2.93,-2.929 -2.93,-7.678 -10e-4,-10.606 l 8.932,-8.933 c 2.93,-2.93 7.679,-2.929 10.606,-0.001 2.93,2.929 2.93,7.678 0.001,10.607 l -8.932,8.933 c -1.464,1.464 -3.384,2.196 -5.303,2.196 z"
   id="path3408" />

			</g>

			<g
   style="fill:#ffffff"
   id="g3410">
				<path
   style="fill:#ffffff"
   d="m 162.011,129.706 c -1.919,0 -3.839,-0.732 -5.303,-2.196 -2.93,-2.929 -2.93,-7.678 -0.001,-10.606 l 8.933,-8.934 c 2.93,-2.93 7.679,-2.929 10.606,-0.001 2.93,2.929 2.93,7.678 0.001,10.606 l -8.933,8.934 c -1.464,1.465 -3.384,2.197 -5.303,2.197 z"
   id="path3412" />

			</g>

		</g>

		<g
   style="fill:#ffffff"
   id="g3414">
			<g
   style="fill:#ffffff"
   id="g3416">
				<path
   style="fill:#ffffff"
   d="m 79.838,129.705 c -1.919,0 -3.839,-0.732 -5.304,-2.196 l -8.932,-8.932 c -2.929,-2.93 -2.929,-7.678 0,-10.607 2.93,-2.928 7.678,-2.928 10.607,0 l 8.932,8.932 c 2.929,2.93 2.929,7.678 0,10.607 -1.464,1.463 -3.384,2.196 -5.303,2.196 z"
   id="path3418" />

			</g>

			<g
   style="fill:#ffffff"
   id="g3420">
				<path
   style="fill:#ffffff"
   d="m 170.943,220.809 c -1.92,0 -3.839,-0.732 -5.304,-2.197 l -8.933,-8.934 c -2.929,-2.929 -2.929,-7.678 0.001,-10.607 2.929,-2.929 7.678,-2.928 10.606,0.001 l 8.933,8.934 c 2.929,2.929 2.929,7.678 -0.001,10.606 -1.463,1.465 -3.383,2.197 -5.302,2.197 z"
   id="path3422" />

			</g>

		</g>

	</g>

</g>
      <g
         style="fill:#ffffff"
         id="g3424">
</g>
      <g
         style="fill:#ffffff"
         id="g3426">
</g>
      <g
         style="fill:#ffffff"
         id="g3428">
</g>
      <g
         style="fill:#ffffff"
         id="g3430">
</g>
      <g
         style="fill:#ffffff"
         id="g3432">
</g>
      <g
         style="fill:#ffffff"
         id="g3434">
</g>
      <g
         style="fill:#ffffff"
         id="g3436">
</g>
      <g
         style="fill:#ffffff"
         id="g3438">
</g>
      <g
         style="fill:#ffffff"
         id="g3440">
</g>
      <g
         style="fill:#ffffff"
         id="g3442">
</g>
      <g
         style="fill:#ffffff"
         id="g3444">
</g>
      <g
         style="fill:#ffffff"
         id="g3446">
</g>
      <g
         style="fill:#ffffff"
         id="g3448">
</g>
      <g
         style="fill:#ffffff"
         id="g3450">
</g>
      <g
         style="fill:#ffffff"
         id="g3452">
</g>
    </g>
  </g>
</svg>
