<?xml version="1.0" encoding="UTF-8" standalone="no"?>
<svg
   xmlns:dc="http://purl.org/dc/elements/1.1/"
   xmlns:cc="http://creativecommons.org/ns#"
   xmlns:rdf="http://www.w3.org/1999/02/22-rdf-syntax-ns#"
   xmlns:svg="http://www.w3.org/2000/svg"
   xmlns="http://www.w3.org/2000/svg"
   xmlns:sodipodi="http://sodipodi.sourceforge.net/DTD/sodipodi-0.dtd"
   xmlns:inkscape="http://www.inkscape.org/namespaces/inkscape"
   version="1.1"
   id="Layer_1"
   x="0px"
   y="0px"
   width="512"
   height="512"
   viewBox="0 0 512.00002 512.00002"
   enable-background="new 0 0 265.365 141.732"
   xml:space="preserve"
   inkscape:version="0.91 r13725"
   sodipodi:docname="legoshop.svg"><sodipodi:namedview
     pagecolor="#ffffff"
     bordercolor="#666666"
     borderopacity="1"
     objecttolerance="10"
     gridtolerance="10"
     guidetolerance="10"
     inkscape:pageopacity="0"
     inkscape:pageshadow="2"
     inkscape:window-width="1366"
     inkscape:window-height="706"
     id="namedview13"
     showgrid="false"
     inkscape:zoom="0.23046875"
     inkscape:cx="1429.1182"
     inkscape:cy="504.17302"
     inkscape:window-x="-8"
     inkscape:window-y="-8"
     inkscape:window-maximized="1"
     inkscape:current-layer="Layer_1" /><metadata
     id="metadata26"><rdf:RDF><cc:Work
         rdf:about=""><dc:format>image/svg+xml</dc:format><dc:type
           rdf:resource="http://purl.org/dc/dcmitype/StillImage" /><dc:title></dc:title></cc:Work></rdf:RDF></metadata><defs
     id="defs24" /><path
     style="fill:#ffffff"
     d="m 211.20564,153.51896 c -36.1576,0 -57.1459,5.4223 -77.6889,46.21346 -16.7295,33.21808 -34.556901,83.0805 -34.556901,115.96409 0,28.04893 22.531401,42.65672 48.181001,42.65672 23.3616,0 57.0404,-8.94757 57.0404,-39.41828 0,-12.56828 -9.7142,-18.86549 -24.914,-19.24013 -13.34,-0.32113 -21.1285,1.48186 -31.5115,4.07758 3.2068,-12.57719 7.1678,-24.44147 9.2596,-30.10567 26.8182,4.79896 48.717,3.13382 56.1072,-22.14099 5.4591,-18.70971 -8.2557,-26.05082 -40.5999,-21.49716 6.1773,-15.77948 11.9893,-24.63191 11.9893,-24.63191 6.8684,0.48614 18.349,0.0761 25.8062,-0.35206 17.4655,-1.0035 35.0827,-8.93215 35.0827,-29.72467 0,-15.00345 -18.3087,-21.80098 -34.1952,-21.80098 z m 113.092,0.86084 c -50.8487,0 -70.8061,31.11194 -89.8371,75.56921 -8.9424,20.88618 -20.2239,56.57936 -20.2239,79.31644 0,31.90683 19.4239,49.21559 50.7155,49.21559 45.7063,0 78.0195,-36.46002 87.2472,-81.86282 2.8411,-13.98209 6.3459,-40.19743 -29.1603,-38.74794 -18.023,0.74036 -28.8958,4.72842 -34.627,23.13929 -5.8961,18.97284 15.5001,19.49333 15.5001,19.49333 -4.2994,19.61507 -16.901,31.50667 -28.1404,31.50667 -7.0067,0 -13.414,-3.02522 -11.2464,-17.86809 3.162,-21.67114 23.4724,-74.42867 32.8472,-87.59459 4.255,-5.98086 9.978,-11.51901 18.7243,-11.51901 10.7307,0 9.6863,5.67273 7.1664,12.89347 -7.2387,20.64533 14.5836,21.19819 19.9178,20.78341 19.071,-1.48964 29.5709,-13.80831 32.1576,-34.78368 3.5279,-28.57967 -20.5344,-39.54128 -51.041,-39.54128 z m 138.8503,0.26284 c -51.8568,-0.61994 -68.2611,33.77476 -84.3127,75.95743 -9.2101,23.26782 -20.056,58.76494 -19.9177,83.91488 0.1961,35.02884 25.7819,43.41431 48.4969,43.68638 22.7015,0.27206 48.7143,-5.12052 70.1268,-43.62369 13.1259,-23.59786 25.2161,-55.26029 30.5903,-82.02919 4.7054,-23.41055 15.4899,-77.18775 -44.9836,-77.90581 z m -373.795001,0.83433 c -16.0293,0 -26.08169,6.69824 -34.33275,20.24326 -17.86241,28.53062 -55.81045008,114.60344 -55.00765008,151.80876 0.45939,21.26528 16.93174008,29.65002 35.24908008,30.09602 25.25716,0.59318 54.34602,-6.49684 57.32982,-38.20297 0.9945,-10.59251 -6.9587,-22.02933 -38.59365,-16.53461 13.21506,-29.58763 53.488851,-105.33886 54.086551,-130.26579 0.223,-9.3437 -3.5405,-17.14467 -18.731401,-17.14467 z m 367.479601,40.42864 c 7.5866,0.0937 8.3712,5.57669 8.1793,10.28198 -0.6511,16.14966 -24.3155,80.74219 -32.7316,94.98297 -3.6349,6.17264 -7.7464,11.28892 -15.1457,11.28028 -6.4491,0 -9.3456,-4.58056 -9.5151,-9.8166 -0.4728,-14.57526 26.2704,-87.6516 35.4178,-99.50182 4.072,-6.27968 8.6039,-7.29817 13.7953,-7.22681 z"
     id="path8"
     inkscape:connector-curvature="0" /></svg>