<?xml version="1.0" encoding="UTF-8" standalone="no"?>
<svg
   xmlns:dc="http://purl.org/dc/elements/1.1/"
   xmlns:cc="http://creativecommons.org/ns#"
   xmlns:rdf="http://www.w3.org/1999/02/22-rdf-syntax-ns#"
   xmlns:svg="http://www.w3.org/2000/svg"
   xmlns="http://www.w3.org/2000/svg"
   xmlns:sodipodi="http://sodipodi.sourceforge.net/DTD/sodipodi-0.dtd"
   xmlns:inkscape="http://www.inkscape.org/namespaces/inkscape"
   viewBox="0 0 512 512"
   height="512"
   width="512"
   xml:space="preserve"
   version="1.1"
   id="svg2"
   inkscape:version="0.91 r13725"
   sodipodi:docname="lynda_logo1k-p_1x1.svg"><sodipodi:namedview
     pagecolor="#ffffff"
     bordercolor="#666666"
     borderopacity="1"
     objecttolerance="10"
     gridtolerance="10"
     guidetolerance="10"
     inkscape:pageopacity="0"
     inkscape:pageshadow="2"
     inkscape:window-width="1366"
     inkscape:window-height="706"
     id="namedview28"
     showgrid="false"
     inkscape:zoom="0.65555556"
     inkscape:cx="261.18245"
     inkscape:cy="258.10995"
     inkscape:window-x="-8"
     inkscape:window-y="-8"
     inkscape:window-maximized="1"
     inkscape:current-layer="svg2" /><metadata
     id="metadata8"><rdf:RDF><cc:Work
         rdf:about=""><dc:format>image/svg+xml</dc:format><dc:type
           rdf:resource="http://purl.org/dc/dcmitype/StillImage" /><dc:title></dc:title></cc:Work></rdf:RDF></metadata><defs
     id="defs6" /><path
     id="path34"
     style="fill:#ffffff;fill-opacity:1;fill-rule:nonzero;stroke:none"
     d="m 253.79978,193.79215 -33.16764,-8.2793 c 3.7284,5.01241 6.81029,8.2793 9.64167,9.5978 3.05206,1.50934 10.69876,0.85353 23.52597,-1.3185 z m 123.337,-14.61896 c -2.37457,-5.66771 -3.66337,-9.58889 -3.90055,-12.44207 -1.53049,4.81373 -1.7887,7.83912 -0.64705,8.94684 1.30971,1.32284 2.81814,2.41406 4.54715,3.49523 z m -133.55246,41.47812 c 1.98289,-0.66819 4.15443,-0.66819 6.77499,-0.66819 l 13.04799,0 c 4.61115,0 6.34025,-0.87029 5.71015,-1.74553 -1.94749,-2.39525 -8.77103,-4.80049 -20.55891,-8.05421 l -4.28453,2.17132 -3.56079,-2.17132 c -2.13286,0.40513 -4.13782,2.38317 -5.64174,6.30435 l 4.80094,1.53917 3.7119,2.62475 z m 23.14091,3.25372 c -4.82741,1.50819 -8.36171,2.62925 -10.47365,2.85317 -2.63717,0.4228 -5.89227,0.4228 -9.84913,-0.2242 -3.49122,-0.43161 -5.68923,-1.12096 -6.71868,-1.52143 -1.33628,-0.65579 -2.22007,-1.73229 -2.67247,-3.49981 -0.64704,3.04737 0.86154,5.4526 4.81417,7.17607 2.62067,1.33608 5.91328,2.20664 9.8403,2.65017 3.93921,0.22508 8.92224,-1.11108 14.80569,-4.37364 5.9265,-3.25479 8.31872,-5.03439 6.97802,-5.4526 0,0 -2.36574,0.647 -6.72425,2.392 z m 222.9901,106.91365 c -11.03419,-4.98584 -19.80082,-8.51099 -26.57255,-9.79198 -1.547,-4.58971 -4.56816,-9.15745 -8.76663,-13.96358 -4.76677,-5.27933 -9.54679,-8.95559 -14.35769,-11.7867 -4.82751,-2.41406 -8.72364,-3.29786 -11.78788,-2.21987 l -1.2888,-1.72444 19.39591,0 c 9.61194,0 17.69338,-2.82229 24.23993,-8.92152 8.10352,-7.64924 11.98756,-19.23408 11.79336,-34.95194 -0.49522,-15.45086 -4.13783,-34.47426 -11.12026,-56.70946 -8.10794,-25.544 -18.81878,-49.11413 -31.85239,-70.7027 C 423.40316,94.291711 405.34238,73.987317 385.24028,59.364037 361.48587,42.137898 335.47826,33.397418 307.32782,33.397418 c -31.89104,-0.219781 -57.44183,10.701031 -76.40741,32.518029 -11.76686,13.308304 -20.71895,30.77594 -27.05479,52.373423 -3.0818,0.85264 -5.87566,2.1625 -8.53931,4.1407 -2.60302,2.17689 -4.54724,4.59095 -5.66276,7.20246 l -10.93163,0 0,5.66778 9.63842,0 c 0,0 0,0 0,0.21538 0,5.03773 2.40873,9.3991 6.95597,13.10625 0.67264,0.21537 1.11224,0.65405 1.55582,1.09017 -3.06425,20.06264 -4.15884,41.87856 -3.31026,65.25125 0.69824,19.40294 1.99163,32.96933 3.73723,40.55459 2.87111,10.94712 6.77174,18.80053 12.17629,23.83387 8.06484,7.62833 20.99587,11.52861 38.44755,11.52861 l 73.53736,0.23743 4.18091,5.45144 c -2.19801,5.02124 -5.90991,9.84821 -11.14676,14.4171 -1.29321,1.314 -2.13294,3.01647 -2.60299,5.68869 -34.31415,14.36078 -53.27417,25.08724 -56.76981,31.85385 l -18.96116,34.0263 -18.36647,-81.17097 -8.46429,1.54235 -11.84525,-9.22267 -35.96812,3.7579 c -23.14649,2.3489 -37.5207,4.12861 -43.2629,5.22751 -5.86136,1.07799 -12.63308,3.93108 -19.826239,8.29695 -2.168262,1.50818 -4.164304,2.63798 -5.702471,3.70608 l -0.194203,-5.02124 c -0.852722,-7.42533 -2.616252,-12.66167 -5.474109,-16.13933 -2.595243,-3.2757 -8.262407,-6.55149 -16.327258,-9.40909 l -12.917778,-3.92119 -0.659404,0.22861 -11.766868,4.35255 -5.856952,-5.64564 28.153798,134.23401 C 52.145851,394.55734 39.538178,374.10739 29.892082,351.54561 17.025148,321.0267 10.53042,289.16511 10.53042,255.9917 c 0,-33.40077 6.494728,-65.03067 19.361662,-95.56599 12.447722,-29.25567 29.92589,-55.2266 52.614407,-77.935082 22.698401,-22.699652 48.667431,-40.145306 77.920141,-52.570868 30.55149,-12.904398 62.18874,-19.438244 95.58043,-19.438244 33.22291,0 65.05437,6.533846 95.39841,19.438244 29.46016,12.425562 55.42919,29.871216 78.16069,52.570868 22.67201,22.708482 40.13358,48.679412 52.54706,77.935082 12.92546,30.53532 19.45549,62.1653 19.45549,95.56599 0,25.71718 -3.94362,50.84308 -11.85293,74.82698 z m -54.28268,17.06286 c -14.20217,10.90403 -30.75346,22.21745 -49.73996,33.83204 l -0.23746,0 -14.41728,-35.3834 66.98094,-45.17087 0.25423,-0.21626 c 0,0 0,0 0,-0.21536 4.1643,2.36993 8.06484,5.68871 11.79334,9.81396 3.03882,3.26582 5.19376,6.56369 6.71869,9.6099 0.92686,1.30642 1.33627,2.59942 1.78974,4.12976 0.6029,3.27465 -6.95702,11.11924 -23.14198,23.59995 z M 386.31281,199.24032 c 1.49183,1.54245 2.15493,3.27465 2.15493,5.02451 0,1.96619 -0.66293,3.71598 -2.15493,5.04772 -1.29321,1.4818 -3.08189,2.18015 -5.02171,2.18015 -1.96073,0 -3.50773,-0.69817 -5.04263,-2.18015 -1.26672,-1.33174 -1.93981,-3.08153 -1.93981,-5.04772 0,-1.74986 0.67352,-3.48206 1.93981,-5.02451 1.5349,-1.29309 3.0819,-2.16797 5.04263,-2.16797 1.93982,0 3.7285,0.8747 5.02171,2.16797 z M 278.96658,137.49321 c 0.40959,1.29308 1.68161,1.97821 3.90063,1.97821 2.4187,0 3.68542,-0.68496 4.35737,-1.97821 l 13.5566,0 c -0.43606,2.84876 -2.20242,5.03333 -5.02161,7.20571 -3.70749,2.40092 -8.08145,3.71934 -12.89236,3.71934 -5.2799,0 -9.41773,-1.31842 -13.11966,-3.71934 -3.49121,-2.60709 -5.22033,-5.66769 -5.22033,-9.18392 0,-0.8703 0,-1.72453 0.19862,-2.36666 0,-0.24537 0.21097,-0.89589 0.44755,-2.1934 0.44401,-1.10331 1.99613,-2.84876 4.57371,-4.58537 3.70194,-2.62042 7.83976,-3.94 13.11967,-3.94 4.81091,0 9.18487,1.31958 12.89236,3.94 2.1296,1.50386 3.92261,3.48206 4.58582,5.6931 l -26.0341,0 0,5.43054 4.65529,0 z m -71.3857,0 c 0.46609,1.29308 1.75885,1.97821 4.10357,1.97821 1.13326,0 2.2102,-0.44045 3.07307,-1.10774 0.43961,-0.19419 0.68942,-0.41837 0.93456,-0.8703 l 14.58173,0 c -0.66734,2.84868 -2.37014,5.03326 -5.25007,7.20573 -3.49122,2.40082 -7.88283,3.71923 -12.88246,3.71923 -5.00512,0 -9.1727,-1.31841 -12.84488,-3.71923 -3.48238,-2.60718 -5.2633,-5.66779 -5.2633,-9.18402 0,-3.70274 1.78092,-6.7666 5.2633,-9.14535 3.67218,-2.62042 7.83976,-3.93999 12.84488,-3.93999 4.99963,0 9.39124,1.31957 12.88246,3.93999 2.41869,1.50378 3.88403,3.48206 4.74135,5.69311 l -26.9907,0 0,5.43053 4.80649,0 z m 104.79063,132.00972 c 12.82729,-11.11923 20.90874,-18.1231 23.75336,-20.92446 6.54654,-6.55036 16.59437,-17.68283 30.08584,-33.85746 -35.11196,26.6385 -56.72796,41.50787 -64.55006,44.11505 l -7.8619,3.04735 c -2.82362,0.85265 -5.50051,1.50829 -7.84973,1.9738 -6.13722,0.86146 -14.67655,0.23744 -25.6026,-2.1978 -10.25855,-2.41406 -16.7621,-7.40433 -19.6332,-15.04149 -0.57731,-1.98262 -1.46092,-5.4736 -2.36573,-10.49476 -0.88379,-4.55891 -1.77209,-8.27487 -2.62058,-10.70986 -0.89712,-1.93971 -2.85344,-5.87847 -6.12072,-11.53743 -3.23301,-5.89506 -6.13386,-11.14907 -7.90931,-15.49384 -5.84918,-13.32155 -9.14619,-27.92275 -10.4229,-44.31373 l 0.86773,0 c 6.57311,0 12.21927,-1.96054 16.76652,-5.44703 1.12106,-0.88813 2.01263,-1.52143 2.67247,-2.39641 l 4.14666,-12.67164 0,-0.18448 c 0.84829,-5.68093 4.80535,-8.76255 11.77453,-8.76255 7.00451,0 10.71201,2.83226 11.76803,8.08511 -0.21627,0.86147 -0.21627,1.74987 -0.21627,2.82344 0,5.03775 2.16817,9.39911 6.96583,13.10636 4.56376,3.48638 10.31813,5.44703 16.84818,5.44703 6.51344,0 11.98754,-1.96065 16.81496,-5.44703 4.41368,-3.70725 6.76176,-8.06861 6.76176,-13.10636 0,-0.21536 0,-0.21536 0,-0.21536 l 8.92225,0 0,-5.66779 -10.03776,0 c -1.0825,-2.61143 -3.03883,-5.02549 -5.64625,-7.20237 -4.82742,-3.50299 -10.30152,-5.44704 -16.81496,-5.44704 -6.53005,0 -12.28442,1.94405 -16.84818,5.44704 -1.49181,1.12097 -2.61174,2.41415 -3.7284,3.71597 -0.39282,-0.6514 -0.84566,-1.30182 -1.28438,-1.74103 -3.23301,-3.51728 -7.63787,-5.26283 -13.50481,-5.26283 -5.67597,0 -10.25296,1.74555 -13.32708,5.26283 -0.63735,0.43955 -1.08578,1.09017 -1.50834,1.74103 -0.88389,-1.30182 -2.18477,-2.39641 -3.75824,-3.71597 -3.66336,-2.81787 -7.82767,-4.58098 -12.81407,-5.23184 8.93002,-23.143191 29.23622,-47.554132 60.89005,-73.327626 15.47878,40.598725 39.91291,66.793686 73.08506,78.137996 0.86155,1.96064 1.98174,4.36146 3.5342,6.74022 0,0.44749 0.21098,0.66728 0.4096,0.88379 l -24.20692,0 0,5.6677 27.26225,0 c 0.19419,0.68494 0.6894,1.30077 0.91036,1.97714 2.17153,5.46142 1.05593,11.77902 -3.10837,18.52796 l -6.09415,8.31902 c -1.93981,3.26582 -2.18151,6.1069 -0.88389,8.71409 0.66382,1.52585 2.67248,3.74457 5.92201,6.33515 1.9873,1.74988 2.84462,4.37912 2.4187,7.8656 6.89637,-1.76751 9.82706,-5.23634 8.08145,-10.92504 -0.95336,-3.27571 -0.71591,-6.33966 0.85713,-9.38261 l 1.96082,-3.90901 c 0.19421,-0.45722 0.43608,-0.67612 0.43608,-0.90923 l 0,-0.17741 c 0.19419,0 0.19419,0 0.19419,-0.2286 3.68543,-6.12333 5.90003,-10.72205 7.0001,-13.77382 0.2198,-1.08566 0.42989,-1.97821 0.42989,-2.81893 0,-2.59395 -1.2932,-5.25736 -4.15433,-7.42091 l 7.88724,0 c 7.19316,6.77109 8.72365,19.18668 5.02163,37.07693 0.62056,10.49034 -0.90922,16.39088 -4.61671,17.48979 -3.74501,0.86147 -7.43043,-0.21184 -11.33097,-3.2757 l 0.14565,102.33268 52.0295,0.21536 7.36643,10.05124 -59.54158,40.16295 -55.62789,-72.04335 z m 18.49005,101.52285 c -4.97316,-12.24021 -8.51179,-23.61761 -11.31447,-34.06929 -3.0984,-12.45982 -3.49122,-19.85097 -1.3098,-21.83359 4.11248,-3.7061 7.41392,-7.84353 10.23205,-12.43439 0.1942,-0.44398 0.64616,-1.09891 1.1255,-1.5292 0,-0.21626 0,-0.21626 0.21096,-0.21626 l 33.79228,43.87894 -32.73635,26.20379 z M 87.769362,326.04794 49.343871,288.50973 l 8.728051,-3.0606 c 4.15433,0.8838 8.318637,2.15483 12.667258,3.9444 6.564201,2.37876 10.667863,4.98585 12.641836,7.42091 3.479126,4.12861 5.034948,11.77902 4.388346,22.92032 l -0.466086,5.88289 4.603467,-3.72816 c 9.585357,-8.08175 18.749307,-12.8569 27.248907,-14.417 5.44427,-1.05583 20.08559,-2.80136 43.46043,-5.22751 l 33.38287,-3.26256 6.77499,5.23634 -115.005021,21.82918 z M 491.70264,156.48236 C 478.83676,125.70978 460.51338,98.674087 436.93657,75.074129 413.19211,51.502856 386.11861,33.177902 355.54285,20.325314 323.7114,6.7633358 290.71694,0 256.00662,0 221.32172,0 188.14189,6.7633358 156.49581,20.325314 125.93665,33.177902 98.833301,51.502856 75.084447,75.074129 51.541882,98.881513 33.175418,125.92929 20.279796,156.48236 6.8103065,188.33186 0,221.29793 0,255.9917 c 0,34.71584 6.8103065,67.88819 20.279796,99.49717 12.895623,30.5994 31.262086,57.64392 54.804652,81.43364 23.546973,23.57569 50.631512,41.8919 81.411362,54.77865 C 188.14189,505.21239 221.32172,512 256.00662,512 c 34.71032,0 67.70478,-6.78761 99.53623,-20.29884 30.57576,-12.88675 57.64926,-31.20296 81.39372,-54.77865 23.57681,-23.78972 41.90019,-50.83424 54.76607,-81.43364 C 505.25369,323.87997 512,290.70754 512,255.9917 c 0,-34.69377 -6.74631,-67.65984 -20.29736,-99.50934"
     inkscape:connector-curvature="0" /></svg>