<?xml version="1.0" encoding="UTF-8" standalone="no"?>
<svg
   xmlns:dc="http://purl.org/dc/elements/1.1/"
   xmlns:cc="http://creativecommons.org/ns#"
   xmlns:rdf="http://www.w3.org/1999/02/22-rdf-syntax-ns#"
   xmlns:svg="http://www.w3.org/2000/svg"
   xmlns="http://www.w3.org/2000/svg"
   xmlns:sodipodi="http://sodipodi.sourceforge.net/DTD/sodipodi-0.dtd"
   xmlns:inkscape="http://www.inkscape.org/namespaces/inkscape"
   version="1.0"
   width="512"
   height="512"
   viewBox="0 0 409.6 409.6"
   preserveAspectRatio="xMidYMid meet"
   id="svg2"
   inkscape:version="0.91 r13725"
   sodipodi:docname="mangareader_net_logo_by_avivws35-d92zmw9 (1).svg">
  <defs
     id="defs18" />
  <sodipodi:namedview
     pagecolor="#ffffff"
     bordercolor="#666666"
     borderopacity="1"
     objecttolerance="10"
     gridtolerance="10"
     guidetolerance="10"
     inkscape:pageopacity="0"
     inkscape:pageshadow="2"
     inkscape:window-width="1366"
     inkscape:window-height="706"
     id="namedview16"
     showgrid="false"
     units="px"
     inkscape:zoom="0.23125"
     inkscape:cx="2096.039"
     inkscape:cy="545.26366"
     inkscape:window-x="-8"
     inkscape:window-y="-8"
     inkscape:window-maximized="1"
     inkscape:current-layer="svg2" />
  <metadata
     id="metadata4">
Created by potrace 1.13, written by Peter Selinger 2001-2015
<rdf:RDF>
  <cc:Work
     rdf:about="">
    <dc:format>image/svg+xml</dc:format>
    <dc:type
       rdf:resource="http://purl.org/dc/dcmitype/StillImage" />
    <dc:title></dc:title>
  </cc:Work>
</rdf:RDF>
</metadata>
  <g
     transform="matrix(0.04036142,0,0,-0.04036142,7.0870759e-6,390.67084)"
     id="g6"
     style="fill:#ffffff;stroke:none">
    <path
       d="m 2780,7657 c 0,-3 50,-72 111,-154 416,-553 657,-1035 621,-1243 l -7,-44 -69,-17 c -199,-50 -485,-73 -926,-72 -578,0 -1166,40 -1875,129 -185,23 -527,77 -567,90 -47,14 9,-46 187,-201 854,-746 1876,-1262 2910,-1470 72,-14 140,-28 153,-31 19,-4 22,-11 22,-47 0,-102 -47,-227 -220,-587 -234,-485 -302,-665 -345,-911 -54,-308 31,-665 221,-930 61,-84 207,-222 319,-301 220,-155 536,-263 893,-304 188,-22 523,-14 667,15 556,115 966,469 1188,1026 90,225 123,451 106,713 -12,188 -27,302 -95,702 -37,221 -54,345 -52,390 l 3,65 85,17 c 47,9 254,42 460,73 605,91 686,109 896,196 281,117 469,247 593,411 50,66 113,201 135,288 10,36 20,119 23,185 7,154 -10,236 -77,373 -43,90 -62,115 -137,191 -146,145 -319,244 -568,326 -456,151 -841,134 -2045,-90 -168,-31 -348,-59 -400,-61 l -95,-5 -35,46 c -53,70 -261,269 -385,368 -123,99 -394,282 -556,375 -155,89 -441,230 -640,315 -267,114 -499,195 -499,174 z"
       id="path8"
       inkscape:connector-curvature="0"
       style="fill:#ffffff" />
    <path
       d="m 8940,7613 c -160,-12 -367,-66 -495,-131 -213,-107 -357,-271 -401,-458 -22,-94 -14,-245 17,-333 87,-249 367,-438 754,-508 128,-23 426,-23 560,1 461,82 751,333 772,666 7,110 -14,206 -67,316 -148,307 -607,487 -1140,447 z m 59,-643 c 173,-29 256,-133 205,-259 -52,-130 -283,-178 -467,-96 -30,13 -64,36 -76,51 -95,121 -4,272 182,303 73,12 84,12 156,1 z"
       id="path10"
       inkscape:connector-curvature="0"
       style="fill:#ffffff" />
    <path
       d="m 2205,4469 c -11,-5 -171,-71 -355,-148 C 1029,3981 622,3793 490,3694 336,3577 173,3384 92,3218 23,3079 0,2980 0,2828 c 0,-148 13,-214 65,-322 49,-102 110,-181 208,-268 286,-255 584,-353 1012,-335 255,12 436,51 600,132 270,133 414,350 455,688 18,147 0,297 -103,862 -26,147 -30,192 -30,335 1,163 11,288 37,468 14,100 12,105 -39,81 z"
       id="path12"
       inkscape:connector-curvature="0"
       style="fill:#ffffff" />
    <path
       d="m 6776,3616 c -262,-446 -418,-826 -441,-1081 -12,-130 40,-357 119,-512 80,-159 204,-277 381,-363 159,-78 319,-110 543,-110 152,0 284,20 407,61 124,42 188,80 271,164 118,119 174,259 174,435 0,118 -18,196 -70,304 -71,147 -184,253 -620,578 -229,172 -277,212 -470,404 -119,118 -221,214 -227,214 -7,0 -37,-42 -67,-94 z"
       id="path14"
       inkscape:connector-curvature="0"
       style="fill:#ffffff" />
  </g>
</svg>
