<?xml version="1.0" encoding="UTF-8" standalone="no"?>
<svg
   xmlns:dc="http://purl.org/dc/elements/1.1/"
   xmlns:cc="http://creativecommons.org/ns#"
   xmlns:rdf="http://www.w3.org/1999/02/22-rdf-syntax-ns#"
   xmlns:svg="http://www.w3.org/2000/svg"
   xmlns="http://www.w3.org/2000/svg"
   xmlns:sodipodi="http://sodipodi.sourceforge.net/DTD/sodipodi-0.dtd"
   xmlns:inkscape="http://www.inkscape.org/namespaces/inkscape"
   version="1.1"
   id="svg3392"
   viewBox="0 0 511.99999 511.99999"
   height="512"
   width="512"
   inkscape:version="0.91 r13725"
   sodipodi:docname="mediafire.svg">
  <sodipodi:namedview
     pagecolor="#ffffff"
     bordercolor="#666666"
     borderopacity="1"
     objecttolerance="10"
     gridtolerance="10"
     guidetolerance="10"
     inkscape:pageopacity="0"
     inkscape:pageshadow="2"
     inkscape:window-width="643"
     inkscape:window-height="480"
     id="namedview10"
     showgrid="false"
     units="px"
     inkscape:zoom="0.7358821"
     inkscape:cx="259.63974"
     inkscape:cy="340.87067"
     inkscape:window-x="0"
     inkscape:window-y="0"
     inkscape:window-maximized="0"
     inkscape:current-layer="svg3392" />
  <defs
     id="defs3394">
    <linearGradient
       gradientTransform="matrix(42.63285,0,0,42.63285,11652.671,-14255.315)"
       gradientUnits="userSpaceOnUse"
       id="SVGID_1_"
       y2="349.25101"
       x2="-252.0493"
       y1="326.31689"
       x1="-252.0493">
      <stop
         offset="0.12"
         style="stop-color:#33b0ee;stop-opacity:1"
         id="stop79" />
      <stop
         offset="0.88"
         style="stop-color:#185de4;stop-opacity:1"
         id="stop81" />
    </linearGradient>
  </defs>
  <metadata
     id="metadata3397">
    <rdf:RDF>
      <cc:Work
         rdf:about="">
        <dc:format>image/svg+xml</dc:format>
        <dc:type
           rdf:resource="http://purl.org/dc/dcmitype/StillImage" />
        <dc:title></dc:title>
      </cc:Work>
    </rdf:RDF>
  </metadata>
  <g
     transform="matrix(0.2846648,0,0,0.2846648,-2.2156203,214.645)"
     id="layer1">
    <path
       id="path83"
       d="m 1174.8489,-343.11277 c -142.3942,4.98175 -279.15478,50.75371 -355.35127,146.24564 45.87654,-5.00196 87.56458,-8.26081 128.18654,3.1578 113.93353,31.98221 91.37413,141.973754 -47.26598,111.608332 -109.4873,-23.999292 -381.75549,-92.028452 -568.89946,-47.465552 -73.21047,17.43107 -144.16754,52.047649 -167.56054,113.384791 37.48943,-15.106924 71.59368,-23.140372 107.36526,-25.262414 57.09306,-3.385164 81.26414,19.176698 74.79696,40.95289907 C 341.11845,16.384019 313.7441,32.344307 267.9686,48.158578 152.41832,88.123717 42.784497,126.85403 15.147416,249.07359 278.28072,109.97874 545.09729,168.54409 600.62407,311.93355 c -54.61734,-0.75787 -125.49356,33.30849 -158.48628,77.36614 361.85882,12.12596 492.69287,278.41151 876.88361,241.27576 246.4096,-23.79719 478.2681,-197.93 479.9859,-455.80873 2.021,-229.130092 -161.8563,-417.97927 -373.6058,-484.72257 -77.6466,-24.47928 -165.1152,-36.14596 -250.5526,-33.15692 z m 191.2415,324.957511 c 137.478,5.406156 197.7289,103.559225 196.87,190.158779 -0.96,98.22027 -92.2129,203.19015 -254.3976,186.11275 -174.4622,-18.23946 -294.3071,-158.61916 -467.4557,-178.02069 172.7949,-4.24409 342.9423,-205.37484 524.9833,-198.250839 z"
       style="fill:#ffffff;fill-rule:evenodd"
       inkscape:connector-curvature="0" />
  </g>
</svg>
