<?xml version="1.0" encoding="iso-8859-1"?>
<!-- Generator: Adobe Illustrator 16.0.0, SVG Export Plug-In . SVG Version: 6.00 Build 0)  -->
<!DOCTYPE svg PUBLIC "-//W3C//DTD SVG 1.1//EN" "http://www.w3.org/Graphics/SVG/1.1/DTD/svg11.dtd">
<svg xmlns="http://www.w3.org/2000/svg" xmlns:xlink="http://www.w3.org/1999/xlink" version="1.1" id="Capa_1" x="0px" y="0px" width="512px" height="512px" viewBox="0 0 31.763 31.763" style="enable-background:new 0 0 31.763 31.763;" xml:space="preserve">
<g>
	<path d="M31.61,11.021c-0.567-1.893-2.562-2.969-4.457-2.399c-1.895,0.57-2.967,2.566-2.396,4.459   c0.021,0.078,0.049,0.154,0.078,0.229l-2.129,1.858c-0.527-0.046-1.1-0.055-1.688-0.035L20.3,9.149   c1.787-0.634,2.777-2.565,2.229-4.399c-0.57-1.894-2.564-2.97-4.459-2.4c-1.895,0.57-2.965,2.565-2.396,4.459   c0.291,0.973,0.961,1.728,1.799,2.155l-0.299,6.674c-0.298,0.068-0.59,0.14-0.873,0.218L11.65,7.472   c0.693-0.886,0.96-2.081,0.613-3.239c-0.57-1.893-2.564-2.968-4.457-2.4C5.912,2.405,4.839,4.402,5.408,6.294   c0.498,1.658,2.094,2.689,3.756,2.533l3.322,8.177c-0.517,0.18-1.008,0.375-1.454,0.594l-4.091-2.323   c0.258-0.702,0.298-1.49,0.067-2.26c-0.569-1.892-2.564-2.968-4.458-2.397c-1.893,0.569-2.966,2.564-2.398,4.457   c0.569,1.893,2.564,2.969,4.458,2.397c0.314-0.094,0.606-0.229,0.871-0.396l3.286,3.229c-0.082,1.048,0.394,2.396,1.689,4.185   c2.305,3.186,5.818,7.044,12.252,5.04c5.474-1.705,0.621-7.639,2.719-11.315c0.113-0.197,0.197-0.386,0.26-0.561l1.572-2.144   c0.621,0.165,1.294,0.168,1.954-0.032C31.106,14.908,32.178,12.913,31.61,11.021z" fill="#FFFFFF"/>
</g>
<g>
</g>
<g>
</g>
<g>
</g>
<g>
</g>
<g>
</g>
<g>
</g>
<g>
</g>
<g>
</g>
<g>
</g>
<g>
</g>
<g>
</g>
<g>
</g>
<g>
</g>
<g>
</g>
<g>
</g>
</svg>
