<?xml version="1.0" encoding="iso-8859-1"?>
<!-- Generator: Adobe Illustrator 19.0.0, SVG Export Plug-In . SVG Version: 6.00 Build 0)  -->
<svg xmlns="http://www.w3.org/2000/svg" xmlns:xlink="http://www.w3.org/1999/xlink" version="1.1" id="Capa_1" x="0px" y="0px" viewBox="0 0 503.247 503.247" style="enable-background:new 0 0 503.247 503.247;" xml:space="preserve" width="512px" height="512px">
<g>
	<g>
		<g>
			<path d="M503.246,275.274c0.022-16.372-1.769-32.313-5.048-47.736v-2.869h-0.669     C479.411,144.77,419.164,80.943,341.401,57.474c56.408-23.706,104.705-25.712,130.417,0     c21.506,21.506,23.749,58.867,9.966,103.497c23.059-59.837,23.296-110.982-4.81-139.067     c-37.468-37.468-115.792-24.44-201.148,25.734c-0.065,0-0.129,0-0.194,0c-125.564,0-227.442,101.728-227.615,227.313     c-50.756,85.809-64.065,164.693-26.424,202.312c28.128,28.15,79.229,27.913,139.045,4.853     c-44.63,13.762-81.926,11.562-103.453-9.987c-25.885-25.885-23.663-74.613,0.453-131.496     c28.107,93.876,115.037,162.299,217.994,162.299c100.994,0,186.544-65.791,216.333-156.82H358.032     c-19.953,23.167-49.462,37.921-82.444,37.921c-50.368,0-92.69-34.362-105.028-80.912h330.939     C502.556,293.976,503.246,284.7,503.246,275.274z M179.383,224.69c18.227-34.535,54.445-58.133,96.249-58.133     c41.783,0,78.043,23.62,96.249,58.133H179.383z" fill="#FFFFFF"/>
		</g>
	</g>
	<g>
	</g>
	<g>
	</g>
	<g>
	</g>
	<g>
	</g>
	<g>
	</g>
	<g>
	</g>
	<g>
	</g>
	<g>
	</g>
	<g>
	</g>
	<g>
	</g>
	<g>
	</g>
	<g>
	</g>
	<g>
	</g>
	<g>
	</g>
	<g>
	</g>
</g>
<g>
</g>
<g>
</g>
<g>
</g>
<g>
</g>
<g>
</g>
<g>
</g>
<g>
</g>
<g>
</g>
<g>
</g>
<g>
</g>
<g>
</g>
<g>
</g>
<g>
</g>
<g>
</g>
<g>
</g>
</svg>
