<?xml version="1.0" encoding="UTF-8" standalone="no"?>
<svg
   xmlns:dc="http://purl.org/dc/elements/1.1/"
   xmlns:cc="http://creativecommons.org/ns#"
   xmlns:rdf="http://www.w3.org/1999/02/22-rdf-syntax-ns#"
   xmlns:svg="http://www.w3.org/2000/svg"
   xmlns="http://www.w3.org/2000/svg"
   version="1.1"
   id="svg2"
   viewBox="0 0 512.00001 512.00001"
   height="512"
   width="512">
  <defs
     id="defs4" />
  <metadata
     id="metadata7">
    <rdf:RDF>
      <cc:Work
         rdf:about="">
        <dc:format>image/svg+xml</dc:format>
        <dc:type
           rdf:resource="http://purl.org/dc/dcmitype/StillImage" />
        <dc:title></dc:title>
      </cc:Work>
    </rdf:RDF>
  </metadata>
  <g
     transform="translate(0,-540.36216)"
     id="layer1">
    <g
       style="fill:#ffffff"
       transform="matrix(1.14688,0,0,1.14688,-1002.7894,-5.6953394)"
       id="g3368">
      <path
         style="opacity:1;fill:#ffffff;fill-opacity:1;fill-rule:evenodd;stroke:none;stroke-opacity:1"
         d="m 879.77129,710.02004 0,-91.41881 24.24366,0 24.24366,0 0,10.18571 c 0,5.60214 0.40505,10.03418 0.90012,9.84899 0.49506,-0.1852 2.80553,-2.75744 5.13439,-5.7161 4.83288,-6.13988 13.04896,-11.81231 22.98218,-15.86703 5.6206,-2.29431 8.82964,-2.87581 17.95541,-3.25362 24.39309,-1.00988 40.16409,7.89944 54.60059,30.84481 0.098,0.15612 4.8996,-4.42543 10.6697,-10.18122 16.9252,-16.88316 29.5735,-21.85502 52.4125,-20.60259 17.8076,0.97653 30.1469,6.56226 41.7547,18.9015 8.0295,8.5354 12.7489,16.47807 15.2946,25.74058 2.0312,7.39049 3.4072,48.80706 3.4988,105.3084 l 0.061,37.62819 -26.2639,0 -26.264,0 -0.01,-50.25509 c -0.01,-63.52796 -0.7922,-71.4033 -7.8754,-79.25958 -5.4299,-6.0231 -10.1075,-7.81926 -20.4008,-7.83403 -6.8915,-0.01 -9.5847,0.45261 -13.6444,2.34313 -5.6116,2.61318 -10.7471,7.86415 -13.2739,13.57233 -2.0589,4.65101 -3.1758,33.69253 -3.3008,85.82536 l -0.085,35.60788 -25.7588,0 -25.75893,0 -0.0835,-7.32361 c -0.75019,-65.74802 -1.89257,-109.93174 -2.93171,-113.38962 -0.79246,-2.63699 -3.23797,-6.02329 -7.03987,-9.74813 -5.02071,-4.91894 -6.64757,-5.87866 -11.77484,-6.94623 -7.59871,-1.58217 -16.1262,-0.13845 -22.55871,3.81921 -5.02763,3.0933 -10.50328,10.38837 -12.18337,16.23157 -1.85276,6.44374 -2.95225,34.64516 -2.99024,76.69817 l -0.0367,40.65864 -25.75889,0 -25.75889,0 0,-91.41881 z"
         id="path3362" />
      <path
         style="opacity:1;fill:#ffffff;fill-opacity:1;fill-rule:evenodd;stroke:none;stroke-opacity:1"
         d="m 1187.5273,699.33864 0,-223.21429 5,0 5,0 0,223.21429 0,223.21429 -5,0 -5,0 0,-223.21429 z"
         id="path3364" />
      <path
         style="opacity:1;fill:#ffffff;fill-opacity:1;fill-rule:evenodd;stroke:none;stroke-opacity:1"
         d="m 1240.3845,730.76721 0,-70.35714 -10,0 -10,0 0,-20.71429 0,-20.71428 9.9058,0 9.9058,0 0.3778,-11.25 c 0.4378,-13.03511 1.8662,-19.58516 5.9772,-27.4084 8.9869,-17.10205 26.1393,-25.13179 57.0477,-26.70637 4.7143,-0.24017 9.2946,-0.58389 10.1785,-0.76384 l 1.6072,-0.32718 0,20.58851 0,20.58851 -6.1299,0.75947 c -7.1289,0.88321 -11.032,3.09925 -13.6737,7.76329 -1.3531,2.38899 -1.6033,3.90738 -1.6132,9.79172 l -0.012,6.96429 10.7143,0 10.7143,0 0,20.71428 0,20.71429 -10.7143,0 -10.7143,0 0,70.35714 0,70.35714 -26.7857,0 -26.7857,0 0,-70.35714 z"
         id="path3366" />
    </g>
  </g>
</svg>
