<?xml version="1.0" encoding="UTF-8" standalone="no"?>
<!-- Created with Inkscape (http://www.inkscape.org/) -->

<svg
   xmlns:dc="http://purl.org/dc/elements/1.1/"
   xmlns:cc="http://creativecommons.org/ns#"
   xmlns:rdf="http://www.w3.org/1999/02/22-rdf-syntax-ns#"
   xmlns:svg="http://www.w3.org/2000/svg"
   xmlns="http://www.w3.org/2000/svg"
   xmlns:sodipodi="http://sodipodi.sourceforge.net/DTD/sodipodi-0.dtd"
   xmlns:inkscape="http://www.inkscape.org/namespaces/inkscape"
   width="512"
   height="512"
   id="svg2"
   version="1.1"
   inkscape:version="0.91 r13725"
   sodipodi:docname="msn.svg">
  <defs
     id="defs4" />
  <sodipodi:namedview
     id="base"
     pagecolor="#ffffff"
     bordercolor="#666666"
     borderopacity="1.0"
     inkscape:pageopacity="0.0"
     inkscape:pageshadow="2"
     inkscape:zoom="0.5"
     inkscape:cx="256"
     inkscape:cy="216.25485"
     inkscape:document-units="px"
     inkscape:current-layer="layer1"
     showgrid="false"
     fit-margin-left="0.5"
     fit-margin-bottom="0.5"
     fit-margin-top="0.5"
     fit-margin-right="0.5"
     inkscape:window-width="1366"
     inkscape:window-height="706"
     inkscape:window-x="-8"
     inkscape:window-y="-8"
     inkscape:window-maximized="1">
    <inkscape:grid
       type="xygrid"
       id="grid2996"
       empspacing="5"
       visible="true"
       enabled="true"
       snapvisiblegridlinesonly="true" />
  </sodipodi:namedview>
  <metadata
     id="metadata7">
    <rdf:RDF>
      <cc:Work
         rdf:about="">
        <dc:format>image/svg+xml</dc:format>
        <dc:type
           rdf:resource="http://purl.org/dc/dcmitype/StillImage" />
        <dc:title></dc:title>
      </cc:Work>
    </rdf:RDF>
  </metadata>
  <g
     inkscape:label="Layer 1"
     inkscape:groupmode="layer"
     id="layer1"
     transform="translate(-186.78419,-1481.523)">
    <g
       id="g3340"
       transform="matrix(1.2517245,0,0,1.1865318,8.2344736,-371.26218)"
       style="fill:#ffffff">
      <path
         sodipodi:nodetypes="cccccccc"
         inkscape:connector-curvature="0"
         id="path3011"
         d="m 233.97547,1993.023 c -25.20682,0 -46.69128,-15.8211 -46.69128,-51.6828 0,-55.361 47.64151,-97.4029 69.25699,-109.293 0,0 30.24262,17.4218 61.61748,28.6328 -62.33909,-39.4415 -102.17337,-111.3037 -102.17337,-191.0644 0,-74.5411 39.34556,-108.1023 74.86905,-108.1023 28.57681,0 96.32649,31.4361 96.32649,152.0635 0,129.7996 -67.72984,279.4462 -153.20536,279.4462 z"
         style="fill:#ffffff;stroke:none" />
      <path
         sodipodi:nodetypes="cccccccc"
         inkscape:connector-curvature="0"
         id="path3021"
         d="m 342.91476,1951.8929 c 0,18.8117 6.57145,26.1773 16.61817,26.1773 25.14269,0 65.1996,-58.6849 63.67842,-120.2978 38.12439,-40.2183 83.82612,-103.2202 83.82612,-153.6812 0,-12.2152 -3.46381,-22.5007 -17.94172,-22.5007 -22.13453,0 -53.76345,38.1493 -73.82581,76.0318 -19.34794,39.2463 -37.44675,84.0096 -61.47249,145.4456 -5.61391,15.4098 -10.88269,34.0734 -10.88269,48.825 z"
         style="fill:#ffffff;stroke:none" />
    </g>
  </g>
</svg>
