<?xml version="1.0" encoding="UTF-8" standalone="no"?>
<!-- Generator: Adobe Illustrator 13.0.0, SVG Export Plug-In . SVG Version: 6.00 Build 14948)  -->

<svg
   xmlns:dc="http://purl.org/dc/elements/1.1/"
   xmlns:cc="http://creativecommons.org/ns#"
   xmlns:rdf="http://www.w3.org/1999/02/22-rdf-syntax-ns#"
   xmlns:svg="http://www.w3.org/2000/svg"
   xmlns="http://www.w3.org/2000/svg"
   xmlns:sodipodi="http://sodipodi.sourceforge.net/DTD/sodipodi-0.dtd"
   xmlns:inkscape="http://www.inkscape.org/namespaces/inkscape"
   version="1.1"
   id="Layer_1"
   x="0px"
   y="0px"
   width="512"
   height="512"
   viewBox="0 0 512 512"
   xml:space="preserve"
   inkscape:version="0.91 r13725"
   sodipodi:docname="nbc.svg"><metadata
   id="metadata27"><rdf:RDF><cc:Work
       rdf:about=""><dc:format>image/svg+xml</dc:format><dc:type
         rdf:resource="http://purl.org/dc/dcmitype/StillImage" /><dc:title></dc:title></cc:Work></rdf:RDF></metadata><defs
   id="defs25" /><sodipodi:namedview
   pagecolor="#ffffff"
   bordercolor="#666666"
   borderopacity="1"
   objecttolerance="10"
   gridtolerance="10"
   guidetolerance="10"
   inkscape:pageopacity="0"
   inkscape:pageshadow="2"
   inkscape:window-width="1366"
   inkscape:window-height="706"
   id="namedview23"
   showgrid="false"
   inkscape:zoom="0.57543862"
   inkscape:cx="286.59355"
   inkscape:cy="219.37778"
   inkscape:window-x="-8"
   inkscape:window-y="-8"
   inkscape:window-maximized="1"
   inkscape:current-layer="Layer_1" />










<g
   id="g3385"
   transform="matrix(1.8239031,0,0,1.8239031,-20.21535,86.218329)"><path
     id="path5"
     d="M 46.569,58.862 C 35.187,69.142 31.042,92.434 51.562,106.05 L 133.425,162.078 93.732,71.362 C 85.415,49.955 62.662,45.286 46.569,58.862"
     style="fill:#ffffff"
     inkscape:connector-curvature="0" /><path
     id="path7"
     d="m 117.036,14.755 c -13.308,0.27 -33.289,16.079 -24.395,40.218 l 41.052,96.585 14.424,-101.589 C 151.455,24.726 132.308,13.073 117.036,14.755"
     style="fill:#ffffff"
     inkscape:connector-curvature="0" /><path
     id="path11"
     d="m 208.911,72.184 -38.564,89.628 81.836,-56.324 c 18.866,-13.348 15.824,-34.689 5.263,-45.238 -4.428,-4.965 -12.555,-8.8 -21.165,-8.8 -10.174,-0.002 -21.059,5.381 -27.37,20.734"
     style="fill:#ffffff"
     inkscape:connector-curvature="0" /><path
     id="path13"
     d="m 243.021,118.242 -76.856,53.554 94.632,0 c 19.415,0 31.89,-19.97 26.345,-38.296 -3.714,-11.518 -14.707,-20.56 -27.463,-20.573 -5.369,10e-4 -11.062,1.615 -16.658,5.315"
     style="fill:#ffffff"
     inkscape:connector-curvature="0" /><path
     id="path15"
     d="m 44.363,171.796 93.234,0 -76.873,-53.554 c -17.761,-11.384 -37.729,-4.723 -44.94,14.167 -6.11,21.625 9.149,39.387 28.579,39.387"
     style="fill:#ffffff"
     inkscape:connector-curvature="0" /><path
     id="path7-3"
     d="m 186.03832,14.537291 c 13.34062,0.270402 33.37059,16.102942 24.45479,40.277887 L 169.3405,151.544 154.88115,49.803727 c -3.34618,-25.280589 15.84774,-36.95094 31.15717,-35.266436"
     style="fill:#ffffff"
     inkscape:connector-curvature="0" /></g></svg>