<?xml version="1.0" encoding="iso-8859-1"?>
<!-- Generator: Adobe Illustrator 18.1.1, SVG Export Plug-In . SVG Version: 6.00 Build 0)  -->
<svg xmlns="http://www.w3.org/2000/svg" xmlns:xlink="http://www.w3.org/1999/xlink" version="1.1" id="Capa_1" x="0px" y="0px" viewBox="0 0 302.031 302.031" style="enable-background:new 0 0 302.031 302.031;" xml:space="preserve" width="512px" height="512px">
<g>
	<path d="M226.45,40.238c-8.159,0-5.031,7.348-5.031,10.351v19.804c0,0-0.305,10.378-11.308,10.378H90.375   c0,0-9.752-0.625-9.752-10.051v-20.13c0,0,3.231-10.427-5.189-10.514l-15.24-0.163c0,0-19.815,0.326-19.815,20.103v221.914   c0,0,0.326,20.103,20.135,20.103h181.023c0,0,20.114-0.62,20.114-20.75c0-20.108,0-221.267,0-221.267s-0.305-19.782-20.44-19.782   C241.217,40.238,234.609,40.238,226.45,40.238z M248.679,288.896c-3.329,2.997-16.469,2.763-27.576,2.763H60.814   c-10.351,0-10.351-10.046-10.351-10.051V60.02c0-9.426,9.736-9.73,9.736-9.73c2.197,0,3.943,0,5.325,0   c2.948,0,5.281,2.252,5.194,5.02c-0.082,2.779-4.373,4.754-7.479,7.974c-1.479,1.545-2.622,3.878-2.72,7.43v200.511   c0,3.476,1.202,5.825,2.768,7.413c3.16,3.193,16.285,3.285,27.391,3.285h141.106c9.138,0,9.758-10.699,9.758-10.699V70.398   c0-3.476-1.202-5.787-2.768-7.326c-3.176-3.106-7.277-5.222-7.277-7.914s2.252-4.863,5.026-4.863h5.026   c9.73,0,10.057,10.051,10.057,10.051v221.267C251.6,285.127,250.333,287.406,248.679,288.896z" fill="#FFFFFF"/>
	<path d="M198.335,42.947c-1.539-1.539-3.867-2.709-7.403-2.709h-10.051c0,0-9.73-0.326-9.73-10.057V10.378   c0,0,0-10.378-20.135-10.378c0,0-20.103,0.326-20.103,10.051V29.86c0,0-0.62,10.383-10.372,10.383h-10.057   c0,0-4.177,0.125-7.06,2.943c-3.084,3.013-6.739,6.924-9.801,9.986c-1.49,1.49-2.622,3.748-2.622,7.174   c0,0-0.315,10.051,9.73,10.051h100.28c0,0,10.351-0.299,10.351-9.73c0,0,0-4.389-2.763-7.462   C205.597,49.882,201.496,46.112,198.335,42.947z M151.337,30.181c0,0-10.693,0-10.693-10.079c0,0,0-10.051,10.372-10.051   c0,0,10.057,0.625,10.057,9.752C161.072,19.804,161.072,30.181,151.337,30.181z" fill="#FFFFFF"/>
</g>
<g>
</g>
<g>
</g>
<g>
</g>
<g>
</g>
<g>
</g>
<g>
</g>
<g>
</g>
<g>
</g>
<g>
</g>
<g>
</g>
<g>
</g>
<g>
</g>
<g>
</g>
<g>
</g>
<g>
</g>
</svg>
