<?xml version="1.0" encoding="UTF-8" standalone="no"?>
<!-- Generator: Adobe Illustrator 18.0.0, SVG Export Plug-In . SVG Version: 6.00 Build 0)  -->

<svg
   xmlns:dc="http://purl.org/dc/elements/1.1/"
   xmlns:cc="http://creativecommons.org/ns#"
   xmlns:rdf="http://www.w3.org/1999/02/22-rdf-syntax-ns#"
   xmlns:svg="http://www.w3.org/2000/svg"
   xmlns="http://www.w3.org/2000/svg"
   xmlns:sodipodi="http://sodipodi.sourceforge.net/DTD/sodipodi-0.dtd"
   xmlns:inkscape="http://www.inkscape.org/namespaces/inkscape"
   version="1.1"
   id="Layer_1"
   x="0px"
   y="0px"
   width="512"
   height="512"
   viewBox="0 0 512 512"
   enable-background="new 0 0 216 216"
   xml:space="preserve"
   inkscape:version="0.91 r13725"
   sodipodi:docname="icon-calendar.svg"><metadata
   id="metadata170"><rdf:RDF><cc:Work
       rdf:about=""><dc:format>image/svg+xml</dc:format><dc:type
         rdf:resource="http://purl.org/dc/dcmitype/StillImage" /><dc:title></dc:title></cc:Work></rdf:RDF></metadata><defs
   id="defs168">
	
	
	
	
	
</defs><sodipodi:namedview
   pagecolor="#ffffff"
   bordercolor="#666666"
   borderopacity="1"
   objecttolerance="10"
   gridtolerance="10"
   guidetolerance="10"
   inkscape:pageopacity="0"
   inkscape:pageshadow="2"
   inkscape:window-width="1366"
   inkscape:window-height="706"
   id="namedview166"
   showgrid="false"
   inkscape:zoom="0.5462963"
   inkscape:cx="559.32507"
   inkscape:cy="387.24374"
   inkscape:window-x="-8"
   inkscape:window-y="-8"
   inkscape:window-maximized="1"
   inkscape:current-layer="Layer_1" />
<g
   display="none"
   id="g3"
   style="display:none"
   transform="translate(0,296)">
	<rect
   display="inline"
   width="216"
   height="216"
   id="rect5"
   x="0"
   y="0"
   style="display:inline;fill:#2b589b" />
	<text
   transform="translate(17.5791,194.7949)"
   display="inline"
   font-size="22"
   id="text7"
   style="font-size:22px;font-family:Segoe;display:inline;fill:#ffffff">Word Online</text>

	<g
   display="inline"
   id="g9"
   style="display:inline">
		<path
   d="m 152.5,56.6 -33.7,0 0,10.2 27.5,0 0,4.1 -27.5,0 0,5.1 27.5,0 0,4 -27.5,0 0,5.1 27.5,0 0,4.1 -27.5,0 0,5.1 27.5,0 0,4.1 -27.5,0 0,5.1 27.5,0 0,4.1 -27.5,0 0,5.1 27.5,0 0,4.1 -27.5,0 0,9.2 33.7,0 c 1.1,0 1.9,-0.8 1.9,-1.9 l 0,-65.4 c 0,-1.1 -0.9,-2.1 -1.9,-2.1 z"
   id="path11"
   inkscape:connector-curvature="0"
   style="fill:#ffffff" />
		<path
   d="m 63.9,55.6 0,71.2 52.9,9.2 0,-89.5 -52.9,9.1 z m 37.5,52.2 -7,-0.4 L 89.9,86 c -0.1,-0.3 -0.1,-0.5 -0.2,-0.8 0,-0.3 -0.1,-0.6 -0.1,-0.9 0,-0.3 -0.1,-0.6 -0.1,-1 0,-0.3 0,-0.7 -0.1,-1 l -0.1,0 c 0,0.4 -0.1,0.7 -0.1,1.1 0,0.3 -0.1,0.7 -0.1,1 0,0.3 -0.1,0.6 -0.1,0.9 0,0.3 -0.1,0.5 -0.1,0.8 l -4.4,20.8 -6.4,-0.4 -6.2,-31.1 5.8,-0.4 3.4,21 c 0,0.2 0.1,0.5 0.1,0.7 0,0.3 0.1,0.5 0.1,0.8 0,0.3 0.1,0.6 0.1,1 0,0.3 0,0.7 0.1,1.1 l 0.1,0 c 0,-0.3 0,-0.6 0.1,-0.9 0,-0.3 0.1,-0.6 0.1,-0.9 0,-0.3 0.1,-0.6 0.1,-0.9 0.1,-0.3 0.1,-0.6 0.2,-1 l 4.6,-21.5 6.4,-0.4 4.5,22.5 c 0,0.2 0.1,0.4 0.1,0.7 0,0.3 0.1,0.5 0.1,0.8 0,0.3 0.1,0.6 0.1,1 0,0.4 0.1,0.7 0.1,1.1 l 0.1,0 c 0,-0.3 0,-0.7 0.1,-1 0,-0.3 0.1,-0.6 0.1,-1 0,-0.3 0.1,-0.6 0.1,-0.9 0,-0.3 0.1,-0.6 0.2,-0.9 l 3.9,-22.9 6.7,-0.4 -7.8,34.8 z"
   id="path13"
   inkscape:connector-curvature="0"
   style="fill:#ffffff" />
	</g>
</g>
<g
   display="none"
   id="g15"
   style="display:none"
   transform="translate(0,296)">
	<g
   display="inline"
   id="g17"
   style="display:inline">
		<rect
   width="216.3"
   height="214.89999"
   id="rect19"
   x="0"
   y="0"
   style="fill:#21bbee" />
		<text
   transform="matrix(0.9907,0,0,1,16.8979,194.4219)"
   font-size="22.2067"
   id="text21"
   style="font-size:22.20669937px;font-family:Segoe;fill:#ffffff">Windows</text>

	</g>
	<g
   display="inline"
   id="g23"
   style="display:inline">
		<polygon
   points="156.2,46.1 103,53.6 103,93.4 156.2,93.4 "
   id="polygon25"
   style="fill:#ffffff" />
		<polygon
   points="60.1,59.6 60.1,93.4 100.8,93.4 100.8,53.9 "
   id="polygon27"
   style="fill:#ffffff" />
		<polygon
   points="60.1,129.5 100.8,135.2 100.8,95.6 60.1,95.6 "
   id="polygon29"
   style="fill:#ffffff" />
		<polygon
   points="156.2,143 156.2,95.6 103,95.6 103,135.5 "
   id="polygon31"
   style="fill:#ffffff" />
	</g>
</g>
<g
   display="none"
   id="g33"
   style="display:none"
   transform="translate(0,296)">
	<rect
   display="inline"
   width="216"
   height="216"
   id="rect35"
   x="0"
   y="0"
   style="display:inline;fill:#14a2dd" />
	<text
   transform="translate(21.1326,195.0566)"
   display="inline"
   font-size="22"
   id="text37"
   style="font-size:22px;font-family:Segoe;display:inline;fill:#ffffff">Skype</text>

	<g
   display="inline"
   id="g39"
   style="display:inline">
		<path
   d="m 155.1,99.4 c 0.5,-2.7 0.7,-5.4 0.7,-8.2 0,-26.1 -21.2,-47.3 -47.3,-47.3 -2.8,0 -5.5,0.2 -8.2,0.7 -4.1,-2.4 -8.9,-3.7 -13.9,-3.7 -15.5,0 -28.1,12.6 -28.1,28.1 0,5.1 1.3,9.8 3.7,13.9 -0.5,2.7 -0.7,5.4 -0.7,8.2 0,26.1 21.2,47.3 47.3,47.3 2.8,0 5.5,-0.2 8.2,-0.7 4.1,2.4 8.9,3.7 13.9,3.7 15.5,0 28.1,-12.6 28.1,-28.1 0,-5.1 -1.3,-9.8 -3.7,-13.9"
   id="path41"
   inkscape:connector-curvature="0"
   style="fill:#ffffff" />
		<path
   d="m 108.8,121.4 c -16.8,0 -24.5,-8.5 -24.5,-14.7 0,-3.2 2.5,-5.4 5.7,-5.4 7.2,0 5.3,10.7 18.7,10.7 6.9,0 10.9,-4.1 10.9,-8 0,-2.3 -1.3,-4.9 -5.9,-6 L 98.8,94.2 c -12,-3 -14.1,-9.7 -14.1,-15.9 0,-12.8 11.8,-17.4 23,-17.4 10.3,0 22.6,5.7 22.6,13.4 0,3.3 -2.8,5.1 -6,5.1 -6.1,0 -5.1,-8.6 -17.5,-8.6 -6.1,0 -9.4,2.9 -9.4,6.9 0,4 4.7,5.4 8.9,6.3 l 11,2.5 c 12.1,2.7 15.3,9.8 15.3,16.5 0.2,10.4 -7.9,18.4 -23.8,18.4"
   id="path43"
   inkscape:connector-curvature="0"
   style="fill:#14a2dd" />
	</g>
</g>
<g
   display="none"
   id="g45"
   style="display:none"
   transform="translate(0,296)">
	<rect
   display="inline"
   width="216"
   height="216"
   id="rect47"
   x="0"
   y="0"
   style="display:inline;fill:#dc5b26" />
	<text
   transform="translate(19.731,194.4248)"
   display="inline"
   font-size="22.1023"
   id="text49"
   style="font-size:22.10230064px;font-family:Segoe;display:inline;fill:#ffffff">PowerPoint Online</text>

	<g
   display="inline"
   id="g51"
   style="display:inline">
		<path
   d="m 155.1,58.2 -34.8,0 0,65.4 34.8,0 c 1.3,0 2.1,-0.8 2.1,-2.1 l 0,-61.2 c 0,-1.3 -0.8,-2.1 -2.1,-2.1 z"
   id="path53"
   inkscape:connector-curvature="0"
   style="fill:#ffffff" />
		<g
   id="g55">
			<rect
   x="119.2"
   y="109.9"
   width="28.5"
   height="4.1999998"
   id="rect57"
   style="fill:#dc5b26" />
		</g>
		<g
   id="g59">
			<rect
   x="119.2"
   y="100.4"
   width="28.5"
   height="4.1999998"
   id="rect61"
   style="fill:#dc5b26" />
		</g>
		<path
   d="m 126,68.8 c -7,0 -11.2,5.7 -11.2,12.7 0,7 6.4,12.4 13.4,12.4 7,0 13.4,-1.9 13.4,-12.9 l -15.6,0 0,-12.2 z"
   id="path63"
   inkscape:connector-curvature="0"
   style="fill:#dc5b26" />
		<path
   d="m 129,66.7 0,11.3 14.6,0 C 143.6,73 138,66.7 129,66.7 Z"
   id="path65"
   inkscape:connector-curvature="0"
   style="fill:#dc5b26" />
		<polygon
   points="63.3,127.9 63.3,54 118.2,44.5 118.2,137.3 "
   id="polygon67"
   style="fill:#ffffff" />
		<path
   d="m 87.5,89.7 0,-10.6 2.7,-0.3 c 0.9,0 1.7,0.1 2.4,0.3 0.7,0.2 1.3,0.6 1.8,1 0.5,0.5 0.8,1.1 1.1,1.8 0.2,0.7 0.4,1.6 0.4,2.5 0,1 -0.1,1.8 -0.4,2.6 -0.2,0.7 -0.6,1.4 -1.1,1.9 -0.5,0.5 -1.1,0.9 -1.8,1.1 -0.7,0.2 -1.5,0.4 -2.4,0.4 L 88,90 87.5,89.7 Z m 3.9,-17.3 -10.2,0.6 0,35.5 6.3,0.5 0,-12.6 3.3,0.2 c 1,0 1.9,0 2.7,-0.2 0.9,-0.1 1.7,-0.3 2.5,-0.6 0.8,-0.3 1.5,-0.7 2.2,-1.1 0.7,-0.5 1.3,-1 1.9,-1.6 0.6,-0.6 1.1,-1.2 1.5,-1.9 0.4,-0.7 0.8,-1.4 1.1,-2.2 0.3,-0.8 0.5,-1.6 0.6,-2.4 0.1,-0.9 0.2,-1.8 0.2,-2.7 0,-2 -0.3,-3.8 -0.8,-5.3 -0.5,-1.5 -1.3,-2.7 -2.3,-3.7 -1,-1 -2.3,-1.6 -3.8,-2.1 -1.5,-0.4 -3.2,-0.6 -5.2,-0.4"
   id="path69"
   inkscape:connector-curvature="0"
   style="fill:#dc5b26" />
	</g>
</g>
<g
   display="none"
   id="g71"
   style="display:none"
   transform="translate(0,296)">
	<rect
   display="inline"
   width="216"
   height="216"
   id="rect73"
   x="0"
   y="0"
   style="display:inline;fill:#d24927" />
	<text
   transform="translate(14.7678,194.7705)"
   display="inline"
   font-size="22"
   id="text75"
   style="font-size:22px;font-family:Segoe;display:inline;fill:#ffffff">People</text>

	<g
   id="people_icon_19_"
   display="inline"
   style="display:inline">
		<g
   id="g78">
			<path
   d="m 113.1,68.9 c 1.5,4.9 4.4,8.5 8.9,10.3 1.2,0.5 2.5,0.6 4,0.8 0.5,0 1,0 1.6,-0.1 2.5,-0.4 4.1,-0.8 5.9,-1.9 4.1,-2.5 6.7,-6.1 8,-11.3 0.7,-2.5 0.8,-6.3 0.1,-8.9 -1.7,-6.6 -6.1,-12.3 -14.5,-12.1 -0.4,0 -0.9,0.1 -1.3,0.1 -1,0.2 -1.9,0.4 -2.8,0.7 -3.9,1.5 -6.9,4.5 -8.6,8.2 -0.7,1.6 -1.3,3.2 -1.7,5.1 -0.4,1.7 -0.5,4.2 -0.2,6.1 0.2,1.1 0.3,2 0.6,3 z M 74,84.9 c 1.7,1 5.4,2.3 8.3,1.8 1,-0.2 2,-0.3 2.9,-0.6 5.2,-1.6 8.2,-5.4 10.1,-10.4 1.4,-3.5 1.2,-9 0.1,-12.6 -2.1,-6.7 -7.5,-13.2 -16.4,-13 -0.6,0.1 -1.2,0.1 -1.9,0.2 -1.1,0.2 -2.1,0.5 -3,0.9 -4.6,2 -7.6,5.9 -9.1,11 -0.3,1 -0.4,2.2 -0.6,3.3 -0.4,2.4 0,5.3 0.6,7.2 1.6,5.8 4.5,9.6 9,12.2 z m 83.6,22.7 c -0.4,-2.4 -0.4,-4.8 -0.8,-7.1 -1,-5.7 -1.2,-11.9 -3.9,-15.8 -1.2,-1.7 -2.9,-2.6 -4.9,-3.5 -1.6,-0.7 -3.1,-1.4 -4.9,-1.9 -0.5,-0.1 -1.1,-0.3 -1.7,-0.2 -1.7,0.3 -2.6,1.7 -3.8,2.5 -2.3,1.7 -4.8,3 -8.1,3.9 -1.1,0.3 -2.7,0.6 -4.2,0.4 -1,-0.1 -1.9,-0.2 -2.8,-0.4 -2.6,-0.6 -4.7,-1.8 -6.7,-3.1 -0.8,-0.6 -1.5,-1.1 -2.3,-1.7 -0.7,-0.6 -1.3,-1.3 -2.4,-1.5 -1.2,-0.2 -2.5,0.4 -3.3,0.7 -1.5,0.6 -2.9,1.2 -4.3,1.8 -0.7,0.4 -1.3,0.8 -2,1.1 l -0.1,0.1 c 1.4,0.3 2.8,1.2 4,1.7 3.4,1.5 6.1,3.5 8,6.5 1.6,2.5 2.4,5.7 3.2,9.1 0.2,1.4 0.5,2.9 0.7,4.3 0.6,3.2 1,6.6 1.4,9.9 l 39.4,0 c 0,-2.4 -0.2,-4.7 -0.5,-6.8 z m -44.7,6.4 c -0.6,-3.2 -0.6,-6.5 -1.2,-9.6 -0.9,-4.6 -1.3,-8.8 -3.6,-11.9 -1.2,-1.6 -3.1,-2.6 -5.1,-3.5 -1.6,-0.7 -3.2,-1.5 -5.1,-2 -0.5,-0.1 -1.2,-0.4 -2,-0.2 -1.5,0.3 -2.1,1.1 -3.1,1.8 -0.8,0.6 -1.5,1.1 -2.3,1.7 -1.9,1.2 -3.9,2.2 -6.4,2.8 -0.8,0.2 -1.7,0.2 -2.6,0.3 -1.2,0.2 -2.7,-0.1 -3.6,-0.4 -3.2,-0.8 -5.6,-2.2 -7.9,-3.9 -1.2,-0.9 -2.1,-2.2 -3.9,-2.5 -0.7,-0.1 -1.4,0.1 -2,0.2 -1.9,0.5 -3.4,1.2 -5,1.9 -2.1,0.9 -4,2 -5.3,3.8 -2.3,3.3 -2.8,8.2 -3.7,13 -0.1,1.2 -0.3,2.4 -0.4,3.7 -0.4,2.2 -0.4,4.5 -0.7,6.8 -0.1,1.1 -0.2,2.1 -0.3,3.2 -0.2,1.3 -0.3,2.7 -0.3,4 l 65.3,0 c 0,-1.7 -0.1,-3.5 -0.4,-5.2 -0.1,-1.2 -0.2,-2.6 -0.4,-4 z"
   id="path80"
   inkscape:connector-curvature="0"
   style="fill:#ffffff" />
		</g>
	</g>
</g>
<g
   display="none"
   id="g82"
   style="display:none"
   transform="translate(0,296)">
	<rect
   display="inline"
   width="216"
   height="216"
   id="rect84"
   x="0"
   y="0"
   style="display:inline;fill:#813b7d" />
	<text
   transform="translate(19.6853,194.416)"
   display="inline"
   font-size="22"
   id="text86"
   style="font-size:22px;font-family:Segoe;display:inline;fill:#ffffff">OneNote Online</text>

	<g
   display="inline"
   id="g88"
   style="display:inline">
		<g
   id="g90">
			<path
   d="m 157.1,81.6 -3.2,0 0,19.5 3.2,0 c 1.1,0 2.2,-1 2.2,-2.2 l 0,-15.1 c 0,-1.1 -1.1,-2.2 -2.2,-2.2 z"
   id="path92"
   inkscape:connector-curvature="0"
   style="fill:#ffffff" />
			<path
   d="m 157.1,103.3 -3.2,0 0,19.5 3.2,0 c 1.1,0 2.2,-1 2.2,-2.2 l 0,-15.1 c 0,-1.2 -1.1,-2.2 -2.2,-2.2 z"
   id="path94"
   inkscape:connector-curvature="0"
   style="fill:#ffffff" />
			<path
   d="m 157.1,60 -5.4,0 0,-3.3 c 0,-1.1 -1.4,-2.1 -1.4,-2.1 l -28.9,0 0,10.8 21.6,0 0,4.3 -21.6,0 0,5.4 21.6,0 0,4.3 -21.6,0 0,5.4 21.6,0 0,4.3 -21.6,0 0,5.4 21.6,0 0,4.3 -21.6,0 0,5.4 21.6,0 0,4.3 -21.6,0 0,5.4 21.6,0 0,4.3 -21.6,0 0,9.7 28.1,0 c 1.1,0 2.2,-1 2.2,-2.1 l 0,-46.3 5.4,0 c 1.1,0 2.2,-1 2.2,-2.2 l 0,-15.1 c 0,-1.2 -1.1,-2.2 -2.2,-2.2 z"
   id="path96"
   inkscape:connector-curvature="0"
   style="fill:#ffffff" />
		</g>
		<path
   d="m 63.1,53.3 0,76.1 56.2,9.5 0,-95.1 -56.2,9.5 z M 105.2,109.7 98,109.3 85.6,86.4 C 85.4,86.1 85.3,85.8 85.1,85.5 85,85.2 84.8,85 84.7,84.7 84.6,84.5 84.4,84.2 84.3,84 84.2,83.8 83.6,83.6 83.6,83.4 l 0,0 c 0,0.3 -0.1,0.7 -0.1,1.1 0,0.4 0,0.8 0,1.3 0,0.5 0,0.5 0,1.1 0,0.6 0,2.1 0,2.7 l 0,18.9 -5.4,-0.3 0,-34.7 6.9,-0.3 12,21.7 c 0.1,0.2 0.2,0.4 0.3,0.6 0.1,0.2 0.2,0.5 0.4,0.7 0.1,0.3 0.3,0.5 0.4,0.8 0.1,0.3 0.3,0.9 0.5,0.9 l 0.1,0 c 0,0 -0.1,-0.5 -0.1,-0.8 0,-0.3 -0.1,-0.3 -0.1,-0.7 0,-0.4 0.1,-0.8 0.1,-1.3 0,-0.5 0.1,-2.1 0.1,-2.7 l 0,-19.9 6.5,-0.4 c 0,0 0,37.6 0,37.6 z"
   id="path98"
   inkscape:connector-curvature="0"
   style="fill:#ffffff" />
	</g>
</g>
<g
   id="g126"
   style="fill:#ffffff"
   transform="matrix(5.1926978,0,0,5.6345291,-301.17647,-261.81322)">
		<rect
   style="fill:#ffffff"
   id="rect128"
   height="12.2"
   width="12.1"
   y="98.599998"
   x="117.5" />
		<rect
   style="fill:#ffffff"
   id="rect130"
   height="12.2"
   width="12.1"
   y="114.8"
   x="117.5" />
		<rect
   style="fill:#ffffff"
   id="rect132"
   height="12.2"
   width="12.1"
   y="66.199997"
   x="101.2" />
		<rect
   style="fill:#ffffff"
   id="rect134"
   height="12.2"
   width="12.1"
   y="82.400002"
   x="101.2" />
		<rect
   style="fill:#ffffff"
   id="rect136"
   height="12.2"
   width="12.1"
   y="82.400002"
   x="117.5" />
		<rect
   style="fill:#ffffff"
   id="rect138"
   height="12.2"
   width="12.1"
   y="98.599998"
   x="101.2" />
		<rect
   style="fill:#ffffff"
   id="rect140"
   height="12.2"
   width="12.1"
   y="82.400002"
   x="133.60001" />
		<rect
   style="fill:#ffffff"
   id="rect142"
   height="12.2"
   width="12.1"
   y="66.199997"
   x="133.60001" />
		<rect
   style="fill:#ffffff"
   id="rect144"
   height="12.2"
   width="12.1"
   y="98.599998"
   x="133.60001" />
		<rect
   style="fill:#ffffff"
   id="rect146"
   height="12.2"
   width="12.1"
   y="66.199997"
   x="117.5" />
		<rect
   style="fill:#ffffff"
   id="rect148"
   height="12.2"
   width="12.1"
   y="114.8"
   x="101.2" />
		<rect
   style="fill:#ffffff"
   id="rect150"
   height="12.2"
   width="12.1"
   y="82.400002"
   x="68.800003" />
		<rect
   style="fill:#ffffff"
   id="rect152"
   height="12.2"
   width="12.1"
   y="98.599998"
   x="68.800003" />
		<path
   style="fill:#ffffff"
   inkscape:connector-curvature="0"
   id="path154"
   d="m 156.6,50.8 c 0,-1.9 -1.6,-3.5 -3.5,-3.5 l -91.6,0 c -1.9,0 -3.5,1.6 -3.5,3.5 l 0,82.2 c 0,1.9 1.6,3.5 3.5,3.5 l 91.6,0 c 1.9,0 3.5,-1.6 3.5,-3.5 l 0,-82.2 z m -6.7,78.9 -85.1,0 0,-67.6 85.1,0 0,67.6 z" />
		<rect
   style="fill:#ffffff"
   id="rect156"
   height="12.2"
   width="12.1"
   y="114.8"
   x="68.800003" />
		<rect
   style="fill:#ffffff"
   id="rect158"
   height="12.2"
   width="12.1"
   y="66.199997"
   x="85.099998" />
		<rect
   style="fill:#ffffff"
   id="rect160"
   height="12.2"
   width="12.1"
   y="82.400002"
   x="85.099998" />
		<rect
   style="fill:#ffffff"
   id="rect162"
   height="12.2"
   width="12.1"
   y="114.8"
   x="85.099998" />
		<rect
   style="fill:#ffffff"
   id="rect164"
   height="12.2"
   width="12.1"
   y="98.599998"
   x="85.099998" />
	</g>
</svg>