<?xml version="1.0" encoding="UTF-8" standalone="no"?>
<!-- Created with Inkscape (http://www.inkscape.org/) -->

<svg
   xmlns:dc="http://purl.org/dc/elements/1.1/"
   xmlns:cc="http://creativecommons.org/ns#"
   xmlns:rdf="http://www.w3.org/1999/02/22-rdf-syntax-ns#"
   xmlns:svg="http://www.w3.org/2000/svg"
   xmlns="http://www.w3.org/2000/svg"
   xmlns:sodipodi="http://sodipodi.sourceforge.net/DTD/sodipodi-0.dtd"
   xmlns:inkscape="http://www.inkscape.org/namespaces/inkscape"
   width="512"
   height="512"
   viewBox="0 0 512.00001 512.00001"
   id="svg4261"
   version="1.1"
   inkscape:version="0.91 r13725"
   sodipodi:docname="onenote.svg">
  <defs
     id="defs4263" />
  <sodipodi:namedview
     id="base"
     pagecolor="#ffffff"
     bordercolor="#666666"
     borderopacity="1.0"
     inkscape:pageopacity="0.0"
     inkscape:pageshadow="2"
     inkscape:zoom="0.35"
     inkscape:cx="-413.57143"
     inkscape:cy="517.14286"
     inkscape:document-units="px"
     inkscape:current-layer="layer1"
     showgrid="false"
     units="px"
     inkscape:window-width="1366"
     inkscape:window-height="706"
     inkscape:window-x="-8"
     inkscape:window-y="-8"
     inkscape:window-maximized="1" />
  <metadata
     id="metadata4266">
    <rdf:RDF>
      <cc:Work
         rdf:about="">
        <dc:format>image/svg+xml</dc:format>
        <dc:type
           rdf:resource="http://purl.org/dc/dcmitype/StillImage" />
        <dc:title />
      </cc:Work>
    </rdf:RDF>
  </metadata>
  <g
     inkscape:label="Layer 1"
     inkscape:groupmode="layer"
     id="layer1"
     transform="translate(0,-540.36216)">
    <g
       transform="matrix(5.8148365,0,0,5.9534884,-3082.0995,540.36216)"
       id="onenote"
       style="fill:#ffffff">
      <path
         inkscape:connector-curvature="0"
         d="m 720.02539,0 c -19.15,3.4125 -38.31211,6.6878894 -57.47461,10.025391 0,29.1625 -7.8e-4,58.312109 0.0117,87.474609 19.0375,3.325 38.10078,6.5125 57.11328,10 l 7.82422,0 c 0,-3.3375 -7.8e-4,-6.67422 0.0117,-10.011719 9.15,0 18.31406,-0.03867 27.47656,0.04883 2.5125,-0.1125 5.29883,0.225 7.54883,-1.1875 1.1,-1.8125 1.06328,-4.05039 1.48828,-6.08789 2.9125,-0.55 7.525,-0.27461 8.0625,-4.16211 0.7625,-7.1875 0.74883,-14.536718 -0.38867,-21.699218 1.3625,-7.7375 0.90156,-15.65 0.22656,-23.4375 0.475,-7.325 1.1375,-14.72461 0.1875,-22.03711 -0.4625,-4 -5.21406,-3.639062 -8.16406,-4.164062 -0.4375,-1.3125 -0.87461,-2.624219 -1.28711,-3.949219 -11.6125,-1.75 -23.45039,-0.350781 -35.15039,-0.800781 C 727.49922,6.6742182 727.5,3.3375 727.5,0 l -7.47461,0 z M 727.5,13.738281 c 10.8375,0 21.67422,-0.0125 32.51172,0 -0.0125,1.6625 -0.0125,3.31211 0,4.97461 2.875,0.0125 5.75117,0.0625 8.63867,0.1875 0.1625,6.575 0.22422,13.149609 -0.0508,19.724609 -2.8625,0.1 -5.73789,0.149609 -8.58789,0.162109 0,18.325 0.0125,36.64961 0,54.97461 -10.8375,0.0125 -21.67422,0 -32.51172,0 l 0,-10.023438 c 7.9125,-0.0125 15.825,0 23.75,0 -0.0125,-1.6625 -0.0125,-3.314062 0,-4.976562 -7.925,0 -15.8375,0.0125 -23.75,0 l 0,-6.273438 c 7.9125,-0.0125 15.825,0 23.75,0 -0.0125,-1.6625 -0.0125,-3.314062 0,-4.976562 -7.925,0 -15.8375,0.0125 -23.75,0 l 0,-6.273438 c 7.9125,-0.0125 15.825,0 23.75,0 -0.0125,-1.6625 -0.0125,-3.314062 0,-4.976562 -7.925,0 -15.8375,0.0125 -23.75,0 l 0,-6.273438 c 7.9125,-0.0125 15.82578,0 23.73828,0 0,-1.6625 -7.8e-4,-3.314062 0.0117,-4.976562 -7.925,0 -15.8375,0.0125 -23.75,0 l 0,-6.273438 c 7.9125,-0.0125 15.825,0 23.75,0 -0.0125,-1.6625 -0.0125,-3.314062 0,-4.976562 -7.925,0 -15.8375,0.0125 -23.75,0 l 0,-6.273438 c 7.9125,-0.0125 15.825,0 23.75,0 -0.0125,-1.6625 -0.0125,-3.314062 0,-4.976562 -7.925,0 -15.8375,0.0125 -23.75,0 l 0,-8.773438 z m -18.82422,18.66211 0,41.412109 c -2.7,-0.1125 -5.37578,-0.262109 -8.05078,-0.412109 -4.975,-9.5625 -10.36328,-18.9125 -15.17578,-28.5625 0.275,9.25 0.11367,18.511718 0.13867,27.761718 -2.275,-0.15 -4.52461,-0.286328 -6.78711,-0.423828 0.0375,-12.7 0.025,-25.413281 0,-38.113281 2.575,-0.1375 5.13711,-0.274609 7.72461,-0.412109 4.8875,8.95 9.84961,17.86289 14.59961,26.90039 0.1,-9.25 7.8e-4,-18.513672 0.0508,-27.763672 2.4875,-0.1375 4.9875,-0.274218 7.5,-0.386718 z m 55.0625,10.037109 c 1.625,0.0625 3.24922,0.137891 4.88672,0.212891 0.2125,6.575 0.25039,13.136718 -0.0371,19.699218 -1.625,0.075 -3.23711,0.150391 -4.84961,0.212891 -0.0125,-6.7125 -0.0125,-13.425 0,-20.125 z m 0,23.738281 c 1.625,0.075 3.26211,0.1625 4.91211,0.25 0.1875,6.5375 0.175,13.073828 0,19.611328 -1.65,0.1 -3.28711,0.200782 -4.91211,0.300782 -0.0125,-6.725 -0.0125,-13.43711 0,-20.16211 z"
         transform="scale(0.8,0.8)"
         id="path66"
         style="fill:#ffffff" />
    </g>
  </g>
</svg>
