<?xml version="1.0" encoding="iso-8859-1"?>
<!-- Generator: Adobe Illustrator 16.0.0, SVG Export Plug-In . SVG Version: 6.00 Build 0)  -->
<!DOCTYPE svg PUBLIC "-//W3C//DTD SVG 1.1//EN" "http://www.w3.org/Graphics/SVG/1.1/DTD/svg11.dtd">
<svg xmlns="http://www.w3.org/2000/svg" xmlns:xlink="http://www.w3.org/1999/xlink" version="1.1" id="Capa_1" x="0px" y="0px" width="512px" height="512px" viewBox="0 0 124 124" style="enable-background:new 0 0 124 124;" xml:space="preserve">
<g>
	<path d="M110,118.4V34.8c0-5.5-2.7-10.8-6.6-14.8L89.6,6.3C85.7,2.4,80.1,0,74.6,0H21c-3.4,0-7,3.1-7,6.5v111.9   c0,3.399,3.6,5.6,7,5.6h81.8C106.3,124,110,121.9,110,118.4z M67,32.4c0-1.3,0.9-2.4,2.1-2.9c1.7-0.7,4.2-1.7,5.601-2.6   c1.399-0.9,3-3.1,4-4.5c0.6-0.9,1.6-1.4,2.6-1.4H84.9c1.699,0,3.1,1.5,3.1,3.2v30c0,1.7-1.4,2.8-3.1,2.8H80.8   C79,57,78,55.9,78,54.2V39.3c0-2.2-2.4-3.7-4.4-2.9c-0.5,0.2-1.5,0.4-2.3,0.7c-2,0.6-4.3-0.8-4.3-3V32.4z M53.9,104   c-2.4,2.5-5.8,3.8-10,3.8c-4.2,0-7.7-1.399-10.4-4.1c-2.6-2.8-3.9-7.5-3.9-14.3c0-6.601,1.4-11.5,4.3-14.5   c2.4-2.5,5.8-3.801,10-3.801c4.2,0,7.6,1.301,10,3.9c2.8,3,4.3,7.9,4.3,14.6C58.2,96.1,56.7,101,53.9,104z M53.9,54.4   c-2.4,2.5-5.8,3.8-10,3.8c-4.2,0-7.7-1.4-10.4-4.1c-2.6-2.8-3.9-7.5-3.9-14.3c0-6.6,1.4-11.5,4.3-14.5c2.4-2.5,5.8-3.8,10-3.8   c4.2,0,7.6,1.3,10,3.9c2.8,3,4.3,7.9,4.3,14.6C58.2,46.5,56.7,51.4,53.9,54.4z M89.9,104c-2.4,2.5-5.801,3.8-10,3.8   c-4.2,0-7.7-1.399-10.4-4.1c-2.6-2.8-3.9-7.5-3.9-14.3c0-6.601,1.4-11.5,4.301-14.5c2.399-2.5,5.8-3.801,10-3.801   c4.199,0,7.6,1.301,10,3.9c2.8,3,4.3,7.9,4.3,14.6C94.1,96.1,92.7,101,89.9,104z" fill="#FFFFFF"/>
	<path d="M45.8,29.5c-0.6-0.4-1.2-0.6-1.9-0.6c-0.7,0-1.4,0.2-2,0.6c-0.5,0.4-1,1.1-1.3,2.2c-0.5,1.6-0.8,4.3-0.8,8.2   s0.2,6.5,0.7,7.9c0.5,1.6,1.1,2.2,1.4,2.4c0.6,0.4,1.2,0.6,1.9,0.6c0.7,0,1.4-0.2,2-0.6c0.5-0.4,1-1.1,1.3-2.2   c0.5-1.6,0.8-4.3,0.8-8.2c0-3.9-0.2-6.5-0.7-7.9C46.7,30.4,46.2,29.7,45.8,29.5z" fill="#FFFFFF"/>
	<path d="M45.8,79.1c-0.6-0.399-1.2-0.6-1.9-0.6c-0.7,0-1.4,0.2-2,0.6c-0.5,0.4-1,1.101-1.3,2.2c-0.5,1.601-0.8,4.3-0.8,8.2   s0.2,6.5,0.7,7.9C41,99,41.6,99.6,41.9,99.8c0.6,0.4,1.2,0.601,1.9,0.601c0.7,0,1.4-0.2,2-0.601c0.5-0.399,1-1.1,1.3-2.2   c0.5-1.6,0.8-4.3,0.8-8.199c0-3.9-0.2-6.5-0.7-7.9C46.7,80,46.2,79.3,45.8,79.1z" fill="#FFFFFF"/>
	<path d="M81.8,79.1c-0.6-0.399-1.2-0.6-1.899-0.6c-0.7,0-1.4,0.2-2,0.6c-0.5,0.4-1,1.101-1.301,2.2c-0.5,1.601-0.8,4.3-0.8,8.2   s0.2,6.5,0.7,7.9C77,99,77.6,99.6,77.9,99.8c0.6,0.4,1.199,0.601,1.899,0.601s1.4-0.2,2-0.601c0.5-0.399,1-1.1,1.3-2.2   C83.6,96,83.9,93.3,83.9,89.4c0-3.9-0.2-6.5-0.7-7.9C82.7,80,82.2,79.3,81.8,79.1z" fill="#FFFFFF"/>
</g>
<g>
</g>
<g>
</g>
<g>
</g>
<g>
</g>
<g>
</g>
<g>
</g>
<g>
</g>
<g>
</g>
<g>
</g>
<g>
</g>
<g>
</g>
<g>
</g>
<g>
</g>
<g>
</g>
<g>
</g>
</svg>
