<?xml version="1.0" encoding="UTF-8" standalone="no"?>
<svg
   xmlns:dc="http://purl.org/dc/elements/1.1/"
   xmlns:cc="http://creativecommons.org/ns#"
   xmlns:rdf="http://www.w3.org/1999/02/22-rdf-syntax-ns#"
   xmlns:svg="http://www.w3.org/2000/svg"
   xmlns="http://www.w3.org/2000/svg"
   version="1.1"
   id="svg2"
   viewBox="0 0 511.99999 512.00001"
   height="512"
   width="512">
  <defs
     id="defs4" />
  <metadata
     id="metadata7">
    <rdf:RDF>
      <cc:Work
         rdf:about="">
        <dc:format>image/svg+xml</dc:format>
        <dc:type
           rdf:resource="http://purl.org/dc/dcmitype/StillImage" />
        <dc:title></dc:title>
      </cc:Work>
    </rdf:RDF>
  </metadata>
  <g
     transform="translate(0,-540.36216)"
     id="layer1">
    <g
       style="fill:#ffffff"
       transform="matrix(2.4148121,0,0,2.4143445,-622.50628,-1190.4671)"
       id="g4183">
      <path
         style="opacity:1;fill:#ffffff;fill-opacity:1;fill-rule:evenodd;stroke:none;stroke-opacity:1"
         d="m 257.99925,897.07943 c -0.52314,-0.84646 -0.14252,-5.58307 1.83469,-22.83208 2.52553,-22.0325 5.18786,-32.12581 9.82888,-37.26287 3.52232,-3.89878 14.44721,-9.16624 19.96181,-9.62463 4.08635,-0.33967 4.16475,-0.30915 11.25786,4.383 15.49818,10.25215 25.52004,9.99976 41.16924,-1.03684 5.04795,-3.56006 5.41723,-3.69764 9.1879,-3.42292 4.67395,0.34052 14.72602,4.81592 18.74742,8.34675 5.59657,4.91386 8.37461,14.1095 11.22774,37.16517 0.79938,6.45963 1.45342,14.73642 1.45342,18.39286 l 0,6.64807 -62.10071,0 c -42.94089,0 -62.24495,-0.2334 -62.56825,-0.75651 z"
         id="path3375" />
      <path
         style="opacity:1;fill:#ffffff;fill-opacity:1;fill-rule:evenodd;stroke:none;stroke-opacity:1"
         d="m 311.29613,826.70226 c -13.45032,-4.87863 -22.91364,-19.1604 -22.91364,-34.5806 0,-24.47337 21.1978,-39.73911 41.79631,-30.0999 4.94091,2.31213 10.37917,7.20267 13.49116,12.13237 11.21873,17.77163 5.54225,43.06093 -11.50358,51.24961 -3.4575,1.66095 -5.2611,2.02683 -10.92675,2.21661 -4.91366,0.16458 -7.65688,-0.0887 -9.9435,-0.91809 z"
         id="path4177" />
      <path
         style="opacity:1;fill:#ffffff;fill-opacity:1;fill-rule:evenodd;stroke:none;stroke-opacity:1"
         d="m 404.45392,813.29459 c -12.19908,-3.13146 -20.03294,-12.59043 -21.74952,-26.26136 -2.15054,-17.12696 7.38635,-33.34657 22.26443,-37.86565 14.85102,-4.51086 29.43919,4.60663 33.86984,21.16836 1.26921,4.7443 1.22565,13.3704 -0.0931,18.43336 -4.33196,16.63152 -20.36698,28.09971 -34.29167,24.52529 z"
         id="path4179" />
      <path
         style="opacity:1;fill:#ffffff;fill-opacity:1;fill-rule:evenodd;stroke:none;stroke-opacity:1"
         d="m 391.7027,879.4359 c -0.18454,-0.2986 -1.01477,-5.3611 -1.84495,-11.25 -2.12034,-15.04069 -3.41688,-20.65356 -6.14153,-26.58747 -3.29457,-7.17511 -8.0989,-12.04099 -16.06645,-16.27228 -3.52557,-1.87231 -6.41014,-3.67613 -6.41014,-4.0085 0,-1.8202 11.94579,-7.4751 17.35076,-8.21351 2.64349,-0.36115 3.43749,-0.10235 6.57782,2.14396 10.48302,7.49865 17.95453,10.18612 26.42857,9.50628 6.93173,-0.55611 10.73527,-2.05447 18.6528,-7.34804 3.75973,-2.51372 7.47282,-4.5704 8.2513,-4.5704 2.5752,0 12.30293,3.6367 16.30333,6.09497 4.34798,2.67186 6.15817,5.07804 8.46122,11.24708 2.78773,7.46724 6.5192,33.13871 6.53798,44.97938 l 0.008,4.82143 -38.88641,0 c -21.38753,0 -39.03741,-0.24431 -39.22195,-0.5429 z"
         id="path4181" />
    </g>
  </g>
</svg>
