<?xml version="1.0" encoding="iso-8859-1"?>
<!-- Generator: Adobe Illustrator 18.0.0, SVG Export Plug-In . SVG Version: 6.00 Build 0)  -->
<!DOCTYPE svg PUBLIC "-//W3C//DTD SVG 1.1//EN" "http://www.w3.org/Graphics/SVG/1.1/DTD/svg11.dtd">
<svg xmlns="http://www.w3.org/2000/svg" xmlns:xlink="http://www.w3.org/1999/xlink" version="1.1" id="Capa_1" x="0px" y="0px" viewBox="0 0 246.477 246.477" style="enable-background:new 0 0 246.477 246.477;" xml:space="preserve" width="512px" height="512px">
<g id="Obturador">
	<path d="M123.238,219.705c53.192,0,96.466-43.274,96.466-96.466s-43.274-96.466-96.466-96.466s-96.466,43.274-96.466,96.466   S70.046,219.705,123.238,219.705z M78.685,194.954l72.383-41.791v49.809c-8.721,3.053-18.081,4.733-27.831,4.733   C106.894,207.705,91.629,203.024,78.685,194.954z M163.069,197.699v-83.601l43.138,24.906   C201.388,164.413,185.167,185.831,163.069,197.699z M207.705,123.238c0,0.917-0.04,1.824-0.069,2.734l-72.397-41.798l43.093-24.88   C196.298,74.795,207.705,97.703,207.705,123.238z M167.791,51.523L95.408,93.314V43.505c8.721-3.053,18.081-4.733,27.831-4.733   C139.583,38.772,154.848,43.453,167.791,51.523z M83.408,48.778v83.601L40.27,107.472C45.089,82.063,61.31,60.646,83.408,48.778z    M38.841,120.504l72.397,41.798l-43.093,24.88c-17.967-15.501-29.373-38.409-29.373-63.944   C38.772,122.321,38.812,121.414,38.841,120.504z" fill="#FFFFFF"/>
	<path d="M123.238,246.477c67.954,0,123.238-55.285,123.238-123.238S191.192,0,123.238,0S0,55.285,0,123.238   S55.285,246.477,123.238,246.477z M123.238,12c61.337,0,111.238,49.901,111.238,111.238s-49.901,111.238-111.238,111.238   S12,184.575,12,123.238S61.901,12,123.238,12z" fill="#FFFFFF"/>
</g>
<g>
</g>
<g>
</g>
<g>
</g>
<g>
</g>
<g>
</g>
<g>
</g>
<g>
</g>
<g>
</g>
<g>
</g>
<g>
</g>
<g>
</g>
<g>
</g>
<g>
</g>
<g>
</g>
<g>
</g>
</svg>
