<?xml version="1.0" encoding="iso-8859-1"?>
<!-- Generator: Adobe Illustrator 16.0.0, SVG Export Plug-In . SVG Version: 6.00 Build 0)  -->
<!DOCTYPE svg PUBLIC "-//W3C//DTD SVG 1.1//EN" "http://www.w3.org/Graphics/SVG/1.1/DTD/svg11.dtd">
<svg xmlns="http://www.w3.org/2000/svg" xmlns:xlink="http://www.w3.org/1999/xlink" version="1.1" id="Capa_1" x="0px" y="0px" width="512px" height="512px" viewBox="0 0 562.687 562.686" style="enable-background:new 0 0 562.687 562.686;" xml:space="preserve">
<g>
	<path d="M327.421,432.928l20.889-21.634l13.636,27.888c0,0-17.797,76.023-41.145,79.429c-23.359,3.393-65.672-34.034-65.672-34.034   l9.898-19.092l9.496-18.324l18.309-2.624l9.327-19.872l24.341-3.925L327.421,432.928z M236.155,258.096   c-18.92,27.521-42.998,32.684-42.998,32.684v44.727c0,0,1.614,9.588,38.724,1.029C222.336,329.951,253.32,233.129,236.155,258.096z    M236.155,335.506c-1.483,0.367-2.899,0.692-4.279,1.029C232.843,337.204,234.24,336.949,236.155,335.506z M398.692,233.354   l-29.589-31.209c0,0-13.926,23.182-37.693,35.722c26.422,1.029,45.495,16.125,45.495,16.125L398.692,233.354z M317.473,127.135   l-7.855-8.299c0,0-3.7,6.162-10.013,9.49c7.022,0.275,12.088,4.279,12.088,4.279L317.473,127.135z M155.63,165.12l-7.855-8.284   c0,0-3.7,6.162-10.013,9.489c7.017,0.272,12.082,4.28,12.082,4.28L155.63,165.12z M333.402,419.144c0,0-0.686-1.797-0.13-3.83   c-1.525,1.501-3.617,2.01-3.617,2.01l1.654,2.979L333.402,419.144z M320.535,405.963l3.056,5.509l3.854-2.146   c0,0-1.265-3.34-0.248-7.069C324.389,405.042,320.535,405.963,320.535,405.963z M262.175,424.807   c7.016,0.26,12.082,4.279,12.082,4.279l5.787-5.485l-7.858-8.287C272.185,415.314,268.487,421.456,262.175,424.807z    M372.413,391.67c-2.045,2.708-4.675,4.244-6.324,5.024l40.246-159.33l-29.542,28.005l-5.822-4.61   c-0.07-0.062-0.785-0.605-2.033-1.428L346.826,403.28l1.489,8.015l16.124-8.015l0.645-2.529l0.379,2.529l8.535-1.312   C373.991,401.967,371.764,397.008,372.413,391.67z M493.655,343.853c-14.896,21.84-37.817,30.015-37.817,30.015l5.94,29.406   l42.149-8.506C503.934,394.768,491.681,370.665,493.655,343.853z M236.144,329.466c-0.624-0.438-1.327-0.757-2.054-0.958   l1.108,2.329L236.144,329.466z M67.013,202.145L0,224.11l253.392,220.812l8.783-2.879L67.013,202.145z M239.652,245.403   c2.816,0,5.456,1.253,7.252,3.449c3.328,4.055,3.251,9.563,0.375,25.053l61.262,137.39h9.043L240.816,61.052l-67.723,46.435   l62.007,139.083C236.434,245.876,237.929,245.403,239.652,245.403z M455.224,43.858l-57.146,25.807l-19.99,130.096l29.813,31.454   L455.224,43.858z M562.687,236.167l-55.897-17.735L370.037,428.276l4.297,20.652l71.06-80.273l-0.089-0.408l0.65-0.219   L562.687,236.167z M398.692,343.853l57.146-115.783l-20.155,3.145L398.692,343.853z M142.677,201.684l-4.915,12.602l52.237,58.753   L142.677,201.684z M317.101,225.315l9.351-85.124l-11.845,6.534L317.101,225.315z" fill="#FFFFFF"/>
</g>
<g>
</g>
<g>
</g>
<g>
</g>
<g>
</g>
<g>
</g>
<g>
</g>
<g>
</g>
<g>
</g>
<g>
</g>
<g>
</g>
<g>
</g>
<g>
</g>
<g>
</g>
<g>
</g>
<g>
</g>
</svg>
