<?xml version="1.0" encoding="UTF-8" standalone="no"?>
<!-- Created with Inkscape (http://www.inkscape.org/) -->

<svg
   xmlns:dc="http://purl.org/dc/elements/1.1/"
   xmlns:cc="http://creativecommons.org/ns#"
   xmlns:rdf="http://www.w3.org/1999/02/22-rdf-syntax-ns#"
   xmlns:svg="http://www.w3.org/2000/svg"
   xmlns="http://www.w3.org/2000/svg"
   xmlns:sodipodi="http://sodipodi.sourceforge.net/DTD/sodipodi-0.dtd"
   xmlns:inkscape="http://www.inkscape.org/namespaces/inkscape"
   width="512"
   height="512"
   viewBox="0 0 512.00001 512.00001"
   id="svg4261"
   version="1.1"
   inkscape:version="0.91 r13725"
   sodipodi:docname="powerpoint.svg">
  <defs
     id="defs4263" />
  <sodipodi:namedview
     id="base"
     pagecolor="#ffffff"
     bordercolor="#666666"
     borderopacity="1.0"
     inkscape:pageopacity="0.0"
     inkscape:pageshadow="2"
     inkscape:zoom="0.35"
     inkscape:cx="22.142857"
     inkscape:cy="520"
     inkscape:document-units="px"
     inkscape:current-layer="layer1"
     showgrid="false"
     units="px"
     inkscape:window-width="1366"
     inkscape:window-height="706"
     inkscape:window-x="-8"
     inkscape:window-y="-8"
     inkscape:window-maximized="1" />
  <metadata
     id="metadata4266">
    <rdf:RDF>
      <cc:Work
         rdf:about="">
        <dc:format>image/svg+xml</dc:format>
        <dc:type
           rdf:resource="http://purl.org/dc/dcmitype/StillImage" />
        <dc:title></dc:title>
      </cc:Work>
    </rdf:RDF>
  </metadata>
  <g
     inkscape:label="Layer 1"
     inkscape:groupmode="layer"
     id="layer1"
     transform="translate(0,-540.36216)">
    <g
       transform="matrix(5.8165455,0,0,5.9534884,-1297.1819,540.36216)"
       id="powerpoint"
       style="fill:#ffffff">
      <path
         inkscape:connector-curvature="0"
         d="m 336.66211,0 c -19.3125,3.2875 -38.59922,6.6878902 -57.88672,10.025391 0,29.15 -0.0125,58.312109 0,87.474609 19.0625,3.35 38.14922,6.525 57.19922,10 l 7.77539,0 0,-12.5 c 12.5125,0 25.01172,-0.02539 37.51172,0.03711 2.1375,-0.1 4.51289,0.075 6.33789,-1.25 1.45,-2.2375 1.07617,-5.0375 1.20117,-7.5625 -0.175,-23.3625 0.0875,-46.724218 -0.125,-70.074218 0.2875,-2.875 -1.96289,-5.112891 -4.83789,-4.837891 -13.35,-0.2 -26.72539,0.0125 -40.08789,-0.0625 l 0,-11.25 -7.08789,0 z m 7.08789,15 41.25,0 0,76.25 -41.25,0 0,-10 30,0 0,-5 -30,0 0,-6.25 30,0 0,-5 -29.98828,0 c -0.0125,-2.45 -0.0109,-4.899609 -0.0234,-7.349609 4.95,1.5375 10.58672,1.50039 15.01172,-1.47461 4.7875,-2.8375 7.28672,-8.25039 7.69922,-13.65039 C 360.96172,42.487891 355.475,42.5 350,42.5 c -0.0125,-5.4375 0.0617,-10.875781 -0.11328,-16.300781 -2.05,0.4 -4.09922,0.826172 -6.13672,1.263672 L 343.75,15 Z m -34.16992,17.439453 c 3.60781,-0.07656 7.07031,0.442578 9.88281,2.986328 5.3875,6.5375 3.96211,18.56211 -4.02539,22.47461 -2.8375,1.45 -6.08828,1.25039 -9.17578,1.15039 -0.0125,4.8875 -0.0242,9.77461 -0.0117,14.66211 -2.475,-0.2125 -4.9625,-0.425 -7.4375,-0.625 -0.1125,-13.35 -0.13828,-26.7125 0.0117,-40.0625 3.39375,0.1625 7.14805,-0.509375 10.75586,-0.585938 z"
         transform="scale(0.8,0.8)"
         id="path29"
         style="fill:#ffffff" />
      <path
         inkscape:connector-curvature="0"
         d="m 282.01,18.87 c 6.95,0.32 12.79,6.17 13.16,13.1 -4.39,0.05 -8.78,0.03 -13.17,0.03 0,-4.38 -0.01,-8.76 0.01,-13.13 z"
         id="path33"
         style="fill:#ffffff" />
      <path
         inkscape:connector-curvature="0"
         d="m 245,31.83 c 1.97,-0.09 4.41,-0.45 5.74,1.4 1.14,1.96 1.08,4.54 0.13,6.56 -1.14,2.06 -3.72,1.86 -5.71,2.1 -0.21,-3.35 -0.19,-6.7 -0.16,-10.06 z"
         id="path37"
         style="fill:#ffffff" />
    </g>
  </g>
</svg>
