<?xml version="1.0" encoding="UTF-8" standalone="no"?>
<!-- Generator: Adobe Illustrator 18.0.0, SVG Export Plug-In . SVG Version: 6.00 Build 0)  -->

<svg
   xmlns:dc="http://purl.org/dc/elements/1.1/"
   xmlns:cc="http://creativecommons.org/ns#"
   xmlns:rdf="http://www.w3.org/1999/02/22-rdf-syntax-ns#"
   xmlns:svg="http://www.w3.org/2000/svg"
   xmlns="http://www.w3.org/2000/svg"
   xmlns:sodipodi="http://sodipodi.sourceforge.net/DTD/sodipodi-0.dtd"
   xmlns:inkscape="http://www.inkscape.org/namespaces/inkscape"
   version="1.1"
   id="meatball"
   x="0px"
   y="0px"
   width="512"
   height="512"
   viewBox="0 0 512 512"
   enable-background="new 0 0 90 90"
   xml:space="preserve"
   inkscape:version="0.91 r13725"
   sodipodi:docname="logo_meatball.svg"><metadata
   id="metadata41"><rdf:RDF><cc:Work
       rdf:about=""><dc:format>image/svg+xml</dc:format><dc:type
         rdf:resource="http://purl.org/dc/dcmitype/StillImage" /><dc:title></dc:title></cc:Work></rdf:RDF></metadata><defs
   id="defs39">
	
	

		
		
	
			
			
		</defs><sodipodi:namedview
   pagecolor="#ffffff"
   bordercolor="#666666"
   borderopacity="1"
   objecttolerance="10"
   gridtolerance="10"
   guidetolerance="10"
   inkscape:pageopacity="0"
   inkscape:pageshadow="2"
   inkscape:window-width="1366"
   inkscape:window-height="706"
   id="namedview37"
   showgrid="false"
   inkscape:zoom="0.46354778"
   inkscape:cx="496.56219"
   inkscape:cy="49.005073"
   inkscape:window-x="-8"
   inkscape:window-y="-8"
   inkscape:window-maximized="1"
   inkscape:current-layer="meatball" />
<g
   id="g27"
   transform="matrix(6.4,0,0,6.3523573,-43.52,-27.315136)"
   style="fill:#ffffff">
				<path
   style="clip-rule:evenodd;fill:#ffffff;fill-rule:evenodd"
   inkscape:connector-curvature="0"
   id="path29"
   d="M 47.3,84.9 C 42.1,73 36.2,60.2 30.6,48.9 l -0.1,-0.3 -0.3,0 c -0.1,0 -0.2,0 -0.3,0 -0.4,0 -0.7,0 -1.2,0.1 l -0.5,0.1 0.1,0.5 c 1.8,8.1 6.2,21.3 9.2,28.5 C 26.1,75.3 17.8,73.1 10.6,70.6 9,52.5 7.6,32.2 6.8,11.9 22.6,9.3 50.9,4.9 68.1,4.3 c 4.9,10.3 9.5,23.9 11.8,31.1 0.1,0.3 0.3,0.8 0.4,1.2 0.3,1 0.9,2.7 0.9,3.1 -0.4,1.3 -10,8.9 -11.9,8.9 l -0.1,0 c -6.1,0 -14.5,-0.4 -19.8,-0.8 l -1.6,-0.1 1.2,1 c 4.1,3.3 8.2,6.7 12.4,10.1 8.2,6.7 16.8,13.6 25.4,20.8 -13.4,2.6 -25.6,4.2 -39.5,5.3 z M 28.5,24.8 c 0,2.9 0.3,5.9 1,8.9 l 0.1,0.4 0.5,-0.1 c 5,-0.7 8.8,-1.4 12.8,-2.6 l 0.3,-0.1 0.1,-0.3 c 0.3,-1.2 0.4,-2.6 0.4,-4.6 l 0,-0.4 -0.4,0 c -3.4,-1 -9,-1.7 -14.2,-1.7 l -0.5,0 -0.1,0.5 z" />
			</g>
</svg>