<?xml version="1.0" encoding="UTF-8" standalone="no"?>
<!-- Created with Inkscape (http://www.inkscape.org/) -->

<svg
   xmlns:dc="http://purl.org/dc/elements/1.1/"
   xmlns:cc="http://creativecommons.org/ns#"
   xmlns:rdf="http://www.w3.org/1999/02/22-rdf-syntax-ns#"
   xmlns:svg="http://www.w3.org/2000/svg"
   xmlns="http://www.w3.org/2000/svg"
   xmlns:sodipodi="http://sodipodi.sourceforge.net/DTD/sodipodi-0.dtd"
   xmlns:inkscape="http://www.inkscape.org/namespaces/inkscape"
   version="1.1"
   width="512"
   height="512"
   id="svg2"
   xml:space="preserve"
   inkscape:version="0.91 r13725"
   sodipodi:docname="skype.svg"><metadata
     id="metadata37"><rdf:RDF><cc:Work
         rdf:about=""><dc:format>image/svg+xml</dc:format><dc:type
           rdf:resource="http://purl.org/dc/dcmitype/StillImage" /><dc:title></dc:title></cc:Work></rdf:RDF></metadata><sodipodi:namedview
     pagecolor="#ffffff"
     bordercolor="#666666"
     borderopacity="1"
     objecttolerance="10"
     gridtolerance="10"
     guidetolerance="10"
     inkscape:pageopacity="0"
     inkscape:pageshadow="2"
     inkscape:window-width="1366"
     inkscape:window-height="706"
     id="namedview35"
     showgrid="false"
     inkscape:zoom="0.95316708"
     inkscape:cx="192.95606"
     inkscape:cy="288.94251"
     inkscape:window-x="-8"
     inkscape:window-y="-8"
     inkscape:window-maximized="1"
     inkscape:current-layer="svg2" /><defs
     id="defs6"><clipPath
       id="clipPath18"><path
         d="m 0,841.89 595.276,0 L 595.276,0 0,0 0,841.89 Z"
         id="path20"
         inkscape:connector-curvature="0" /></clipPath><linearGradient
       x1="0"
       y1="0"
       x2="1"
       y2="0"
       id="linearGradient36"
       gradientUnits="userSpaceOnUse"
       gradientTransform="matrix(-1.53e-5,366.70361,366.70361,1.53e-5,298.67236,235.61719)"
       spreadMethod="pad"><stop
         id="stop38"
         style="stop-color:#ffffff;stop-opacity:1"
         offset="0" /><stop
         id="stop40"
         style="stop-color:#00aaf1;stop-opacity:1"
         offset="0.80898899" /><stop
         id="stop42"
         style="stop-color:#00aaf1;stop-opacity:1"
         offset="1" /></linearGradient><clipPath
       id="clipPath50"><path
         d="m 118.089,602.321 349.605,0 0,-227.59 -349.605,0 0,227.59 z"
         id="path52"
         inkscape:connector-curvature="0" /></clipPath><linearGradient
       x1="0"
       y1="0"
       x2="1"
       y2="0"
       id="linearGradient58"
       gradientUnits="userSpaceOnUse"
       gradientTransform="matrix(349.60547,0,0,-349.60547,118.08887,488.52637)"
       spreadMethod="pad"><stop
         id="stop60"
         style="stop-color:#ffffff;stop-opacity:1"
         offset="0" /><stop
         id="stop62"
         style="stop-color:#00aaf1;stop-opacity:1"
         offset="1" /></linearGradient></defs><g
     id="g14"
     transform="matrix(1.3107567,0,0,-1.2924295,-135.48637,797.48863)"
     style="fill:#ffffff"><g
       id="g16"
       clip-path="url(#clipPath18)"
       style="fill:#ffffff"><path
         inkscape:connector-curvature="0"
         id="path22"
         transform="matrix(0.8,0,0,-0.8,103.365,617.046)"
         d="M 135.05078,0 C 60.463281,0 0,60.468828 0,135.04883 c 0,24.93125 6.7844531,48.26554 18.564453,68.31055 -3.08875,15.12875 -4.712891,30.79148 -4.712891,46.83398 0,128.615 104.261408,232.87891 232.878908,232.87891 14.5675,0 28.81687,-1.34946 42.64062,-3.90821 19.0125,10.21875 40.74946,16.02735 63.84571,16.02735 74.58875,0 135.05078,-60.46328 135.05078,-135.05079 0,-21.54874 -5.07203,-41.90281 -14.05078,-59.97656 3.52125,-16.10125 5.39453,-32.81445 5.39453,-49.9707 0,-128.61125 -104.26336,-232.878907 -232.88086,-232.878907 -13.57875,0 -26.88367,1.175 -39.82617,3.40625 C 186.09055,7.6107031 161.46578,0 135.05078,0 Z m 110.13281,86.333984 c 20.7975,0 39.08321,2.404141 54.34571,7.150391 15.35125,4.78 28.29023,11.233985 38.45898,19.177735 10.24,8 17.86008,16.56258 22.64258,25.45508 4.8325,8.98125 7.28516,17.9189 7.28516,26.5664 0,8.32125 -3.21399,15.88071 -9.55274,22.47071 -6.3775,6.6325 -14.42422,9.99609 -23.91797,9.99609 -8.625,0 -15.37359,-2.10516 -20.05859,-6.25391 -4.3575,-3.8525 -8.88094,-9.85875 -13.89844,-18.5 -5.8075,-11.03375 -12.83789,-19.73187 -20.90039,-25.85937 -7.825,-5.95375 -20.90195,-8.97461 -38.87695,-8.97461 -16.695,0 -30.27281,3.35094 -40.35156,9.96094 -9.71376,6.36875 -14.43555,13.67101 -14.43555,22.32226 0,5.305 1.52023,9.73969 4.64648,13.55469 3.31,4.0425 7.97766,7.59242 13.87891,10.54492 6.12125,3.07625 12.42789,5.52063 18.74414,7.26563 6.47375,1.79625 17.33266,4.45593 32.22266,7.89844 18.845,4.045 36.16812,8.57765 51.48437,13.47265 15.50625,4.96375 28.91039,11.08656 39.83789,18.19531 11.155,7.265 19.98641,16.59422 26.25391,27.73047 6.28375,11.1775 9.46875,24.97531 9.46875,41.00781 0,19.18251 -5.48172,36.66766 -16.29297,51.97266 -10.7725,15.245 -26.69125,27.32344 -47.3125,35.89844 -20.42375,8.48875 -44.90914,12.79297 -72.77539,12.79297 -33.44625,0 -61.49141,-5.88289 -83.37891,-17.49414 -15.6475,-8.45125 -28.54679,-19.89594 -38.34179,-34.02344 -9.8925,-14.26875 -14.91016,-28.42633 -14.91016,-42.08008 0,-8.53375 3.26984,-15.93328 9.71484,-21.98828 6.38,-6.00125 14.55399,-9.04102 24.30274,-9.04102 8.0025,0 14.90367,2.40008 20.51367,7.14258 5.36125,4.5425 9.9625,11.26407 13.65625,19.94531 4.12625,9.45126 8.62641,17.43126 13.3789,23.71876 4.56626,6.04625 11.13751,11.12695 19.53126,15.0957 8.44124,3.9975 19.82226,6.02344 33.82226,6.02344 19.25375,0 35.03766,-4.11055 46.91016,-12.2168 11.59875,-7.9175 17.23437,-17.42234 17.23437,-29.0586 0,-9.19375 -2.94164,-16.42109 -8.99414,-22.08984 -6.33625,-5.92625 -14.69641,-10.53812 -24.84765,-13.70312 -10.58626,-3.29875 -24.95407,-6.85688 -42.72657,-10.57813 -24.1675,-5.17625 -44.70195,-11.32258 -61.0332,-18.26758 -16.7,-7.105 -30.15961,-16.95109 -40.00586,-29.27734 -10,-12.5125 -15.06836,-28.21563 -15.06836,-46.67188 0,-17.5925 5.32,-33.4482 15.8125,-47.12695 10.41375,-13.5825 25.62383,-24.14156 45.20508,-31.382811 19.32625,-7.1475 42.31437,-10.771485 68.32812,-10.771485 z"
         style="fill:#ffffff;fill-opacity:1;fill-rule:nonzero;stroke:none" /><g
         id="g24"
         style="fill:#ffffff"><g
           id="g26"
           style="fill:#ffffff"><g
             id="g32"
             style="fill:#ffffff"><g
               id="g34"
               style="fill:#ffffff" /></g></g></g><g
         id="g46"
         style="fill:#ffffff"><g
           id="g48"
           style="fill:#ffffff" /><g
           id="g64"
           style="fill:#ffffff"><g
             style="opacity:0.83000201;fill:#ffffff"
             id="g66"
             clip-path="url(#clipPath50)"><g
               id="g68"
               style="fill:#ffffff"><g
                 id="g70"
                 style="fill:#ffffff"><g
                   id="g72"
                   style="fill:#ffffff"><g
                     id="g74"
                     style="fill:#ffffff" /></g></g></g></g></g></g></g></g></svg>