<?xml version="1.0" encoding="iso-8859-1"?>
<!-- Generator: Adobe Illustrator 18.0.0, SVG Export Plug-In . SVG Version: 6.00 Build 0)  -->
<!DOCTYPE svg PUBLIC "-//W3C//DTD SVG 1.1//EN" "http://www.w3.org/Graphics/SVG/1.1/DTD/svg11.dtd">
<svg xmlns="http://www.w3.org/2000/svg" xmlns:xlink="http://www.w3.org/1999/xlink" version="1.1" id="Capa_1" x="0px" y="0px" viewBox="0 0 330.435 330.435" style="enable-background:new 0 0 330.435 330.435;" xml:space="preserve" width="512px" height="512px">
<path d="M288.126,114.785c-23.619,0-29.959,11.185-34.123,11.185s-8.184,0-8.184,0c-0.556,0-1.103,0.029-1.645,0.083  c-26.36,0.861-47.604,22.107-48.466,48.469c-0.054,0.539-0.082,1.088-0.082,1.642v21.89c0,9.973-8.113,18.088-18.086,18.088  c-9.974,0-18.088-8.115-18.088-18.088v-65.67c0-0.553-0.028-1.103-0.084-1.642c-0.878-26.912-22.987-48.551-50.109-48.551  s-49.231,21.639-50.109,48.551c-0.054,0.538-0.082,1.089-0.082,1.642v21.89c0,9.973-8.115,18.084-18.087,18.084h-22.01  C10.105,172.357,0,179.546,0,188.41c0,8.865,10.105,16.053,18.972,16.053h22.01c0.555,0,1.102-0.028,1.645-0.082  c26.36-0.861,47.604-22.104,48.465-48.466c0.055-0.539,0.083-1.088,0.083-1.642v-21.89c0-9.973,8.113-18.088,18.086-18.088  c9.973,0,18.087,8.115,18.087,18.088v65.67c0,0.553,0.028,1.104,0.084,1.642c0.877,26.912,22.987,48.551,50.109,48.551  s49.231-21.639,50.109-48.551c0.054-0.538,0.083-1.088,0.083-1.642v-21.89c0-9.973,8.115-18.087,18.087-18.087c0,0,4.02,0,8.184,0  s10.504,11.185,34.123,11.185c23.366,0,42.309-12.194,42.309-27.237C330.435,126.979,311.493,114.785,288.126,114.785z" fill="#FFFFFF"/>
<g>
</g>
<g>
</g>
<g>
</g>
<g>
</g>
<g>
</g>
<g>
</g>
<g>
</g>
<g>
</g>
<g>
</g>
<g>
</g>
<g>
</g>
<g>
</g>
<g>
</g>
<g>
</g>
<g>
</g>
</svg>
