<?xml version="1.0" encoding="UTF-8" standalone="no"?>
<!-- Generator: Adobe Illustrator 15.0.1, SVG Export Plug-In . SVG Version: 6.00 Build 0)  -->

<svg
   xmlns:dc="http://purl.org/dc/elements/1.1/"
   xmlns:cc="http://creativecommons.org/ns#"
   xmlns:rdf="http://www.w3.org/1999/02/22-rdf-syntax-ns#"
   xmlns:svg="http://www.w3.org/2000/svg"
   xmlns="http://www.w3.org/2000/svg"
   xmlns:sodipodi="http://sodipodi.sourceforge.net/DTD/sodipodi-0.dtd"
   xmlns:inkscape="http://www.inkscape.org/namespaces/inkscape"
   version="1.1"
   id="svg2"
   inkscape:version="0.91 r13725"
   sodipodi:version="0.32"
   inkscape:output_extension="org.inkscape.output.svg.inkscape"
   sodipodi:docname="Soundcloud_Shiny_Icon.svg"
   x="0px"
   y="0px"
   width="512"
   height="512"
   viewBox="0 0 512 512"
   enable-background="new 0 0 256 256"
   xml:space="preserve"><metadata
   id="metadata36"><rdf:RDF><cc:Work
       rdf:about=""><dc:format>image/svg+xml</dc:format><dc:type
         rdf:resource="http://purl.org/dc/dcmitype/StillImage" /><dc:title></dc:title></cc:Work></rdf:RDF></metadata><defs
   id="defs34" /><sodipodi:namedview
   pagecolor="#ffffff"
   bordercolor="#666666"
   borderopacity="1"
   objecttolerance="10"
   gridtolerance="10"
   guidetolerance="10"
   inkscape:pageopacity="0"
   inkscape:pageshadow="2"
   inkscape:window-width="1366"
   inkscape:window-height="706"
   id="namedview32"
   showgrid="false"
   inkscape:zoom="0.65186406"
   inkscape:cx="211.82432"
   inkscape:cy="176.56738"
   inkscape:window-x="-8"
   inkscape:window-y="-8"
   inkscape:window-maximized="1"
   inkscape:current-layer="svg2" />

<linearGradient
   id="SVGID_1_"
   gradientUnits="userSpaceOnUse"
   x1="-5.5005002"
   y1="1630.667"
   x2="-5.5005002"
   y2="1758.2955"
   gradientTransform="translate(131.33051,-1626.0085)">
	<stop
   offset="0"
   style="stop-color:#FFFFFF;stop-opacity:0.85"
   id="stop5" />
	<stop
   offset="0.66"
   style="stop-color:#FFFFFF;stop-opacity:0"
   id="stop7" />
</linearGradient>


<path
   d="m 7.838786,336.21327 c -0.164278,1.17202 -1.007739,1.98605 -2.042449,1.98605 -1.069036,0 -1.914949,-0.81894 -2.052256,-1.99586 L 0,308.25403 3.744081,279.81667 c 0.137307,-1.18182 0.98322,-2.00322 2.052256,-2.00322 1.029807,0 1.883075,0.8214 2.042449,1.99587 l 4.440426,28.44471 -4.440426,27.95924 z m 30.24933,17.01142 c -0.174086,1.21616 -1.051874,2.06696 -2.123362,2.06696 -1.091104,0 -1.990959,-0.87043 -2.130718,-2.07922 l -5.033791,-44.9633 c 0,0 5.033791,-45.97104 5.033791,-45.9833 0.149567,-1.19653 1.049421,-2.06451 2.130718,-2.06451 1.078844,0 1.954179,0.841 2.13317,2.06451 l 5.720327,45.9833 -5.730135,44.97556 z m 30.036012,9.27317 c -0.139759,1.68446 -1.431921,2.9472 -3.003601,2.9472 -1.58394,0 -2.885909,-1.2652 -3.008505,-2.9472 l -4.513984,-54.22911 4.513984,-56.04843 c 0.1275,-1.69182 1.419661,-2.95947 3.008505,-2.95947 1.569229,0 2.863842,1.26765 3.003601,2.94476 l 5.131868,56.06313 -5.131868,54.22911 z M 97.5349,362.949 c -0.1324,1.92476 -1.61091,3.3812 -3.43269,3.3812 -1.84874,0 -3.31989,-1.45644 -3.44249,-3.39101 l -4.25408,-54.67535 4.25408,-51.9954 c 0.11769,-1.93211 1.5913,-3.39346 3.44249,-3.39346 1.82914,0 3.30764,1.44909 3.43269,3.36894 l 4.83764,52.01992 -4.83764,54.68516 z m 29.42549,0.0172 0,-0.0172 c -0.1226,2.13808 -1.82178,3.8299 -3.87894,3.8299 -2.06452,0 -3.76615,-1.68446 -3.87158,-3.82008 l -4.01134,-54.6729 4.01134,-84.59367 c 0.10053,-2.14788 1.80461,-3.83971 3.87158,-3.83971 2.05471,0 3.75634,1.69183 3.87894,3.83971 l 4.53114,84.59367 -4.53114,54.68025 z m 29.41813,-0.35307 c -0.10789,2.39552 -2.00813,4.27369 -4.31048,4.27369 -2.32197,0 -4.21485,-1.88062 -4.30802,-4.25163 l -3.74899,-54.32963 c 0,0 3.74163,-103.94421 3.74163,-103.95157 0.10298,-2.39307 1.99587,-4.26879 4.31783,-4.26879 2.30235,0 4.19769,1.87326 4.31048,4.26879 l 4.23201,103.95157 -4.23446,54.30757 z m 30.02375,-0.88024 0,0.007 c -0.0932,2.87856 -2.36365,5.14168 -5.18336,5.14168 -2.82216,0 -5.09999,-2.26312 -5.17845,-5.12697 l -3.23163,-53.43713 3.22427,-116.41958 c 0.076,-2.89572 2.35875,-5.15884 5.18581,-5.15884 2.8148,0 5.09754,2.27048 5.18336,5.15884 l 3.63129,116.42203 -3.63129,53.41262 z m 30.04091,-0.79442 0,-0.0417 c -0.0785,3.39346 -2.73143,6.03663 -6.05869,6.03663 -3.33706,0 -6.0023,-2.65298 -6.0685,-5.9974 l -2.70692,-52.59367 2.70692,-109.30656 c 0.0662,-3.39101 2.73634,-6.03908 6.0685,-6.03908 3.3248,0 5.97778,2.65052 6.05869,6.02927 l 3.03793,109.31882 -3.03793,52.59368 z m 30.68332,-1.07885 0,-0.0613 c -0.0539,3.82009 -3.16052,6.91932 -6.93157,6.91932 -3.78086,0 -6.88744,-3.10167 -6.93648,-6.86291 l -2.84668,-51.49032 2.84177,-141.8656 c 0.0564,-3.81764 3.16298,-6.91932 6.94384,-6.91932 3.7735,0 6.88009,3.10413 6.93158,6.90706 l 3.08941,141.87786 -3.09187,51.49521 z m 201.89105,7.31898 c -1.12298,0 -174.40258,-0.0858 -174.56195,-0.10788 -3.76125,-0.3776 -6.75014,-3.58961 -6.79918,-7.44158 l 0,-199.87556 c 0.0466,-3.67298 1.31178,-5.56831 6.06605,-7.40725 12.22527,-4.7273 26.07617,-7.52494 40.28504,-7.52494 58.05655,0 105.65321,44.52685 110.66248,101.27898 7.49551,-3.14336 15.72906,-4.88913 24.36227,-4.88913 34.77557,0 62.96774,28.20198 62.96774,62.98491 -0.01,34.78783 -28.20688,62.98245 -62.98245,62.98245 z"
   id="path13"
   style="fill:#ffffff"
   inkscape:connector-curvature="0" />


</svg>