<?xml version="1.0" encoding="UTF-8" standalone="no"?>
<svg
   xmlns:dc="http://purl.org/dc/elements/1.1/"
   xmlns:cc="http://creativecommons.org/ns#"
   xmlns:rdf="http://www.w3.org/1999/02/22-rdf-syntax-ns#"
   xmlns:svg="http://www.w3.org/2000/svg"
   xmlns="http://www.w3.org/2000/svg"
   version="1.1"
   id="svg2"
   viewBox="0 0 511.99999 512.00001"
   height="512"
   width="512">
  <defs
     id="defs4" />
  <metadata
     id="metadata7">
    <rdf:RDF>
      <cc:Work
         rdf:about="">
        <dc:format>image/svg+xml</dc:format>
        <dc:type
           rdf:resource="http://purl.org/dc/dcmitype/StillImage" />
        <dc:title></dc:title>
      </cc:Work>
    </rdf:RDF>
  </metadata>
  <g
     transform="translate(0,-540.36216)"
     id="layer1">
    <g
       style="fill:#ffffff"
       transform="matrix(2.6868562,0,0,3.2871593,-1300.31,-159.88624)"
       id="g4181">
      <path
         style="opacity:1;fill:#ffffff;fill-opacity:1;fill-rule:evenodd;stroke:none;stroke-opacity:1"
         d="m 492.29525,360.6802 c -2.59283,-0.23283 -5.24231,-0.86256 -5.88773,-1.3994 -3.13248,-2.60545 -3.20748,-12.77828 -0.12068,-16.36867 l 1.66874,-1.94098 27.02695,-0.4656 c 22.47441,-0.38717 30.21106,-0.79185 30.24537,-1.58199 0.002,-0.0524 0.30558,-1.93563 0.674,-4.18496 0.72447,-4.42308 0.0346,-10.84043 -1.30989,-12.18492 -0.57447,-0.57447 -7.61584,-0.97884 -22.77845,-1.30809 -23.48266,-0.50993 -24.95449,-0.72659 -30.68127,-4.5164 -4.00967,-2.65347 -5.80953,-6.32938 -6.73188,-13.74871 -0.89176,-7.1733 -0.36926,-26.28965 0.83151,-30.42171 1.14402,-3.93677 4.34642,-7.1664 9.43691,-9.51716 l 4.48351,-2.07046 30.71428,-0.21207 c 16.89286,-0.11664 31.97166,0.0526 33.50845,0.37603 1.66339,0.3501 3.33105,1.30722 4.12085,2.36506 1.72879,2.31553 2.38245,8.103 1.34825,11.93718 -1.50374,5.5749 -0.99014,5.47908 -31.80239,5.93286 -14.94634,0.22012 -27.74658,0.65998 -28.445,0.97747 -0.69841,0.31749 -1.58234,1.16117 -1.96428,1.87484 -1.02621,1.91748 -0.86465,11.59997 0.21827,13.08095 1.47386,2.01562 5.61822,2.52126 26.92198,3.28466 11.08863,0.39735 21.45359,1.07047 23.03324,1.49583 1.70103,0.45804 4.29867,2.10777 6.37084,4.04604 5.11028,4.78006 5.86843,7.91141 5.92801,24.48401 0.056,15.57947 -0.82874,19.75719 -5.08559,24.01404 -4.11615,4.11615 -7.73137,5.32814 -17.98609,6.02977 -9.91826,0.67861 -46.2615,0.69374 -53.73791,0.0224 l 0,2e-5 z"
         id="path3377" />
      <path
         style="opacity:1;fill:#ffffff;fill-opacity:1;fill-rule:evenodd;stroke:none;stroke-opacity:1"
         d="m 612.44222,345.34796 c -1.60209,-1.93041 -2.11461,-8.95936 -2.62975,-36.06581 -0.28471,-14.98176 -0.54972,-27.25358 -0.5889,-27.2707 -0.0392,-0.0171 -3.3062,-0.29944 -7.26006,-0.62737 -8.79389,-0.72936 -11.39105,-1.89915 -12.41679,-5.59264 -1.81421,-6.53267 -0.2274,-12.43112 3.79656,-14.11244 1.35115,-0.56454 5.54129,-1.24327 9.31142,-1.50829 6.33631,-0.4454 6.85491,-0.59543 6.85652,-1.98356 9.2e-4,-0.82594 0.32656,-5.75975 0.72357,-10.96402 1.13419,-14.86773 3.95006,-20.23778 12.78435,-24.38068 3.92416,-1.84026 4.29183,-1.87533 22.16745,-2.1145 28.33027,-0.37906 29.32289,-0.0592 29.32289,9.44995 0,7.07624 -0.69344,8.73741 -4.0322,9.65929 -1.46941,0.40572 -8.6365,0.92027 -15.92687,1.14344 -7.29037,0.22316 -14.94271,0.57653 -17.00521,0.78525 l -3.75,0.3795 0,8.76804 0,8.76804 8.03571,0.46303 c 4.41964,0.25466 10.76786,0.475 14.10714,0.48964 3.33929,0.0146 8.31692,0.31578 11.06142,0.6692 6.58201,0.84758 7.51347,1.94717 7.50026,8.8541 -0.0204,10.69932 0.12376,10.63015 -23.00982,11.03484 l -17.66243,0.30897 -0.34522,2.23496 c -0.18987,1.22922 -0.49212,12.19924 -0.67167,24.37781 -0.19567,13.27268 -0.6463,23.20404 -1.12491,24.79191 -1.05432,3.49788 -3.69754,6.00598 -10.10785,9.59115 -6.60334,3.69313 -8.05948,4.14753 -9.13561,2.85089 z"
         id="path3379" />
    </g>
  </g>
</svg>
