<?xml version="1.0" encoding="UTF-8" standalone="no"?>
<svg
   xmlns:dc="http://purl.org/dc/elements/1.1/"
   xmlns:cc="http://creativecommons.org/ns#"
   xmlns:rdf="http://www.w3.org/1999/02/22-rdf-syntax-ns#"
   xmlns:svg="http://www.w3.org/2000/svg"
   xmlns="http://www.w3.org/2000/svg"
   xmlns:sodipodi="http://sodipodi.sourceforge.net/DTD/sodipodi-0.dtd"
   xmlns:inkscape="http://www.inkscape.org/namespaces/inkscape"
   viewBox="0 0 511.99968 511.99877"
   height="512"
   width="512"
   id="svg2"
   version="1.1"
   inkscape:version="0.91 r13725"
   sodipodi:docname="se-logo.svg">
  <metadata
     id="metadata31">
    <rdf:RDF>
      <cc:Work
         rdf:about="">
        <dc:format>image/svg+xml</dc:format>
        <dc:type
           rdf:resource="http://purl.org/dc/dcmitype/StillImage" />
        <dc:title></dc:title>
      </cc:Work>
    </rdf:RDF>
  </metadata>
  <sodipodi:namedview
     pagecolor="#ffffff"
     bordercolor="#666666"
     borderopacity="1"
     objecttolerance="10"
     gridtolerance="10"
     guidetolerance="10"
     inkscape:pageopacity="0"
     inkscape:pageshadow="2"
     inkscape:window-width="1366"
     inkscape:window-height="706"
     id="namedview29"
     showgrid="false"
     inkscape:zoom="0.50296766"
     inkscape:cx="668.12424"
     inkscape:cy="119.21076"
     inkscape:window-x="-8"
     inkscape:window-y="-8"
     inkscape:window-maximized="1"
     inkscape:current-layer="svg2" />
  <defs
     id="defs4">
    <clipPath
       id="a">
      <path
         d="M 0,1015.98 0,0 l 4413.85,0 0,1015.98 -4413.85,0 z"
         id="path7"
         inkscape:connector-curvature="0" />
    </clipPath>
  </defs>
  <g
     id="g3368"
     transform="matrix(7.1826662,0,0,7.1826662,-3754.1368,-2.4544882)"
     style="fill:#ffffff">
    <path
       d="m 529.57275,43.298 57.46957,0 0,-11.81971 -57.46957,0 0,11.81971 z"
       id="path15"
       inkscape:connector-curvature="0"
       style="fill:#ffffff" />
    <path
       d="m 529.57275,28.07482 57.46957,0 0,-11.822636 -57.46957,0 0,11.82237 z"
       id="path17"
       inkscape:connector-curvature="0"
       style="fill:#ffffff" />
    <path
       d="m 577.92224,0.34166 -39.23899,0 c -5.03272,0 -9.1105,4.230464 -9.1105,9.443 l 0,3.069906 57.4693,0 0,-3.069906 c 0,-5.212536 -4.0831,-9.443 -9.11981,-9.443"
       id="path19"
       inkscape:connector-curvature="0"
       style="fill:#ffffff" />
    <path
       d="m 529.57275,46.628719 0,3.069241 c 0,5.212536 4.07778,9.443665 9.1105,9.443665 l 24.54382,0 0,12.482715 12.04581,-12.482715 2.64936,0 c 5.03671,0 9.11981,-4.231129 9.11981,-9.443532 l 0,-3.06831 -57.4693,0"
       id="path21"
       inkscape:connector-curvature="0"
       style="fill:#ffffff" />
  </g>
</svg>
