<?xml version="1.0" encoding="iso-8859-1"?>
<!-- Generator: Adobe Illustrator 16.0.0, SVG Export Plug-In . SVG Version: 6.00 Build 0)  -->
<!DOCTYPE svg PUBLIC "-//W3C//DTD SVG 1.1//EN" "http://www.w3.org/Graphics/SVG/1.1/DTD/svg11.dtd">
<svg xmlns="http://www.w3.org/2000/svg" xmlns:xlink="http://www.w3.org/1999/xlink" version="1.1" id="Capa_1" x="0px" y="0px" width="512px" height="512px" viewBox="0 0 97.848 97.848" style="enable-background:new 0 0 97.848 97.848;" xml:space="preserve">
<g>
	<g>
		<path d="M54.104,39.426l7.508,3.166l9.185-3.166v-6.331c0-12.08-9.792-21.872-21.872-21.872s-21.872,9.792-21.872,21.872v31.081    c0,2.861-2.319,5.18-5.18,5.18c-2.861,0-5.18-2.318-5.18-5.18V50.362H0v14.39c0,12.08,9.792,21.872,21.872,21.872    c12.08,0,21.872-9.792,21.872-21.872V33.095c0-2.861,2.319-5.18,5.18-5.18c2.861,0,5.18,2.319,5.18,5.18V39.426z" fill="#FFFFFF"/>
		<path d="M81.156,50.938v13.813c0,2.86-2.319,5.18-5.181,5.18c-2.86,0-5.18-2.319-5.18-5.18V50.651l-9.185,3.166l-7.508-3.166    v14.102c0,12.08,9.793,21.872,21.872,21.872s21.872-9.792,21.872-21.872V50.938H81.156z" fill="#FFFFFF"/>
	</g>
</g>
<g>
</g>
<g>
</g>
<g>
</g>
<g>
</g>
<g>
</g>
<g>
</g>
<g>
</g>
<g>
</g>
<g>
</g>
<g>
</g>
<g>
</g>
<g>
</g>
<g>
</g>
<g>
</g>
<g>
</g>
</svg>
