<?xml version="1.0" encoding="UTF-8" standalone="no"?>
<!-- Created with Inkscape (http://www.inkscape.org/) -->

<svg
   xmlns:dc="http://purl.org/dc/elements/1.1/"
   xmlns:cc="http://creativecommons.org/ns#"
   xmlns:rdf="http://www.w3.org/1999/02/22-rdf-syntax-ns#"
   xmlns:svg="http://www.w3.org/2000/svg"
   xmlns="http://www.w3.org/2000/svg"
   xmlns:sodipodi="http://sodipodi.sourceforge.net/DTD/sodipodi-0.dtd"
   xmlns:inkscape="http://www.inkscape.org/namespaces/inkscape"
   width="512"
   height="512"
   id="svg2"
   version="1.1"
   inkscape:version="0.91 r13725"
   sodipodi:docname="sway.svg">
  <title
     id="title7155">Microsoft Sway</title>
  <defs
     id="defs4">
    <linearGradient
       id="linearGradient7109">
      <stop
         style="stop-color:#168a7c;stop-opacity:1;"
         offset="0"
         id="stop7111" />
      <stop
         id="stop7117"
         offset="0.5"
         style="stop-color:#16897c;stop-opacity:1;" />
      <stop
         style="stop-color:#16897b;stop-opacity:1;"
         offset="1"
         id="stop7113" />
    </linearGradient>
  </defs>
  <sodipodi:namedview
     id="base"
     pagecolor="#ffffff"
     bordercolor="#666666"
     borderopacity="1.0"
     inkscape:pageopacity="0.0"
     inkscape:pageshadow="2"
     inkscape:zoom="0.49999521"
     inkscape:cx="169.74254"
     inkscape:cy="98.172186"
     inkscape:document-units="px"
     inkscape:current-layer="layer1"
     showgrid="false"
     borderlayer="true"
     inkscape:showpageshadow="false"
     showguides="true"
     inkscape:guide-bbox="true"
     inkscape:window-width="1366"
     inkscape:window-height="706"
     inkscape:window-x="-8"
     inkscape:window-y="-8"
     inkscape:window-maximized="1" />
  <metadata
     id="metadata7">
    <rdf:RDF>
      <cc:Work
         rdf:about="">
        <dc:format>image/svg+xml</dc:format>
        <dc:type
           rdf:resource="http://purl.org/dc/dcmitype/StillImage" />
        <dc:title>Microsoft Sway</dc:title>
        <dc:creator>
          <cc:Agent>
            <dc:title />
          </cc:Agent>
        </dc:creator>
      </cc:Work>
    </rdf:RDF>
  </metadata>
  <g
     inkscape:label="Layer 1"
     inkscape:groupmode="layer"
     id="layer1"
     transform="translate(0,-540.36)">
    <g
       id="g4167"
       transform="matrix(2.0982766,0,0,2.2068966,-12.58966,-1243.6069)"
       style="fill:#ffffff">
      <path
         transform="translate(0,796.36)"
         id="rect3030"
         d="M 128.00977,35 C 124.67977,35 122,37.676 122,41 l 0,173 c 0,3.32 2.67977,6 6.00977,6 L 244,220 c 3.33,0 6.00977,-2.68 6.00977,-6 l 0,-173 c 0,-3.324 -2.67977,-6 -6.00977,-6 L 128.00977,35 Z M 130,43 l 112,0 0,169.03906 -112,0 L 130,43 Z"
         style="fill:#ffffff;fill-opacity:1;stroke:none"
         inkscape:connector-curvature="0" />
      <path
         id="rect5517"
         d="m 189,135 47,0 0,10 -47,0 z"
         style="fill:#ffffff;fill-opacity:1;stroke:none"
         transform="translate(0,796.36)"
         inkscape:connector-curvature="0" />
      <path
         id="rect5651"
         transform="translate(0,796.36)"
         d="M 145,12 6,36 6,220.0293 145,244 145,12 Z M 75.03125,84.994141 c 3.185824,0 6.011195,0.259694 8.472656,0.765625 2.459745,0.487052 4.731629,1.259369 6.808594,2.320312 l 0,16.734372 c -1.02475,-0.94578 -2.143147,-1.74741 -3.351562,-2.46289 -1.208416,-0.71736 -2.453867,-1.29224 -3.734376,-1.77929 -1.280508,-0.45685 -2.555252,-0.802831 -3.820312,-1.031254 -1.268494,-0.286946 -2.469146,-0.341797 -3.605469,-0.341797 -1.567164,0 -2.990975,0.2863 -4.271484,0.601562 -1.280509,0.400209 -2.359907,0.944679 -3.242188,1.660159 -0.883997,0.68716 -1.564538,1.54933 -2.046875,2.52344 -0.485769,1.00242 -0.728279,2.11882 -0.726562,3.35156 0,1.31768 0.269849,2.52011 0.810547,3.60937 0.540697,1.06095 1.308881,2.06372 2.302734,3.00196 0.997287,0.9439 2.205928,1.90635 3.628906,2.8125 1.422979,0.92502 3.03024,1.83279 4.822266,2.81445 2.447729,1.34034 4.645759,2.77362 6.595703,4.30273 1.949944,1.47249 3.621827,3.20986 5.015625,5.09766 1.393798,1.90668 2.46136,4.09599 3.201172,6.53125 0.739812,2.43526 1.111328,5.30506 1.111328,8.5332 0,4.47409 -0.649118,8.23018 -1.943359,11.26953 -1.295958,3.05824 -3.05205,5.49502 -5.271485,7.38282 -2.219434,1.8878 -4.800579,3.24554 -7.746093,4.07617 -2.945514,0.79287 -6.05476,1.22851 -9.328125,1.22851 -3.357474,0 -6.552409,-0.37899 -9.582032,-1.11523 -3.029622,-0.75512 -5.655565,-1.86801 -7.875,-3.35938 l 0,-17.89648 c 2.475193,2.71843 5.163805,4.75732 8.066407,6.09766 2.904318,1.37809 5.835439,2.05664 8.792968,2.05664 1.735382,0 3.252634,-0.28129 4.546875,-0.6211 1.292525,-0.39643 2.375355,-0.98185 3.242188,-1.69922 0.866832,-0.73624 1.517667,-1.60558 1.943359,-2.56836 0.425692,-1.01941 0.640625,-2.07565 0.640625,-3.24609 0,-1.54799 -0.342223,-2.94546 -1.02539,-4.19141 -0.681451,-1.22707 -1.61397,-2.36014 -2.794922,-3.39843 -1.179236,-1.05717 -2.582986,-2.05741 -4.205078,-3.03907 -1.622093,-0.94389 -3.371913,-1.94477 -5.248047,-2.94531 C 60.432675,129.46515 56.86794,126.25672 54.521484,122.5 52.175029,118.70552 51,114.19319 51,108.82617 c 0,-4.18336 0.641366,-7.76617 1.921875,-10.773436 1.280509,-2.980836 3.022813,-5.472685 5.228516,-7.392578 2.203986,-1.948209 4.757554,-3.381357 7.660156,-4.298828 2.902601,-0.908032 5.976518,-1.367187 9.220703,-1.367187 z"
         style="fill:#ffffff;fill-opacity:1;fill-rule:nonzero;stroke:none"
         inkscape:connector-curvature="0" />
      <g
         id="text7148"
         style="font-style:normal;font-variant:normal;font-weight:bold;font-stretch:normal;font-size:40px;line-height:125%;font-family:'Segoe UI';-inkscape-font-specification:'Sans Bold';letter-spacing:0px;word-spacing:0px;fill:#ffffff;fill-opacity:1;stroke:none"
         transform="matrix(1.7165,0,0,1.8878,-40.484,721.32)" />
      <path
         inkscape:connector-curvature="0"
         id="rect4945"
         d="m 128.4,831.32 115.2,0 c 3.54,0 6.4,2.68 6.4,6 l 0,173.08 c 0,3.3 -2.86,6 -6.4,6 l -115.2,0 c -3.54,0 -6.4,-2.7 -6.4,-6 l 0,-173.08 c 0,-3.32 2.86,-6 6.4,-6 z"
         style="fill:#ffffff;fill-opacity:0;stroke:none" />
      <path
         id="rect5521"
         d="m 189,160 47,0 0,10 -47,0 z"
         style="fill:#ffffff;fill-opacity:1;stroke:none"
         transform="translate(0,796.36)"
         inkscape:connector-curvature="0" />
      <path
         id="rect5525"
         d="m 189,185 47,0 0,10 -47,0 z"
         style="fill:#ffffff;fill-opacity:1;stroke:none"
         transform="translate(0,796.36)"
         inkscape:connector-curvature="0" />
      <path
         id="rect5515"
         d="m 136,135 47,0 0,10 -47,0 z"
         style="fill:#ffffff;fill-opacity:1;stroke:none"
         transform="translate(0,796.36)"
         inkscape:connector-curvature="0" />
      <path
         inkscape:connector-curvature="0"
         id="rect5519"
         d="m 136,956.11 47,0 0,10 -47,0 z"
         style="fill:#ffffff;fill-opacity:1;stroke:none" />
      <path
         id="rect5523"
         d="m 136,185 47,0 0,10 -47,0 z"
         style="fill:#ffffff;fill-opacity:1;stroke:none"
         transform="translate(0,796.36)"
         inkscape:connector-curvature="0" />
      <path
         sodipodi:nodetypes="cccc"
         inkscape:connector-curvature="0"
         id="path5619"
         d="m 226,113 -96,0 48,-47 z"
         inkscape:transform-center-y="-1.1947"
         inkscape:transform-center-x="0.22879"
         style="fill:#ffffff;fill-opacity:0;stroke:#148878;stroke-width:0.2;stroke-miterlimit:4;stroke-opacity:0"
         transform="translate(0,796.36)" />
      <path
         transform="translate(0,796.36)"
         sodipodi:nodetypes="ccccccccccccc"
         inkscape:connector-curvature="0"
         id="rect5628"
         d="m 176,68 4,0 46,45 6,0 -33,-34 0,-1 8,-8 2,0 33,32 0,21 -112,0 0,-10 z"
         style="fill:#ffffff;fill-opacity:1;stroke:none;stroke-width:0.2;stroke-miterlimit:4;stroke-opacity:0" />
      <path
         inkscape:connector-curvature="0"
         id="path5633"
         d="m 232,857.35 c 0,3.88 -3.14,7.01 -7,7.01 -3.86,0 -7,-3.13 -7,-7.01 0,-3.86 3.14,-6.99 7,-6.99 3.86,0 7,3.13 7,6.99 z"
         style="fill:#ffffff;fill-opacity:1;stroke:#148878;stroke-width:0.47729;stroke-miterlimit:4;stroke-opacity:0" />
    </g>
  </g>
</svg>
