<?xml version="1.0" encoding="iso-8859-1"?>
<!-- Generator: Adobe Illustrator 17.1.0, SVG Export Plug-In . SVG Version: 6.00 Build 0)  -->
<!DOCTYPE svg PUBLIC "-//W3C//DTD SVG 1.1//EN" "http://www.w3.org/Graphics/SVG/1.1/DTD/svg11.dtd">
<svg xmlns="http://www.w3.org/2000/svg" xmlns:xlink="http://www.w3.org/1999/xlink" version="1.1" id="Capa_1" x="0px" y="0px" viewBox="0 0 257.15 257.15" style="enable-background:new 0 0 257.15 257.15;" xml:space="preserve" width="512px" height="512px">
<g>
	<path d="M205.907,0H51.243c-9.649,0-17.5,7.851-17.5,17.5v222.15c0,9.649,7.851,17.5,17.5,17.5h88.503   c5.609,0,14.734-0.215,20.342-0.479c1.016-0.048,25.138-1.431,47.92-23.85c10.108-9.95,13.22-25.44,13.347-26.095   c1.15-5.902,2.052-15.236,2.052-21.25V17.5C223.407,7.851,215.557,0,205.907,0z M208.407,185.477   c0,5.028-0.813,13.445-1.775,18.381c-0.022,0.115-2.422,11.655-9.146,18.273c-18.496,18.2-37.955,19.548-38.105,19.558   c-5.413,0.255-14.221,0.462-19.636,0.462H51.243c-1.355,0-2.5-1.145-2.5-2.5V17.5c0-1.355,1.145-2.5,2.5-2.5h154.664   c1.355,0,2.5,1.145,2.5,2.5V185.477z" fill="#FFFFFF"/>
	<path d="M177.075,30.976h-97c-9.649,0-17.5,7.851-17.5,17.5v54.08c0,9.649,7.851,17.5,17.5,17.5h97   c9.649,0,17.5-7.851,17.5-17.5v-54.08C194.575,38.826,186.725,30.976,177.075,30.976z M179.575,102.556c0,1.355-1.145,2.5-2.5,2.5   h-97c-1.355,0-2.5-1.145-2.5-2.5v-54.08c0-1.356,1.145-2.5,2.5-2.5h97c1.355,0,2.5,1.144,2.5,2.5V102.556z" fill="#FFFFFF"/>
	<path d="M122.742,159.377h-11.068v-11.068c0-3.859-3.14-7-7-7H90.144c-3.86,0-7,3.141-7,7v11.068H72.076   c-3.86,0-7,3.141-7,7v14.53c0,3.859,3.14,7,7,7h11.068v11.069c0,3.859,3.14,7,7,7h14.531c3.86,0,7-3.141,7-7v-11.069h11.068   c3.86,0,7-3.141,7-7v-14.53C129.742,162.518,126.602,159.377,122.742,159.377z M119.742,177.907h-11.068c-3.86,0-7,3.141-7,7   v11.069h-8.531v-11.069c0-3.859-3.14-7-7-7H75.076v-8.53h11.068c3.86,0,7-3.141,7-7v-11.068h8.531v11.068c0,3.859,3.14,7,7,7   h11.068V177.907z" fill="#FFFFFF"/>
	<path d="M176.474,133.04c-9.706,0-17.602,7.896-17.602,17.602c0,9.706,7.896,17.602,17.602,17.602   s17.602-7.896,17.602-17.602C194.075,140.936,186.179,133.04,176.474,133.04z M176.474,158.244c-4.191,0-7.602-3.41-7.602-7.602   c0-4.191,3.41-7.602,7.602-7.602s7.602,3.41,7.602,7.602C184.075,154.834,180.665,158.244,176.474,158.244z" fill="#FFFFFF"/>
	<path d="M158.474,177.244c-9.706,0-17.602,7.896-17.602,17.603c0,9.705,7.896,17.602,17.602,17.602   s17.602-7.896,17.602-17.602C176.075,185.141,168.179,177.244,158.474,177.244z M158.474,202.448c-4.191,0-7.602-3.41-7.602-7.602   c0-4.192,3.41-7.603,7.602-7.603s7.602,3.41,7.602,7.603C166.075,199.038,162.665,202.448,158.474,202.448z" fill="#FFFFFF"/>
</g>
<g>
</g>
<g>
</g>
<g>
</g>
<g>
</g>
<g>
</g>
<g>
</g>
<g>
</g>
<g>
</g>
<g>
</g>
<g>
</g>
<g>
</g>
<g>
</g>
<g>
</g>
<g>
</g>
<g>
</g>
</svg>
