<?xml version="1.0" encoding="iso-8859-1"?>
<!-- Generator: Adobe Illustrator 16.0.0, SVG Export Plug-In . SVG Version: 6.00 Build 0)  -->
<!DOCTYPE svg PUBLIC "-//W3C//DTD SVG 1.1//EN" "http://www.w3.org/Graphics/SVG/1.1/DTD/svg11.dtd">
<svg xmlns="http://www.w3.org/2000/svg" xmlns:xlink="http://www.w3.org/1999/xlink" version="1.1" id="Capa_1" x="0px" y="0px" width="512px" height="512px" viewBox="0 0 45.702 45.702" style="enable-background:new 0 0 45.702 45.702;" xml:space="preserve">
<g>
	<g>
		<path d="M36.226,25.086h-0.023V11.939h0.307c1.18,0,2.137-0.929,2.137-2.108v-7.65c0-1.18-0.957-2.096-2.137-2.096h-5.018    c-1.18,0-2.112,0.916-2.112,2.096v7.649c0,1.179,0.933,2.108,2.112,2.108h0.33v13.146h-0.045c-2.125,0-3.834,1.768-3.834,3.892    v12.921c0,2.125,1.709,3.804,3.834,3.804h4.451c2.123,0,3.854-1.679,3.854-3.804v-12.92    C40.082,26.854,38.351,25.086,36.226,25.086z" fill="#FFFFFF"/>
		<path d="M11.494,18.006v24.691c0,1.67,1.338,3.005,3.008,3.005h3.179c1.67,0,3.007-1.335,3.007-3.005v-24.69    c3.448-1.702,5.872-5.275,5.872-9.408c0-3.444-1.959-6.493-4.383-8.399c-0.277-0.218-0.654-0.258-0.97-0.104    c-0.318,0.155-0.519,0.476-0.519,0.829v5.102c0,1.63-1.32,2.896-2.952,2.896h-3.284c-1.632,0-2.958-1.265-2.958-2.896V0.922    c0-0.354-0.199-0.675-0.517-0.83c-0.316-0.154-0.692-0.113-0.97,0.104C7.576,2.103,5.62,5.152,5.62,8.598    C5.62,12.731,7.975,16.304,11.494,18.006z" fill="#FFFFFF"/>
	</g>
</g>
<g>
</g>
<g>
</g>
<g>
</g>
<g>
</g>
<g>
</g>
<g>
</g>
<g>
</g>
<g>
</g>
<g>
</g>
<g>
</g>
<g>
</g>
<g>
</g>
<g>
</g>
<g>
</g>
<g>
</g>
</svg>
