<?xml version="1.0" encoding="UTF-8" standalone="no"?>
<svg
   xmlns:dc="http://purl.org/dc/elements/1.1/"
   xmlns:cc="http://creativecommons.org/ns#"
   xmlns:rdf="http://www.w3.org/1999/02/22-rdf-syntax-ns#"
   xmlns:svg="http://www.w3.org/2000/svg"
   xmlns="http://www.w3.org/2000/svg"
   version="1.1"
   id="svg3389"
   viewBox="0 0 512.00001 512.00001"
   height="512"
   width="512">
  <defs
     id="defs3391" />
  <metadata
     id="metadata3394">
    <rdf:RDF>
      <cc:Work
         rdf:about="">
        <dc:format>image/svg+xml</dc:format>
        <dc:type
           rdf:resource="http://purl.org/dc/dcmitype/StillImage" />
        <dc:title></dc:title>
      </cc:Work>
    </rdf:RDF>
  </metadata>
  <g
     transform="translate(0,-540.36216)"
     id="layer1">
    <g
       style="fill:#ffffff"
       transform="matrix(3.3771107,0,0,3.3771107,-1537.8218,-1151.6187)"
       id="g3418">
      <path
         style="opacity:1;fill:#ffffff;fill-opacity:1;fill-rule:evenodd;stroke:none;stroke-opacity:1"
         d="m 484.83246,591.00557 0,-29.72787 -14.73316,-0.52613 -14.73317,-0.52612 14.54806,-14.56106 14.54806,-14.56105 30.00016,0 30.00015,0 -14.81505,14.82766 -14.81505,14.82766 0,15.00015 0,15.00014 -15,14.98725 -15,14.98724 0,-29.72787 z"
         id="path3414" />
      <path
         style="opacity:1;fill:#ffffff;fill-opacity:1;fill-rule:evenodd;stroke:none;stroke-opacity:1"
         d="m 565.52989,611.28305 c -6.0906,-6.18813 -12.63049,-12.90406 -14.53309,-14.9243 l -3.45926,-3.67316 15.07603,-0.52497 15.07604,-0.52498 -0.004,-7.94472 c -0.005,-11.41579 -0.79845,-21.8733 -1.65896,-21.8733 -0.4031,0 -14.17605,13.40746 -30.60656,29.79436 l -29.87364,29.79435 0,-14.6189 0,-14.61889 30.53879,-30.5326 30.5388,-30.5326 15.17549,0 15.17549,0 0,30.54194 0,30.54195 -15.18581,15.17348 -15.1858,15.17349 -11.07382,-11.25115 z"
         id="path3416" />
    </g>
  </g>
</svg>
