<?xml version="1.0" encoding="UTF-8" standalone="no"?>
<!-- Generator: Adobe Illustrator 17.0.1, SVG Export Plug-In . SVG Version: 6.00 Build 0)  -->

<svg
   xmlns:dc="http://purl.org/dc/elements/1.1/"
   xmlns:cc="http://creativecommons.org/ns#"
   xmlns:rdf="http://www.w3.org/1999/02/22-rdf-syntax-ns#"
   xmlns:svg="http://www.w3.org/2000/svg"
   xmlns="http://www.w3.org/2000/svg"
   xmlns:sodipodi="http://sodipodi.sourceforge.net/DTD/sodipodi-0.dtd"
   xmlns:inkscape="http://www.inkscape.org/namespaces/inkscape"
   version="1.1"
   id="Layer_1"
   x="0px"
   y="0px"
   width="512"
   height="512"
   viewBox="0 0 512 512"
   enable-background="new 0 0 200 43.028"
   xml:space="preserve"
   inkscape:version="0.91 r13725"
   sodipodi:docname="Tunein_logo2014.svg"><metadata
   id="metadata39"><rdf:RDF><cc:Work
       rdf:about=""><dc:format>image/svg+xml</dc:format><dc:type
         rdf:resource="http://purl.org/dc/dcmitype/StillImage" /><dc:title></dc:title></cc:Work></rdf:RDF></metadata><defs
   id="defs37">
	
	
</defs><sodipodi:namedview
   pagecolor="#ffffff"
   bordercolor="#666666"
   borderopacity="1"
   objecttolerance="10"
   gridtolerance="10"
   guidetolerance="10"
   inkscape:pageopacity="0"
   inkscape:pageshadow="2"
   inkscape:window-width="1366"
   inkscape:window-height="706"
   id="namedview35"
   showgrid="false"
   inkscape:zoom="0.52325902"
   inkscape:cx="1034.2054"
   inkscape:cy="166.12437"
   inkscape:window-x="-8"
   inkscape:window-y="-8"
   inkscape:window-maximized="1"
   inkscape:current-layer="Layer_1" />
<g
   id="g25"
   transform="matrix(12.255841,0,0,12.255841,17.023356,-15.332064)"
   style="fill:#ffffff">
		<path
   style="fill:#ffffff"
   inkscape:connector-curvature="0"
   id="path27"
   d="m 19.249,15.023 c -3.799,0 -6.887,-3.091 -6.887,-6.886 -0.003,-1.839 0.715,-3.569 2.014,-4.869 1.302,-1.301 3.031,-2.017 4.87,-2.017 3.797,0 6.887,3.089 6.887,6.887 0.001,3.797 -3.086,6.885 -6.884,6.885" />
		<path
   style="fill:#ffffff"
   inkscape:connector-curvature="0"
   id="path29"
   d="m 0,17.779 c 0,-0.362 0.293,-0.655 0.655,-0.655 l 18.536,0 c 3.344,0 6.064,2.71 6.064,6.042 l 0,5.384 c 0,0.364 -0.295,0.657 -0.658,0.657 -0.011,0 -0.025,0 -0.038,0.002 L 6.041,29.207 C 2.711,29.207 0,26.497 0,23.164 l 0,-5.385 z" />
		<path
   style="fill:#ffffff"
   inkscape:connector-curvature="0"
   id="path31"
   d="m 33.033,17.038 5.311,0 c 0.36,0 0.654,0.295 0.654,0.655 l 0,5.387 c 0,3.332 -2.709,6.041 -6.041,6.041 L 27.66,29.12 c -0.377,0 -0.671,-0.288 -0.671,-0.654 l 0,-5.385 c 0,-3.333 2.712,-6.043 6.044,-6.043" />
		<path
   style="fill:#ffffff"
   inkscape:connector-curvature="0"
   id="path33"
   d="m 24.598,30.944 -10.699,0 c -0.361,0 -0.655,0.295 -0.655,0.655 l 0,10.774 c 0,0.367 0.296,0.653 0.672,0.653 l 5.296,10e-4 c 3.332,0 6.044,-2.71 6.044,-6.043 l 0,-5.385 c -0.001,-0.36 -0.295,-0.655 -0.658,-0.655" />
	</g>
</svg>