<?xml version="1.0" encoding="iso-8859-1"?>
<!-- Generator: Adobe Illustrator 16.0.0, SVG Export Plug-In . SVG Version: 6.00 Build 0)  -->
<!DOCTYPE svg PUBLIC "-//W3C//DTD SVG 1.1//EN" "http://www.w3.org/Graphics/SVG/1.1/DTD/svg11.dtd">
<svg xmlns="http://www.w3.org/2000/svg" xmlns:xlink="http://www.w3.org/1999/xlink" version="1.1" id="Capa_1" x="0px" y="0px" width="512px" height="512px" viewBox="0 0 96.888 96.888" style="enable-background:new 0 0 96.888 96.888;" xml:space="preserve">
<g>
	<g>
		<path d="M91.679,47.904c-1.716,0.454-3.496,0.768-5.338,0.939c-8.832,0.826-16.284-1.746-21.196-9.579    c-2.939-4.687-3.746-9.954-3.416-15.414c0.133-2.185,0.533-4.314,1.694-6.222c1.082-1.776,2.565-2.939,4.735-3.016    c3.101-0.109,5.252,1.798,6.107,5.533c1.1,4.792,0.352,9.489-0.97,14.11c-0.136,0.472-0.386,1.467-0.386,1.467    s0.636,0.721,1.095,1.182c3.194,3.214,7.14,3.947,11.435,3.603c0.67-0.054,1.608-0.142,1.608-0.142s0.433-1.073,0.603-1.537    c2.31-6.318,3.264-12.792,2.573-19.509C89.24,9.735,84.16,1.389,71.931,0.15C60.992-0.958,51.918,4.083,48.11,14.527    c-2.185,5.996-2.296,12.144-1.185,18.336c1.859,10.351,6.729,18.762,16.048,24.167c0.932,0.539,0.943,0.965,0.49,1.826    c-3.788,7.209-8.312,13.905-13.788,19.945c-2.36,2.604-2.341,2.577-4.558-0.228c-11.16-14.128-17.306-30.432-20.786-47.893    c-0.952-4.777-1.733-9.566-2.33-14.404l-0.14-1.673l-16.652-0.01l0.135,0.949c2.105,15.033,5.289,29.796,10.917,43.952    c4.137,10.402,9.353,20.169,16.909,28.544c2.459,2.725,5.149,5.184,8.251,7.181c3.63,2.339,7.182,2.186,10.672-0.254    c0.995-0.697,1.958-1.457,2.86-2.272c9.607-8.698,17.367-18.82,23.242-30.371c0.457-0.902,0.931-1.315,2.014-1.32    c2.438-0.01,4.863-0.291,7.271-0.697c1.418-0.238,2.816-0.527,4.198-0.876V47.904z" fill="#FFFFFF"/>
	</g>
</g>
<g>
</g>
<g>
</g>
<g>
</g>
<g>
</g>
<g>
</g>
<g>
</g>
<g>
</g>
<g>
</g>
<g>
</g>
<g>
</g>
<g>
</g>
<g>
</g>
<g>
</g>
<g>
</g>
<g>
</g>
</svg>
