<?xml version="1.0" encoding="iso-8859-1"?>
<!-- Generator: Adobe Illustrator 18.0.0, SVG Export Plug-In . SVG Version: 6.00 Build 0)  -->
<!DOCTYPE svg PUBLIC "-//W3C//DTD SVG 1.1//EN" "http://www.w3.org/Graphics/SVG/1.1/DTD/svg11.dtd">
<svg xmlns="http://www.w3.org/2000/svg" xmlns:xlink="http://www.w3.org/1999/xlink" version="1.1" id="Capa_1" x="0px" y="0px" viewBox="0 0 219.152 219.152" style="enable-background:new 0 0 219.152 219.152;" xml:space="preserve" width="512px" height="512px">
<g>
	<path d="M191.237,0H27.915c-4.142,0-7.5,3.358-7.5,7.5v122.492c0,49.392,82.58,86.932,86.096,88.506   c0.975,0.437,2.02,0.654,3.064,0.654s2.09-0.219,3.064-0.654c3.516-1.574,86.096-39.114,86.098-88.506V7.5   C198.737,3.358,195.38,0,191.237,0z M183.737,129.992c-0.001,31.487-50.896,62.31-74.165,73.396   c-23.27-11.068-74.157-41.856-74.157-73.396V15h148.322V129.992z" fill="#FFFFFF"/>
	<path d="M94.887,123.649c0.684,0.683,1.468,1.2,2.303,1.564c0.683,0.298,1.399,0.49,2.128,0.575   c0.29,0.034,0.581,0.057,0.873,0.057c0.479,0,0.959-0.046,1.433-0.138c1.418-0.274,2.772-0.961,3.871-2.059   c0.003-0.003,0.006-0.007,0.009-0.01l37.531-37.529c2.93-2.929,2.93-7.678,0.001-10.606c-2.929-2.93-7.678-2.929-10.606-0.001   l-32.237,32.236L86.725,94.272c-2.93-2.928-7.678-2.928-10.607,0c-2.929,2.93-2.929,7.678,0,10.607L94.887,123.649z" fill="#FFFFFF"/>
	<path d="M81.065,167.214c9.267,6.765,18.695,12.188,24.973,15.544c1.105,0.592,2.321,0.887,3.537,0.887   c1.216,0,2.432-0.295,3.536-0.886c6.276-3.355,15.704-8.776,24.976-15.545c11.198-8.175,29.984-24.165,29.984-39.411V40.061   c0-4.143-3.357-7.5-7.5-7.5H58.581c-4.143,0-7.5,3.357-7.5,7.5v87.742C51.081,143.049,69.867,159.039,81.065,167.214z    M66.081,47.561h86.99v80.242c0,3.425-4.98,13.537-23.828,27.296c-6.983,5.098-14.103,9.391-19.668,12.499   c-5.565-3.11-12.687-7.403-19.666-12.499c-18.848-13.759-23.828-23.871-23.828-27.296V47.561z" fill="#FFFFFF"/>
</g>
<g>
</g>
<g>
</g>
<g>
</g>
<g>
</g>
<g>
</g>
<g>
</g>
<g>
</g>
<g>
</g>
<g>
</g>
<g>
</g>
<g>
</g>
<g>
</g>
<g>
</g>
<g>
</g>
<g>
</g>
</svg>
