<?xml version="1.0" encoding="UTF-8" standalone="no"?>
<svg
   xmlns:dc="http://purl.org/dc/elements/1.1/"
   xmlns:cc="http://creativecommons.org/ns#"
   xmlns:rdf="http://www.w3.org/1999/02/22-rdf-syntax-ns#"
   xmlns:svg="http://www.w3.org/2000/svg"
   xmlns="http://www.w3.org/2000/svg"
   xmlns:sodipodi="http://sodipodi.sourceforge.net/DTD/sodipodi-0.dtd"
   xmlns:inkscape="http://www.inkscape.org/namespaces/inkscape"
   version="1.1"
   id="svg4390"
   viewBox="0 0 511.99998 511.99999"
   height="512"
   width="512"
   inkscape:version="0.91 r13725"
   sodipodi:docname="vudu.svg">
  <sodipodi:namedview
     pagecolor="#ffffff"
     bordercolor="#666666"
     borderopacity="1"
     objecttolerance="10"
     gridtolerance="10"
     guidetolerance="10"
     inkscape:pageopacity="0"
     inkscape:pageshadow="2"
     inkscape:window-width="1366"
     inkscape:window-height="706"
     id="namedview12"
     showgrid="false"
     units="px"
     inkscape:zoom="0.34883932"
     inkscape:cx="386.4811"
     inkscape:cy="-78.81493"
     inkscape:window-x="-8"
     inkscape:window-y="-8"
     inkscape:window-maximized="1"
     inkscape:current-layer="svg4390" />
  <defs
     id="defs4392" />
  <metadata
     id="metadata4395">
    <rdf:RDF>
      <cc:Work
         rdf:about="">
        <dc:format>image/svg+xml</dc:format>
        <dc:type
           rdf:resource="http://purl.org/dc/dcmitype/StillImage" />
        <dc:title></dc:title>
      </cc:Work>
    </rdf:RDF>
  </metadata>
  <path
     id="path4166"
     style="fill:#ffffff;fill-opacity:1;fill-rule:nonzero;stroke:none"
     d="m 487.89208,0.08928909 c -31.12494,-0.0894921976 -50.4029,-0.0186442 -81.22521,-0.0186442 l -0.43665,0 -0.38109,0 -0.036,0 -0.0541,0 c -14.1442,0.15661137 -26.13689,8.98893361 -30.93396,21.65407011 -0.5272,0.684119 -0.88499,1.513103 -1.14323,2.286464 C 342.68019,112.2863 315.65743,188.13163 284.6894,276.474 c -8.13709,23.29041 -16.21813,46.4912 -24.51214,69.78168 -0.66173,1.82694 -2.38733,4.18065 -4.18063,4.70741 -3.57539,1.00871 -3.65384,-2.79079 -4.41599,-4.9652 C 232.24663,290.92121 212.97987,235.85578 193.66829,180.85753 173.82993,124.34625 157.39883,77.406647 137.52684,20.839302 137.33674,20.222178 137.04533,19.60636 136.58536,18.956299 131.14942,7.770642 119.63869,0.07064488 106.36829,0.07064488 c -0.36941,0 -0.73974,0 -1.00873,0.0186442 -31.360307,-0.0894921976 -49.752827,-0.14542485 -81.539041,0 C 13.318515,0.14522172 8.1627818,7.8341566 11.637298,17.674882 59.462325,150.99541 107.15286,284.28232 154.92184,417.43468 c 3.60901,9.99764 6.73608,18.90808 9.84072,27.52712 18.19077,42.13132 45.88603,64.18891 94.75341,67.01332 14.39122,0 11.11845,0.0249 11.11845,0.0249 15.94915,-0.5382 33.89334,-2.97015 54.29211,-7.06106 l 33.88213,-96.61381 c 47.231,-130.48486 93.24031,-257.5625 141.11017,-389.963935 0.54877,-1.524288 1.12081,-3.003768 1.38981,-4.572927 1.07598,-7.8456709 -4.53929,-13.69628657 -13.41612,-13.69628657"
     inkscape:connector-curvature="0" />
</svg>
