<?xml version="1.0" encoding="iso-8859-1"?>
<!-- Generator: Adobe Illustrator 16.0.0, SVG Export Plug-In . SVG Version: 6.00 Build 0)  -->
<!DOCTYPE svg PUBLIC "-//W3C//DTD SVG 1.1//EN" "http://www.w3.org/Graphics/SVG/1.1/DTD/svg11.dtd">
<svg xmlns="http://www.w3.org/2000/svg" xmlns:xlink="http://www.w3.org/1999/xlink" version="1.1" id="Capa_1" x="0px" y="0px" width="512px" height="512px" viewBox="0 0 960.301 960.301" style="enable-background:new 0 0 960.301 960.301;" xml:space="preserve">
<g>
	<path d="M45.6,887.882l156-95.101c9.4-5.7,20.2-8.8,31.2-8.8h667.5c33.1,0,60-26.9,60-60v-596c0-33.1-26.9-60-60-60H60   c-33.1,0-60,26.9-60,60v734.3C0,885.682,25.6,900.081,45.6,887.882z M163.4,244.582h633.401c16.6,0,30,13.4,30,30s-13.4,30-30,30   H163.4c-16.6,0-30-13.4-30-30S146.9,244.582,163.4,244.582z M163.4,387.881h633.401c16.6,0,30,13.4,30,30c0,16.6-13.4,30-30,30   H163.4c-16.6,0-30-13.4-30-30C133.4,401.281,146.9,387.881,163.4,387.881z M163.4,531.182h316.7c16.599,0,30,13.399,30,30   c0,16.6-13.4,30-30,30H163.4c-16.6,0-30-13.4-30-30C133.4,544.581,146.9,531.182,163.4,531.182z" fill="#FFFFFF"/>
</g>
<g>
</g>
<g>
</g>
<g>
</g>
<g>
</g>
<g>
</g>
<g>
</g>
<g>
</g>
<g>
</g>
<g>
</g>
<g>
</g>
<g>
</g>
<g>
</g>
<g>
</g>
<g>
</g>
<g>
</g>
</svg>
