<?xml version="1.0" encoding="UTF-8" standalone="no"?>
<svg
   xmlns:dc="http://purl.org/dc/elements/1.1/"
   xmlns:cc="http://creativecommons.org/ns#"
   xmlns:rdf="http://www.w3.org/1999/02/22-rdf-syntax-ns#"
   xmlns:svg="http://www.w3.org/2000/svg"
   xmlns="http://www.w3.org/2000/svg"
   xmlns:sodipodi="http://sodipodi.sourceforge.net/DTD/sodipodi-0.dtd"
   xmlns:inkscape="http://www.inkscape.org/namespaces/inkscape"
   viewBox="0 0 512 512"
   height="512"
   width="512"
   xml:space="preserve"
   version="1.1"
   id="svg2"
   inkscape:version="0.91 r13725"
   sodipodi:docname="windows-phone-store-logo-vector.svg"><sodipodi:namedview
     pagecolor="#ffffff"
     bordercolor="#666666"
     borderopacity="1"
     objecttolerance="10"
     gridtolerance="10"
     guidetolerance="10"
     inkscape:pageopacity="0"
     inkscape:pageshadow="2"
     inkscape:window-width="1366"
     inkscape:window-height="706"
     id="namedview114"
     showgrid="false"
     inkscape:zoom="0.55942745"
     inkscape:cx="203.86638"
     inkscape:cy="321.77909"
     inkscape:window-x="-8"
     inkscape:window-y="-8"
     inkscape:window-maximized="1"
     inkscape:current-layer="g10" /><metadata
     id="metadata8"><rdf:RDF><cc:Work
         rdf:about=""><dc:format>image/svg+xml</dc:format><dc:type
           rdf:resource="http://purl.org/dc/dcmitype/StillImage" /><dc:title></dc:title></cc:Work></rdf:RDF></metadata><defs
     id="defs6" /><g
     transform="matrix(1.25,0,0,-1.25,0,512.00002)"
     id="g10"><g
       id="g3549"
       transform="matrix(4.7142304,0,0,4.7142304,-464.87293,-993.3341)"><path
         id="path162"
         style="fill:#ffffff;fill-opacity:1;fill-rule:nonzero;stroke:none"
         d="m 140.704,289.013 c -3.688,-1.296 -6.383,-2.403 -6.383,-9.445 l 0,-3.39 2.209,0.446 0,2.927 c -0.055,4.777 1.186,5.776 4.409,7.166 -0.014,0.903 -0.094,1.666 -0.235,2.296"
         inkscape:connector-curvature="0" /><path
         id="path164"
         style="fill:#ffffff;fill-opacity:1;fill-rule:nonzero;stroke:none"
         d="m 147.125,290.52 c 0.146,-0.681 0.263,-1.424 0.341,-2.22 5.773,0.83 5.662,-1.551 5.662,-6.523 l 0,-1.837 2.185,0.448 0,1.389 c 0,7.72 -1.206,9.788 -8.188,8.743"
         inkscape:connector-curvature="0" /><path
         id="path166"
         style="fill:#ffffff;fill-opacity:1;fill-rule:nonzero;stroke:none"
         d="m 124.375,274.19 0,10.154 c -0.07,6.29 3.179,8.215 9.176,9.622 9.034,2.119 9.609,-3.706 9.609,-7.411 l 0,-8.607 2.212,0.447 0,7.97 c -0.023,7.013 -2.209,12.264 -12.263,9.985 -5.414,-1.228 -10.942,-2.609 -10.942,-11.797 l 0,-10.802 2.208,0.439"
         inkscape:connector-curvature="0" /><path
         id="path168"
         style="fill:#ffffff;fill-opacity:1;fill-rule:nonzero;stroke:none"
         d="m 150.839,247.505 -17.001,0 0,12.3 17.001,2.49 0,-14.79 z m 0,-17.385 -17.001,2.485 0,13.201 17.001,0 0,-15.686 z m -18.694,17.385 -13.486,0 0,10.296 13.486,1.905 0,-12.201 z m 0,-14.794 -13.486,1.901 0,11.194 13.486,0 0,-13.095 z m 34.223,47.212 -60.777,-12.153 0,-44.202 60.777,-12.152 12.148,4.418 0,59.67 -12.148,4.419"
         inkscape:connector-curvature="0" /></g></g></svg>