<?xml version="1.0" encoding="UTF-8" standalone="no"?>
<svg
   xmlns:dc="http://purl.org/dc/elements/1.1/"
   xmlns:cc="http://creativecommons.org/ns#"
   xmlns:rdf="http://www.w3.org/1999/02/22-rdf-syntax-ns#"
   xmlns:svg="http://www.w3.org/2000/svg"
   xmlns="http://www.w3.org/2000/svg"
   version="1.1"
   id="svg2"
   viewBox="0 0 512.00001 512.00001"
   height="512"
   width="512">
  <defs
     id="defs4" />
  <metadata
     id="metadata7">
    <rdf:RDF>
      <cc:Work
         rdf:about="">
        <dc:format>image/svg+xml</dc:format>
        <dc:type
           rdf:resource="http://purl.org/dc/dcmitype/StillImage" />
        <dc:title></dc:title>
      </cc:Work>
    </rdf:RDF>
  </metadata>
  <g
     transform="translate(0,-540.36216)"
     id="layer1">
    <path
       style="fill:#ffffff"
       d="m 229.0327,1001.5694 c -19.30686,-35.98472 -26.33769,-48.23339 -27.81947,-48.46514 -1.16894,-0.18286 -21.68345,11.09325 -49.97485,27.46928 -26.39556,15.27866 -48.44596,27.77946 -49.00089,27.77946 -0.55493,0 -0.77629,-1.0207 -0.4919,-2.2681 1.17857,-5.1699 15.6501,-108.01484 15.6501,-111.22073 0,-2.67078 -0.53134,-3.70471 -2.2681,-4.41346 -1.24746,-0.50907 -24.722353,-4.65329 -52.166431,-9.20936 -27.444078,-4.55608 -50.310927,-8.64773 -50.815223,-9.09253 -0.509558,-0.44945 16.647684,-18.54136 38.620446,-40.72433 27.705838,-27.97091 39.443173,-40.4718 39.222673,-41.7743 C 89.815994,788.6279 73.797664,772.71586 54.39276,754.2901 34.987857,735.86434 18.97368,720.43736 18.805709,720.00793 c -0.167971,-0.42944 1.192893,-1.10641 3.024141,-1.50436 44.928017,-9.76362 94.14926,-21.73072 95.18059,-23.14113 0.68111,-0.93149 1.04455,-3.12885 0.80761,-4.88302 -1.04966,-7.77143 -7.55042,-93.01251 -7.27801,-95.43269 l 0.30335,-2.69504 47.75823,19.69977 c 47.11498,19.43442 47.78027,19.67221 49.3943,17.65413 0.89984,-1.1251 12.9766,-21.13812 26.83724,-44.47338 13.86065,-23.33525 25.42799,-42.2139 25.7052,-41.95255 0.27721,0.26134 10.96245,20.03562 23.74497,43.94283 12.78252,23.9072 23.93249,43.90386 24.77773,44.43702 1.12533,0.70984 14.67549,-4.10215 50.61137,-17.97334 26.99102,-10.4185 49.31307,-18.70424 49.60455,-18.41275 0.29148,0.29148 -1.06411,23.94131 -3.01244,52.55517 -1.94832,28.61386 -3.29384,52.67297 -2.99002,53.4647 0.70622,1.84037 -2.3586,1.20897 49.29678,10.15591 24.39474,4.22528 44.93158,7.87911 45.63742,8.11963 0.76285,0.25995 -12.01359,16.39563 -31.50147,39.78398 -18.03165,21.64067 -32.76778,39.90913 -32.74695,40.59659 0.0208,0.68745 14.94857,19.84838 33.17277,42.57984 18.22421,22.73146 32.95251,41.51628 32.72955,41.74406 -0.22295,0.22778 -22.03932,3.05648 -48.48081,6.28602 -26.4415,3.22953 -48.50726,6.30369 -49.03505,6.83147 -0.60743,0.60743 -0.51219,20.25507 0.25951,53.53659 0.67051,28.91734 1.01501,52.78112 0.76557,53.03052 -0.24943,0.2495 -20.90515,-10.03389 -45.90159,-22.85181 -27.49403,-14.09865 -46.30009,-23.17621 -47.60485,-22.97843 -1.68606,0.25564 -7.74091,10.22623 -27.74252,45.68384 -14.07216,24.9463 -25.96102,45.4821 -26.41969,45.635 -0.45867,0.1529 -12.4604,-21.3918 -26.67049,-47.8771 z m 32.47963,-46.09785 c 0.67146,-0.80905 12.87849,-19.47055 27.12672,-41.46998 l 25.90588,-39.99896 47.78854,-13.30249 c 31.16914,-8.6763 48.13845,-13.85724 48.79471,-14.89762 0.80391,-1.27446 -5.02792,-9.10226 -29.00938,-38.93798 l -30.01558,-37.34286 1.09176,-42.85994 c 1.48796,-58.41449 1.45081,-65.00239 -0.37046,-65.70128 -0.80422,-0.30861 -23.04814,7.91077 -49.43096,18.26528 l -47.96875,18.8264 -45.83506,-18.33937 c -27.48041,-10.99535 -46.5006,-18.08396 -47.49704,-17.70159 -1.49466,0.57355 -1.60201,2.63954 -1.06629,20.51866 0.32765,10.93449 1.59831,33.10486 2.82369,49.26748 l 2.22798,29.38658 -29.03895,36.64049 c -15.97143,20.15227 -29.74102,37.46088 -30.59911,38.46359 -1.09414,1.27851 -1.2677,2.28673 -0.58107,3.37528 0.54623,0.86595 21.87936,8.78967 48.25292,17.92246 l 47.27381,16.37025 13.58651,20.07231 c 7.47258,11.03977 20.12216,29.71176 28.11016,41.49331 7.98801,11.78158 15.12788,21.42103 15.8664,21.42103 0.7385,0 1.89211,-0.66199 2.56357,-1.47105 z m -63.47288,-138.64751 0,-18.14484 57.45867,0 57.45868,0 0,18.14484 0,18.14485 -57.45868,0 -57.45867,0 0,-18.14485 z m 0,-59.97879 0,-17.64082 57.45867,0 57.45868,0 0,17.64082 0,17.64082 -57.45868,0 -57.45867,0 0,-17.64082 z"
       id="path3367" />
  </g>
</svg>
