<?xml version="1.0" encoding="UTF-8" standalone="no"?>
<svg
   xmlns:dc="http://purl.org/dc/elements/1.1/"
   xmlns:cc="http://creativecommons.org/ns#"
   xmlns:rdf="http://www.w3.org/1999/02/22-rdf-syntax-ns#"
   xmlns:svg="http://www.w3.org/2000/svg"
   xmlns="http://www.w3.org/2000/svg"
   version="1.1"
   id="svg4261"
   viewBox="0 0 512.00001 512.00001"
   height="512"
   width="512">
  <defs
     id="defs4263" />
  <metadata
     id="metadata4266">
    <rdf:RDF>
      <cc:Work
         rdf:about="">
        <dc:format>image/svg+xml</dc:format>
        <dc:type
           rdf:resource="http://purl.org/dc/dcmitype/StillImage" />
        <dc:title></dc:title>
      </cc:Work>
    </rdf:RDF>
  </metadata>
  <g
     transform="translate(0,-540.36216)"
     id="layer1">
    <g
       style="fill:#ffffff"
       id="word"
       transform="matrix(5.8165455,0,0,5.9534884,-122.23975,540.36216)">
      <path
         style="fill:#ffffff"
         id="path5"
         transform="scale(0.8,0.8)"
         d="m 83.775391,0 c -19.1625,3.4125 -38.3375,6.6753902 -57.5,10.025391 0,29.15 -0.0125,58.312109 0,87.474609 19.0625,3.3375 38.137109,6.525 57.162109,10 l 7.8125,0 0,-10 c 12.5125,0 25.01289,-0.02539 37.52539,0.03711 2.125,-0.1 4.4875,0.06367 6.3125,-1.236328 1.4625,-2.2375 1.08789,-5.0375 1.21289,-7.5625 -0.175,-24.625 0.0875,-49.263672 -0.125,-73.888672 0.2625,-2.85 -1.97617,-5.0628905 -4.82617,-4.77539 C 117.98711,9.8617185 104.625,10.075 91.25,10 l 0,-10 -7.474609,0 z M 91.25,13.75 l 41.25,0 0,80 -41.25,0 0,-10 32.5,0 0,-5 -32.5,0 0,-6.25 32.5,0 0,-5 -32.5,0 0,-6.25 32.5,0 0,-5 -32.5,0 0,-6.25 32.5,0 0,-5 -32.5,0 0,-6.25 32.5,0 0,-5 -32.5,0 0,-6.25 32.5,0 0,-5 -32.5,0 0,-8.75 z M 76.363281,34.375 c -2.825,12.1125 -5.301172,24.325781 -8.388672,36.363281 -2.0875,1.0875 -5.2125,-0.05 -7.6875,0.125 -1.6625,-8.275 -3.60039,-16.5 -5.08789,-24.8125 -1.4625,8.075 -3.36211,16.07461 -5.03711,24.09961 -2.4,-0.125 -4.812109,-0.275 -7.224609,-0.4375 -2.075,-11 -4.511719,-21.926172 -6.449219,-32.951172 2.1375,-0.1 4.286328,-0.186719 6.423828,-0.261719 1.2875,7.9625 2.75,15.888281 3.875,23.863281 1.7625,-8.175 3.5625,-16.35039 5.3125,-24.52539 2.375,-0.1375 4.75,-0.238282 7.125,-0.363282 1.6625,8.4375 3.36211,16.863672 5.16211,25.263672 C 65.799219,52.063281 67.3625,43.4125 68.875,34.75 c 2.5,-0.0875 5.000781,-0.225 7.488281,-0.375 z" />
    </g>
  </g>
</svg>
