<?xml version="1.0" encoding="UTF-8" standalone="no"?>
<!-- Created with Inkscape (http://www.inkscape.org/) -->

<svg
   xmlns:dc="http://purl.org/dc/elements/1.1/"
   xmlns:cc="http://creativecommons.org/ns#"
   xmlns:rdf="http://www.w3.org/1999/02/22-rdf-syntax-ns#"
   xmlns:svg="http://www.w3.org/2000/svg"
   xmlns="http://www.w3.org/2000/svg"
   xmlns:sodipodi="http://sodipodi.sourceforge.net/DTD/sodipodi-0.dtd"
   xmlns:inkscape="http://www.inkscape.org/namespaces/inkscape"
   id="svg4136"
   version="1.1"
   inkscape:version="0.91 r13725"
   width="512"
   height="512"
   viewBox="0 0 512.00001 511.99999"
   sodipodi:docname="xbox.svg">
  <title
     id="title4166">Xbox Logo</title>
  <metadata
     id="metadata4142">
    <rdf:RDF>
      <cc:Work
         rdf:about="">
        <dc:format>image/svg+xml</dc:format>
        <dc:type
           rdf:resource="http://purl.org/dc/dcmitype/StillImage" />
        <dc:title>Xbox Logo</dc:title>
      </cc:Work>
    </rdf:RDF>
  </metadata>
  <defs
     id="defs4140" />
  <sodipodi:namedview
     pagecolor="#ffffff"
     bordercolor="#666666"
     borderopacity="1"
     objecttolerance="10"
     gridtolerance="10"
     guidetolerance="10"
     inkscape:pageopacity="0"
     inkscape:pageshadow="2"
     inkscape:window-width="1366"
     inkscape:window-height="706"
     id="namedview4138"
     showgrid="false"
     inkscape:zoom="0.79120787"
     inkscape:cx="239.42832"
     inkscape:cy="219.94307"
     inkscape:window-x="-8"
     inkscape:window-y="-8"
     inkscape:window-maximized="1"
     inkscape:current-layer="g4146"
     fit-margin-top="0"
     fit-margin-left="0"
     fit-margin-right="0"
     fit-margin-bottom="0" />
  <g
     id="g4146"
     transform="translate(-1.5706619,151.78465)">
    <path
       style="fill:#ffffff"
       d="M 232.04181,359.16254 C 192.60298,355.38736 152.67365,341.23163 118.37278,318.86462 89.629679,300.12176 83.138837,292.41688 83.138837,277.04056 c 0,-30.88611 33.978463,-84.98246 92.113543,-146.6519 33.01673,-35.024002 79.00683,-76.077277 83.98053,-74.965582 9.66737,2.160809 86.96833,77.520932 115.90632,112.996172 45.7605,56.09802 66.79798,102.03004 56.11031,122.50806 -8.12436,15.56661 -58.53611,45.99115 -95.57198,57.67968 -30.5244,9.63349 -70.61277,13.71658 -103.63575,10.55555 z M 44.317979,244.92786 C 20.433094,208.30531 8.3656653,172.25087 2.539436,120.10406 0.61560099,102.88498 1.3050038,93.035878 6.9079633,57.693289 13.891255,13.643729 38.990456,-37.315863 69.149499,-68.677444 c 12.844968,-13.357128 13.992157,-13.68256 29.649323,-8.410938 19.013758,6.401754 39.318928,20.417534 70.809378,48.876633 l 18.37327,16.604622 -10.03312,12.31900626 C 131.37431,57.897115 82.20873,138.95523 63.67972,189.10384 c -10.073112,27.26279 -14.13598,54.62943 -9.801814,66.02291 2.926212,7.69227 0.238409,4.82482 -9.559927,-10.19889 z m 419.253531,6.22876 c 2.35954,-11.51217 -0.62479,-32.65519 -7.61919,-53.97971 C 440.80458,150.99463 390.17363,65.080328 343.68108,6.6669384 L 329.04532,-11.72149 344.87943,-26.252702 c 20.67467,-18.973468 35.0291,-30.334483 50.51722,-39.982495 12.22196,-7.613438 29.68738,-14.353205 37.19485,-14.353205 4.62855,0 20.92343,16.901254 34.07786,35.345985 20.37347,28.567055 35.36157,63.196591 42.95509,99.246316 4.90639,23.29289 5.31527,73.151891 0.79042,96.387461 -3.71339,19.06854 -11.55417,43.8033 -19.20315,60.57865 -5.73124,12.56947 -19.98566,36.98108 -26.23233,44.92453 -3.21154,4.08386 -3.21418,4.07496 -1.40789,-4.73792 z M 236.26446,-89.309117 c -21.45175,-10.887553 -54.54502,-22.574673 -72.82588,-25.718963 -6.40875,-1.1023 -17.34119,-1.71706 -24.2943,-1.36614 -15.08303,0.76124 -14.40935,-0.0271 9.7869,-11.45236 20.11632,-9.49877 36.8961,-15.08448 59.67487,-19.86476 25.62445,-5.37747 73.78927,-5.44058 99.00574,-0.12973 27.23592,5.73617 59.30711,17.66444 77.37887,28.77961 l 5.37113,3.30355 -12.32324,-0.62196 c -24.48848,-1.23593 -60.17716,8.65198 -98.49373,27.288681 -11.55726,5.621312 -21.61182,10.110898 -22.34348,9.976854 -0.73164,-0.134042 -10.15323,-4.721696 -20.93688,-10.194786 z"
       id="path4148"
       inkscape:connector-curvature="0" />
  </g>
</svg>
