<?xml version="1.0" encoding="UTF-8" standalone="no"?>
<svg
   xmlns:dc="http://purl.org/dc/elements/1.1/"
   xmlns:cc="http://creativecommons.org/ns#"
   xmlns:rdf="http://www.w3.org/1999/02/22-rdf-syntax-ns#"
   xmlns:svg="http://www.w3.org/2000/svg"
   xmlns="http://www.w3.org/2000/svg"
   version="1.1"
   id="svg2"
   viewBox="0 0 512.00001 512.00001"
   height="512"
   width="512">
  <defs
     id="defs4" />
  <metadata
     id="metadata7">
    <rdf:RDF>
      <cc:Work
         rdf:about="">
        <dc:format>image/svg+xml</dc:format>
        <dc:type
           rdf:resource="http://purl.org/dc/dcmitype/StillImage" />
        <dc:title></dc:title>
      </cc:Work>
    </rdf:RDF>
  </metadata>
  <g
     transform="translate(0,-540.36216)"
     id="layer1">
    <g
       transform="translate(-102.54848,32.777105)"
       id="text3410"
       style="font-style:normal;font-weight:normal;font-size:202.11564636px;line-height:125%;font-family:sans-serif;letter-spacing:0px;word-spacing:0px;fill:#ffffff;fill-opacity:1;stroke:none;stroke-width:1px;stroke-linecap:butt;stroke-linejoin:miter;stroke-opacity:1">
      <path
         id="path3415"
         style="font-style:normal;font-variant:normal;font-weight:bold;font-stretch:normal;font-family:sans-serif;-inkscape-font-specification:'sans-serif Bold';fill:#ffffff"
         d="m 232.62098,838.83563 -41.4495,0 -23.68543,-33.1596 -24.27756,33.1596 -40.65999,0 43.71935,-55.36468 -43.02852,-55.46338 41.4495,0 23.29067,32.56746 23.38936,-32.56746 40.75867,0 -43.12722,54.57517 43.62067,56.25289 z" />
      <path
         id="path3417"
         style="font-style:normal;font-variant:normal;font-weight:bold;font-stretch:normal;font-family:sans-serif;-inkscape-font-specification:'sans-serif Bold';fill:#ffffff"
         d="m 369.79907,838.83563 -41.35081,0 -31.08712,-48.25906 -9.67155,11.74403 0,36.51503 -35.52814,0 0,-153.56052 35.52814,0 0,91.68234 38.29144,-48.94988 40.95605,0 -39.87047,47.76561 42.73246,63.06245 z" />
      <path
         id="path3419"
         style="font-style:normal;font-variant:normal;font-weight:bold;font-stretch:normal;font-family:sans-serif;-inkscape-font-specification:'sans-serif Bold';fill:#ffffff"
         d="m 445.69111,841.79631 q -14.50733,0 -26.54742,-3.45412 -11.9414,-3.45413 -20.82344,-10.65845 -8.78334,-7.20431 -13.61912,-18.15882 -4.83577,-10.95451 -4.83577,-25.65922 0,-15.49421 5.13184,-26.74479 5.23053,-11.25058 14.50733,-18.65228 8.98072,-7.00693 20.72474,-10.26368 11.74403,-3.25675 24.37626,-3.25675 11.34926,0 20.92212,2.46723 9.57286,2.46724 17.86276,6.41481 l 0,30.29761 -5.03315,0 q -2.07247,-1.77641 -5.03315,-4.14495 -2.86199,-2.36855 -7.10563,-4.6384 -4.04626,-2.17116 -8.88204,-3.55281 -4.83577,-1.48034 -11.25057,-1.48034 -14.21126,0 -21.90902,9.07941 -7.59908,8.98073 -7.59908,24.47494 0,15.98767 7.79645,24.27757 7.89515,8.2899 22.30378,8.2899 6.71087,0 12.04009,-1.48034 5.42791,-1.57903 8.98073,-3.65151 3.35543,-1.97378 5.92136,-4.14495 2.56592,-2.17116 4.73708,-4.24364 l 5.03315,0 0,30.29761 q -8.38858,3.94757 -17.56669,6.21743 -9.07941,2.36854 -20.13261,2.36854 z" />
      <path
         id="path3421"
         style="font-style:normal;font-variant:normal;font-weight:bold;font-stretch:normal;font-family:sans-serif;-inkscape-font-specification:'sans-serif Bold';fill:#ffffff"
         d="m 614.54847,838.83563 -35.52814,0 0,-11.54664 q -9.1781,7.50038 -17.17193,11.0532 -7.99383,3.55281 -18.4549,3.55281 -20.2313,0 -32.37008,-15.59291 -12.13878,-15.5929 -12.13878,-42.04163 0,-14.11257 4.04626,-24.96839 4.14495,-10.95451 11.25058,-18.75096 6.71087,-7.4017 16.28373,-11.44796 9.57286,-4.14495 19.14572,-4.14495 9.96761,0 16.28373,2.17117 6.4148,2.07247 13.12567,5.32922 l 0,-47.17348 35.52814,0 0,153.56052 z m -35.52814,-30.59367 0,-54.3778 q -3.75019,-1.57903 -7.89514,-2.26985 -4.14495,-0.69083 -7.59907,-0.69083 -14.01388,0 -21.02082,8.78335 -7.00694,8.68466 -7.00694,24.17887 0,16.28373 5.62529,23.68543 5.62529,7.30301 18.06014,7.30301 4.83577,0 10.26368,-1.77641 5.42791,-1.8751 9.57286,-4.83577 z" />
    </g>
  </g>
</svg>
