<?xml version="1.0" encoding="UTF-8" standalone="no"?>
<svg
   xmlns:dc="http://purl.org/dc/elements/1.1/"
   xmlns:cc="http://creativecommons.org/ns#"
   xmlns:rdf="http://www.w3.org/1999/02/22-rdf-syntax-ns#"
   xmlns:svg="http://www.w3.org/2000/svg"
   xmlns="http://www.w3.org/2000/svg"
   xmlns:sodipodi="http://sodipodi.sourceforge.net/DTD/sodipodi-0.dtd"
   xmlns:inkscape="http://www.inkscape.org/namespaces/inkscape"
   version="1.1"
   id="svg4198"
   viewBox="0 0 511.99999 511.99999"
   height="512"
   width="512"
   inkscape:version="0.91 r13725"
   sodipodi:docname="zoho.svg">
  <sodipodi:namedview
     pagecolor="#ffffff"
     bordercolor="#666666"
     borderopacity="1"
     objecttolerance="10"
     gridtolerance="10"
     guidetolerance="10"
     inkscape:pageopacity="0"
     inkscape:pageshadow="2"
     inkscape:window-width="643"
     inkscape:window-height="480"
     id="namedview7"
     showgrid="false"
     units="px"
     inkscape:zoom="0.52034722"
     inkscape:cx="303.4906"
     inkscape:cy="282.17796"
     inkscape:window-x="0"
     inkscape:window-y="0"
     inkscape:window-maximized="0"
     inkscape:current-layer="svg4198" />
  <defs
     id="defs4200" />
  <metadata
     id="metadata4203">
    <rdf:RDF>
      <cc:Work
         rdf:about="">
        <dc:format>image/svg+xml</dc:format>
        <dc:type
           rdf:resource="http://purl.org/dc/dcmitype/StillImage" />
        <dc:title></dc:title>
      </cc:Work>
    </rdf:RDF>
  </metadata>
  <g
     transform="matrix(0.28345382,0,0,0.28345382,-1.11716,214.82103)"
     id="layer1">
    <path
       style="fill:#ffffff"
       id="path66"
       d="m 1538.1484,642.42031 c -14.6759,-18.34482 -36.6897,-31.18619 -62.3724,-40.3586 -25.6828,-9.17241 -56.869,-12.84137 -95.3931,-12.84137 -34.8551,0 -75.2137,3.66896 -119.2413,11.00689 l -517.32387,88.05512 c 5.50344,-40.3586 25.68274,-91.72409 60.5379,-155.93095 38.52412,-71.54479 97.22753,-157.76544 172.44129,-256.82745 l 0,0 c 25.68278,-34.85516 45.86208,-60.5379 60.53788,-78.88272 9.1724,-12.84137 23.8483,-29.35171 42.1931,-53.19997 119.2413,-155.930957 190.7861,-282.5102 220.1378,-381.57222 16.5104,-56.86893 25.6828,-113.73787 29.3517,-170.60681 1.8345,-16.51033 1.8345,-31.18619 1.8345,-45.86204 0,-40.3586 -3.669,-80.7172 -11.0069,-121.0758 -5.5034,-36.68964 -14.6758,-66.04135 -27.5172,-89.88961 -12.8414,-23.84819 -27.5172,-42.19301 -45.8621,-53.1999 -20.1793,-12.84137 -51.3654,-18.34482 -89.8896,-18.34482 -31.1862,0 -69.7103,3.66897 -115.5723,11.00689 l -598.04109,102.73091 c -71.54479,12.84137 -126.57924,33.02067 -159.59991,66.04135 -27.51723,25.68274 -40.3586,58.70341 -40.3586,95.39305 0,9.17241 0,20.1793 1.83448,31.18619 9.17241,51.36549 34.85515,88.05513 77.04823,106.39995 25.68275,11.00689 55.03446,16.51033 91.72409,16.51033 23.84827,0 51.36549,-1.83448 80.7172,-7.33792 l 498.97905,-88.05513 c 0,9.17241 1.83449,18.34482 1.83449,25.68274 0,31.18619 -5.50345,62.37239 -16.51034,91.72409 -14.67585,42.19309 -51.36549,100.8965 -111.90339,176.11026 -16.51034,20.179298 -42.19308,53.19997 -77.04824,95.393052 C 653.92812,148.9447 558.53507,288.36532 499.83165,403.93767 l 0,0 c -42.19308,80.7172 -69.71031,157.76544 -86.22065,236.64816 -9.1724,45.86204 -14.67585,88.05512 -14.67585,130.2482 0,29.35171 1.83448,58.70342 7.33793,86.22065 7.33792,40.3586 16.51033,73.37927 29.35171,99.06202 12.84137,25.68274 31.18619,45.862 51.36549,56.8689 20.1793,11.0069 47.69652,14.6759 88.05512,14.6759 49.53101,0 117.40684,-7.3379 203.62748,-22.0138 l 543.00662,-93.55857 c 95.3931,-16.51033 163.2689,-40.3586 201.793,-71.54479 31.1862,-25.68274 47.6965,-60.5379 47.6965,-100.8965 0,-11.00689 -1.8345,-22.01378 -3.6689,-33.02067 -3.669,-23.84826 -12.8414,-45.86204 -29.3517,-64.20686 l 0,0 0,0 z"
       inkscape:connector-curvature="0" />
  </g>
</svg>
