<?xml version="1.0" encoding="UTF-8" standalone="no"?>
<svg
   xmlns:dc="http://purl.org/dc/elements/1.1/"
   xmlns:cc="http://creativecommons.org/ns#"
   xmlns:rdf="http://www.w3.org/1999/02/22-rdf-syntax-ns#"
   xmlns:svg="http://www.w3.org/2000/svg"
   xmlns="http://www.w3.org/2000/svg"
   xmlns:sodipodi="http://sodipodi.sourceforge.net/DTD/sodipodi-0.dtd"
   xmlns:inkscape="http://www.inkscape.org/namespaces/inkscape"
   id="svg2"
   preserveAspectRatio="xMidYMid meet"
   viewBox="0 0 409.6 409.6"
   height="512"
   width="512"
   version="1.0"
   inkscape:version="0.91 r13725"
   sodipodi:docname="logo.svg">
  <sodipodi:namedview
     pagecolor="#ffffff"
     bordercolor="#666666"
     borderopacity="1"
     objecttolerance="10"
     gridtolerance="10"
     guidetolerance="10"
     inkscape:pageopacity="0"
     inkscape:pageshadow="2"
     inkscape:window-width="1366"
     inkscape:window-height="706"
     id="namedview9"
     showgrid="false"
     inkscape:zoom="2.1023539"
     inkscape:cx="183.46226"
     inkscape:cy="252.81467"
     inkscape:window-x="-8"
     inkscape:window-y="-8"
     inkscape:window-maximized="1"
     inkscape:current-layer="g4188" />
  <defs
     id="defs12" />
  <metadata
     id="metadata4">
Created by potrace 1.13, written by Peter Selinger 2001-2015
<rdf:RDF>
  <cc:Work
     rdf:about="">
    <dc:format>image/svg+xml</dc:format>
    <dc:type
       rdf:resource="http://purl.org/dc/dcmitype/StillImage" />
    <dc:title />
  </cc:Work>
</rdf:RDF>
</metadata>
  <g
     transform="matrix(1.1130435,0,0,1.1130435,-23.151307,-23.151307)"
     id="g4188">
    <path
       style="opacity:1;fill:#363f45;fill-opacity:1;fill-rule:evenodd;stroke:none;stroke-opacity:1"
       d="m 388.8,204.8 a 184,184 0 0 1 -184,184 A 184,184 0 0 1 20.800003,204.8 184,184 0 0 1 204.8,20.800003 184,184 0 0 1 388.8,204.8"
       id="path4157" />
    <path
       style="opacity:1;fill:#2196f3;fill-opacity:1;fill-rule:evenodd;stroke:none;stroke-opacity:1"
       d="M 368.8,204.8 A 164,164 0 0 1 204.8,368.80001 164,164 0 0 1 40.800003,204.8 164,164 0 0 1 204.8,40.800001 164,164 0 0 1 368.8,204.8"
       id="path4157-9" />
    <path
       style="fill:#363f45;fill-opacity:1"
       d="m 191.58755,334.21839 c -8.749,-2.06123 -15.05949,-7.30175 -19.55346,-16.23806 -3.07241,-6.1095 -5.02443,-13.13653 -7.92473,-28.52818 -2.69089,-16.12076 -4.38588,-19.14144 -12.1887,-5.12469 -5.29888,9.59922 -7.72275,17.10189 -7.72275,23.90436 0,7.29101 -1.65344,8.20379 -6.50727,3.5924 -10.80793,-10.26812 -11.31968,-30.98705 -1.38399,-56.03352 1.112,-2.80321 3.17719,-6.92694 4.58931,-9.16389 2.35385,-3.72874 2.43245,-4.16589 0.94471,-5.25377 -4.70346,-3.43925 -16.9466,6.02936 -22.19903,17.16827 -2.73776,5.80602 -5.89026,15.97779 -7.508,24.22523 -2.06528,10.52887 -4.84497,10.46194 -7.34732,-0.17688 -2.57509,-10.94814 -2.87653,-20.48403 -0.94766,-29.97815 3.50107,-17.23253 9.1412,-27.47848 20.83128,-37.84254 15.46921,-11.47782 -0.93365,-7.80605 -7.69252,-4.54134 -2.91833,1.46579 -9.40895,5.96511 -14.42365,9.99849 -7.849774,6.3137 -9.308403,7.14261 -10.489941,5.96108 -1.090417,-1.09042 -1.176654,-2.40413 -0.419756,-6.39522 2.11486,-11.15161 9.777097,-21.95551 26.061937,-36.74782 13.39501,-10.27881 22.61924,-26.49614 3.89763,-17.69373 -9.36747,4.44166 -17.99631,10.7749 -24.440076,17.93807 -6.60295,7.34015 -7.958708,5.49209 -5.922377,-8.07301 3.230766,-21.52184 14.367353,-34.74438 41.021083,-48.70457 4.69273,-2.45787 9.03999,-5.09282 9.66064,-5.85543 0.88551,-1.08803 0.49924,-2.57592 -1.79412,-6.91108 -3.90546,-9.45443 -4.07632,-19.08435 0.44396,-28.014548 5.35817,-10.415081 12.96347,-14.466972 14.36743,-7.654573 3.32044,13.960865 14.28502,13.075326 22.46676,13.781412 22.30156,1.292471 43.13016,10.476779 63.05906,19.570839 17.84166,8.21826 33.82741,11.01339 52.3791,9.15852 6.25758,-0.62565 12.79431,-1.63146 14.52605,-2.23516 4.1168,-1.43513 6.01726,0.0785 6.04842,4.81719 1.31337,14.50928 5.49523,28.97299 5.81124,43.69047 0,8.30431 -2.02878,16.62871 -5.21427,21.3951 -3.64848,5.48471 -5.15769,5.51144 -7.75905,0.1896 -3.88059,-8.09011 -8.45843,-8.91588 -35.60763,-6.42318 -11.62286,1.06715 -14.99462,1.06972 -19.4481,0.0147 -6.92402,-1.64027 -8.27316,-0.37579 -7.34113,6.88039 1.69583,13.20256 14.82524,25.80897 31.33552,30.08722 8.62766,2.23564 16.38509,1.93907 25.6244,-0.97961 5.66778,-1.79046 8.24481,-2.21014 8.99073,-1.46421 2.02912,2.02912 -5.56472,26.58751 -9.24939,29.91252 -10.55826,5.81185 -27.05559,-2.88334 -33.84095,-7.59104 -6.36901,-4.4541 -10.06264,-5.22701 -10.49985,-2.19714 -0.28421,1.96974 1.05128,3.88232 21.86801,31.31793 8.65373,11.40528 8.21046,13.62577 -1.8689,9.3618 -2.86409,-1.05155 -11.41267,-5.44488 -11.44407,-1.13408 5.06859,15.64535 21.54642,24.71936 34.27727,27.41901 3.89211,0.79896 3.39155,3.6398 -1.20226,6.82333 -11.78887,8.1697 -25.98518,4.24936 -55.92653,-15.44412 -10.13094,-6.66345 -13.34675,-5.83254 -10.75508,2.77896 1.58833,5.27761 4.66903,10.65868 11.76221,20.5451 10.07215,12.59619 2.19687,12.57031 -7.03006,9.36617 -15.16902,-5.3679 -24.65888,-14.21962 -35.20087,-27.74835 -16.90512,-17.68166 -5.92633,23.634 -1.37628,30.72265 3.83183,6.02619 -6.16079,3.8943 -7.73698,3.5271 z"
       id="path4186" />
  </g>
</svg>
