<?xml version="1.0" encoding="iso-8859-1"?>
<!-- Generator: Adobe Illustrator 18.0.0, SVG Export Plug-In . SVG Version: 6.00 Build 0)  -->
<!DOCTYPE svg PUBLIC "-//W3C//DTD SVG 1.1//EN" "http://www.w3.org/Graphics/SVG/1.1/DTD/svg11.dtd">
<svg xmlns="http://www.w3.org/2000/svg" xmlns:xlink="http://www.w3.org/1999/xlink" version="1.1" id="Capa_1" x="0px" y="0px" viewBox="0 0 332.736 332.736" style="enable-background:new 0 0 332.736 332.736;" xml:space="preserve" width="512px" height="512px">
<g>
	<rect x="105.351" y="33.12" width="92.031" height="10.177" fill="#FFFFFF"/>
	<rect x="105.351" y="58.562" width="92.031" height="10.177" fill="#FFFFFF"/>
	<path d="M319.141,296.834V70.918h-82.865l-10.484,5.825V5.915H76.941v85.179H13.596v205.74H0v29.987h332.736v-29.987H319.141z    M80.592,255.744H38.188v-23.989h42.404V255.744z M80.592,215.763H38.188v-23.991h42.404V215.763z M80.592,175.781H38.188v-23.988   h42.404V175.781z M80.592,135.799H38.188v-23.987h42.404V135.799z M160.551,255.744h-42.398v-23.989h42.398V255.744z    M160.551,215.763h-42.398v-23.991h42.398V215.763z M160.551,175.781h-42.398v-23.988h42.398V175.781z M160.551,135.799h-42.398   v-23.987h42.398V135.799z M211.979,84.417l-11.686,6.493v101.592v104.333H185.15V192.502V91.094H90.754V19.727h121.225V84.417z    M303.699,232.846h-51.977v-21.081h51.977V232.846z M303.699,192.865h-51.977v-21.082h51.977V192.865z M303.699,152.883h-51.977   v-21.082h51.977V152.883z M303.699,112.901h-51.977V91.821h51.977V112.901z" fill="#FFFFFF"/>
</g>
<g>
</g>
<g>
</g>
<g>
</g>
<g>
</g>
<g>
</g>
<g>
</g>
<g>
</g>
<g>
</g>
<g>
</g>
<g>
</g>
<g>
</g>
<g>
</g>
<g>
</g>
<g>
</g>
<g>
</g>
</svg>
