<?xml version="1.0" encoding="iso-8859-1"?>
<!-- Generator: Adobe Illustrator 16.0.0, SVG Export Plug-In . SVG Version: 6.00 Build 0)  -->
<!DOCTYPE svg PUBLIC "-//W3C//DTD SVG 1.1//EN" "http://www.w3.org/Graphics/SVG/1.1/DTD/svg11.dtd">
<svg xmlns="http://www.w3.org/2000/svg" xmlns:xlink="http://www.w3.org/1999/xlink" version="1.1" id="Capa_1" x="0px" y="0px" width="512px" height="512px" viewBox="0 0 106.166 106.166" style="enable-background:new 0 0 106.166 106.166;" xml:space="preserve">
<g>
	<path d="M104,10V0H2.166v10h2.34v86.166h-2.34v10H104v-10h-1.994V10H104z M9.506,96.166V10h13.5v54.708   c-1.721,1.384-3.301,2.972-4.708,4.685c-1.927,2.344-2.303,5.576,0,7.881c1.163,1.162,2.998,1.763,4.708,1.597v17.297L9.506,96.166   L9.506,96.166z M43.817,70.439c-1.3,1.502-2.986,2.33-4.748,2.33c-0.208,0-0.418-0.013-0.629-0.037   c-0.401-0.045-0.8-0.068-1.184-0.068c-1.513,0-2.848,0.365-4.088,1.01c1.024,9.318,2.131,22.088,2.131,22.088   c0,0.157,0.004,1.426,0.011,2.321h-0.07c-0.016-0.233-0.024-0.468-0.024-0.703c0,0-0.039-0.446-0.106-1.214h-7.104V75.199   c2.756-2.867,5.859-4.794,10.232-4.295c3.024,0.346,5.572-2.797,5.572-5.572c0-3.299-2.556-5.229-5.572-5.572   c-3.114-0.354-6.067,0.118-8.806,1.174c-0.021-0.369-0.068-0.722-0.152-1.045c3.1-1.189,6.309-1.644,9.5-1.279   c4.129,0.471,6.902,3.309,6.902,7.062C45.683,67.331,45.003,69.068,43.817,70.439z M46.677,47.556   c-0.056-0.007-0.115-0.004-0.171-0.009v-0.766c-1.906-0.801-3.605-1.988-5-3.472v5.149c-0.604,0.202-1.171,0.435-1.721,0.683   l-0.02-0.001c-0.563,0.093-1.445,0.633-2.495,1.434c-0.435,0.309-0.845,0.637-1.227,0.987c-2.661,2.236-5.935,5.52-8.038,7.693V10   h13.5v11.815c-2.4,2.604-3.879,6.071-3.879,9.894c0,7.924,6.31,14.359,14.178,14.594C49.986,46.413,48.257,46.841,46.677,47.556z    M46.506,18.264V10h13.5v9.34c-2.251-1.416-4.906-2.248-7.764-2.248C50.205,17.092,48.268,17.511,46.506,18.264z M66.857,31.709   c0-2.584-0.676-5.007-1.853-7.113V10h13.5v49.773l-5.796-5.209c-1.132-1.591-2.62-2.911-4.408-3.96l-0.021-0.021h-0.014   c-0.998-0.584-2.082-1.092-3.26-1.506v-8.804c-1.186,2.184-2.91,4.026-5,5.357v2.322c-0.164-0.001-0.329-0.003-0.488,0.009   c-1.879-1-4.002-1.599-6.256-1.688C60.857,45.747,66.857,39.437,66.857,31.709z M73.268,96.166c0-0.207,0.002-0.357,0.002-0.404   c0,0,0.244-10.031,0.777-18.795c-2.426-2.628-4.879-4.303-8.152-4.303c-0.383,0-0.781,0.023-1.184,0.068   c-0.211,0.024-0.421,0.037-0.629,0.037c-3.785-0.002-6.613-3.748-6.613-7.1c0-3.754,2.773-6.592,6.902-7.062   c3.913-0.447,7.852,0.33,11.582,2.197v1.547c-3.528-2.008-7.504-3.082-11.784-2.594c-3.017,0.344-5.571,2.273-5.571,5.572   c0,2.775,2.547,5.918,5.571,5.572c5.362-0.612,8.815,2.422,12.06,6.367c0.604,0.732,1.402,1.201,2.277,1.439v17.454h-5.238V96.166z    M97.006,96.166h-13.5V77.775c0.215-0.154,0.42-0.319,0.604-0.504c2.304-2.304,1.928-5.537,0-7.881   c-0.195-0.238-0.399-0.471-0.604-0.703V10h13.5V96.166z" fill="#FFFFFF"/>
</g>
<g>
</g>
<g>
</g>
<g>
</g>
<g>
</g>
<g>
</g>
<g>
</g>
<g>
</g>
<g>
</g>
<g>
</g>
<g>
</g>
<g>
</g>
<g>
</g>
<g>
</g>
<g>
</g>
<g>
</g>
</svg>
