<?xml version="1.0" encoding="UTF-8" standalone="no"?>
<!-- Generator: Adobe Illustrator 18.1.1, SVG Export Plug-In . SVG Version: 6.00 Build 0)  -->

<svg
   xmlns:dc="http://purl.org/dc/elements/1.1/"
   xmlns:cc="http://creativecommons.org/ns#"
   xmlns:rdf="http://www.w3.org/1999/02/22-rdf-syntax-ns#"
   xmlns:svg="http://www.w3.org/2000/svg"
   xmlns="http://www.w3.org/2000/svg"
   xmlns:sodipodi="http://sodipodi.sourceforge.net/DTD/sodipodi-0.dtd"
   xmlns:inkscape="http://www.inkscape.org/namespaces/inkscape"
   version="1.1"
   id="Capa_1"
   x="0px"
   y="0px"
   viewBox="0 0 54.891 54.891"
   style="enable-background:new 0 0 54.891 54.891;"
   xml:space="preserve"
   width="512px"
   height="512px"
   inkscape:version="0.91 r13725"
   sodipodi:docname="life-expectancy.svg"><metadata
     id="metadata49"><rdf:RDF><cc:Work
         rdf:about=""><dc:format>image/svg+xml</dc:format><dc:type
           rdf:resource="http://purl.org/dc/dcmitype/StillImage" /></cc:Work></rdf:RDF></metadata><defs
     id="defs47" /><sodipodi:namedview
     pagecolor="#ffffff"
     bordercolor="#666666"
     borderopacity="1"
     objecttolerance="10"
     gridtolerance="10"
     guidetolerance="10"
     inkscape:pageopacity="0"
     inkscape:pageshadow="2"
     inkscape:window-width="640"
     inkscape:window-height="480"
     id="namedview45"
     showgrid="false"
     inkscape:zoom="0.4609375"
     inkscape:cx="256"
     inkscape:cy="256"
     inkscape:window-x="0"
     inkscape:window-y="0"
     inkscape:window-maximized="0"
     inkscape:current-layer="Capa_1" /><g
     id="g3"
     transform="matrix(-1,0,0,1,54.890046,0)"><g
       id="g5"><path
         d="m 43.154,22.18 c 0.708,0.449 -0.322,-0.485 -0.517,-0.742 -0.688,-0.907 -1.332,-1.843 -1.979,-2.777 -0.763,-1.103 -1.513,-2.216 -2.25,-3.336 -0.953,-1.447 -2.896,-1.627 -4.446,-2.019 -2.146,-0.542 -4.306,-1.022 -6.494,-1.344 -3.826,-1.362 -8.872,2.807 -6.229,7.326 0.097,0.166 0.191,0.334 0.287,0.5 -2.013,2.567 -5.042,3.522 -8.818,3.127 -2.318,-0.243 -2.87,2.424 -1.697,3.889 l 0,27.648 1.697,0 0,-26.74 c 4.584,0.479 8.441,-0.841 11.271,-3.586 1.152,2.093 2.275,4.201 3.369,6.325 -2.994,2.064 -5.609,4.564 -7.9,7.443 -0.787,0.988 -0.784,2.014 -0.346,2.84 -0.017,0.291 0.011,0.605 0.096,0.941 0.882,3.487 1.763,6.975 2.645,10.463 0.937,3.719 6.819,2.658 5.875,-1.08 -0.882,-3.488 -1.763,-6.977 -2.645,-10.465 -0.01,-0.041 -0.023,-0.078 -0.035,-0.119 1.878,-2.205 4.059,-4.15 6.52,-5.684 0.297,5.813 0.594,11.985 0.893,17.364 0.214,3.845 6.182,3.545 5.967,-0.312 C 38.01,44.439 37.6,35.541 37.189,28.139 c -0.037,-0.675 -0.254,-1.219 -0.58,-1.641 -0.098,-0.328 -0.228,-0.66 -0.398,-0.995 -1.162,-2.263 -2.359,-4.51 -3.592,-6.739 0.518,0.138 1.033,0.279 1.547,0.42 1.688,2.739 3.557,6.238 6.135,7.875 3.089,1.964 5.923,-2.931 2.853,-4.879 z"
         id="path7"
         inkscape:connector-curvature="0"
         style="fill:#ffffff" /><path
         d="M 24.226,3.156 C 23.455,0.726 20.726,-0.577 18.133,0.247 15.54,1.072 14.064,3.71 14.836,6.14 l 9.39,-2.984 z"
         id="path9"
         inkscape:connector-curvature="0"
         style="fill:#ffffff" /><path
         d="M 12.676,9.289 27.809,4.48 C 28.035,4.408 28.184,4.239 28.142,4.102 L 24.701,3.6 14.913,6.711 12.186,9.172 c 0.044,0.138 0.263,0.189 0.49,0.117 z"
         id="path11"
         inkscape:connector-curvature="0"
         style="fill:#ffffff" /><path
         d="m 22.006,12.042 c 2.552,-0.811 3.961,-3.538 3.149,-6.089 l -9.237,2.942 c 0.811,2.55 3.539,3.961 6.088,3.147 z"
         id="path13"
         inkscape:connector-curvature="0"
         style="fill:#ffffff" /></g></g><g
     id="g15" /><g
     id="g17" /><g
     id="g19" /><g
     id="g21" /><g
     id="g23" /><g
     id="g25" /><g
     id="g27" /><g
     id="g29" /><g
     id="g31" /><g
     id="g33" /><g
     id="g35" /><g
     id="g37" /><g
     id="g39" /><g
     id="g41" /><g
     id="g43" /></svg>