<?xml version="1.0" encoding="iso-8859-1"?>
<!-- Generator: Adobe Illustrator 16.0.0, SVG Export Plug-In . SVG Version: 6.00 Build 0)  -->
<!DOCTYPE svg PUBLIC "-//W3C//DTD SVG 1.1//EN" "http://www.w3.org/Graphics/SVG/1.1/DTD/svg11.dtd">
<svg xmlns="http://www.w3.org/2000/svg" xmlns:xlink="http://www.w3.org/1999/xlink" version="1.1" id="Capa_1" x="0px" y="0px" width="512px" height="512px" viewBox="0 0 358.685 358.685" style="enable-background:new 0 0 358.685 358.685;" xml:space="preserve">
<g>
	<g>
		<g>
			<path d="M296.886,9.691h-0.018c-3.915,3.333-11.992,8.989-16.988,9.98c-0.588,0.114-0.954,0.114-1.152,0.129     c-2.132-2.816-5.495-4.083-9.098-3.348c-10.851,2.165-28.553,28.354-35.578,39.397l-93.759,130.887l-5.011-3.352l-10.631,15.877     l7.932,5.272l-82.266,123.11l33.264,31.039l1.783-1.207c3.297-2.21,79.335-54.146,91.084-123.651l12.917,8.623l7.83-11.722     l17.378,11.607l3.663-3.326c0.792-0.697,79.077-72.232,89.129-224.036L308.367,0L296.886,9.691z M187.875,234.943l-10.515-7.025     v-0.048l-41.739-27.887l-0.033,0.055l-3.411-2.276l4.6-6.863l55.662,37.212L187.875,234.943z M277.052,132.7     c-0.402-16.591-3.128-43.928-16.327-47.318c-3.951-1.006-7.049-5.668-8.347-12.457c-1.657-8.785,0.288-18.317,4.348-21.242     c0.385-0.286,1.249-0.913,2.727-0.913c1.057,0,2.401,0.321,4.113,1.272c4.966,2.787,10.995,2.787,17.42-0.012     c7.146-3.11,14.219-9.5,19.059-15.913C295.721,73.787,287.17,105.934,277.052,132.7z" fill="#FFFFFF"/>
		</g>
		<g>
			<path d="M277.346,159.841l-2.737-2.546l-1.55,3.399c-0.756,1.63-7.271,16.168-5.734,23.893c1.52,7.674,7.128,13.24,13.331,13.247     c0.654,0,1.32-0.066,1.976-0.192c6.749-1.357,10.856-9.386,9.15-17.927C290.244,171.992,278.661,161.058,277.346,159.841z      M281.573,192.339c-0.3,0.049-0.606,0.084-0.912,0.084c-3.507,0-7.038-3.902-8.034-8.884c-0.781-3.972,1.789-11.82,3.818-16.984     c3.867,3.996,9.235,10.25,10.04,14.223C287.584,186.299,285.326,191.583,281.573,192.339z" fill="#FFFFFF"/>
		</g>
		<g>
			<path d="M286.617,139.179l-2.738-2.543l-1.561,3.399c-0.643,1.408-2.696,6.23-2.096,9.28c0.69,3.462,3.356,5.975,6.323,5.975     l1.038-0.111c1.411-0.282,2.66-1.15,3.514-2.429c1.062-1.609,1.417-3.727,1.009-5.798     C291.506,143.901,287.746,140.232,286.617,139.179z M286.533,149.874c-0.222-0.054-0.792-0.591-0.996-1.619     c-0.072-0.342,0.042-1.062,0.27-1.942c0.559,0.739,0.919,1.354,0.997,1.699C287.014,149.045,286.666,149.756,286.533,149.874z" fill="#FFFFFF"/>
		</g>
	</g>
</g>
<g>
</g>
<g>
</g>
<g>
</g>
<g>
</g>
<g>
</g>
<g>
</g>
<g>
</g>
<g>
</g>
<g>
</g>
<g>
</g>
<g>
</g>
<g>
</g>
<g>
</g>
<g>
</g>
<g>
</g>
</svg>
