<?xml version="1.0" encoding="iso-8859-1"?>
<!-- Generator: Adobe Illustrator 19.0.0, SVG Export Plug-In . SVG Version: 6.00 Build 0)  -->
<svg xmlns="http://www.w3.org/2000/svg" xmlns:xlink="http://www.w3.org/1999/xlink" version="1.1" id="Layer_1" x="0px" y="0px" viewBox="0 0 511.999 511.999" style="enable-background:new 0 0 511.999 511.999;" xml:space="preserve" width="512px" height="512px">
<g>
	<g>
		<path d="M510.662,381.925L397.57,117.002c-2.618-6.133-8.643-10.112-15.311-10.112H187.188c-5.593,0-10.81,2.807-13.893,7.474    c-3.082,4.666-3.615,10.567-1.42,15.711l113.093,264.923c2.618,6.133,8.643,10.112,15.311,10.112H495.35    c5.593,0,10.81-2.807,13.893-7.474C512.325,392.97,512.859,387.068,510.662,381.925z" fill="#FFFFFF"/>
	</g>
</g>
<g>
	<g>
		<path d="M258.144,381.925L145.052,117.002c-2.618-6.133-8.643-10.112-15.311-10.112c-6.668,0-12.694,3.979-15.311,10.112    L1.337,381.925c-2.195,5.143-1.663,11.045,1.42,15.711c3.081,4.667,8.3,7.474,13.893,7.474h75.529l37.562-194.864l37.562,194.864    h75.529c5.593,0,10.81-2.807,13.893-7.474C259.807,392.97,260.34,387.068,258.144,381.925z" fill="#FFFFFF"/>
	</g>
</g>
<g>
</g>
<g>
</g>
<g>
</g>
<g>
</g>
<g>
</g>
<g>
</g>
<g>
</g>
<g>
</g>
<g>
</g>
<g>
</g>
<g>
</g>
<g>
</g>
<g>
</g>
<g>
</g>
<g>
</g>
</svg>
