<?xml version="1.0" encoding="iso-8859-1"?>
<!-- Generator: Adobe Illustrator 18.0.0, SVG Export Plug-In . SVG Version: 6.00 Build 0)  -->
<!DOCTYPE svg PUBLIC "-//W3C//DTD SVG 1.1//EN" "http://www.w3.org/Graphics/SVG/1.1/DTD/svg11.dtd">
<svg xmlns="http://www.w3.org/2000/svg" xmlns:xlink="http://www.w3.org/1999/xlink" version="1.1" id="Capa_1" x="0px" y="0px" viewBox="0 0 375.085 375.085" style="enable-background:new 0 0 375.085 375.085;" xml:space="preserve" width="512px" height="512px">
<path d="M347.375,345.837v-57H336.79v-35.748h8.334l-11.779-36.518v-22.252h0.381c6.668-5.414,10.928-11.549,10.928-20.804  c0-24.225-29.529-29.001-29.529-40.139c0,11.138-29.527,15.914-29.527,40.139c0,9.255,4.26,15.39,10.928,20.804h0.381v22.252  l-11.781,36.519h8.334v35.748h-15.801c-0.263-19.925-6.834-38.687-18.779-54.068V209.07c2.924,0.378,5.855,0.766,8.817,1.19  c0.301,0.043,0.603,0.064,0.903,0.064c1.428,0,2.823-0.48,3.957-1.376c1.371-1.085,2.237-2.686,2.395-4.428l2.943-32.546  c0.308-3.397-2.113-6.434-5.493-6.894c-1.423-0.193-2.851-0.361-4.274-0.544c1.897-6.27,2.916-13.112,2.916-20.699  c0-58.945-61.827-77.164-79.076-101.171V18.828h13.145V9.981h-13.145V0h-8.848v9.981h-13.145v8.848h13.145v23.838  c-17.249,24.007-79.076,42.226-79.076,101.171c0,7.587,1.019,14.43,2.916,20.699c-1.424,0.184-2.852,0.351-4.274,0.544  c-3.381,0.46-5.801,3.497-5.493,6.894l2.943,32.546c0.157,1.742,1.023,3.343,2.395,4.428c1.371,1.085,3.125,1.558,4.86,1.311  c2.963-0.424,5.894-0.812,8.817-1.19v25.699c-11.946,15.383-18.519,34.146-18.781,54.068H81.624v-35.748h8.334l-11.779-36.518  v-22.252h0.381c6.668-5.414,10.928-11.549,10.928-20.804c0-24.225-29.529-29.001-29.529-40.139  c0,11.138-29.527,15.914-29.527,40.139c0,9.255,4.26,15.39,10.928,20.804h0.381v22.252l-11.781,36.519h8.334v35.748H27.708v57h-23.5  v29.248h170.041v-65.042h26.584v65.042h170.043v-29.248H347.375z M61.373,336.297H45.875v-11.936c0-4.28,3.469-7.749,7.75-7.749  c4.279,0,7.748,3.469,7.748,7.749V336.297z M67.709,243.455H52.21v-11.936c0-4.279,3.469-7.748,7.748-7.748  c4.281,0,7.75,3.469,7.75,7.748V243.455z M91.373,336.297H75.874v-11.936c0-4.28,3.469-7.749,7.75-7.749  c4.279,0,7.748,3.469,7.748,7.749V336.297z M112.236,196.714l-1.789-19.786c25.68-3.234,51.584-4.872,77.093-4.872  s51.416,1.638,77.099,4.872l-1.789,19.786c-26.177-3.48-50.878-5.175-75.307-5.175S138.413,193.234,112.236,196.714z   M121.373,336.297h-15.498v-11.936c0-4.28,3.469-7.749,7.75-7.749c4.279,0,7.748,3.469,7.748,7.749V336.297z M229.124,296.578  v66.798h-5.666v-71.177c-0.095-0.075-0.19-0.148-0.285-0.223c-2.314-1.851-4.613-3.719-6.88-5.62  c-2.271-1.897-4.517-3.816-6.741-5.759c-2.224-1.942-4.435-3.898-6.612-5.887c-2.202-1.965-4.341-3.993-6.504-5.996  c-2.154-2.012-4.265-4.069-6.399-6.101l-2.498-2.462l-2.497,2.456c-2.136,2.031-4.24,4.093-6.401,6.098  c-2.16,2.007-4.305,4.029-6.505,5.995c-2.177,1.99-4.393,3.941-6.613,5.887c-1.102,0.981-2.236,1.931-3.357,2.894  c-1.122,0.961-2.242,1.924-3.385,2.865c-2.266,1.901-4.565,3.769-6.879,5.621c-0.092,0.073-0.186,0.145-0.277,0.217v71.192h-5.666  v-66.808c-2.742,2.076-5.53,4.106-8.416,6.039c3.342-4.991,6.961-9.706,10.641-14.359c1.853-2.315,3.72-4.613,5.621-6.879  c0.94-1.143,1.904-2.263,2.865-3.385c0.963-1.12,1.912-2.254,2.894-3.356c1.945-2.221,3.896-4.436,5.887-6.613  c1.966-2.2,3.988-4.345,5.995-6.505c2.006-2.161,4.067-4.266,6.099-6.401l6.198-6.302l3.797-3.861l3.805,3.861l6.205,6.295  c2.032,2.134,4.089,4.245,6.1,6.399c2.003,2.164,4.031,4.302,5.996,6.504c1.989,2.178,3.945,4.389,5.888,6.613  c1.942,2.224,3.862,4.47,5.759,6.741c1.9,2.266,3.769,4.565,5.62,6.88c3.678,4.656,7.294,9.372,10.631,14.369  C234.656,300.679,231.868,298.651,229.124,296.578z M187.542,225.831c-38.218,0-69.325,28.695-69.458,64.018h-11.761  c0.06-22.26,8.842-42.967,24.743-58.33c15.189-14.675,35.247-22.757,56.476-22.757c21.228,0,41.284,8.082,56.474,22.758  c15.901,15.359,24.684,36.065,24.743,58.329h-11.761C256.866,254.526,225.759,225.831,187.542,225.831z M269.208,336.297H253.71  v-11.936c0-4.28,3.469-7.749,7.75-7.749c4.279,0,7.748,3.469,7.748,7.749V336.297z M299.208,336.297h-15.498v-11.936  c0-4.28,3.469-7.749,7.75-7.749c4.279,0,7.748,3.469,7.748,7.749V336.297z M307.376,231.519c0-4.279,3.469-7.748,7.748-7.748  c4.281,0,7.75,3.469,7.75,7.748v11.936h-15.498V231.519z M329.208,336.297h-15.498v-11.936c0-4.28,3.469-7.749,7.75-7.749  c4.279,0,7.748,3.469,7.748,7.749V336.297z" fill="#FFFFFF"/>
<g>
</g>
<g>
</g>
<g>
</g>
<g>
</g>
<g>
</g>
<g>
</g>
<g>
</g>
<g>
</g>
<g>
</g>
<g>
</g>
<g>
</g>
<g>
</g>
<g>
</g>
<g>
</g>
<g>
</g>
</svg>
