<?xml version="1.0" encoding="UTF-8" standalone="no"?>
<svg
   xmlns:dc="http://purl.org/dc/elements/1.1/"
   xmlns:cc="http://creativecommons.org/ns#"
   xmlns:rdf="http://www.w3.org/1999/02/22-rdf-syntax-ns#"
   xmlns:svg="http://www.w3.org/2000/svg"
   xmlns="http://www.w3.org/2000/svg"
   version="1.1"
   id="svg2"
   viewBox="0 0 512.00001 512.00001"
   height="512"
   width="512">
  <defs
     id="defs4" />
  <metadata
     id="metadata7">
    <rdf:RDF>
      <cc:Work
         rdf:about="">
        <dc:format>image/svg+xml</dc:format>
        <dc:type
           rdf:resource="http://purl.org/dc/dcmitype/StillImage" />
        <dc:title></dc:title>
      </cc:Work>
    </rdf:RDF>
  </metadata>
  <g
     transform="translate(0,-540.36216)"
     id="layer1">
    <path
       id="path4147"
       d="m 210.66282,1048.5359 c 85.69472,-7.1433 182.59546,-21.1296 223.47642,-32.2558 10.34628,-2.8159 20.30946,-5.1197 22.14038,-5.1197 2.68242,0 16.06988,33.5315 14.02927,35.1391 -0.88279,0.6955 -276.16089,6.4426 -289.43907,6.0428 -6.41197,-0.193 6.99488,-1.906 29.793,-3.8064 z m -169.690565,-4.7312 c 0,-2.8398 67.304485,-349.47759 67.927745,-349.84771 0.39913,-0.237 10.6351,-3.1757 22.7466,-6.53042 29.4238,-8.15 76.96033,-25.64109 101.70777,-37.42345 45.71569,-21.76543 95.50477,-61.87877 116.56643,-93.91355 5.89192,-8.96161 10.95087,-16.03435 11.24212,-15.71717 0.29122,0.31717 19.30496,59.38169 42.25274,131.25449 l 41.72323,130.6778 -7.13349,10.50399 c -9.39407,13.83268 -38.59375,42.9472 -62.86514,62.6818 -77.04642,62.64488 -164.8568,110.26776 -283.049205,153.50822 -39.27801,14.3698 -51.1188,17.7994 -51.1188,14.806 z M 144.81991,841.20987 c 93.4591,-29.47685 169.13447,-69.63516 219.64731,-116.55923 l 17.05974,-15.84768 -15.08617,-47.65719 c -8.29737,-26.21148 -15.85555,-48.4811 -16.79598,-49.48805 -0.94039,-1.00698 -9.27977,4.6167 -18.53198,12.49706 -44.05537,37.52318 -93.33511,63.22054 -165.68459,86.39767 l -29.6904,9.51131 -12.26023,63.2937 c -6.74315,34.81153 -12.32691,64.16807 -12.4084,65.23673 -0.23463,3.0772 2.42976,2.49426 33.7507,-7.38432 z m 38.6406,193.30203 c 3.56221,-1.2542 28.04429,-8.8529 54.40461,-16.8858 79.43625,-24.20717 152.02582,-53.80826 192.62393,-78.54959 9.76361,-5.95014 18.50721,-10.81671 19.43022,-10.81464 1.51183,0.002 21.10847,48.82896 21.10847,52.59228 0,2.55053 -45.63429,16.34754 -77.72087,23.49805 -38.27941,8.5306 -95.8722,17.9287 -151.55569,24.7313 -66.65653,8.1431 -65.76473,8.0601 -58.29066,5.4284 z m 52.18911,-44.89011 c 77.02284,-39.08302 132.5767,-76.48525 178.46292,-120.15192 12.85731,-12.2354 23.79448,-21.79209 24.30487,-21.23708 0.51036,0.55497 4.73809,10.21288 9.39492,21.46197 6.2256,15.03857 7.7829,21.5538 5.88282,24.61161 -8.44073,13.58376 -81.0919,52.89662 -141.9952,76.83618 -25.82078,10.14952 -119.21847,42.60855 -122.60192,42.60855 -0.55059,0 20.39763,-10.8582 46.55159,-24.12931 z"
       style="fill:#ffffff" />
  </g>
</svg>
