<?xml version="1.0" encoding="UTF-8" standalone="no"?>
<!-- Generator: Adobe Illustrator 19.0.0, SVG Export Plug-In . SVG Version: 6.00 Build 0)  -->

<svg
   xmlns:dc="http://purl.org/dc/elements/1.1/"
   xmlns:cc="http://creativecommons.org/ns#"
   xmlns:rdf="http://www.w3.org/1999/02/22-rdf-syntax-ns#"
   xmlns:svg="http://www.w3.org/2000/svg"
   xmlns="http://www.w3.org/2000/svg"
   xmlns:sodipodi="http://sodipodi.sourceforge.net/DTD/sodipodi-0.dtd"
   xmlns:inkscape="http://www.inkscape.org/namespaces/inkscape"
   version="1.1"
   id="Layer_1"
   x="0px"
   y="0px"
   viewBox="0 0 512 512"
   style="enable-background:new 0 0 512 512;"
   xml:space="preserve"
   width="512px"
   height="512px"
   inkscape:version="0.91 r13725"
   sodipodi:docname="creative.svg"><metadata
     id="metadata43"><rdf:RDF><cc:Work
         rdf:about=""><dc:format>image/svg+xml</dc:format><dc:type
           rdf:resource="http://purl.org/dc/dcmitype/StillImage" /></cc:Work></rdf:RDF></metadata><defs
     id="defs41" /><sodipodi:namedview
     pagecolor="#ffffff"
     bordercolor="#666666"
     borderopacity="1"
     objecttolerance="10"
     gridtolerance="10"
     guidetolerance="10"
     inkscape:pageopacity="0"
     inkscape:pageshadow="2"
     inkscape:window-width="640"
     inkscape:window-height="480"
     id="namedview39"
     showgrid="false"
     inkscape:zoom="0.4609375"
     inkscape:cx="256"
     inkscape:cy="256"
     inkscape:window-x="0"
     inkscape:window-y="0"
     inkscape:window-maximized="0"
     inkscape:current-layer="Layer_1" /><g
     id="g3"
     style="fill:#ffffff"
     transform="matrix(-1,0,0,-1,511.9998,511.9996)"><g
       id="g5"
       style="fill:#ffffff"><path
         d="M 506.741,84.812 427.188,5.259 c -7.009,-7.011 -18.377,-7.01 -25.389,-0.001 l -30.468,30.468 c -23.011,23.011 -27.7,57.49 -14.109,85.199 L 152.766,325.38 114.37,286.984 c -4.402,-4.401 -11.538,-4.401 -15.941,0 L 34.744,350.669 C 6.335,379.078 -5.762,419.938 2.6,459.235 l 6.877,32.315 c 1.171,5.502 5.469,9.8 10.972,10.971 l 32.315,6.877 c 39.298,8.364 80.158,-3.735 108.568,-32.145 l 63.685,-63.685 c 4.402,-4.401 4.401,-11.538 0,-15.941 L 186.621,359.231 391.05,154.803 c 27.281,13.445 61.82,9.27 85.226,-14.136 l 30.468,-30.468 c 7.008,-7.01 7.008,-18.376 -0.003,-25.387 z m -55.857,30.468 c -14.958,14.958 -39.177,14.975 -54.152,0.012 -0.004,-0.004 -0.007,-0.008 -0.011,-0.012 -0.004,-0.004 -0.008,-0.007 -0.012,-0.011 -14.922,-14.934 -14.918,-39.224 0.011,-54.152 l 17.773,-17.773 54.164,54.164 -17.773,17.772 z"
         id="path7"
         style="fill:#ffffff"
         inkscape:connector-curvature="0" /></g></g><g
     id="g9" /><g
     id="g11" /><g
     id="g13" /><g
     id="g15" /><g
     id="g17" /><g
     id="g19" /><g
     id="g21" /><g
     id="g23" /><g
     id="g25" /><g
     id="g27" /><g
     id="g29" /><g
     id="g31" /><g
     id="g33" /><g
     id="g35" /><g
     id="g37" /></svg>