<?xml version="1.0" encoding="iso-8859-1"?>
<!-- Generator: Adobe Illustrator 19.0.0, SVG Export Plug-In . SVG Version: 6.00 Build 0)  -->
<svg xmlns="http://www.w3.org/2000/svg" xmlns:xlink="http://www.w3.org/1999/xlink" version="1.1" id="Layer_1" x="0px" y="0px" viewBox="0 0 512 512" style="enable-background:new 0 0 512 512;" xml:space="preserve" width="512px" height="512px">
<g>
	<g>
		<g>
			<path d="M262.3,192.474c-35.021,0-63.522,28.501-63.522,63.522c0,35.029,28.501,63.531,63.522,63.531     c35.021,0,63.522-28.501,63.522-63.531C325.822,220.975,297.321,192.474,262.3,192.474z" fill="#FFFFFF"/>
			<path d="M481.502,153.097c2.714-17.195-0.538-32.06-9.668-44.177h-0.009c-8.841-11.725-22.511-18.799-40.661-21.129     c-0.99-4.668-2.893-9.139-5.709-13.167c-11.418-16.273-33.92-20.216-50.185-8.841c-10.291,7.202-15.625,18.842-15.309,30.541     c-5.649,1.604-11.366,3.362-17.195,5.342C324.651,39.543,295.62,0,262.298,0c-33.143,0-62.054,39.177-80.188,100.779     c-57.882-20.335-107.622-21.973-129.442,8.286c-8.439,11.716-10.487,27.11-6.187,45.781c-3.985,2.492-7.552,5.794-10.411,9.882     c-11.392,16.273-7.415,38.784,8.858,50.176c6.118,4.284,13.252,6.528,20.582,6.528c2.099,0,4.215-0.179,6.332-0.555     c2.441-0.435,4.787-1.118,7.031-2.005c8.866,12.279,19.115,24.695,30.618,37.103c-35.925,38.571-59.614,76.638-64.529,106.658     c-2.654,16.196-0.043,29.781,7.765,40.371c10.931,14.84,30.694,23.552,58.564,23.552c19.746,0,43.597-4.463,71.185-14.148     C200.636,473.318,229.367,512,262.298,512c14.498,0,28.237-7.151,40.934-21.197c4.326,1.843,9.071,2.859,14.063,2.859     c19.866,0,36.028-16.154,36.028-36.019c0-12.553-6.468-23.603-16.23-30.054c1.971-5.675,3.84-11.52,5.598-17.579     c30.182,10.505,57.89,16.367,80.145,16.367c7.441,0,14.293-0.657,20.403-1.988c13.935-3.029,23.842-9.421,29.474-19.004     c22.34-38.05,2.074-90.999-54.665-149.632C454.349,218.18,476.851,182.477,481.502,153.097z M364.39,112.666     c0.623,1.143,1.297,2.244,2.031,3.294c5.513,7.885,13.781,13.15,23.253,14.822c2.116,0.367,4.233,0.546,6.332,0.546     c0.154,0,0.307-0.026,0.452-0.034c0.486,0,0.956-0.077,1.434-0.102c1.664-0.094,3.311-0.282,4.941-0.597     c0.674-0.128,1.34-0.299,2.014-0.469c1.459-0.375,2.893-0.853,4.301-1.408c0.614-0.247,1.229-0.461,1.835-0.742     c1.894-0.879,3.746-1.886,5.495-3.106c0.034-0.026,0.077-0.034,0.111-0.06c1.826-1.271,3.482-2.722,5.009-4.292     c0.785-0.794,1.434-1.69,2.133-2.543c0.649-0.794,1.323-1.562,1.894-2.406c0.751-1.101,1.374-2.261,1.997-3.439     c0.375-0.725,0.768-1.425,1.092-2.167c0.563-1.254,1.015-2.534,1.434-3.857c0.119-0.401,0.324-0.768,0.435-1.178     c12.629,1.886,21.896,6.673,27.614,14.268c6.34,8.397,8.448,18.611,6.443,31.241c-4.088,25.813-25.105,58.513-58.701,93.286     c-13.449-12.945-28.604-26.12-45.414-39.45c-2.424-31.309-7.031-60.348-13.38-86.178     C352.981,116.096,358.741,114.27,364.39,112.666z M361.89,227.447c11.494,9.583,22.144,19.098,31.829,28.459     c-9.771,9.429-20.446,18.961-31.872,28.518c0.393-9.387,0.649-18.85,0.649-28.425     C362.496,246.332,362.274,236.817,361.89,227.447z M342.187,190.148c-7.219-5.393-14.686-10.795-22.417-16.213     c-13.065-9.148-26.47-17.86-39.996-26.01c17.493-9.31,34.765-17.382,51.49-23.936     C335.991,143.804,339.738,165.965,342.187,190.148z M262.298,17.067c23.697,0,48.384,33.476,64.631,90.291     c-20.873,8.081-42.556,18.389-64.435,30.532c-21.76-12.22-43.588-22.81-64.623-31.189     C214.127,50.287,238.694,17.067,262.298,17.067z M193.553,123.128c16.461,6.664,33.826,14.95,51.686,24.644     c-13.508,8.073-27.025,16.802-40.397,26.163c-7.697,5.385-15.138,10.923-22.451,16.512     C184.875,165.794,188.706,143.249,193.553,123.128z M92.689,209.101c0.87-0.981,1.681-1.997,2.415-3.046     c1.399-2.005,2.577-4.122,3.533-6.315c0.162-0.375,0.23-0.777,0.375-1.161c0.734-1.835,1.382-3.695,1.801-5.615     c0.026-0.137,0.017-0.282,0.043-0.427c0.887-4.361,1.007-8.883,0.213-13.406c-0.811-4.582-2.492-8.866-4.873-12.715     c-0.043-0.06-0.06-0.128-0.102-0.188c-1.084-1.724-2.372-3.311-3.738-4.838c-0.222-0.247-0.384-0.538-0.614-0.776     c-1.655-1.741-3.482-3.337-5.487-4.745c-1.86-1.297-3.831-2.372-5.871-3.277c-0.93-0.418-1.877-0.683-2.825-1.015     c-1.084-0.384-2.159-0.777-3.277-1.05c-1.212-0.299-2.423-0.478-3.644-0.649c-0.905-0.128-1.801-0.247-2.714-0.307     c-1.254-0.077-2.5-0.077-3.755-0.026c-0.478,0.017-0.947-0.051-1.417-0.017c-2.748-12.962-1.485-23.194,3.763-30.481     c15.659-21.743,57.643-20.941,111.189-1.911c-6.528,26.266-11.238,55.893-13.67,87.868     c-15.394,12.672-29.705,25.643-42.692,38.673C110.66,232.107,100.958,220.527,92.689,209.101z M162.679,283.614     c-10.539-9.139-20.446-18.406-29.696-27.742c9.199-9.19,19.157-18.381,29.696-27.486c-0.367,9.054-0.563,18.261-0.563,27.614     C162.116,265.344,162.312,274.551,162.679,283.614z M66.458,392.875c-4.975-6.741-6.537-15.992-4.659-27.486     c4.42-27.017,26.146-61.67,59.366-97.297c13.107,13.201,27.401,26.283,42.88,38.997c2.458,32.256,7.236,62.131,13.858,88.567     C124.339,415.044,83.029,415.36,66.458,392.875z M182.391,321.596c7.313,5.581,14.771,11.093,22.451,16.469     c13.397,9.378,27.102,18.133,40.883,26.257c-18.108,10.001-35.533,18.432-52.002,25.233     C188.8,369.28,184.909,346.513,182.391,321.596z M321.169,421.837c-0.597-0.068-1.161,0.026-1.749-0.017     c-0.717-0.043-1.399-0.213-2.125-0.213c-0.589,0-1.143,0.145-1.724,0.179c-1.527,0.051-3.021,0.196-4.489,0.452     c-0.776,0.136-1.527,0.307-2.278,0.486c-1.664,0.401-3.277,0.879-4.847,1.51c-0.614,0.247-1.195,0.538-1.792,0.819     c-1.527,0.717-3.012,1.476-4.412,2.398c-0.666,0.427-1.263,0.922-1.894,1.399c-1.212,0.913-2.406,1.826-3.49,2.876     c-0.768,0.742-1.425,1.562-2.116,2.364c-0.828,0.956-1.681,1.869-2.406,2.91c-0.785,1.118-1.408,2.33-2.065,3.533     c-0.478,0.888-1.033,1.724-1.434,2.645c-0.674,1.527-1.135,3.149-1.587,4.77c-0.213,0.742-0.521,1.434-0.683,2.185     c-0.512,2.423-0.811,4.932-0.811,7.509c0,2.261,0.256,4.497,0.674,6.682c0.188,0.981,0.503,1.894,0.768,2.85     c0.324,1.143,0.623,2.287,1.058,3.388c0.427,1.109,0.956,2.15,1.485,3.209c0.444,0.862,0.879,1.715,1.382,2.543     c0.657,1.075,1.374,2.082,2.133,3.081c0.282,0.367,0.486,0.776,0.785,1.126c-8.994,9.566-18.133,14.413-27.255,14.413     c-23.433,0-47.821-32.768-64.068-88.439c19.9-8.03,41.609-18.722,64.939-32.213c21.53,11.768,42.982,21.777,63.582,29.841     C325.001,410.223,323.14,416.137,321.169,421.837z M331.059,387.55c-16.162-6.374-33.246-14.208-50.859-23.458     c12.757-7.868,25.907-16.461,39.569-26.027c7.689-5.385,15.061-10.795,22.289-16.213     C339.644,345.097,335.94,367.189,331.059,387.55z M343.987,298.889c-10.786,8.439-22.11,16.862-34.005,25.19     c-16.017,11.221-31.795,21.299-47.224,30.447c-15.821-9.02-31.94-19.106-48.136-30.447c-11.844-8.286-23.202-16.87-34.108-25.609     c-0.853-13.636-1.331-27.793-1.331-42.47c0-14.686,0.478-28.834,1.331-42.47c10.889-8.721,22.246-17.306,34.108-25.617     c15.855-11.102,31.889-21.197,47.855-30.396c15.642,9.139,31.531,19.209,47.505,30.396c12.006,8.405,23.347,16.811,34.082,25.182     c0.87,13.773,1.365,28.066,1.365,42.906C345.429,270.549,344.909,284.868,343.987,298.889z M457.993,396.74     c-3.115,5.308-9.301,9.003-18.372,10.974c-19.584,4.292-52.582-0.265-92.476-14.174c6.434-26.274,10.948-55.313,13.338-85.948     c16.597-13.244,31.753-26.487,45.295-39.578C455.697,319.923,475.742,366.515,457.993,396.74z" fill="#FFFFFF"/>
		</g>
	</g>
</g>
<g>
</g>
<g>
</g>
<g>
</g>
<g>
</g>
<g>
</g>
<g>
</g>
<g>
</g>
<g>
</g>
<g>
</g>
<g>
</g>
<g>
</g>
<g>
</g>
<g>
</g>
<g>
</g>
<g>
</g>
</svg>
