<?xml version="1.0" encoding="iso-8859-1"?>
<!-- Generator: Adobe Illustrator 19.0.0, SVG Export Plug-In . SVG Version: 6.00 Build 0)  -->
<svg xmlns="http://www.w3.org/2000/svg" xmlns:xlink="http://www.w3.org/1999/xlink" version="1.1" id="Capa_1" x="0px" y="0px" viewBox="0 0 489.902 489.902" style="enable-background:new 0 0 489.902 489.902;" xml:space="preserve" width="512px" height="512px">
<g>
	<g>
		<path d="M349.2,178.251l113.6-45.9c-37.7-72.7-110.1-124-195.6-131.8v122.5C301.8,129.651,330.9,149.851,349.2,178.251z" fill="#FFFFFF"/>
		<path d="M121.3,244.751c0-60.7,43.6-110.8,101.1-121.3V0.551C98,11.851,0,116.851,0,244.751c0,54.8,17.9,105.4,48.2,146.2    l91.4-81.7C128.3,290.251,121.3,268.051,121.3,244.751z" fill="#FFFFFF"/>
		<path d="M479.5,173.551l-113.6,45.9c1.6,8.2,2.7,16.3,2.7,24.9c0,68.1-55.2,123.7-123.7,123.7c-28.4,0-54.8-9.7-75.4-26.1    l-91.4,81.7c43.9,40.8,102.3,65.7,166.8,65.7c135.3,0,245-109.7,245-245C490,219.851,486.1,196.151,479.5,173.551z" fill="#FFFFFF"/>
	</g>
</g>
<g>
</g>
<g>
</g>
<g>
</g>
<g>
</g>
<g>
</g>
<g>
</g>
<g>
</g>
<g>
</g>
<g>
</g>
<g>
</g>
<g>
</g>
<g>
</g>
<g>
</g>
<g>
</g>
<g>
</g>
</svg>
