<?xml version="1.0" encoding="UTF-8" standalone="no"?>
<svg
   xmlns:dc="http://purl.org/dc/elements/1.1/"
   xmlns:cc="http://creativecommons.org/ns#"
   xmlns:rdf="http://www.w3.org/1999/02/22-rdf-syntax-ns#"
   xmlns:svg="http://www.w3.org/2000/svg"
   xmlns="http://www.w3.org/2000/svg"
   version="1.1"
   id="svg2"
   viewBox="0 0 512.00001 512.00001"
   height="512"
   width="512">
  <defs
     id="defs4" />
  <metadata
     id="metadata7">
    <rdf:RDF>
      <cc:Work
         rdf:about="">
        <dc:format>image/svg+xml</dc:format>
        <dc:type
           rdf:resource="http://purl.org/dc/dcmitype/StillImage" />
        <dc:title></dc:title>
      </cc:Work>
    </rdf:RDF>
  </metadata>
  <g
     transform="translate(0,-540.36216)"
     id="layer1">
    <path
       id="rect4148"
       transform="translate(0,540.36216)"
       d="M 58.498047 1.1640625 C 26.734261 1.1640625 1.1640625 26.734261 1.1640625 58.498047 L 1.1640625 453.50195 C 1.1640625 485.26574 26.734261 510.83594 58.498047 510.83594 L 453.50195 510.83594 C 485.26574 510.83594 510.83594 485.26574 510.83594 453.50195 L 510.83594 58.498047 C 510.83594 26.734261 485.26574 1.1640625 453.50195 1.1640625 L 58.498047 1.1640625 z M 180.55664 81.814453 C 187.0068 81.858079 193.4253 82.629967 197.51172 84.058594 C 216.4668 90.685174 227.65694 114.8069 219.76953 132.03516 C 211.51002 150.07638 189.643 157.42429 174.03125 147.40625 C 167.55561 143.25079 164.72996 139.97871 159.9668 131.125 C 155.37017 122.58089 155.64483 122.71189 146.99219 124.95703 C 141.40958 126.40564 135.35599 132.79461 133.19531 139.51758 C 131.7042 144.15744 131.40215 150.03834 131.02734 181.79492 L 130.5918 218.68164 L 142.21875 219.2832 C 148.61306 219.61447 162.0136 219.47918 171.99805 218.98242 C 181.9825 218.48556 191.09473 218.0654 192.24609 218.04688 C 193.60103 218.02487 194.55061 218.79166 194.93945 220.2207 C 195.5549 222.48269 192.2189 243.23363 190.60156 247.20508 L 189.70312 249.41406 L 160.20508 249.41406 L 130.70508 249.41406 L 130.99023 324.72461 C 131.22123 385.67866 131.52899 400.52954 132.60352 402.61328 C 135.6342 408.49064 145.91538 411.30148 164.41797 411.31445 L 174.99023 411.32617 L 176.0332 414.02344 C 177.05267 416.66402 176.85969 428.37848 175.7793 429.45898 C 175.47869 429.75948 158.71895 429.5185 138.53516 428.92383 C 104.55772 427.92268 78.138077 428.1188 45.673828 429.60938 C 34.813615 430.10802 32.597748 429.97001 32.138672 428.77344 L 32.138672 428.77148 C 31.836598 427.98447 31.719705 423.84602 31.878906 419.57617 L 32.167969 411.8125 L 44.923828 411.19336 C 59.19823 410.49982 62.379668 409.90389 66.244141 407.20312 C 71.855848 403.28108 71.908203 402.47947 71.908203 322.26367 L 71.908203 249.25977 L 56.453125 250 C 47.952876 250.40706 39.453409 250.77293 37.564453 250.8125 L 34.130859 250.88477 L 34.130859 245.49219 L 34.130859 240.09961 L 43.943359 235.18555 C 49.34039 232.48237 57.728683 227.60969 62.585938 224.35742 L 71.417969 218.44336 L 72.025391 197.37695 C 72.724892 173.06074 73.225791 168.55001 76.492188 157.22266 C 86.736638 121.69653 121.47693 93.085333 166.53125 83.070312 C 170.50312 82.187389 175.53985 81.780522 180.55664 81.814453 z M 299.29492 201.33008 C 299.49725 201.33008 300.30396 202.8628 301.08594 204.73438 C 302.11472 207.19651 302.50781 212.23648 302.50781 222.9668 L 302.50781 237.79688 L 309.62109 231.26758 C 318.26986 223.32909 331.38477 214.39261 342.80664 208.65625 C 354.48044 202.79333 364.27258 200.89204 379.02344 201.62305 C 412.38256 203.27618 434.89248 218.25861 442.30078 243.74219 C 445.71535 255.48801 445.96487 260.37534 446.63477 328.89648 C 447.30172 397.11579 447.34055 398.14056 449.44531 402.76953 C 452.18367 408.79206 454.94877 409.96405 468.88086 411.00781 L 479.62695 411.8125 L 479.91016 420.98633 L 480.19336 430.16016 L 469.60547 429.39453 C 460.84025 428.76097 414.29738 428.71342 393.76562 429.31641 L 388.36914 429.47461 L 387.84375 354.4082 C 387.37239 286.82353 387.14986 278.75386 385.60547 273.45312 C 380.13663 254.68268 369.96944 245.92032 350.84961 243.49609 C 331.56849 241.05156 312.0867 249.9677 304.98242 264.48828 L 302.45312 269.6582 L 302.72461 335.33789 C 302.97268 395.16351 303.14789 401.29192 304.67773 404.08594 C 307.06888 408.45314 312.46648 410.28333 325.0957 411.00586 L 335.73047 411.61328 L 336.39258 418.67578 C 337.41791 429.61785 337.49652 429.49586 329.47461 429.35352 C 295.33566 428.7478 236.31898 428.77933 224.25195 429.4082 L 209.28711 430.1875 L 209.28711 420.90625 L 209.28711 411.62305 L 219.99023 411.00977 C 233.26336 410.25029 237.91585 408.56758 240.36719 403.64062 C 242.04649 400.26537 242.17757 395.43809 242.45117 327.42383 C 242.75356 252.22095 242.39796 243.2624 238.79492 235.11719 C 236.26968 229.40856 233.03748 228.073 219.83594 227.28516 L 209.28711 226.6543 L 209.28711 217.77734 L 209.28711 208.90039 L 225.72266 209.77539 C 255.03155 211.33872 270.13455 209.94822 290.69922 203.79297 C 295.22457 202.43845 299.0926 201.33008 299.29492 201.33008 z "
       style="opacity:1;fill:#ffffff;fill-opacity:1;stroke:none;stroke-width:2.32638836;stroke-linecap:square;stroke-linejoin:miter;stroke-miterlimit:8;stroke-dasharray:none;stroke-opacity:1" />
  </g>
</svg>
