<?xml version="1.0" encoding="UTF-8" standalone="no"?>
<svg
   xmlns:dc="http://purl.org/dc/elements/1.1/"
   xmlns:cc="http://creativecommons.org/ns#"
   xmlns:rdf="http://www.w3.org/1999/02/22-rdf-syntax-ns#"
   xmlns:svg="http://www.w3.org/2000/svg"
   xmlns="http://www.w3.org/2000/svg"
   xmlns:sodipodi="http://sodipodi.sourceforge.net/DTD/sodipodi-0.dtd"
   xmlns:inkscape="http://www.inkscape.org/namespaces/inkscape"
   viewBox="0 0 512 511.99998"
   version="1.1"
   id="svg12"
   sodipodi:docname="libera-color.svg"
   width="512"
   height="512"
   inkscape:version="1.0.1 (3bc2e813f5, 2020-09-07)">
  <metadata
     id="metadata18">
    <rdf:RDF>
      <cc:Work
         rdf:about="">
        <dc:format>image/svg+xml</dc:format>
        <dc:type
           rdf:resource="http://purl.org/dc/dcmitype/StillImage" />
        <dc:title></dc:title>
      </cc:Work>
    </rdf:RDF>
  </metadata>
  <defs
     id="defs16" />
  <sodipodi:namedview
     pagecolor="#ffffff"
     bordercolor="#666666"
     borderopacity="1"
     objecttolerance="10"
     gridtolerance="10"
     guidetolerance="10"
     inkscape:pageopacity="0"
     inkscape:pageshadow="2"
     inkscape:window-width="1920"
     inkscape:window-height="1017"
     id="namedview14"
     showgrid="false"
     inkscape:zoom="0.6837651"
     inkscape:cx="416.15971"
     inkscape:cy="138.41214"
     inkscape:window-x="1358"
     inkscape:window-y="-8"
     inkscape:window-maximized="1"
     inkscape:current-layer="svg12" />
  <g
     id="g848"
     transform="matrix(6.5330864,0,0,6.5330864,-60.49436,-1.5995968)">
    <path
       d="M 40.86,9.3 H 40.85 A 32.2,32.2 0 0 0 40.2,9.44 l -0.22,0.04 a 39.48,39.48 0 0 0 -0.43,0.1 l -0.21,0.05 a 39.35,39.35 0 0 0 -5.68,1.8 l -0.12,0.06 11.26,37.33 0.47,-0.55 1.26,-1.48 z m 14.98,-0.04 -4.1,31.45 3.32,-3.88 0.66,1.05 L 63.08,11.37 62.9,11.3 A 37.97,37.97 0 0 0 56.35,9.36 39.84,39.84 0 0 0 55.92,9.27 Z m -35.33,10.9 a 34.93,34.93 0 0 0 -3.03,3.42 41.1,41.1 0 0 0 -1.8,2.48 v 0.02 l 21.52,23.51 1.62,-2.12 0.08,0.04 z m 55.45,-0.44 -15.91,25.1 1.81,2.9 19.26,-21.8 A 35.29,35.29 0 0 0 78.22,22.1 38.85,38.85 0 0 0 75.96,19.72 Z M 9.98,39.94 a 38.23,38.23 0 0 0 -0.72,7.54 l 22.94,8.62 1.79,-2.33 z m 77.07,0.67 -21.85,12.49 1.72,2.75 20.7,-7.55 v -0.1 a 22.66,22.66 0 0 0 0.01,-0.66 V 47.1 46.88 46.74 46.52 L 87.62,46.31 V 46.09 L 87.61,45.87 87.6,45.65 87.59,45.43 87.58,45.21 87.56,45 87.55,44.78 87.53,44.56 87.52,44.34 87.5,44.13 87.48,43.91 87.46,43.69 87.44,43.47 87.42,43.26 a 31.66,31.66 0 0 0 -0.37,-2.6 V 40.62 Z M 12.42,62.57 a 39.78,39.78 0 0 0 3.96,7.03 h 0.01 l 6.73,-1.48 0.14,-0.18 H 23.1 l 4.18,-5.44 z m 58.83,0.21 3.24,5.39 6.05,1.36 0.05,-0.06 a 36.02,36.02 0 0 0 2.53,-4.1 37.2,37.2 0 0 0 1.15,-2.37 z"
       fill="#55f"
       paint-order="markers fill stroke"
       id="path2"
       style="fill:#ffffff" />
    <g
       fill="#f5d"
       id="g10"
       style="fill:#ffffff">
      <path
         style="line-height:normal;font-variant-ligatures:normal;font-variant-position:normal;font-variant-caps:normal;font-variant-numeric:normal;font-variant-alternates:normal;font-variant-east-asian:normal;font-feature-settings:normal;font-variation-settings:normal;text-indent:0;text-align:start;text-decoration:none;text-decoration-line:none;text-decoration-style:solid;text-decoration-color:#000000;text-transform:none;text-orientation:mixed;white-space:normal;shape-padding:0;shape-margin:0;inline-size:0;isolation:auto;mix-blend-mode:normal;solid-color:#000000;solid-opacity:1;fill:#ffffff"
         d="M 55.53,35.83 44.12,48.86 38.9,46.56 21.92,68.38 h 1.48 l 15.88,-20.32 5.17,2.29 10.9,-12.45 c 6.04,10.27 12.55,20.15 18.47,30.49 h 1.48 z"
         color="#000000"
         font-weight="400"
         font-family="sans-serif"
         overflow="visible"
         id="path4" />
      <path
         style="line-height:normal;font-variant-ligatures:normal;font-variant-position:normal;font-variant-caps:normal;font-variant-numeric:normal;font-variant-alternates:normal;font-variant-east-asian:normal;font-feature-settings:normal;font-variation-settings:normal;text-indent:0;text-align:start;text-decoration:none;text-decoration-line:none;text-decoration-style:solid;text-decoration-color:#000000;text-transform:none;text-orientation:mixed;white-space:normal;shape-padding:0;shape-margin:0;inline-size:0;isolation:auto;mix-blend-mode:normal;solid-color:#000000;solid-opacity:1;fill:#ffffff"
         d="M 55.32,39.73 44.72,51.88 39.55,49.73 24.91,68.37 h 1.62 l 13.4,-17.15 5.14,2.13 10.07,-11.55 15.84,26.62 1.56,-0.03 z"
         color="#000000"
         font-weight="400"
         font-family="sans-serif"
         overflow="visible"
         id="path6" />
      <path
         d="m 28.1,68.36 12.23,-15.59 5.24,2.13 9.51,-10.92 14.28,24.4 z"
         id="path8"
         style="fill:#ffffff" />
    </g>
  </g>
</svg>
