<?xml version="1.0" encoding="UTF-8" standalone="no"?>
<svg
   xmlns:dc="http://purl.org/dc/elements/1.1/"
   xmlns:cc="http://creativecommons.org/ns#"
   xmlns:rdf="http://www.w3.org/1999/02/22-rdf-syntax-ns#"
   xmlns:svg="http://www.w3.org/2000/svg"
   xmlns="http://www.w3.org/2000/svg"
   xmlns:sodipodi="http://sodipodi.sourceforge.net/DTD/sodipodi-0.dtd"
   xmlns:inkscape="http://www.inkscape.org/namespaces/inkscape"
   height="512px"
   width="512px"
   xml:space="preserve"
   style="enable-background:new 0 0 304.998 304.998;"
   viewBox="0 0 304.998 304.998"
   y="0px"
   x="0px"
   id="Layer_1"
   version="1.1"
   inkscape:version="1.0.1 (3bc2e813f5, 2020-09-07)"
   sodipodi:docname="lin64.svg"><sodipodi:namedview
     pagecolor="#ffffff"
     bordercolor="#666666"
     borderopacity="1"
     objecttolerance="10"
     gridtolerance="10"
     guidetolerance="10"
     inkscape:pageopacity="0"
     inkscape:pageshadow="2"
     inkscape:window-width="1920"
     inkscape:window-height="1017"
     id="namedview24"
     showgrid="false"
     inkscape:zoom="1.3037281"
     inkscape:cx="322.3915"
     inkscape:cy="325.28647"
     inkscape:window-x="1358"
     inkscape:window-y="-8"
     inkscape:window-maximized="1"
     inkscape:current-layer="Layer_1"
     inkscape:document-rotation="0" /><metadata
     id="metadata39"><rdf:RDF><cc:Work
         rdf:about=""><dc:format>image/svg+xml</dc:format><dc:type
           rdf:resource="http://purl.org/dc/dcmitype/StillImage" /><dc:title /></cc:Work></rdf:RDF></metadata><defs
     id="defs37" /><path
     id="XMLID_92_"
     style="fill:#ffffff;stroke-width:1.6787"
     d="M 261.62695 0 C 242.66604 0 223.20392 5.9251429 208.22656 16.255859 C 177.55672 37.422582 181.61041 83.572147 184.29297 114.10938 C 184.6606 118.29102 185.00559 122.24077 185.20703 125.61328 C 186.99317 155.52099 185.36937 171.28516 183.24414 176.07617 C 181.86929 179.20695 175.10051 188.11649 167.9375 197.55078 C 160.52941 207.30738 152.13044 218.36633 145.24609 228.67188 C 137.03222 241.07243 130.40091 260.0277 123.98828 278.35742 C 119.29632 291.77023 114.86504 304.43883 110.55078 312.00977 C 102.37384 326.57416 104.40858 340.15498 106.10742 346.43164 C 103.0119 348.58205 98.539067 352.81633 94.763672 360.79688 C 90.200967 370.53333 80.942732 375.76526 61.691406 379.4668 C 52.84466 381.27643 46.744217 384.99716 43.554688 390.52344 C 38.913082 398.56609 41.441514 408.67196 43.748047 415.57812 C 47.155807 425.73091 45.032884 432.1553 41.171875 443.82227 C 40.282164 446.5149 39.272328 449.56335 38.25 452.92578 C 36.640127 458.23215 37.221268 463.05713 39.972656 467.26562 C 47.243104 478.3803 68.458947 482.30042 90.298828 484.87891 C 101.61117 486.22159 113.83961 490.34095 125.89648 494.69922 C 123.62915 490.05613 121.63498 485.2965 119.92969 480.46484 C 118.41343 476.16877 117.12133 471.81794 116.01758 467.41602 C 108.42388 464.93202 97.804569 463.20716 87.472656 461.53516 C 77.947715 459.99243 64.902399 457.88161 62.740234 455.97461 C 60.987672 454.00885 63.021602 447.61922 64.814453 441.98047 C 66.105373 437.92809 67.437734 433.738 68.167969 429.35156 C 69.203726 422.35474 67.984817 416.65817 67.007812 412.08203 C 66.178535 408.20088 65.525141 405.13786 66.228516 402.16992 C 66.73884 399.97083 77.593901 397.61296 82.230469 396.60742 C 88.748859 395.19228 95.490172 393.73053 99.898438 391.05469 C 105.8595 387.4438 109.08847 380.78365 111.93555 374.9082 C 113.74749 371.17364 115.61112 367.33013 117.75586 365.47461 C 118.0736 364.31217 118.40235 363.15253 118.74414 361.99805 C 124.54958 342.38858 134.53466 323.98942 147.94336 308.54102 C 150.12836 297.73765 153.93935 287.4751 158.61719 280.18555 C 163.95881 271.75176 168.32077 258.96046 172.54102 246.5918 C 177.09701 233.23606 181.80869 219.42781 187.07812 213.38281 C 195.42295 203.94516 203.13549 185.58144 204.50195 171.10938 C 212.3163 178.56952 224.43811 188.03711 235.63672 188.03711 C 237.36074 188.03711 239.03496 187.81095 240.63477 187.35938 C 248.29635 185.14684 259.56477 178.63497 270.46289 172.33984 C 279.85857 166.91093 291.4451 160.21679 295.80469 159.60742 C 303.27994 170.34103 346.71582 266.46438 351.1543 297.33398 C 353.47112 313.44764 352.6415 327.69136 351.27539 337.80859 L 410.75 264.08398 L 417.17969 264.08398 C 403.20045 238.23286 381.28301 206.64234 358.82422 175.42188 C 346.25915 157.8996 345.6651 138.85358 344.97852 116.79883 C 344.32047 95.763042 343.57841 71.918775 331.84766 45.412109 C 319.0929 16.550228 293.50042 0 261.62695 0 z M 276.34375 73.998047 C 287.4047 73.998047 296.4043 85.451997 296.4043 99.53125 C 296.4043 105.38823 294.78722 110.97808 291.99219 115.41992 C 292.73753 113.04624 293.14063 110.47827 293.14062 107.8125 C 293.14062 96.038101 285.67146 86.814453 276.13477 86.814453 C 266.81463 86.814453 259.23047 96.232831 259.23047 107.8125 C 259.23047 108.60149 259.26989 109.39265 259.34375 110.18164 C 258.85021 109.99195 258.36847 109.80685 257.89844 109.62891 C 256.82575 106.38062 256.2832 102.99105 256.2832 99.53125 C 256.2832 85.451997 265.28112 73.998047 276.34375 73.998047 z M 214.07422 78.724609 C 222.21591 78.724609 229.09375 89.697178 229.09375 102.68359 C 229.09375 104.32033 228.97361 105.94837 228.72852 107.6875 C 228.22994 107.90237 227.7396 108.13186 227.25781 108.37695 C 227.20913 107.29587 227.09673 106.19916 226.92383 105.09961 C 225.18134 95.069379 218.53145 87.789062 211.11328 87.789062 C 210.56435 87.789062 210.01226 87.8315 209.40625 87.923828 C 204.99295 88.659099 201.5317 91.973469 199.63477 96.673828 C 201.29836 86.359898 207.14119 78.724609 214.07422 78.724609 z M 241.78711 125.12109 C 241.9768 125.12109 242.14628 125.13439 242.32422 125.16797 C 246.53775 125.91163 256.93236 130.05952 264.52344 133.08789 C 268.03192 134.48793 271.06141 135.69545 273.19336 136.46094 C 279.90984 138.76747 283.41123 141.71963 283.83594 142.82422 C 283.67646 143.53599 283.33811 143.85209 279.58789 145.80273 C 277.69432 146.78813 275.33619 148.01434 272.38672 149.81055 L 270.41602 151.00391 C 262.49591 155.80499 243.95239 167.05121 238.91797 167.71094 C 235.49846 168.1709 233.38271 166.84478 228.62695 163.61328 C 227.55426 162.88305 226.41237 162.10677 225.19531 161.32617 C 216.62219 155.70085 211.10717 149.50439 210.48438 147.08203 C 213.27941 144.92154 220.20877 139.51573 223.75586 136.31445 C 230.9558 129.6198 238.20141 125.12109 241.78711 125.12109 z M 185.44141 504.75781 L 186.76758 506.16992 C 186.56551 505.96292 186.42903 505.74298 186.23047 505.53516 C 185.98093 505.26767 185.68554 505.02812 185.44141 504.75781 z "
     transform="scale(0.59569922)" /><g
     id="g5"
     style="fill:#ffffff" /><g
     id="g7"
     style="fill:#ffffff" /><g
     id="g9"
     style="fill:#ffffff" /><g
     id="g11"
     style="fill:#ffffff" /><g
     id="g13"
     style="fill:#ffffff" /><g
     id="g15"
     style="fill:#ffffff" /><g
     id="g17"
     style="fill:#ffffff" /><g
     id="g19"
     style="fill:#ffffff" /><g
     id="g21"
     style="fill:#ffffff" /><g
     id="g23"
     style="fill:#ffffff" /><g
     id="g25"
     style="fill:#ffffff" /><g
     id="g27"
     style="fill:#ffffff" /><g
     id="g29"
     style="fill:#ffffff" /><g
     id="g31"
     style="fill:#ffffff" /><g
     id="g33"
     style="fill:#ffffff" /><text
     xml:space="preserve"
     style="font-style:normal;font-weight:normal;font-size:158.853px;line-height:1.25;font-family:sans-serif;fill:#ffffff;fill-opacity:1;stroke:none;stroke-width:0.595699;"
     x="85.411652"
     y="302.59348"
     id="text848"><tspan
       sodipodi:role="line"
       id="tspan846"
       x="85.411652"
       y="302.59348"
       style="font-style:normal;font-variant:normal;font-weight:bold;font-stretch:normal;font-size:158.853px;font-family:sans-serif;-inkscape-font-specification:'sans-serif Bold';stroke-width:0.595699;fill:#ffffff;">64</tspan></text></svg>
