<?xml version="1.0" encoding="UTF-8" standalone="no"?>
<svg
   xmlns:dc="http://purl.org/dc/elements/1.1/"
   xmlns:cc="http://creativecommons.org/ns#"
   xmlns:rdf="http://www.w3.org/1999/02/22-rdf-syntax-ns#"
   xmlns:svg="http://www.w3.org/2000/svg"
   xmlns="http://www.w3.org/2000/svg"
   xmlns:sodipodi="http://sodipodi.sourceforge.net/DTD/sodipodi-0.dtd"
   xmlns:inkscape="http://www.inkscape.org/namespaces/inkscape"
   height="512px"
   width="512px"
   xml:space="preserve"
   style="enable-background:new 0 0 304.998 304.998;"
   viewBox="0 0 304.998 304.998"
   y="0px"
   x="0px"
   id="Layer_1"
   version="1.1"
   inkscape:version="0.91 r13725"
   sodipodi:docname="astm.svg"><sodipodi:namedview
     pagecolor="#ffffff"
     bordercolor="#666666"
     borderopacity="1"
     objecttolerance="10"
     gridtolerance="10"
     guidetolerance="10"
     inkscape:pageopacity="0"
     inkscape:pageshadow="2"
     inkscape:window-width="1366"
     inkscape:window-height="705"
     id="namedview24"
     showgrid="false"
     inkscape:zoom="0.44194174"
     inkscape:cx="928.03201"
     inkscape:cy="214.12524"
     inkscape:window-x="-4"
     inkscape:window-y="-4"
     inkscape:window-maximized="1"
     inkscape:current-layer="Layer_1" /><metadata
     id="metadata39"><rdf:RDF><cc:Work
         rdf:about=""><dc:format>image/svg+xml</dc:format><dc:type
           rdf:resource="http://purl.org/dc/dcmitype/StillImage" /><dc:title></dc:title></cc:Work></rdf:RDF></metadata><defs
     id="defs37" /><path
     style="fill:#ffffff"
     d="M 261.62695 0 C 242.66604 0 223.20392 5.9251424 208.22656 16.255859 C 177.55672 37.422583 181.61041 83.572145 184.29297 114.10938 C 184.6606 118.29101 185.00559 122.24077 185.20703 125.61328 C 186.99317 155.52099 185.36937 171.28516 183.24414 176.07617 C 181.86929 179.20695 175.10051 188.11649 167.9375 197.55078 C 160.52941 207.30738 152.13044 218.36634 145.24609 228.67188 C 137.03222 241.07242 130.40091 260.0277 123.98828 278.35742 C 119.29632 291.77023 114.86504 304.43883 110.55078 312.00977 C 102.37384 326.57416 104.40858 340.15498 106.10742 346.43164 C 103.0119 348.58205 98.539067 352.81634 94.763672 360.79688 C 90.200966 370.53332 80.942733 375.76526 61.691406 379.4668 C 52.844659 381.27644 46.744216 384.99716 43.554688 390.52344 C 38.913083 398.56609 41.441514 408.67196 43.748047 415.57812 C 47.155807 425.7309 45.032884 432.1553 41.171875 443.82227 C 40.282164 446.5149 39.272328 449.56335 38.25 452.92578 C 36.640127 458.23215 37.221268 463.05714 39.972656 467.26562 C 47.243104 478.3803 68.458946 482.30042 90.298828 484.87891 C 103.33897 486.42667 117.61207 491.64328 131.41602 496.68945 C 144.9413 501.63154 158.92589 506.74185 171.63867 508.29297 C 173.57086 508.53638 175.48519 508.66016 177.33008 508.66016 C 184.66493 508.66016 190.4581 506.79731 194.97656 504.20703 C 189.72237 500.24268 184.9207 495.65252 180.66992 490.44531 L 180.63477 490.4043 L 180.59766 490.36133 C 179.21742 488.65122 177.90912 486.8885 176.6543 485.08594 C 176.41992 485.25086 176.14886 485.44522 175.98633 485.55469 C 175.18727 485.73599 174.1985 485.82813 173.03516 485.82812 C 160.26698 485.82812 134.99306 475.20563 121.41406 469.49805 L 119.4043 468.6543 C 111.82161 465.47484 99.443463 463.47238 87.472656 461.53516 C 77.947715 459.99243 64.902399 457.88161 62.740234 455.97461 C 60.987672 454.00885 63.021602 447.61922 64.814453 441.98047 C 66.105373 437.92809 67.437734 433.738 68.167969 429.35156 C 69.203726 422.35474 67.984816 416.65817 67.007812 412.08203 C 66.178536 408.20088 65.52514 405.13786 66.228516 402.16992 C 66.73884 399.97083 77.5939 397.61296 82.230469 396.60742 C 88.748859 395.19228 95.490172 393.73053 99.898438 391.05469 C 105.8595 387.4438 109.08847 380.78365 111.93555 374.9082 C 113.99699 370.65941 116.12505 366.26622 118.6582 364.82422 C 118.80089 364.74028 119.01923 364.64453 119.43555 364.64453 C 124.18123 364.64453 134.13916 374.61982 139.87695 383.54883 C 141.33239 385.79996 144.02941 390.31077 147.14844 395.5332 C 149.91886 400.16869 152.997 405.30963 156.125 410.43945 C 156.11065 409.41298 156.08203 408.39526 156.08203 407.35938 C 156.08203 391.62347 157.96254 376.82866 161.85352 363.28516 C 156.12005 358.13418 151.44606 353.02002 149.47266 348.34375 C 141.60795 329.7404 147.80804 297.02962 158.61719 280.18555 C 163.95881 271.75176 168.32076 258.96046 172.54102 246.5918 C 177.09701 233.23606 181.8087 219.42781 187.07812 213.38281 C 195.42294 203.94516 203.13549 185.58143 204.50195 171.10938 C 212.3163 178.56951 224.43811 188.03711 235.63672 188.03711 C 237.36074 188.03711 239.03496 187.81094 240.63477 187.35938 C 248.29635 185.14685 259.56477 178.63497 270.46289 172.33984 C 279.85857 166.91093 291.4451 160.21679 295.80469 159.60742 C 303.27994 170.34102 346.71582 266.46438 351.1543 297.33398 C 354.66614 321.75906 350.95683 341.95102 349.0918 349.85938 C 347.59104 349.65457 345.80201 349.48828 343.92188 349.48828 C 339.43607 349.48828 336.17737 350.39866 333.80469 351.74219 L 333.80469 382.12305 L 326.0957 378.47266 C 326.05906 379.25866 326.03489 380.06831 326.00195 380.86523 C 332.00932 387.51543 336.71507 395.16417 340.06055 403.46875 L 350.60156 387.76367 C 350.18421 382.23099 349.83948 376.06921 350.44727 373.91992 C 350.59835 373.84942 350.76484 373.78837 350.95117 373.73633 C 350.96349 376.76368 351.2343 380.95587 352.27148 385.27344 L 409.96289 299.31641 L 415.95312 290.39258 L 429.16211 290.39258 C 429.10919 290.23404 429.06185 290.07427 429.00781 289.91602 C 419.26464 261.49563 389.51756 218.08937 358.82422 175.42188 C 346.25915 157.89961 345.6651 138.85358 344.97852 116.79883 C 344.32047 95.763041 343.57841 71.918776 331.84766 45.412109 C 319.0929 16.550226 293.50042 -4.7369516e-15 261.62695 0 z M 276.34375 73.996094 C 287.4047 73.996094 296.4043 85.451996 296.4043 99.53125 C 296.4043 105.38823 294.78722 110.97808 291.99219 115.41992 C 292.73753 113.04624 293.14062 110.47827 293.14062 107.8125 C 293.14062 96.038101 285.67146 86.814453 276.13477 86.814453 C 266.81463 86.814453 259.23047 96.23283 259.23047 107.8125 C 259.23047 108.60149 259.26989 109.39265 259.34375 110.18164 C 258.85021 109.99195 258.36847 109.80685 257.89844 109.62891 C 256.82575 106.38062 256.2832 102.99105 256.2832 99.53125 C 256.2832 85.451996 265.28112 73.996094 276.34375 73.996094 z M 214.07422 78.724609 C 222.21591 78.724609 229.09375 89.697178 229.09375 102.68359 C 229.09375 104.32033 228.97361 105.94837 228.72852 107.6875 C 228.22994 107.90237 227.7396 108.13186 227.25781 108.37695 C 227.20913 107.29587 227.09673 106.19916 226.92383 105.09961 C 225.18134 95.069378 218.53145 87.789063 211.11328 87.789062 C 210.56435 87.789062 210.01226 87.8315 209.40625 87.923828 C 204.99295 88.659099 201.5317 91.973469 199.63477 96.673828 C 201.29836 86.359898 207.14119 78.724609 214.07422 78.724609 z M 241.78711 125.12109 C 241.9768 125.12109 242.14628 125.13439 242.32422 125.16797 C 246.53775 125.91163 256.93236 130.05952 264.52344 133.08789 C 268.03192 134.48793 271.06141 135.69545 273.19336 136.46094 C 279.90984 138.76747 283.41123 141.71963 283.83594 142.82422 C 283.67646 143.53599 283.33811 143.85209 279.58789 145.80273 C 277.69432 146.78813 275.33619 148.01434 272.38672 149.81055 L 270.41602 151.00391 C 262.49591 155.80499 243.95239 167.05121 238.91797 167.71094 C 235.49846 168.1709 233.38271 166.84478 228.62695 163.61328 C 227.55426 162.88305 226.41237 162.10677 225.19531 161.32617 C 216.62219 155.70085 211.10716 149.50439 210.48438 147.08203 C 213.2794 144.92154 220.20877 139.51573 223.75586 136.31445 C 230.9558 129.6198 238.20141 125.12109 241.78711 125.12109 z M 264.23047 307.4043 C 236.92007 307.4043 215.40734 316.31217 199.69336 334.12695 C 184.06341 351.8577 176.24805 376.26755 176.24805 407.35938 C 176.24805 437.69492 182.92798 461.14102 196.28906 477.69531 C 209.73418 494.16558 228.68341 502.40039 253.13672 502.40039 C 275.32116 502.40039 293.0101 496.3506 306.20312 484.25 C 319.39614 472.06536 325.99414 455.88838 325.99414 435.7207 C 325.99414 417.48577 320.06921 402.73881 308.2207 391.47852 C 296.45623 380.21824 280.95231 374.58789 261.70898 374.58789 C 254.06208 374.58789 247.00367 375.63748 240.5332 377.73828 C 234.06274 379.75505 228.05392 382.82189 222.50781 386.93945 C 223.85232 371.14145 228.55792 359.25258 236.625 351.26953 C 244.69207 343.20246 255.95276 339.16797 270.40625 339.16797 C 277.12882 339.16797 284.01944 340.0927 291.07812 341.94141 C 298.13681 343.70608 305.65759 346.47833 313.64062 350.25977 L 313.64062 315.4707 C 305.65759 312.78168 297.59056 310.76444 289.43945 309.41992 C 281.28835 308.07541 272.88575 307.4043 264.23047 307.4043 z M 426.70508 310.55469 L 351.32812 422.86328 L 351.32812 464.45898 L 434.77344 464.45898 L 434.77344 498.74414 L 480.6543 498.74414 L 480.6543 464.45898 L 507.50195 464.45898 L 507.50195 429.29297 L 480.6543 429.29297 L 480.6543 310.55469 L 426.70508 310.55469 z M 434.77344 350.51172 L 434.77344 429.29297 L 381.58008 429.29297 L 434.77344 350.51172 z M 253.64258 405.84766 C 262.21384 405.84766 268.59919 408.61991 272.80078 414.16602 C 277.08641 419.6281 279.23047 427.86291 279.23047 438.87109 C 279.23047 449.87928 277.08641 458.15701 272.80078 463.70312 C 268.59919 469.16521 262.21384 471.89648 253.64258 471.89648 C 245.15534 471.89648 238.76805 469.16521 234.48242 463.70312 C 230.28083 458.15701 228.17969 449.87928 228.17969 438.87109 C 228.17969 427.86291 230.28083 419.6281 234.48242 414.16602 C 238.76805 408.61991 245.15534 405.84766 253.64258 405.84766 z M 258.10156 448.01367 C 255.18553 448.3493 252.32575 448.62932 249.51562 448.86328 C 249.96857 450.45779 250.41235 451.33946 250.55469 451.52734 L 250.3457 451.25586 C 250.64092 451.63206 249.47907 451.73047 253.64062 451.73047 C 257.92863 451.73047 256.65508 451.61993 256.81641 451.41016 L 256.83008 451.39062 L 256.84375 451.37305 C 257.01547 451.15083 257.58334 450.08967 258.10156 448.01367 z M 332.04883 484.62305 C 329.20447 488.93719 325.96696 492.99561 322.29883 496.71289 C 325.1977 500.64706 329.26899 505.00764 334.50195 507.8125 C 339.37186 510.47492 346.14842 512 353.08984 512 L 353.0918 512 C 360.50493 512 374.60786 510.24836 385.76953 498.50586 C 389.83719 494.19532 396.14428 489.44747 403.48633 484.62305 L 366.65625 484.62305 C 363.34375 486.16849 360.33213 487.02734 357.86133 487.02734 C 356.95987 487.02734 356.13844 486.9133 355.4082 486.68164 C 354.03368 486.25317 352.70269 485.55685 351.45312 484.62305 L 332.04883 484.62305 z "
     transform="scale(0.59569919,0.59569919)"
     id="XMLID_92_" /><g
     id="g5"
     style="fill:#ffffff" /><g
     id="g7"
     style="fill:#ffffff" /><g
     id="g9"
     style="fill:#ffffff" /><g
     id="g11"
     style="fill:#ffffff" /><g
     id="g13"
     style="fill:#ffffff" /><g
     id="g15"
     style="fill:#ffffff" /><g
     id="g17"
     style="fill:#ffffff" /><g
     id="g19"
     style="fill:#ffffff" /><g
     id="g21"
     style="fill:#ffffff" /><g
     id="g23"
     style="fill:#ffffff" /><g
     id="g25"
     style="fill:#ffffff" /><g
     id="g27"
     style="fill:#ffffff" /><g
     id="g29"
     style="fill:#ffffff" /><g
     id="g31"
     style="fill:#ffffff" /><g
     id="g33"
     style="fill:#ffffff" /></svg>