<?xml version="1.0" encoding="iso-8859-1"?>
<!-- Generator: Adobe Illustrator 18.1.1, SVG Export Plug-In . SVG Version: 6.00 Build 0)  -->
<svg xmlns="http://www.w3.org/2000/svg" xmlns:xlink="http://www.w3.org/1999/xlink" version="1.1" id="Capa_1" x="0px" y="0px" viewBox="0 0 96 96" style="enable-background:new 0 0 96 96;" xml:space="preserve" width="512px" height="512px">
<g>
	<path d="M49.015,0.803c-0.133-1.071-1.896-1.071-2.029,0C42.57,36.344,20,43.666,20,68.367   C20,83.627,32.816,96,48,96s28-12.373,28-27.633C76,43.666,53.43,36.344,49.015,0.803z M44.751,40.09   c-0.297,1.095-0.615,2.223-0.942,3.386c-2.007,7.123-4.281,15.195-4.281,24.537c0,5.055-2.988,6.854-5.784,6.854   c-3.189,0-5.782-2.616-5.782-5.831c0-11.034,5.315-18.243,10.005-24.604c1.469-1.991,2.855-3.873,3.983-5.749   c0.516-0.856,1.903-0.82,2.533,0.029C44.781,39.116,44.879,39.619,44.751,40.09z" fill="#FFFFFF"/>
</g>
<g>
</g>
<g>
</g>
<g>
</g>
<g>
</g>
<g>
</g>
<g>
</g>
<g>
</g>
<g>
</g>
<g>
</g>
<g>
</g>
<g>
</g>
<g>
</g>
<g>
</g>
<g>
</g>
<g>
</g>
</svg>
