<?xml version="1.0" encoding="iso-8859-1"?>
<!-- Generator: Adobe Illustrator 19.0.0, SVG Export Plug-In . SVG Version: 6.00 Build 0)  -->
<svg xmlns="http://www.w3.org/2000/svg" xmlns:xlink="http://www.w3.org/1999/xlink" version="1.1" id="Capa_1" x="0px" y="0px" viewBox="0 0 490 490" style="enable-background:new 0 0 490 490;" xml:space="preserve" width="512px" height="512px">
<g>
	<g>
		<g>
			<path d="M0,88.3V490h490V88.3H0z M171.1,246.6c0,1.9-1.2,3.9-3.1,4.7l-61.1,27.6l60.7,28.4c2,0.8,3.1,2.7,3.1,4.7v22.2     c0,3.7-3.9,6.2-7.3,4.7l-92.3-42.4c-2-0.8-3.1-2.7-3.1-4.7v-24.1c0-2.1,1.2-4,3.1-4.9l92.7-43c3.4-1.6,7.2,0.9,7.2,4.6v22.2     H171.1z M302.2,200.1l-84.8,181.8c-0.8,1.9-2.7,3.1-4.7,3.1h-19.6c-3.7,0-6.2-3.9-4.6-7.2L273.4,196c0.8-1.9,2.7-3.1,4.7-3.1     h19.5C301.3,192.9,303.7,196.7,302.2,200.1z M421.9,291.7c0,1.9-1.2,3.9-3.1,4.7l-92.3,42.4c-3.4,1.6-7.3-0.9-7.3-4.7v-22.2     c0-2,1.2-3.9,3.1-4.7l60.7-28.4l-61-27.6c-1.9-0.8-3.1-2.7-3.1-4.7v-22.3c0-3.7,3.8-6.2,7.2-4.6l92.7,43c1.9,0.9,3.1,2.8,3.1,4.9     V291.7z" fill="#FFFFFF"/>
			<path d="M0,0v68.8h490V0H0z M334.1,43.9H30.7c-5.4,0-9.7-4.3-9.7-9.7s4.3-9.7,9.7-9.7H334c5.4,0,9.7,4.3,9.7,9.7     C343.8,39.7,339.5,43.9,334.1,43.9z M396.3,43.9h-19.1c-5.4,0-9.7-4.3-9.7-9.7s4.3-9.7,9.7-9.7h19.1c5.4,0,9.7,4.3,9.7,9.7     C406,39.7,401.7,43.9,396.3,43.9z M459.3,43.9h-19.1c-5.4,0-9.7-4.3-9.7-9.7s4.3-9.7,9.7-9.7h19.1c5.4,0,9.7,4.3,9.7,9.7     C469,39.7,464.7,43.9,459.3,43.9z" fill="#FFFFFF"/>
		</g>
	</g>
</g>
<g>
</g>
<g>
</g>
<g>
</g>
<g>
</g>
<g>
</g>
<g>
</g>
<g>
</g>
<g>
</g>
<g>
</g>
<g>
</g>
<g>
</g>
<g>
</g>
<g>
</g>
<g>
</g>
<g>
</g>
</svg>
