<?xml version="1.0" encoding="iso-8859-1"?>
<!-- Generator: Adobe Illustrator 19.0.0, SVG Export Plug-In . SVG Version: 6.00 Build 0)  -->
<svg xmlns="http://www.w3.org/2000/svg" xmlns:xlink="http://www.w3.org/1999/xlink" version="1.1" id="Layer_1" x="0px" y="0px" viewBox="0 0 486.322 486.322" style="enable-background:new 0 0 486.322 486.322;" xml:space="preserve" width="512px" height="512px">
<g>
	<g>
		<path d="M462.312,259.673c-3.299-3.37-8.705-3.427-12.075-0.128c-25.378,24.832-62.594,33.22-96.171,21.675    c-2.449-0.844-5.149-0.53-7.339,0.853c-12.448,7.825-26.077,13.588-40.363,17.067c-4.736,0.566-8.118,4.864-7.552,9.6    s4.864,8.118,9.6,7.552h2.048c14.732-3.59,28.851-9.341,41.899-17.067c38.876,11.712,81.044,1.162,109.824-27.477    C465.554,268.449,465.611,263.043,462.312,259.673z" fill="#FFFFFF"/>
	</g>
</g>
<g>
	<g>
		<path d="M289.683,311.556c-0.259-4.713-4.29-8.323-9.003-8.064h-7.083c-4.713,0-8.533,3.821-8.533,8.533    c0,4.713,3.82,8.533,8.533,8.533h8.021C286.331,320.299,289.942,316.268,289.683,311.556z" fill="#FFFFFF"/>
	</g>
</g>
<g>
	<g>
		<path d="M249.619,300.846c-17.356-3.097-33.938-9.562-48.811-19.029c-9.603-6.217-21.681-7.21-32.171-2.645    c-24.138,10.846-52.146,8.592-74.24-5.973c-7.046-4.949-15.703-7.052-24.235-5.888c-8.943,1.185-17.946,1.869-26.965,2.048    c-4.713,0-8.533,3.82-8.533,8.533s3.82,8.533,8.533,8.533c9.734-0.19,19.449-0.931,29.099-2.219    c4.35-0.566,8.75,0.565,12.288,3.157c27.032,18.001,61.41,20.869,91.051,7.595c5.244-2.173,11.225-1.598,15.957,1.536    c16.747,10.654,35.415,17.93,54.955,21.419h1.536c4.713,0.424,8.877-3.052,9.301-7.765    C257.808,305.435,254.331,301.27,249.619,300.846z" fill="#FFFFFF"/>
	</g>
</g>
<g>
	<g>
		<path d="M357.437,411.908c-1.555-4.548-6.503-6.974-11.051-5.419c-30.898,11.05-64.748,10.565-95.317-1.365    c-4.308-1.91-9.349,0.034-11.26,4.342c-1.91,4.308,0.034,9.349,4.342,11.26c0.225,0.1,0.455,0.19,0.688,0.27    c13.829,5.415,28.376,8.779,43.179,9.984c4.324,0.341,8.59,0.512,12.8,0.512c17.431,0.125,34.752-2.762,51.2-8.533    C356.566,421.403,358.992,416.455,357.437,411.908z" fill="#FFFFFF"/>
	</g>
</g>
<g>
	<g>
		<path d="M327.485,228.953c-1.649-4.548-6.673-6.898-11.221-5.248c-30.898,11.05-64.748,10.565-95.317-1.365    c-4.157-2.22-9.327-0.651-11.547,3.506c-2.22,4.157-0.651,9.327,3.506,11.547c0.704,0.376,1.458,0.652,2.238,0.818    c13.83,5.413,28.376,8.776,43.179,9.984c4.267,0.341,8.505,0.512,12.715,0.512c17.431,0.125,34.752-2.762,51.2-8.533    C326.785,238.525,329.135,233.501,327.485,228.953z" fill="#FFFFFF"/>
	</g>
</g>
<g>
	<g>
		<path d="M386.878,393.927c-2.565-3.345-7.187-4.316-10.881-2.287l-6.229,3.925c-4.295,1.941-6.203,6.996-4.262,11.29    c1.941,4.295,6.996,6.203,11.29,4.262c0.53-0.24,1.034-0.533,1.505-0.875c2.389-1.365,4.722-2.816,6.997-4.352    C389.038,403.024,389.746,397.667,386.878,393.927z" fill="#FFFFFF"/>
	</g>
</g>
<g>
	<g>
		<path d="M218.897,435.472c-0.644-0.362-1.332-0.638-2.046-0.823c-13.778-5.633-26.657-13.251-38.229-22.613    c-3.8-2.787-9.141-1.966-11.928,1.835c-2.593,3.535-2.085,8.461,1.176,11.392c12.919,10.405,27.294,18.857,42.667,25.088    c4.109,2.309,9.311,0.85,11.62-3.259C224.464,442.983,223.005,437.781,218.897,435.472z" fill="#FFFFFF"/>
	</g>
</g>
<g>
	<g>
		<path d="M281.822,445.975c-0.324-0.011-0.648-0.003-0.971,0.023c-7.776,0.306-15.563,0.021-23.296-0.853    c-4.713-0.542-8.973,2.839-9.515,7.552s2.839,8.973,7.552,9.515c6.374,0.732,12.784,1.103,19.2,1.109h6.741    c4.713,0,8.533-3.82,8.533-8.533C290.223,450.077,286.532,446.132,281.822,445.975z" fill="#FFFFFF"/>
	</g>
</g>
<g>
	<g>
		<path d="M337.095,31.647c-0.2-0.074-0.402-0.14-0.607-0.198c-3.3-1.081-6.628-2.048-9.984-2.901    c-4.474-1.481-9.302,0.946-10.782,5.42c-1.481,4.474,0.946,9.302,5.42,10.782c0.331,0.11,0.668,0.199,1.01,0.267    c3.072,0.796,6.087,1.678,9.045,2.645c4.422,1.629,9.328-0.636,10.957-5.059C343.782,38.181,341.517,33.276,337.095,31.647z" fill="#FFFFFF"/>
	</g>
</g>
<g>
	<g>
		<path d="M298.685,24.537c-6.451-0.885-12.947-1.397-19.456-1.536c-4.713,0-8.533,3.82-8.533,8.533    c-0.097,4.649,3.546,8.519,8.192,8.704c5.852,0.123,11.693,0.579,17.493,1.365h1.195c4.713,0.306,8.782-3.266,9.088-7.979    S303.398,24.843,298.685,24.537z" fill="#FFFFFF"/>
	</g>
</g>
<g>
	<g>
		<path d="M243.304,34.606c-1.178-4.571-5.839-7.322-10.411-6.144c-8.398,2.212-16.614,5.065-24.576,8.533    c-4.244,2.048-6.025,7.15-3.976,11.394c1.377,2.854,4.223,4.709,7.389,4.819c1.144-0.002,2.276-0.234,3.328-0.683    c7.163-3.067,14.552-5.578,22.101-7.509C241.731,43.839,244.482,39.178,243.304,34.606z" fill="#FFFFFF"/>
	</g>
</g>
<g>
	<g>
		<path d="M460.392,338.734c-4.101-2.302-9.291-0.852-11.605,3.243c-10.535,18.722-33.346,26.691-53.248,18.603    c-8.002-3.475-17.086-3.475-25.088,0c-11.447,5.172-23.987,7.457-36.523,6.656c-4.713-0.306-8.782,3.266-9.088,7.979    c-0.306,4.713,3.266,8.782,7.979,9.088h6.059c13.317-0.076,26.465-2.985,38.571-8.533c3.704-1.594,7.901-1.594,11.605,0    c27.761,11.419,59.685,0.461,74.581-25.6C465.822,346.107,464.386,341.043,460.392,338.734z" fill="#FFFFFF"/>
	</g>
</g>
<g>
	<g>
		<path d="M328.764,149.894c-0.014-0.001-0.028-0.002-0.042-0.003c-7.735-0.501-15.503-0.043-23.125,1.365    c-4.619,0.937-7.603,5.441-6.667,10.06c0.801,3.95,4.257,6.801,8.288,6.836h1.536c6.211-1.188,12.547-1.589,18.859-1.195    c4.685,0.293,8.726-3.253,9.045-7.936C336.999,154.322,333.465,150.235,328.764,149.894z" fill="#FFFFFF"/>
	</g>
</g>
<g>
	<g>
		<path d="M302.397,203.268c-1.484-4.477-6.317-6.903-10.795-5.419c-5.297,1.802-10.715,3.228-16.213,4.267    c-23.552,4.437-37.376-3.243-53.248-12.117l-6.059-3.328c9.849-12.445,25.792-18.395,41.387-15.445    c2.923,0.526,5.783,1.355,8.533,2.475c8.004,3.465,17.084,3.465,25.088,0c4.563-1.179,7.306-5.834,6.126-10.397    c-1.179-4.563-5.834-7.306-10.397-6.126c-0.975,0.252-1.898,0.675-2.726,1.249c-3.702,1.604-7.903,1.604-11.605,0    c-25.955-10.496-55.718-1.557-71.595,21.504c-2.987-1.16-6.035-2.158-9.131-2.987c-11.339-2.966-23.341-2.096-34.133,2.475    l-1.707,0.683c-10.325,3.925-21.504,8.704-31.573,12.459c-3.129,1.18-6.481,1.647-9.813,1.365c-4.608,0-9.557-1.109-14.507-1.963    c-4.713-0.754-9.145,2.455-9.899,7.168c-0.754,4.713,2.455,9.145,7.168,9.899c4.779,0.768,10.411,1.621,15.787,2.133    c5.796,0.495,11.629-0.322,17.067-2.389c10.411-3.925,21.504-8.533,32.256-13.227l1.707-0.683    c7.292-3.341,15.491-4.152,23.296-2.304c9.308,3.019,18.197,7.205,26.453,12.459c14.369,9.512,31.079,14.885,48.299,15.531    c5.5-0.033,10.984-0.576,16.384-1.621c6.249-1.195,12.407-2.82,18.432-4.864C301.456,212.578,303.882,207.745,302.397,203.268z" fill="#FFFFFF"/>
	</g>
</g>
<g>
	<g>
		<path d="M452.048,313.512c-2.601-3.93-7.895-5.008-11.825-2.408c-0.194,0.129-0.383,0.265-0.567,0.409    c-22.207,15.918-50.247,21.37-76.8,14.933c-8.003-2.003-16.466-0.937-23.723,2.987c-43.418,23.811-96.354,22.111-138.155-4.437    c-9.488-6.26-21.501-7.288-31.915-2.731c-23.967,10.708-51.731,8.523-73.728-5.803c-7.759-5.298-17.341-7.208-26.539-5.291h-1.451    c-4.713,0.801-7.884,5.271-7.083,9.984c0.801,4.713,5.271,7.884,9.984,7.083h1.963c4.663-0.881,9.484,0.133,13.397,2.816    c27.001,17.359,60.966,19.834,90.197,6.571c5.171-2.15,11.079-1.54,15.701,1.621c24.524,15.642,53.003,23.961,82.091,23.979    c4.011,0,8.021,0,11.947-0.512l-0.853,1.195c-12.874,15.139-34.495,19.386-52.139,10.24c-7.471-4.184-16.352-5.051-24.491-2.389    c-21.294,7.464-44.792,5.186-64.256-6.229c-9.091-5.461-20.364-5.816-29.781-0.939c-5.514,2.858-11.216,5.338-17.067,7.424    c-4.501,1.649-6.812,6.635-5.163,11.136c1.649,4.501,6.635,6.812,11.136,5.163c6.557-2.409,12.943-5.26,19.115-8.533    c4.199-2.137,9.206-1.944,13.227,0.512c23.807,13.962,52.552,16.74,78.592,7.595c3.677-1.132,7.659-0.7,11.008,1.195    c24.633,12.779,54.823,6.911,72.875-14.165c3.902-4.669,7.067-9.906,9.387-15.531c13.946-3.124,27.388-8.179,39.936-15.019    c3.623-1.99,7.881-2.481,11.861-1.365c31.366,7.586,64.481,1.138,90.709-17.664C453.57,322.736,454.648,317.442,452.048,313.512z" fill="#FFFFFF"/>
	</g>
</g>
<g>
	<g>
		<path d="M77.373,386.82c-0.589-4.76-4.925-8.141-9.685-7.552l-7.936,1.024c-4.713,0.141-8.419,4.076-8.277,8.789    c0.141,4.713,4.076,8.419,8.789,8.277h0.512c3.015,0,6.03-0.284,9.045-0.853C74.581,395.916,77.962,391.579,77.373,386.82z" fill="#FFFFFF"/>
	</g>
</g>
<g>
	<g>
		<path d="M472.235,288.168c-3.705-2.451-8.67-1.65-11.416,1.841c-1.964,2.727-4.072,5.348-6.315,7.851    c-2.95,3.676-2.361,9.046,1.314,11.996c3.406,2.733,8.326,2.454,11.401-0.647c2.634-2.94,5.112-6.017,7.424-9.216    C477.243,296.062,476.165,290.768,472.235,288.168z" fill="#FFFFFF"/>
	</g>
</g>
<g>
	<g>
		<path d="M38.931,306.308c-2.53-1.46-4.903-3.175-7.083-5.12c-3.676-2.95-9.046-2.361-11.996,1.314    c-2.733,3.406-2.454,8.326,0.647,11.4c3.073,2.726,6.418,5.128,9.984,7.168c1.3,0.737,2.772,1.12,4.267,1.109    c4.712-0.094,8.455-3.99,8.361-8.702C43.052,310.525,41.471,307.813,38.931,306.308z" fill="#FFFFFF"/>
	</g>
</g>
<g>
	<g>
		<path d="M392.211,115.758c-4.227-4.28-8.762-8.244-13.568-11.861c-3.77-2.828-9.119-2.064-11.947,1.707s-2.064,9.119,1.707,11.947    c4.12,3.179,7.999,6.659,11.605,10.411c3.37,3.37,8.833,3.37,12.203,0C395.58,124.591,395.58,119.128,392.211,115.758z" fill="#FFFFFF"/>
	</g>
</g>
<g>
	<g>
		<path d="M345.875,85.55c-21.871-9.497-45.065-15.598-68.779-18.091l-4.864-0.512c-4.545-1.245-9.24,1.43-10.485,5.975    c-1.245,4.545,1.43,9.24,5.975,10.485c0.995,0.273,2.032,0.363,3.059,0.265l4.523,0.427c21.966,2.408,43.434,8.163,63.659,17.067    c4.312,1.909,9.355-0.04,11.264-4.352S350.187,87.459,345.875,85.55z" fill="#FFFFFF"/>
	</g>
</g>
<g>
	<g>
		<path d="M209.709,77.799c-1.237-4.282-5.561-6.89-9.925-5.988c-11.087,2.686-21.846,6.577-32.085,11.605    c-0.299-0.221-0.612-0.42-0.939-0.597c-15.379-6.077-31.565-9.872-48.043-11.264c-4.687-0.394-8.809,3.079-9.216,7.765    c-0.394,4.687,3.079,8.809,7.765,9.216c10.829,0.938,21.528,3.026,31.915,6.229l-1.621,1.109    c-6.561,4.885-14.441,7.68-22.613,8.021c-2.987,0-5.888,0.597-8.533,1.024c-4.713,0.33-8.266,4.418-7.936,9.131    s4.418,8.266,9.131,7.936h1.28c2.503-0.341,5.035-0.626,7.595-0.853c11.568-0.7,22.658-4.862,31.829-11.947    c13.527-10.117,29.065-17.217,45.568-20.821C208.407,87.058,211.017,82.327,209.709,77.799z" fill="#FFFFFF"/>
	</g>
</g>
<g>
	<g>
		<path d="M462.611,160.132c-20.897-21.444-51.434-30.492-80.64-23.893c-5.41,1.023-11.006,0.275-15.957-2.133l-9.899-5.035    c-22.016-11.349-49.323-25.6-82.603-25.6c-40.949,0.114-81.031,11.799-115.627,33.707c-26.965-4.011-53.76,8.533-68.779,17.067    c-5.803,0-11.179-0.597-16.384-1.195c-15.445-1.707-30.208-3.157-48.213,9.899c-3.771,2.827-4.535,8.176-1.708,11.947    c1.594,2.125,4.086,3.387,6.742,3.414c1.837,0.025,3.632-0.544,5.12-1.621c12.715-9.216,22.187-8.533,36.523-6.741    c6.801,0.773,13.636,1.2,20.48,1.28c1.503-0.016,2.974-0.428,4.267-1.195c12.971-7.765,38.315-20.139,62.037-15.36    c2.262,0.511,4.634,0.08,6.571-1.195c32.405-21.267,70.296-32.652,109.056-32.768c29.099,0,54.443,13.056,74.752,23.467    c7.083,3.669,13.909,7.168,20.224,9.813c3.282,1.345,6.926,1.525,10.325,0.512c21.931-6.229,52.736-3.584,70.997,17.067    c3.158,3.511,8.564,3.798,12.075,0.64C465.482,169.049,465.768,163.643,462.611,160.132z" fill="#FFFFFF"/>
	</g>
</g>
<g>
	<g>
		<path d="M486.291,187.054c-0.401-4.713-4.546-8.209-9.259-7.808c-2.869,0.282-5.719,0.738-8.533,1.365    c-4.664,0.677-7.896,5.006-7.219,9.67c0.015,0.105,0.032,0.209,0.052,0.314c0.859,4.003,4.44,6.832,8.533,6.741h1.792    c2.251-0.49,4.531-0.832,6.827-1.024C483.195,195.912,486.691,191.767,486.291,187.054z" fill="#FFFFFF"/>
	</g>
</g>
<g>
	<g>
		<path d="M458.813,191.833c-1.956-4.289-7.018-6.18-11.307-4.224l-3.413,1.536c-6.835,3.52-14.09,6.157-21.589,7.851    c-7.453,1.18-15.055-0.868-20.907-5.632c-7.598-5.826-15.988-10.538-24.917-13.995c-10.209-4.02-21.506-4.322-31.915-0.853    c-5.291,1.792-10.667,4.011-16.299,6.4c-4.345,1.826-6.387,6.828-4.562,11.173c0.013,0.031,0.026,0.061,0.039,0.091    c1.906,4.267,6.889,6.207,11.179,4.352c5.291-2.304,10.325-4.352,15.019-5.888c6.614-2.14,13.769-1.898,20.224,0.683    c7.397,2.836,14.351,6.715,20.651,11.52c7.758,6.137,17.331,9.528,27.221,9.643c2.491,0.005,4.976-0.223,7.424-0.683    c8.89-1.931,17.494-5,25.6-9.131l3.328-1.536C458.878,201.184,460.769,196.122,458.813,191.833z" fill="#FFFFFF"/>
	</g>
</g>
<g>
	<g>
		<path d="M79.549,188.377c-8.604-1.438-17.401-1.264-25.941,0.512c-4.528,1.308-7.137,6.039-5.829,10.567    c1.237,4.282,5.561,6.89,9.925,5.988c6.497-1.082,13.129-1.082,19.627,0h1.109c4.713,0.306,8.782-3.266,9.088-7.979    C87.834,192.752,84.262,188.683,79.549,188.377z" fill="#FFFFFF"/>
	</g>
</g>
<g>
	<g>
		<path d="M45.203,202.67c-2.121-4.218-7.259-5.918-11.477-3.797c-6.154,3.965-13.989,4.227-20.395,0.683    c-4.308-1.91-9.349,0.034-11.26,4.342c-1.91,4.308,0.034,9.349,4.342,11.26c0.225,0.1,0.455,0.19,0.688,0.27    c5.15,2.25,10.682,3.495,16.299,3.669c6.312-0.184,12.487-1.881,18.005-4.949C45.623,212.027,47.323,206.888,45.203,202.67z" fill="#FFFFFF"/>
	</g>
</g>
<g>
	<g>
		<path d="M486.12,216.665c-0.825-4.713-5.314-7.865-10.027-7.04c-15.199,3.132-29.673,9.095-42.667,17.579    c-18.284,13.483-41.257,18.964-63.659,15.189c-12.847-2.231-26.069-0.474-37.888,5.035c-18.178,8.778-38.096,13.357-58.283,13.397    c-23.048-0.037-45.711-5.909-65.877-17.067c-14.66-7.738-31.876-9.036-47.531-3.584c-7.478,2.377-15.278,3.586-23.125,3.584    c-11.045-1.313-21.848-4.186-32.085-8.533c-18.091-6.485-35.243-12.629-47.701-7.936l-5.547,1.877    c-21.077,8.021-24.832,9.387-39.424,2.56c-4.228-2.083-9.343-0.344-11.426,3.883s-0.344,9.343,3.883,11.426    c0.096,0.047,0.192,0.092,0.289,0.136c21.077,9.899,31.061,6.144,52.736-2.048l5.12-1.963c6.656-2.475,22.955,3.328,36.011,8.021    c12.131,5.193,25.003,8.446,38.144,9.643c9.583,0.01,19.11-1.458,28.245-4.352c11.201-4.027,23.575-3.192,34.133,2.304    c22.708,12.53,48.219,19.106,74.155,19.115c22.774,0.026,45.261-5.078,65.792-14.933c8.78-4.01,18.579-5.231,28.075-3.499    c5.645,0.9,11.351,1.357,17.067,1.365c20.625-0.478,40.667-6.941,57.685-18.603c11.22-7.416,23.72-12.682,36.864-15.531    C483.793,225.867,486.945,221.378,486.12,216.665z" fill="#FFFFFF"/>
	</g>
</g>
<g>
	<g>
		<path d="M82.195,80.004c-0.895-4.713-5.442-7.807-10.155-6.912c-8.494,1.643-16.852,3.925-25.003,6.827    c-4.736,0.778-7.946,5.248-7.168,9.984c0.778,4.736,5.248,7.946,9.984,7.168c0.989-0.001,1.971-0.174,2.901-0.512    c7.336-2.703,14.867-4.843,22.528-6.4C79.995,89.263,83.09,84.716,82.195,80.004z" fill="#FFFFFF"/>
	</g>
</g>
<g>
</g>
<g>
</g>
<g>
</g>
<g>
</g>
<g>
</g>
<g>
</g>
<g>
</g>
<g>
</g>
<g>
</g>
<g>
</g>
<g>
</g>
<g>
</g>
<g>
</g>
<g>
</g>
<g>
</g>
</svg>
