<?xml version="1.0" encoding="iso-8859-1"?>
<!-- Generator: Adobe Illustrator 19.0.0, SVG Export Plug-In . SVG Version: 6.00 Build 0)  -->
<svg xmlns="http://www.w3.org/2000/svg" xmlns:xlink="http://www.w3.org/1999/xlink" version="1.1" id="Layer_1" x="0px" y="0px" viewBox="0 0 511.999 511.999" style="enable-background:new 0 0 511.999 511.999;" xml:space="preserve" width="512px" height="512px">
<g>
	<g>
		<path d="M511.935,279.034c-0.604-5.865-5.771-10.208-11.729-9.49l-128.564,13.529l135.21-81.945    c5.042-3.052,6.646-9.615,3.604-14.656c-3.042-5.052-9.604-6.615-14.646-3.594l-117.798,71.393l131.381-151.279    c3.854-4.448,3.375-11.177-1.063-15.042c-4.458-3.875-11.167-3.396-15.063,1.063L326.985,280.492l-61.799-104.583    c-3.833-6.5-14.542-6.5-18.375,0l-64.09,108.46L15.769,193.304c-5.188-2.823-11.667-0.906-14.458,4.26    c-2.833,5.167-0.917,11.646,4.25,14.469l166.302,90.71l-63.719,107.832c-1.938,3.302-1.979,7.385-0.083,10.719    c1.896,3.323,5.438,5.375,9.271,5.375h277.333c3.833,0,7.375-2.052,9.271-5.375c1.896-3.333,1.854-7.417-0.083-10.719    l-60.887-103.039l159.491-16.784C508.31,290.138,512.56,284.888,511.935,279.034z" fill="#FFFFFF"/>
	</g>
</g>
<g>
</g>
<g>
</g>
<g>
</g>
<g>
</g>
<g>
</g>
<g>
</g>
<g>
</g>
<g>
</g>
<g>
</g>
<g>
</g>
<g>
</g>
<g>
</g>
<g>
</g>
<g>
</g>
<g>
</g>
</svg>
