<?xml version="1.0" encoding="iso-8859-1"?>
<!-- Generator: Adobe Illustrator 16.0.0, SVG Export Plug-In . SVG Version: 6.00 Build 0)  -->
<!DOCTYPE svg PUBLIC "-//W3C//DTD SVG 1.1//EN" "http://www.w3.org/Graphics/SVG/1.1/DTD/svg11.dtd">
<svg xmlns="http://www.w3.org/2000/svg" xmlns:xlink="http://www.w3.org/1999/xlink" version="1.1" id="Capa_1" x="0px" y="0px" width="512px" height="512px" viewBox="0 0 36.368 36.368" style="enable-background:new 0 0 36.368 36.368;" xml:space="preserve">
<g>
	<path d="M6.228,16.617h23.75l-0.321,5.381c-2.678,2.981-6.854,4.914-11.554,4.914c-4.7,0-8.876-1.933-11.554-4.914L6.228,16.617z    M6.641,23.514l0.588,9.854c0,1.655,1.343,3,3,3h15.75c1.657,0,3-1.345,3-3l0.588-9.854c-2.855,2.695-6.932,4.398-11.463,4.398   C13.573,27.913,9.497,26.209,6.641,23.514z M26.249,7.231l-2.017,3.16c0.281-0.045,0.571-0.074,0.87-0.074   c1.439,0,2.706,0.549,3.529,1.389h1.971c0.76,0,1.375,0.827,1.375,1.848s-0.615,1.848-1.375,1.848h-25   c-0.76,0-1.375-0.827-1.375-1.848s0.615-1.848,1.375-1.848h1.971c0.823-0.84,2.09-1.389,3.529-1.389   c0.148,0,0.29,0.024,0.436,0.035c0.722-1.431,1.854-2.369,3.143-2.369c0.359,0,0.699,0.095,1.031,0.23   c0.693-0.657,1.51-1.052,2.392-1.052c1.605,0,3.007,1.263,3.805,3.159l2.717-4.258c-1.36-1.516-1.625-3.801-0.479-5.6   c0.298-0.466,0.915-0.603,1.381-0.305l6.152,3.928c0.466,0.298,0.603,0.916,0.305,1.381C30.747,7.407,28.301,8.104,26.249,7.231z    M26.639,5.199c0.936,0.596,2.104,0.532,2.955-0.07l-4.137-2.641C25.272,3.516,25.706,4.602,26.639,5.199z" fill="#FFFFFF"/>
</g>
<g>
</g>
<g>
</g>
<g>
</g>
<g>
</g>
<g>
</g>
<g>
</g>
<g>
</g>
<g>
</g>
<g>
</g>
<g>
</g>
<g>
</g>
<g>
</g>
<g>
</g>
<g>
</g>
<g>
</g>
</svg>
