<?xml version="1.0" encoding="UTF-8" standalone="no"?>
<!-- Generator: Adobe Illustrator 18.0.0, SVG Export Plug-In . SVG Version: 6.00 Build 0)  -->

<svg
   xmlns:dc="http://purl.org/dc/elements/1.1/"
   xmlns:cc="http://creativecommons.org/ns#"
   xmlns:rdf="http://www.w3.org/1999/02/22-rdf-syntax-ns#"
   xmlns:svg="http://www.w3.org/2000/svg"
   xmlns="http://www.w3.org/2000/svg"
   xmlns:sodipodi="http://sodipodi.sourceforge.net/DTD/sodipodi-0.dtd"
   xmlns:inkscape="http://www.inkscape.org/namespaces/inkscape"
   version="1.1"
   id="Capa_1"
   x="0px"
   y="0px"
   viewBox="0 0 210 210"
   style="enable-background:new 0 0 210 210;"
   xml:space="preserve"
   width="512px"
   height="512px"
   inkscape:version="0.91 r13725"
   sodipodi:docname="store.svg"><metadata
     id="metadata39"><rdf:RDF><cc:Work
         rdf:about=""><dc:format>image/svg+xml</dc:format><dc:type
           rdf:resource="http://purl.org/dc/dcmitype/StillImage" /></cc:Work></rdf:RDF></metadata><defs
     id="defs37" /><sodipodi:namedview
     pagecolor="#ffffff"
     bordercolor="#666666"
     borderopacity="1"
     objecttolerance="10"
     gridtolerance="10"
     guidetolerance="10"
     inkscape:pageopacity="0"
     inkscape:pageshadow="2"
     inkscape:window-width="1366"
     inkscape:window-height="705"
     id="namedview35"
     showgrid="false"
     inkscape:zoom="0.921875"
     inkscape:cx="302.24252"
     inkscape:cy="243.95458"
     inkscape:window-x="-4"
     inkscape:window-y="-4"
     inkscape:window-maximized="1"
     inkscape:current-layer="Capa_1" /><g
     id="g5" /><g
     id="g7" /><g
     id="g9" /><g
     id="g11" /><g
     id="g13" /><g
     id="g15" /><g
     id="g17" /><g
     id="g19" /><g
     id="g21" /><g
     id="g23" /><g
     id="g25" /><g
     id="g27" /><g
     id="g29" /><g
     id="g31" /><g
     id="g33" /><path
     style="fill:#ffffff"
     d="m 11.510578,207.66756 c -1.412487,-1.41254 -2.9560186,-4.00855 -3.4300626,-5.76906 -0.579793,-2.15317 -0.789666,-34.32216 -0.641231,-98.28331 l 0.22072,-95.0824545 1.930566,-3.105086 c 1.0618106,-1.707754 2.3961166,-3.105019 2.9651236,-3.105019 0.569027,0 3.798322,2.887663 7.176253,6.417097 3.377937,3.5294345 26.635687,27.2172505 51.683907,52.6395495 25.04822,25.422365 45.648456,46.680463 45.778336,47.240203 0.24965,1.07634 -100.326294,100.94466 -102.086993,101.3686 -0.565663,0.13594 -2.184112,-0.90804 -3.596599,-2.32052 z m 18.091811,-1.44894 c 0,-0.74931 92.102541,-92.94195 92.851101,-92.94195 0.28667,0 6.52053,6.28217 13.85227,13.9604 l 13.33034,13.96041 -47.38965,25.93998 c -26.064276,14.26698 -52.919496,29.03705 -59.678356,32.82247 -12.881744,7.21458 -12.965705,7.25509 -12.965705,6.25869 z m 110.953581,-82.5922 -14.47298,-14.49074 16.12992,-16.14587 c 8.87147,-8.880211 16.50723,-16.145802 16.96832,-16.145802 2.06818,0 38.33051,20.98529 40.78528,23.602772 4.30478,4.58997 3.27231,10.32916 -2.56264,14.24465 -2.24004,1.50318 -41.73888,23.42566 -42.20724,23.42566 -0.0922,0 -6.68048,-6.5208 -14.64066,-14.49067 z m -22.394,-22.56297 C 116.68046,99.35563 93.912854,76.10823 67.567304,49.402526 41.221684,22.696821 19.666208,0.57948054 19.666208,0.25290954 c 0,-0.32637 1.017681,-0.338482 2.261519,-0.02692 2.071282,0.519499 128.769913,70.96125846 130.610033,72.61605346 0.87508,0.78692 -29.0777,31.325747 -30.72449,31.325747 -0.5269,0 -2.16978,-1.39726 -3.6513,-3.10502 z"
     id="path3386"
     inkscape:connector-curvature="0" /></svg>