<?xml version="1.0" encoding="UTF-8" standalone="no"?>
<!-- Generator: Adobe Illustrator 16.0.0, SVG Export Plug-In . SVG Version: 6.00 Build 0)  -->

<svg
   xmlns:dc="http://purl.org/dc/elements/1.1/"
   xmlns:cc="http://creativecommons.org/ns#"
   xmlns:rdf="http://www.w3.org/1999/02/22-rdf-syntax-ns#"
   xmlns:svg="http://www.w3.org/2000/svg"
   xmlns="http://www.w3.org/2000/svg"
   xmlns:sodipodi="http://sodipodi.sourceforge.net/DTD/sodipodi-0.dtd"
   xmlns:inkscape="http://www.inkscape.org/namespaces/inkscape"
   version="1.1"
   id="Capa_1"
   x="0px"
   y="0px"
   width="512px"
   height="512px"
   viewBox="0 0 612 612"
   style="enable-background:new 0 0 612 612;"
   xml:space="preserve"
   inkscape:version="0.91 r13725"
   sodipodi:docname="tptthings.svg"><metadata
     id="metadata41"><rdf:RDF><cc:Work
         rdf:about=""><dc:format>image/svg+xml</dc:format><dc:type
           rdf:resource="http://purl.org/dc/dcmitype/StillImage" /></cc:Work></rdf:RDF></metadata><defs
     id="defs39" /><sodipodi:namedview
     pagecolor="#ffffff"
     bordercolor="#666666"
     borderopacity="1"
     objecttolerance="10"
     gridtolerance="10"
     guidetolerance="10"
     inkscape:pageopacity="0"
     inkscape:pageshadow="2"
     inkscape:window-width="1366"
     inkscape:window-height="705"
     id="namedview37"
     showgrid="false"
     inkscape:zoom="0.921875"
     inkscape:cx="412.41729"
     inkscape:cy="234.10027"
     inkscape:window-x="-4"
     inkscape:window-y="-4"
     inkscape:window-maximized="1"
     inkscape:current-layer="Capa_1" /><g
     id="g3"
     style="fill:#ffffff"><path
       d="m 289.052,191.691 -36.224,87.974 c -1.228,2.983 -4.017,5.033 -7.23,5.315 L 60.311,301.262 c -4.546,0.399 -7.996,4.266 -7.877,8.826 l 3.768,145.442 c 0.104,3.999 2.941,7.403 6.856,8.228 l 218.13,45.882 c 5.333,1.122 10.753,1.677 16.173,1.665 l 0.004,-43.135 0,-274.834 c -0.002,-12.006 -3.742,-12.746 -8.313,-1.645 z m -61.17,72.382 -218.364,22.065 c -6.671,0.674 -11.532,-6.18 -8.69,-12.252 L 58.973,149.6 c 1.183,-2.529 3.516,-4.331 6.262,-4.835 l 239.934,-44.069 -70.262,158.29 c -1.258,2.833 -3.939,4.775 -7.025,5.087 z m 323.807,37.189 -185.286,-16.281 c -3.214,-0.282 -6.003,-2.332 -7.23,-5.315 l -36.225,-87.974 c -4.571,-11.102 -8.312,-10.362 -8.312,1.644 l 0,274.833 0.004,43.135 c 5.419,0.013 10.84,-0.543 16.174,-1.665 l 218.13,-45.882 c 3.915,-0.824 6.752,-4.229 6.855,-8.228 l 3.768,-145.441 c 0.119,-4.561 -3.333,-8.427 -7.878,-8.826 z m 50.792,-15.124 -218.364,-22.065 c -3.086,-0.312 -5.768,-2.254 -7.025,-5.088 l -70.261,-158.29 239.934,44.069 c 2.746,0.504 5.079,2.306 6.263,4.835 l 58.145,124.286 c 2.841,6.073 -2.021,12.927 -8.692,12.253 z"
       id="path5"
       style="fill:#ffffff"
       inkscape:connector-curvature="0"
       sodipodi:nodetypes="sccccccccccsccccccccccccsccscccccccccccc" /></g><g
     id="g7" /><g
     id="g9" /><g
     id="g11" /><g
     id="g13" /><g
     id="g15" /><g
     id="g17" /><g
     id="g19" /><g
     id="g21" /><g
     id="g23" /><g
     id="g25" /><g
     id="g27" /><g
     id="g29" /><g
     id="g31" /><g
     id="g33" /><g
     id="g35" /></svg>