<?xml version="1.0" encoding="UTF-8" standalone="no"?>
<!-- Generator: Adobe Illustrator 16.0.0, SVG Export Plug-In . SVG Version: 6.00 Build 0)  -->

<svg
   xmlns:dc="http://purl.org/dc/elements/1.1/"
   xmlns:cc="http://creativecommons.org/ns#"
   xmlns:rdf="http://www.w3.org/1999/02/22-rdf-syntax-ns#"
   xmlns:svg="http://www.w3.org/2000/svg"
   xmlns="http://www.w3.org/2000/svg"
   xmlns:sodipodi="http://sodipodi.sourceforge.net/DTD/sodipodi-0.dtd"
   xmlns:inkscape="http://www.inkscape.org/namespaces/inkscape"
   version="1.1"
   id="Capa_1"
   x="0px"
   y="0px"
   width="512px"
   height="512px"
   viewBox="0 0 94 94"
   style="enable-background:new 0 0 94 94;"
   xml:space="preserve"
   inkscape:version="0.91 r13725"
   sodipodi:docname="wiki.svg"><metadata
     id="metadata41"><rdf:RDF><cc:Work
         rdf:about=""><dc:format>image/svg+xml</dc:format><dc:type
           rdf:resource="http://purl.org/dc/dcmitype/StillImage" /></cc:Work></rdf:RDF></metadata><defs
     id="defs39" /><sodipodi:namedview
     pagecolor="#ffffff"
     bordercolor="#666666"
     borderopacity="1"
     objecttolerance="10"
     gridtolerance="10"
     guidetolerance="10"
     inkscape:pageopacity="0"
     inkscape:pageshadow="2"
     inkscape:window-width="1366"
     inkscape:window-height="705"
     id="namedview37"
     showgrid="false"
     inkscape:zoom="0.921875"
     inkscape:cx="427.46587"
     inkscape:cy="256.85746"
     inkscape:window-x="-4"
     inkscape:window-y="-4"
     inkscape:window-maximized="1"
     inkscape:current-layer="Capa_1" /><g
     id="g3402"><path
       id="path5"
       transform="scale(0.18359376,0.18359376)"
       d="M 27.234375 0 C 12.19029 0 2.3684758e-015 12.19029 0 27.234375 L 0 484.76562 C 0 499.80972 12.19029 512 27.234375 512 L 484.76562 512 C 499.80972 512 512 499.80972 512 484.76562 L 512 27.234375 C 512 12.19029 499.80972 2.3684758e-015 484.76562 0 L 27.234375 0 z M 308.80078 109.02148 C 316.48508 109.04062 326.83597 109.21977 338 109.55469 L 378.5957 110.77148 L 378.57422 115.14062 C 378.5399 121.5376 377.32409 122.49968 363.9707 126.72266 C 345.02944 132.71277 343.15208 135.06195 319.29688 182.63281 L 298.23828 224.625 L 320.43164 276.42578 C 332.63716 304.91686 343.1771 327.65278 343.85547 326.94922 C 344.53384 326.24567 351.06674 309.95878 358.37109 290.75586 C 365.67544 271.55291 380.21008 234.14528 390.67188 207.62695 C 412.44682 152.43234 417.29938 138.51822 416.54492 133.43359 C 416.1363 130.68089 414.01946 129.24052 407.69531 127.41211 C 403.12315 126.09025 398.44576 124.24128 397.30273 123.30273 C 395.03709 121.44243 394.54409 113.93532 396.49805 111.0625 C 397.30533 109.87567 408.26518 109.31232 428.81641 109.40039 C 459.33342 109.53111 459.93121 109.60034 460.82422 113.1582 C 461.97334 117.73662 459.17344 125.32812 456.33594 125.32812 C 455.15393 125.32812 451.49678 127.15652 448.20898 129.39062 C 441.56272 133.90689 442.93053 130.98937 417.01172 195.98828 C 407.89583 218.84892 392.2655 257.37905 382.2793 281.61133 C 372.29303 305.84361 357.46731 343.06044 349.33203 364.31445 L 334.54102 402.95703 L 323.6875 402.96875 L 312.83594 402.98242 L 308.4043 392.58984 C 272.85279 309.22075 264.95416 291.58594 263.16211 291.58594 C 262.31618 291.58594 238.75746 336.65713 219.92773 374.30078 L 205.58203 402.98047 L 194.38867 402.98047 L 183.19336 402.98047 L 180.12305 394.25195 L 180.12109 394.25195 C 178.43197 389.45122 171.84342 373.55269 165.48047 358.92188 C 159.11757 344.29107 136.31829 291.17036 114.81445 240.87695 C 93.310579 190.58355 73.117571 144.74377 69.941406 139.00977 C 65.651402 131.26498 62.588153 127.84342 58.03125 125.70508 C 52.631076 123.17105 51.83854 122.02653 51.404297 116.13477 L 50.912109 109.44141 L 100.94141 109.48828 L 150.97266 109.5332 L 150.48242 115.25391 C 150.07151 120.04276 148.79911 121.6709 142.68555 125.23633 C 138.66837 127.57922 134.62187 130.69989 133.69336 132.17188 C 132.41692 134.19545 134.71897 141.69572 143.12891 162.92383 C 157.60509 199.46397 216.16971 336.47656 217.3125 336.47656 C 218.41552 336.47656 252.24023 268.88021 252.24023 266.67578 C 252.24023 264.37639 213.98592 172.34078 204.83789 152.63086 C 200.63139 143.56766 195.57978 134.43891 193.61328 132.3457 C 191.64684 130.2525 184.95475 126.99637 178.74219 125.10938 C 168.47621 121.99119 167.44952 121.27775 167.47266 117.26953 C 167.48409 114.84393 168.04888 112.10973 168.7207 111.19531 C 169.49386 110.14306 190.8449 109.5332 226.88477 109.5332 L 283.83008 109.5332 L 283.83008 115.58984 C 283.82996 122.24505 281.96955 123.66602 273.25586 123.66602 C 270.33361 123.66602 266.20549 124.88179 264.08203 126.36914 C 261.00043 128.52754 260.42213 130.07371 261.21289 134.02734 C 262.91027 142.51459 287.57616 202.06031 288.81055 200.65039 C 290.52942 198.68699 312.75171 150.76314 316.23242 141.51367 C 319.03425 134.06816 319.04563 133.40514 316.40234 130.48438 C 314.85547 128.77513 310.07314 126.42407 305.77539 125.26172 C 301.47765 124.09939 297.02584 122.42552 295.88281 121.54102 C 293.33215 119.5673 293.13358 110.97576 295.60352 109.44922 C 296.0984 109.14336 301.11649 109.00235 308.80078 109.02148 z "
       style="fill:#ffffff" /></g><g
     id="g7" /><g
     id="g9" /><g
     id="g11" /><g
     id="g13" /><g
     id="g15" /><g
     id="g17" /><g
     id="g19" /><g
     id="g21" /><g
     id="g23" /><g
     id="g25" /><g
     id="g27" /><g
     id="g29" /><g
     id="g31" /><g
     id="g33" /><g
     id="g35" /></svg>