<?xml version="1.0" encoding="UTF-8" standalone="no"?>
<svg
   xmlns:dc="http://purl.org/dc/elements/1.1/"
   xmlns:cc="http://creativecommons.org/ns#"
   xmlns:rdf="http://www.w3.org/1999/02/22-rdf-syntax-ns#"
   xmlns:svg="http://www.w3.org/2000/svg"
   xmlns="http://www.w3.org/2000/svg"
   xmlns:sodipodi="http://sodipodi.sourceforge.net/DTD/sodipodi-0.dtd"
   xmlns:inkscape="http://www.inkscape.org/namespaces/inkscape"
   version="1.1"
   id="Capa_1"
   x="0px"
   y="0px"
   width="512px"
   height="512px"
   viewBox="0 0 480 480"
   style="enable-background:new 0 0 480 480;"
   xml:space="preserve"
   sodipodi:docname="win32.svg"
   inkscape:version="1.0.1 (3bc2e813f5, 2020-09-07)"><metadata
   id="metadata41"><rdf:RDF><cc:Work
       rdf:about=""><dc:format>image/svg+xml</dc:format><dc:type
         rdf:resource="http://purl.org/dc/dcmitype/StillImage" /></cc:Work></rdf:RDF></metadata><defs
   id="defs39">
	
</defs><sodipodi:namedview
   pagecolor="#ffffff"
   bordercolor="#666666"
   borderopacity="1"
   objecttolerance="10"
   gridtolerance="10"
   guidetolerance="10"
   inkscape:pageopacity="0"
   inkscape:pageshadow="2"
   inkscape:window-width="1920"
   inkscape:window-height="1017"
   id="namedview37"
   showgrid="false"
   inkscape:zoom="0.84765625"
   inkscape:cx="286.40039"
   inkscape:cy="313.77875"
   inkscape:window-x="1358"
   inkscape:window-y="-8"
   inkscape:window-maximized="1"
   inkscape:current-layer="Capa_1" />
<path
   id="path2"
   style="fill:#ffffff;stroke-width:1.06667"
   d="M 511.93359 0 L 238.93359 39.724609 L 238.93359 238.93359 L 511.93359 238.93359 L 511.93359 0 z M 204.80078 44.683594 L 0.001953125 72.494141 L 0.1875 238.93359 L 204.80078 238.93359 L 204.80078 44.683594 z M 0.15625 273.06641 L 0.16796875 441.19531 L 114.34375 456.8457 L 114.34375 407.18359 L 119.94336 407.18359 L 119.94336 288.50977 L 151.27539 275.90234 C 153.79865 274.88688 156.3487 273.95307 158.93164 273.06641 L 0.15625 273.06641 z M 305.68555 273.06641 C 309.40123 274.73461 313.07594 276.62248 316.70898 278.78125 L 316.75977 278.8125 L 316.81445 278.8457 C 319.8703 280.67176 322.88233 282.69966 325.81641 284.9082 L 344.85742 276.59375 C 347.84295 275.29021 350.81046 274.13121 353.80469 273.06641 L 305.68555 273.06641 z M 493.25781 273.06641 C 499.77084 276.12214 506.03771 279.8195 511.99414 284.24414 L 511.99805 273.06641 L 493.25781 273.06641 z M 188.5293 304.22461 L 188.12695 304.34375 C 188.19731 304.32274 188.26944 304.30812 188.33984 304.28711 C 188.40372 304.26844 188.4654 304.24317 188.5293 304.22461 z M 273.67383 306.37109 C 273.69623 306.38133 273.71783 306.39558 273.74023 306.40625 C 273.77298 306.42129 273.80514 306.43017 273.83789 306.44531 L 273.67383 306.37109 z M 475.25781 316.81836 C 475.34712 316.89278 475.42091 316.98556 475.50977 317.06055 C 475.63195 317.16446 475.76295 317.2427 475.88477 317.34766 L 475.25781 316.81836 z M 298.5 325.15039 C 298.60467 325.27327 298.6857 325.40767 298.78906 325.53125 C 298.87762 325.63765 298.98448 325.729 299.07227 325.83594 L 298.5 325.15039 z "
   transform="scale(0.9375)" />
<g
   id="g6"
   style="fill:#ffffff">
</g>
<g
   id="g8"
   style="fill:#ffffff">
</g>
<g
   id="g10"
   style="fill:#ffffff">
</g>
<g
   id="g12"
   style="fill:#ffffff">
</g>
<g
   id="g14"
   style="fill:#ffffff">
</g>
<g
   id="g16"
   style="fill:#ffffff">
</g>
<g
   id="g18"
   style="fill:#ffffff">
</g>
<g
   id="g20"
   style="fill:#ffffff">
</g>
<g
   id="g22"
   style="fill:#ffffff">
</g>
<g
   id="g24"
   style="fill:#ffffff">
</g>
<g
   id="g26"
   style="fill:#ffffff">
</g>
<g
   id="g28"
   style="fill:#ffffff">
</g>
<g
   id="g30"
   style="fill:#ffffff">
</g>
<g
   id="g32"
   style="fill:#ffffff">
</g>
<g
   id="g34"
   style="fill:#ffffff">
</g>
<text
   xml:space="preserve"
   style="font-style:normal;font-weight:normal;font-size:250px;line-height:1.25;font-family:sans-serif;fill:#ffffff;fill-opacity:1;stroke:none;stroke-width:0.9375;"
   x="136.98242"
   y="476.21582"
   id="text868"><tspan
     sodipodi:role="line"
     id="tspan866"
     x="136.98242"
     y="476.21582"
     style="font-style:normal;font-variant:normal;font-weight:bold;font-stretch:normal;font-size:250px;font-family:sans-serif;-inkscape-font-specification:'sans-serif Bold';stroke-width:0.9375;fill:#ffffff;">32</tspan></text></svg>
