<?xml version="1.0" encoding="UTF-8" standalone="no"?>
<svg
   xmlns:dc="http://purl.org/dc/elements/1.1/"
   xmlns:cc="http://creativecommons.org/ns#"
   xmlns:rdf="http://www.w3.org/1999/02/22-rdf-syntax-ns#"
   xmlns:svg="http://www.w3.org/2000/svg"
   xmlns="http://www.w3.org/2000/svg"
   version="1.0"
   width="512"
   height="512"
   viewBox="0 0 409.6 409.6"
   preserveAspectRatio="xMidYMid meet"
   id="svg2">
  <defs
     id="defs12" />
  <metadata
     id="metadata4">
Created by potrace 1.13, written by Peter Selinger 2001-2015
<rdf:RDF>
  <cc:Work
     rdf:about="">
    <dc:format>image/svg+xml</dc:format>
    <dc:type
       rdf:resource="http://purl.org/dc/dcmitype/StillImage" />
    <dc:title></dc:title>
  </cc:Work>
</rdf:RDF>
</metadata>
  <g
     id="g4136">
    <path
       id="rect3342"
       d="m 0,2.5420898e-4 409.60001,0 0,409.60000579102 -409.60001,0 z"
       style="opacity:1;fill:#29abe0;fill-opacity:1;fill-rule:evenodd;stroke:none;stroke-opacity:1" />
    <path
       id="path4186"
       d="m 189.93021,350.4523 c -9.84643,-2.31978 -16.94851,-8.21767 -22.00618,-18.27492 -3.45782,-6.87585 -5.6547,-14.78433 -8.9188,-32.10669 -3.02842,-18.14288 -4.93603,-21.54248 -13.71762,-5.76748 -5.96357,10.8033 -8.69147,19.2471 -8.69147,26.90286 0,8.20556 -1.86084,9.23282 -7.32353,4.04299 -12.16364,-11.5561 -12.73958,-34.87396 -1.55759,-63.06222 1.2515,-3.1548 3.57575,-7.79582 5.16499,-10.31337 2.64911,-4.19644 2.73758,-4.68844 1.06321,-5.91278 -5.29344,-3.87068 -19.07233,6.78565 -24.98363,19.32182 -3.08116,6.5343 -6.62911,17.98199 -8.44977,27.26396 -2.324335,11.84957 -5.452701,11.77427 -8.268936,-0.19907 -2.8981,-12.32144 -3.237361,-23.05349 -1.066543,-33.73851 3.940227,-19.39415 10.287839,-30.9253 23.444289,-42.58941 17.40964,-12.91757 -1.05075,-8.78523 -8.65743,-5.111 -3.2844,1.64967 -10.58919,6.71336 -16.232917,11.2527 -8.834433,7.10567 -10.47603,8.03854 -11.80577,6.70879 -1.2272,-1.2272 -1.324256,-2.70569 -0.472407,-7.19741 2.380142,-12.55044 11.003505,-24.70955 29.331074,-41.35738 15.07525,-11.56815 25.45654,-29.81973 4.38653,-19.91317 -10.5425,4.9988 -20.253708,12.12649 -27.505764,20.18817 -7.431209,8.26088 -8.957024,6.18101 -6.665262,-9.08566 3.63602,-24.22148 16.169557,-39.10263 46.166666,-54.81394 5.28136,-2.76618 10.17392,-5.73165 10.87244,-6.58991 0.99659,-1.22452 0.56184,-2.89905 -2.01916,-7.778 -4.39537,-10.64037 -4.58766,-21.478241 0.49962,-31.528621 6.0303,-11.721528 14.58958,-16.281675 16.16965,-8.614747 3.73694,15.71209 16.07689,14.715475 25.28491,15.510128 25.09902,1.454598 48.5403,11.79096 70.96904,22.02575 20.07967,9.24913 38.07062,12.39488 58.94936,10.30732 7.04253,-0.70412 14.39921,-1.83607 16.34817,-2.51552 4.6332,-1.61514 6.77205,0.0883 6.80714,5.42145 1.4781,16.32929 6.18451,32.60729 6.54017,49.1709 0,9.34596 -2.28329,18.71456 -5.86835,24.07884 -4.10613,6.17271 -5.80465,6.20276 -8.73233,0.21336 -4.36734,-9.10491 -9.51942,-10.03426 -40.07414,-7.22887 -13.08079,1.20099 -16.87547,1.20388 -21.88759,0.0165 -7.79257,-1.84603 -9.31093,-0.42296 -8.262,7.74345 1.90857,14.85866 16.68487,29.04638 35.26617,33.86127 9.70987,2.51607 18.44036,2.1823 28.83865,-1.10248 6.37871,-2.01505 9.27901,-2.48737 10.11851,-1.64787 2.28364,2.28363 -6.26275,29.92257 -10.40962,33.66464 -11.88265,6.54087 -30.44937,-3.245 -38.08589,-8.54323 -7.16789,-5.01283 -11.32481,-5.88267 -11.81689,-2.47273 -0.31988,2.2168 1.18315,4.3693 24.61105,35.24635 9.73923,12.83593 9.24037,15.33495 -2.10332,10.53612 -3.22335,-1.18345 -12.84423,-6.12786 -12.87956,-1.27631 5.70435,17.60786 24.24912,27.82005 38.5769,30.85835 4.38032,0.89919 3.81697,4.09637 -1.35307,7.67924 -13.26762,9.1945 -29.24469,4.78238 -62.94178,-17.38139 -11.40175,-7.49929 -15.02094,-6.56417 -12.10418,3.12752 1.78757,5.93964 5.25469,11.99569 13.23764,23.12225 11.33557,14.17622 2.47242,14.14708 -7.9119,10.54104 -17.07179,-6.04124 -27.75202,-16.0033 -39.61637,-31.22905 -19.02567,-19.89958 -6.66971,26.5986 -1.5489,34.57643 4.31246,6.78209 -6.9336,4.38278 -8.70751,3.96954 z"
       style="fill:#3e3f3a;fill-opacity:1" />
  </g>
</svg>
