<?xml version="1.0" encoding="UTF-8" standalone="no"?>
<svg
   xmlns:dc="http://purl.org/dc/elements/1.1/"
   xmlns:cc="http://creativecommons.org/ns#"
   xmlns:rdf="http://www.w3.org/1999/02/22-rdf-syntax-ns#"
   xmlns:svg="http://www.w3.org/2000/svg"
   xmlns="http://www.w3.org/2000/svg"
   id="svg2"
   preserveAspectRatio="xMidYMid meet"
   viewBox="0 0 409.6 409.6"
   height="512"
   width="512"
   version="1.0">
  <defs
     id="defs12" />
  <metadata
     id="metadata4">
Created by potrace 1.13, written by Peter Selinger 2001-2015
<rdf:RDF>
  <cc:Work
     rdf:about="">
    <dc:format>image/svg+xml</dc:format>
    <dc:type
       rdf:resource="http://purl.org/dc/dcmitype/StillImage" />
    <dc:title></dc:title>
  </cc:Work>
</rdf:RDF>
</metadata>
  <g
     id="g4136">
    <path
       style="opacity:1;fill:#29abe0;fill-opacity:1;fill-rule:evenodd;stroke:none;stroke-opacity:1"
       d="m 0,2.5420898e-4 409.60001,0 0,409.60000579102 -409.60001,0 z"
       id="rect3342" />
    <path
       style="fill:#3e3f3a;fill-opacity:1"
       d="m 188.14259,367.96238 c -11.03015,-2.59866 -18.98603,-9.20558 -24.65173,-20.4719 -3.87351,-7.70245 -6.3345,-16.56168 -9.991,-35.96651 -3.39249,-20.32399 -5.52943,-24.13228 -15.36673,-6.46084 -6.6805,12.10206 -9.73635,21.56096 -9.73635,30.13708 0,9.19202 -2.08454,10.34278 -8.20395,4.52904 -13.62593,-12.94536 -14.27111,-39.06646 -1.74484,-70.64346 1.40195,-3.53407 4.00562,-8.73303 5.78592,-11.55323 2.96758,-4.70093 3.06668,-5.25208 1.19102,-6.62361 -5.92981,-4.33601 -21.36518,7.60141 -27.987118,21.64466 -3.451579,7.31984 -7.426061,20.14376 -9.46559,30.54159 -2.603767,13.27411 -6.10822,13.18976 -9.263018,-0.223 -3.246505,-13.8027 -3.626552,-25.82494 -1.194761,-37.7945 4.413915,-21.72568 11.524632,-34.64309 26.262727,-47.70944 19.5026,-14.4705 -1.17707,-9.84138 -9.698212,-5.72544 -3.679251,1.84799 -11.862209,7.52043 -18.184416,12.60548 -9.896495,7.9599 -11.735442,9.00492 -13.225042,7.51531 -1.374732,-1.37473 -1.483456,-3.03096 -0.529198,-8.06267 2.666278,-14.05923 12.326329,-27.68009 32.857209,-46.3293 16.887579,-12.95885 28.516889,-33.40461 4.913871,-22.3071 -11.809896,5.59975 -22.688576,13.58432 -30.812463,22.61516 -8.324577,9.25399 -10.033823,6.92408 -7.466549,-10.17792 4.073136,-27.13335 18.113436,-43.80349 51.71675,-61.40359 5.91628,-3.09872 11.39702,-6.420699 12.17951,-7.382139 1.1164,-1.37173 0.62939,-3.24757 -2.2619,-8.71306 -4.92377,-11.919539 -5.13918,-24.060319 0.55969,-35.318939 6.75525,-13.130672 16.34351,-18.239033 18.11353,-9.650399 4.18619,17.600973 18.00963,16.484546 28.32463,17.374731 28.11638,1.629468 54.37574,13.208452 79.50082,24.673656 22.49362,10.361041 42.64742,13.88497 66.03617,11.546451 7.88917,-0.78877 16.13025,-2.0568 18.31352,-2.81794 5.19019,-1.80931 7.58617,0.0989 7.62548,6.073209 1.65579,18.29237 6.928,36.52729 7.32642,55.08215 0,10.46952 -2.55778,20.9644 -6.57383,26.97356 -4.59977,6.91478 -6.50248,6.94845 -9.78212,0.23901 -4.89238,-10.19949 -10.66383,-11.24056 -44.89179,-8.09791 -14.65335,1.34537 -18.90422,1.34861 -24.51888,0.0185 -8.72938,-2.06795 -10.43028,-0.4738 -9.25525,8.67436 2.13802,16.64494 18.6907,32.53829 39.50581,37.93202 10.87718,2.81855 20.65724,2.44465 32.30559,-1.23502 7.14555,-2.2573 10.39452,-2.7864 11.33494,-1.84598 2.55818,2.55817 -7.01565,33.51982 -11.66105,37.71176 -13.31116,7.3272 -34.10994,-3.63511 -42.66451,-9.57029 -8.0296,-5.61546 -12.68626,-6.58987 -13.2375,-2.77 -0.35833,2.4833 1.32539,4.89458 27.56975,39.48362 10.91007,14.37904 10.35124,17.17849 -2.35618,11.80275 -3.61085,-1.32572 -14.38834,-6.86454 -14.42791,-1.42975 6.39011,19.72465 27.16431,31.16454 43.21455,34.5681 4.90692,1.00729 4.27584,4.58883 -1.51573,8.60243 -14.86264,10.29984 -32.76045,5.35731 -70.50855,-19.47096 -12.77245,-8.40084 -16.82673,-7.3533 -13.55932,3.50351 2.00247,6.65369 5.8864,13.43779 14.82905,25.90197 12.69831,15.88046 2.76965,15.84782 -8.86306,11.80826 -19.12413,-6.7675 -31.08833,-17.92719 -44.37899,-34.98335 -21.31291,-22.29188 -7.47153,29.79624 -1.73511,38.73315 4.8309,7.59742 -7.76714,4.90967 -9.75431,4.44675 z"
       id="path4186" />
  </g>
</svg>
