<?xml version="1.0" encoding="UTF-8" standalone="no"?>
<!-- Created with Inkscape (http://www.inkscape.org/) -->

<svg
   xmlns:dc="http://purl.org/dc/elements/1.1/"
   xmlns:cc="http://creativecommons.org/ns#"
   xmlns:rdf="http://www.w3.org/1999/02/22-rdf-syntax-ns#"
   xmlns:svg="http://www.w3.org/2000/svg"
   xmlns="http://www.w3.org/2000/svg"
   xmlns:sodipodi="http://sodipodi.sourceforge.net/DTD/sodipodi-0.dtd"
   xmlns:inkscape="http://www.inkscape.org/namespaces/inkscape"
   width="16"
   height="16"
   viewBox="0 0 16 16"
   id="svg2"
   version="1.1"
   inkscape:version="0.91 r13725"
   sodipodi:docname="userscript.svg">
  <defs
     id="defs4" />
  <sodipodi:namedview
     id="base"
     pagecolor="#ffffff"
     bordercolor="#666666"
     borderopacity="1.0"
     inkscape:pageopacity="0.0"
     inkscape:pageshadow="2"
     inkscape:zoom="24.10625"
     inkscape:cx="6.5989945"
     inkscape:cy="9.0593161"
     inkscape:document-units="px"
     inkscape:current-layer="layer1"
     showgrid="false"
     units="px"
     inkscape:window-width="1366"
     inkscape:window-height="706"
     inkscape:window-x="-8"
     inkscape:window-y="-8"
     inkscape:window-maximized="1" />
  <metadata
     id="metadata7">
    <rdf:RDF>
      <cc:Work
         rdf:about="">
        <dc:format>image/svg+xml</dc:format>
        <dc:type
           rdf:resource="http://purl.org/dc/dcmitype/StillImage" />
        <dc:title></dc:title>
      </cc:Work>
    </rdf:RDF>
  </metadata>
  <g
     inkscape:label="Layer 1"
     inkscape:groupmode="layer"
     id="layer1"
     transform="translate(0,-1036.3622)">
    <path
       style="opacity:1;fill:#00796b;fill-opacity:1;fill-rule:evenodd;stroke:none;stroke-width:0;stroke-miterlimit:4;stroke-dasharray:none;stroke-opacity:1"
       d="M 3.808717,1036.3622 C 1.69869,1036.3622 0,1038.0609 0,1040.1709 l 0,8.3826 c 0,2.11 1.69869,3.8087 3.808717,3.8087 l 8.382566,0 c 2.110029,0 3.808717,-1.6987 3.808717,-3.8087 l 0,-8.3826 c 0,-2.11 -1.698688,-3.8087 -3.808717,-3.8087 l -8.382566,0 z m 0.457583,8.4285 a 3.3052522,3.3052522 0 0 1 3.30525,3.3052 3.3052522,3.3052522 0 0 1 -3.30525,3.3053 3.3052522,3.3052522 0 0 1 -3.30525,-3.3053 3.3052522,3.3052522 0 0 1 3.30525,-3.3052 z m 7.467399,0 a 3.3052522,3.3052522 0 0 1 3.305252,3.3052 3.3052522,3.3052522 0 0 1 -3.305252,3.3053 3.3052522,3.3052522 0 0 1 -3.30525,-3.3053 3.3052522,3.3052522 0 0 1 3.30525,-3.3052 z"
       id="rect3362"
       inkscape:connector-curvature="0" />
  </g>
</svg>
