<?xml version="1.0" encoding="UTF-8" standalone="no"?>
<!-- Created with Inkscape (http://www.inkscape.org/) -->

<svg
   xmlns:dc="http://purl.org/dc/elements/1.1/"
   xmlns:cc="http://creativecommons.org/ns#"
   xmlns:rdf="http://www.w3.org/1999/02/22-rdf-syntax-ns#"
   xmlns:svg="http://www.w3.org/2000/svg"
   xmlns="http://www.w3.org/2000/svg"
   xmlns:sodipodi="http://sodipodi.sourceforge.net/DTD/sodipodi-0.dtd"
   xmlns:inkscape="http://www.inkscape.org/namespaces/inkscape"
   width="612"
   height="384"
   viewBox="0 0 612.00001 384.00001"
   id="svg2"
   version="1.1"
   inkscape:version="0.91 r13725"
   sodipodi:docname="localsave.svg">
  <defs
     id="defs4" />
  <sodipodi:namedview
     id="base"
     pagecolor="#ffffff"
     bordercolor="#666666"
     borderopacity="1.0"
     inkscape:pageopacity="0.0"
     inkscape:pageshadow="2"
     inkscape:zoom="0.7"
     inkscape:cx="163.62765"
     inkscape:cy="97.755149"
     inkscape:document-units="px"
     inkscape:current-layer="layer1"
     showgrid="false"
     units="px"
     inkscape:window-width="1366"
     inkscape:window-height="705"
     inkscape:window-x="-4"
     inkscape:window-y="-4"
     inkscape:window-maximized="1" />
  <metadata
     id="metadata7">
    <rdf:RDF>
      <cc:Work
         rdf:about="">
        <dc:format>image/svg+xml</dc:format>
        <dc:type
           rdf:resource="http://purl.org/dc/dcmitype/StillImage" />
        <dc:title></dc:title>
      </cc:Work>
    </rdf:RDF>
  </metadata>
  <g
     inkscape:label="Layer 1"
     inkscape:groupmode="layer"
     id="layer1"
     transform="translate(0,-668.36216)">
    <rect
       style="opacity:1;fill:#000000;fill-opacity:1;stroke:none;stroke-width:18.37899971;stroke-linecap:butt;stroke-linejoin:miter;stroke-miterlimit:4;stroke-dasharray:none;stroke-opacity:1"
       id="rect3340"
       width="612"
       height="384"
       x="0"
       y="668.36218" />
    <g
       id="g3507"
       transform="matrix(4.2857143,0,0,4.2857143,201,755.36216)">
      <g
         id="g3459">
        <rect
           id="rect3461"
           height="10"
           width="6"
           y="5"
           x="27.5"
           style="fill:#ffffff" />
        <path
           id="path3463"
           d="M 39.914,0 0.5,0 l 0,49 48,0 0,-40.414 L 39.914,0 Z M 10.5,2 l 26,0 0,16 -26,0 0,-16 z m 29,45 -31,0 0,-21 31,0 0,21 z"
           inkscape:connector-curvature="0"
           style="fill:#ffffff" />
        <path
           id="path3465"
           d="m 13.5,32 7,0 c 0.553,0 1,-0.447 1,-1 0,-0.553 -0.447,-1 -1,-1 l -7,0 c -0.553,0 -1,0.447 -1,1 0,0.553 0.447,1 1,1 z"
           inkscape:connector-curvature="0"
           style="fill:#ffffff" />
        <path
           id="path3467"
           d="m 13.5,36 10,0 c 0.553,0 1,-0.447 1,-1 0,-0.553 -0.447,-1 -1,-1 l -10,0 c -0.553,0 -1,0.447 -1,1 0,0.553 0.447,1 1,1 z"
           inkscape:connector-curvature="0"
           style="fill:#ffffff" />
        <path
           id="path3469"
           d="m 26.5,36 c 0.27,0 0.52,-0.11 0.71,-0.29 0.18,-0.19 0.29,-0.45 0.29,-0.71 0,-0.26 -0.11,-0.521 -0.29,-0.71 -0.37,-0.37 -1.04,-0.37 -1.41,0 -0.19,0.189 -0.3,0.439 -0.3,0.71 0,0.27 0.109,0.52 0.29,0.71 0.189,0.18 0.439,0.29 0.71,0.29 z"
           inkscape:connector-curvature="0"
           style="fill:#ffffff" />
      </g>
      <g
         id="g3471" />
      <g
         id="g3473" />
      <g
         id="g3475" />
      <g
         id="g3477" />
      <g
         id="g3479" />
      <g
         id="g3481" />
      <g
         id="g3483" />
      <g
         id="g3485" />
      <g
         id="g3487" />
      <g
         id="g3489" />
      <g
         id="g3491" />
      <g
         id="g3493" />
      <g
         id="g3495" />
      <g
         id="g3497" />
      <g
         id="g3499" />
    </g>
  </g>
</svg>
