<?xml version="1.0" encoding="UTF-8" standalone="no"?>
<!-- Generator: Adobe Illustrator 16.0.0, SVG Export Plug-In . SVG Version: 6.00 Build 0)  -->

<svg
   xmlns:dc="http://purl.org/dc/elements/1.1/"
   xmlns:cc="http://creativecommons.org/ns#"
   xmlns:rdf="http://www.w3.org/1999/02/22-rdf-syntax-ns#"
   xmlns:svg="http://www.w3.org/2000/svg"
   xmlns="http://www.w3.org/2000/svg"
   xmlns:sodipodi="http://sodipodi.sourceforge.net/DTD/sodipodi-0.dtd"
   xmlns:inkscape="http://www.inkscape.org/namespaces/inkscape"
   version="1.1"
   id="Capa_1"
   x="0px"
   y="0px"
   width="512px"
   height="512px"
   viewBox="0 0 961.5 961.5"
   style="enable-background:new 0 0 961.5 961.5;"
   xml:space="preserve"
   inkscape:version="0.91 r13725"
   sodipodi:docname="similar.svg"><metadata
     id="metadata45"><rdf:RDF><cc:Work
         rdf:about=""><dc:format>image/svg+xml</dc:format><dc:type
           rdf:resource="http://purl.org/dc/dcmitype/StillImage" /><dc:title></dc:title></cc:Work></rdf:RDF></metadata><defs
     id="defs43" /><sodipodi:namedview
     pagecolor="#ffffff"
     bordercolor="#666666"
     borderopacity="1"
     objecttolerance="10"
     gridtolerance="10"
     guidetolerance="10"
     inkscape:pageopacity="0"
     inkscape:pageshadow="2"
     inkscape:window-width="1366"
     inkscape:window-height="705"
     id="namedview41"
     showgrid="false"
     inkscape:zoom="0.65186406"
     inkscape:cx="196.73826"
     inkscape:cy="255.37451"
     inkscape:window-x="-4"
     inkscape:window-y="-4"
     inkscape:window-maximized="1"
     inkscape:current-layer="Capa_1" /><g
     style="fill:#000000"
     id="g11" /><g
     style="fill:#000000"
     id="g13" /><g
     style="fill:#000000"
     id="g15" /><g
     style="fill:#000000"
     id="g17" /><g
     style="fill:#000000"
     id="g19" /><g
     style="fill:#000000"
     id="g21" /><g
     style="fill:#000000"
     id="g23" /><g
     style="fill:#000000"
     id="g25" /><g
     style="fill:#000000"
     id="g27" /><g
     style="fill:#000000"
     id="g29" /><g
     style="fill:#000000"
     id="g31" /><g
     style="fill:#000000"
     id="g33" /><g
     style="fill:#000000"
     id="g35" /><g
     style="fill:#000000"
     id="g37" /><g
     style="fill:#000000"
     id="g39" /><g
     style="font-style:normal;font-variant:normal;font-weight:normal;font-stretch:normal;font-size:1231.34667969px;line-height:125%;font-family:Arial;-inkscape-font-specification:Arial;letter-spacing:0px;word-spacing:0px;fill:#ffffff;fill-opacity:1;stroke:#000000;stroke-width:49.41368103;stroke-linecap:butt;stroke-linejoin:miter;stroke-miterlimit:4;stroke-dasharray:none;stroke-dashoffset:0;stroke-opacity:1"
     id="text3349-3"
     transform="matrix(1.0541765,0,0,1.0541765,-26.045356,-26.045364)"><path
       d="m 122.4089,634.36774 173.15812,-16.83482 q 15.63233,87.18031 63.13057,128.06487 48.09948,40.88456 129.26735,40.88456 85.97782,0 129.26735,-36.07461 43.89078,-36.67586 43.89078,-85.37658 0,-31.26466 -18.63855,-52.90943 -18.0373,-22.24601 -63.73181,-38.47958 Q 547.48805,562.81977 436.258,535.16256 293.16205,499.6892 235.44267,447.98226 154.2748,375.23179 154.2748,270.61543 q 0,-67.33928 37.87834,-125.65989 38.47959,-58.921867 110.02756,-89.585285 72.14922,-30.663419 173.75937,-30.663419 165.94321,0 249.51605,72.750463 84.17409,72.750461 88.3828,194.201651 l -177.96808,7.81616 q -11.42362,-67.94051 -49.30196,-97.40144 -37.2771,-30.06218 -112.43254,-30.06218 -77.56041,0 -121.45118,31.86591 -28.25845,20.44228 -28.25845,54.71316 0,31.26466 26.45471,53.51067 33.66964,28.25844 163.53824,58.92186 129.86859,30.66342 191.79667,63.73181 62.52932,32.46715 97.40145,89.58528 35.47336,56.51689 35.47336,140.08974 0,75.75668 -42.08704,141.89346 -42.08705,66.13679 -119.04621,98.60393 -76.95917,31.86591 -191.79668,31.86591 -167.14569,0 -256.73097,-76.95917 Q 139.84496,782.27364 122.4089,634.36774 Z"
       style="font-style:normal;font-variant:normal;font-weight:bold;font-stretch:normal;font-family:Arial;-inkscape-font-specification:'Arial Bold';fill:#ffffff;stroke:none;stroke-width:37.55859375;stroke-linecap:butt;stroke-linejoin:miter;stroke-miterlimit:4;stroke-dasharray:none;stroke-dashoffset:0;stroke-opacity:1"
       id="path4253"
       inkscape:connector-curvature="0" /></g></svg>