<?xml version="1.0" encoding="UTF-8" standalone="no"?>
<!-- Created with Inkscape (http://www.inkscape.org/) -->

<svg
   xmlns:dc="http://purl.org/dc/elements/1.1/"
   xmlns:cc="http://creativecommons.org/ns#"
   xmlns:rdf="http://www.w3.org/1999/02/22-rdf-syntax-ns#"
   xmlns:svg="http://www.w3.org/2000/svg"
   xmlns="http://www.w3.org/2000/svg"
   xmlns:sodipodi="http://sodipodi.sourceforge.net/DTD/sodipodi-0.dtd"
   xmlns:inkscape="http://www.inkscape.org/namespaces/inkscape"
   width="612"
   height="384"
   viewBox="0 0 612.00001 384.00001"
   id="svg2"
   version="1.1"
   inkscape:version="0.91 r13725"
   sodipodi:docname="tab.svg">
  <defs
     id="defs4" />
  <sodipodi:namedview
     id="base"
     pagecolor="#ffffff"
     bordercolor="#666666"
     borderopacity="1.0"
     inkscape:pageopacity="0.0"
     inkscape:pageshadow="2"
     inkscape:zoom="0.49497475"
     inkscape:cx="462.09209"
     inkscape:cy="130.88158"
     inkscape:document-units="px"
     inkscape:current-layer="layer1"
     showgrid="false"
     units="px"
     inkscape:window-width="1366"
     inkscape:window-height="705"
     inkscape:window-x="-4"
     inkscape:window-y="-4"
     inkscape:window-maximized="1" />
  <metadata
     id="metadata7">
    <rdf:RDF>
      <cc:Work
         rdf:about="">
        <dc:format>image/svg+xml</dc:format>
        <dc:type
           rdf:resource="http://purl.org/dc/dcmitype/StillImage" />
        <dc:title></dc:title>
      </cc:Work>
    </rdf:RDF>
  </metadata>
  <g
     inkscape:label="Layer 1"
     inkscape:groupmode="layer"
     id="layer1"
     transform="translate(0,-668.36216)">
    <rect
       style="opacity:1;fill:#000000;fill-opacity:1;stroke:none;stroke-width:18.37899971;stroke-linecap:butt;stroke-linejoin:miter;stroke-miterlimit:4;stroke-dasharray:none;stroke-opacity:1"
       id="rect3340"
       width="612"
       height="384"
       x="0"
       y="668.36218" />
    <g
       id="g4199"
       transform="matrix(0.70219318,0,0,0.70219318,185.96253,740.32469)">
      <g
         id="g4157">
        <path
           id="path4159"
           d="m 324.704,254.36 -14.554,0 0,-14.554 c 0,-9.479 -7.711,-17.191 -17.188,-17.191 -9.477,0 -17.187,7.712 -17.187,17.191 l 0,14.554 -14.555,0 c -9.477,0 -17.187,7.71 -17.187,17.186 0,9.478 7.71,17.189 17.187,17.189 l 14.555,0 0,14.556 c 0,9.477 7.71,17.187 17.187,17.187 9.478,0 17.188,-7.71 17.188,-17.187 l 0,-14.556 14.554,0 c 9.478,0 17.189,-7.711 17.189,-17.189 0,-9.476 -7.711,-17.186 -17.189,-17.186 z"
           inkscape:connector-curvature="0"
           style="fill:#ffffff" />
        <path
           id="path4161"
           d="m 225.001,272.888 -197.813,0 0,-161.079 255.551,0 0,93.217 c 3.244,-0.955 6.674,-1.472 10.224,-1.472 6.127,0 11.899,1.535 16.964,4.23 l 0,-177.306 c 0,-5.006 -4.057,-9.063 -9.063,-9.063 l -291.801,0 C 4.057,21.415 0,25.473 0,30.478 l 0,260.537 c 0,5.004 4.057,9.061 9.063,9.061 l 229.818,0 c -8.135,-6.384 -13.477,-16.167 -13.88,-27.188 z M 264.026,49.892 c 8.251,0 14.941,6.69 14.941,14.94 0,8.251 -6.689,14.942 -14.941,14.942 -8.253,0 -14.941,-6.691 -14.941,-14.942 0,-8.251 6.688,-14.94 14.941,-14.94 z m -42.62,0 c 8.252,0 14.942,6.69 14.942,14.94 0,8.251 -6.689,14.942 -14.942,14.942 -8.251,0 -14.941,-6.691 -14.941,-14.942 0,-8.251 6.69,-14.94 14.941,-14.94 z m -190.447,1.196 141.672,0 0,27.49 -141.672,0 0,-27.49 z"
           inkscape:connector-curvature="0"
           style="fill:#ffffff" />
      </g>
      <g
         id="g4163" />
      <g
         id="g4165" />
      <g
         id="g4167" />
      <g
         id="g4169" />
      <g
         id="g4171" />
      <g
         id="g4173" />
      <g
         id="g4175" />
      <g
         id="g4177" />
      <g
         id="g4179" />
      <g
         id="g4181" />
      <g
         id="g4183" />
      <g
         id="g4185" />
      <g
         id="g4187" />
      <g
         id="g4189" />
      <g
         id="g4191" />
    </g>
  </g>
</svg>
