<?xml version="1.0" encoding="iso-8859-1"?>
<!-- Generator: Adobe Illustrator 16.0.0, SVG Export Plug-In . SVG Version: 6.00 Build 0)  -->
<!DOCTYPE svg PUBLIC "-//W3C//DTD SVG 1.1//EN" "http://www.w3.org/Graphics/SVG/1.1/DTD/svg11.dtd">
<svg xmlns="http://www.w3.org/2000/svg" xmlns:xlink="http://www.w3.org/1999/xlink" version="1.1" id="Capa_1" x="0px" y="0px" width="512px" height="512px" viewBox="0 0 79.536 79.536" style="enable-background:new 0 0 79.536 79.536;" xml:space="preserve">
<g>
	<path d="M46.35,11.454v3.658H24.571v-3.658h2.1V1.347l0,0C26.67,0.593,30.606,0,35.458,0   s8.77,0.593,8.77,1.347l0,0v10.107H46.35z M63.624,46.966l-0.279,32.57H15.913l0.705-52.68l7.791-9.199h22.294l10.543,7.363   L63.624,46.966z M56.209,48.312l-1.916-15.754c0,0-0.477-2.09-2.082-3.278c-2.31-1.691-6.007-1.934-5.913,4.883l4.143,14.305   C50.441,48.478,53.641,53.583,56.209,48.312z" fill="#FFFFFF"/>
</g>
<g>
</g>
<g>
</g>
<g>
</g>
<g>
</g>
<g>
</g>
<g>
</g>
<g>
</g>
<g>
</g>
<g>
</g>
<g>
</g>
<g>
</g>
<g>
</g>
<g>
</g>
<g>
</g>
<g>
</g>
</svg>
