<?xml version="1.0" encoding="iso-8859-1"?>
<!-- Generator: Adobe Illustrator 19.0.0, SVG Export Plug-In . SVG Version: 6.00 Build 0)  -->
<svg xmlns="http://www.w3.org/2000/svg" xmlns:xlink="http://www.w3.org/1999/xlink" version="1.1" id="Layer_1" x="0px" y="0px" viewBox="0 0 511.999 511.999" style="enable-background:new 0 0 511.999 511.999;" xml:space="preserve" width="512px" height="512px">
<g>
	<g>
		<path d="M459.419,15.72h-48.346h-15.135H0l55.385,95.176v339.182c0,25.475,20.726,46.201,46.201,46.201h263.287    c25.475,0,46.2-20.726,46.2-46.201V245.797h48.346c28.992,0,52.58-23.587,52.58-52.58V68.3    C512,39.307,488.413,15.72,459.419,15.72z M339.059,422.483h-86.921v-30.27h86.921V422.483z M339.06,372.033H221.869v-30.27    H339.06V372.033z M339.06,321.583h-86.921v-30.27h86.921V321.583z M339.06,271.133H221.869v-30.27H339.06V271.133z     M339.06,220.684h-86.921v-30.27h86.921V220.684z M339.06,170.234H221.869v-30.27H339.06V170.234z M339.06,119.784h-86.921v-30.27    h86.921V119.784z M481.73,193.217c0,12.302-10.008,22.31-22.31,22.31h-48.346V45.99h48.346c12.302,0,22.31,10.008,22.31,22.31    V193.217z" fill="#FFFFFF"/>
	</g>
</g>
<g>
</g>
<g>
</g>
<g>
</g>
<g>
</g>
<g>
</g>
<g>
</g>
<g>
</g>
<g>
</g>
<g>
</g>
<g>
</g>
<g>
</g>
<g>
</g>
<g>
</g>
<g>
</g>
<g>
</g>
</svg>
