<?xml version="1.0" encoding="iso-8859-1"?>
<!-- Generator: Adobe Illustrator 16.0.0, SVG Export Plug-In . SVG Version: 6.00 Build 0)  -->
<!DOCTYPE svg PUBLIC "-//W3C//DTD SVG 1.1//EN" "http://www.w3.org/Graphics/SVG/1.1/DTD/svg11.dtd">
<svg xmlns="http://www.w3.org/2000/svg" xmlns:xlink="http://www.w3.org/1999/xlink" version="1.1" id="Capa_1" x="0px" y="0px" width="512px" height="512px" viewBox="0 0 800.685 800.685" style="enable-background:new 0 0 800.685 800.685;" xml:space="preserve">
<g>
	<path d="M800.196,248.076c-0.079-0.108-0.205-0.206-0.318-0.311c-6.391-6.022-50.159-2.275-50.159-2.275s-0.271,0.932-0.969,2.275   c-1.485,2.859-4.936,7.608-11.979,9.373c-10.354,2.586-157.908,5.172-161.791-5.181c-0.653-1.75-1.818-3.104-3.258-4.192   c-7.063-5.335-21.334-3.572-21.334-3.572s-1.106,1.468-2.892,3.572c-4.027,4.749-11.538,12.752-17.817,14.545   c-7.013,2.005-8.585-6.84-7.745-14.545c0.245-2.247,0.688-4.405,1.271-6.16c1.812-5.438-15.428-24.205-29.918-33.632   c-6.192-4.025-11.893-6.361-15.382-5.198c-11.647,3.883-72.487-19.414-72.487-19.414H193.214H28.763c0,0-0.792,8.261-2.147,15.461   c-0.127,0.667-0.257,1.32-0.393,1.963c-0.638,3.021-1.376,5.687-2.207,7.188c-0.54,0.981-1.117,1.474-1.722,1.27   c-0.556-0.184-1.367-0.653-2.327-1.27c-5.751-3.691-17.458-13.335-19.68-7.79c-0.709,1.771-0.035,4.533,1.279,7.79   c3.495,8.65,11.664,20.935,11.664,28.452c0,1.654,0,5.685,0,11.34c0,6.453,0,15.019,0,24.615c0,12.354,0,26.394,0,39.79   c0,8.698,0,17.113,0,24.615c0,13.418,0,23.909,0,27.781c0,5.052,3.265,8.64,7.358,12.009c7.435,6.127,17.61,11.546,15.939,23.768   c-0.039,0.284-0.045,0.564-0.069,0.847c-1.217,14.422,16.472,29.532,28.742,39.79c3.649,3.051,6.822,5.676,8.865,7.719   c3.774,3.775,9.119,10.467,14.632,16.895c7.727,9.014,15.784,17.514,20.315,16.762c7.766-1.295,22.005-6.475,31.065,3.883   c7.56,8.643,42.152,17.273,59.413,19.146h9.94c9.832-1.316,35.456-4.867,50.457,0c5.52,1.793,9.604,4.719,10.919,9.326   c1.528,5.346,4.308,10.566,7.449,15.289c7.509,11.279,17.142,19.658,17.142,19.658s6.475-10.354,10.356-18.121   c0.297-0.596,0.687-1.104,1.138-1.537c2.18-2.104,6.041-2.312,10.43,0c6.632,3.496,14.46,12.76,19.498,30.016   c1.013,3.477,2.396,6.723,4.025,9.773c5.7,10.674,14.598,18.828,22.798,24.613c10.465,7.383,19.773,10.912,19.773,10.912   s0-4.547,0.083-10.912c0.093-7.191,0.291-16.697,0.714-24.613c0.139-2.613,0.302-5.062,0.495-7.188   c1.294-14.234,44.009-27.182,51.773-28.479c7.768-1.293,59.541,22.008,59.541,14.244c0-6.521,8.226-12.139,17.755-18.367   c1.82-1.189,3.681-2.396,5.547-3.641c4.116-2.748,9.204-0.309,14.114,3.641c8.995,7.219,17.404,19.5,18.24,14.484   c1.293-7.771,25.89-3.883,28.476,5.174c1.524,5.344,3.497,12.938,4.599,20.131c0.767,4.998,1.108,9.811,0.583,13.525   c-0.363,2.545,1.315,6.627,4.007,11.086c6.887,11.42,20.383,25.355,23.176,22.562c1.706-1.703,3.664-11.434,4.442-22.562   c0.583-8.346,0.49-17.475-0.86-24.611c-0.944-4.975-2.496-8.982-4.878-11.068c-4.604-4.029-8.18-15.992-9.829-28.721   c-1.108-8.602-1.342-17.529-0.407-24.619c0.791-6.014,2.42-10.693,5.061-12.674c4.068-3.051,18.512-14.281,33.693-27.113   c9.606-8.121,19.513-16.881,27.268-24.613c11.199-11.164,17.926-20.192,12.814-22.051c-8.366-3.045-9.562-8.799-8.615-17.739   c0.664-6.264,2.371-14.078,3.436-23.677c0.039-0.334,0.086-0.623,0.129-0.938c2.915-21.554,18.086,4.392,24.474-24.954   c1.341-6.175,4.817-11,9.393-14.836c17.461-14.656,51.124-14.71,44.966-18.813c-1.896-1.271-3.253-3.322-4.066-5.802   c-2.514-7.642,0.136-19.402,7.949-25.264c4.006-3.001,12.067-8.515,20.148-14.526C790.469,262.837,803.375,252.046,800.196,248.076   z" fill="#FFFFFF"/>
</g>
<g>
</g>
<g>
</g>
<g>
</g>
<g>
</g>
<g>
</g>
<g>
</g>
<g>
</g>
<g>
</g>
<g>
</g>
<g>
</g>
<g>
</g>
<g>
</g>
<g>
</g>
<g>
</g>
<g>
</g>
</svg>
