<?xml version="1.0" encoding="iso-8859-1"?>
<!-- Generator: Adobe Illustrator 18.1.1, SVG Export Plug-In . SVG Version: 6.00 Build 0)  -->
<svg xmlns="http://www.w3.org/2000/svg" xmlns:xlink="http://www.w3.org/1999/xlink" version="1.1" id="Capa_1" x="0px" y="0px" viewBox="0 0 381.363 381.363" style="enable-background:new 0 0 381.363 381.363;" xml:space="preserve" width="512px" height="512px">
<path d="M381.244,156.695c-0.886-6.01-6.479-10.16-12.487-9.277c-2.518,0.372-5.83,0.944-10.023,1.669  c-38.228,6.611-139.771,24.17-221.423-7.504c-50.993-19.779-81.315-19.957-101.166-15.236v-22.646  c0-11.284,9.18-20.465,20.464-20.465c11.283,0,20.463,9.181,20.463,20.465c0,4.419,3.582,8,8,8c4.418,0,8-3.581,8-8  c0-20.107-16.357-36.465-36.463-36.465c-20.106,0-36.464,16.358-36.464,36.465v28.123c-2.793,1.245-5.31,2.5-7.622,3.654  c-2.177,1.086-4.058,2.025-5.663,2.678c-5.628,2.289-8.335,8.706-6.046,14.333c1.605,3.946,5.241,6.447,9.21,6.806v65.849  c0,33.393,25.9,60.831,58.664,63.329v5.653c0,11.046,8.954,20,20,20s20-8.954,20-20v-5.448h163.99v5.448c0,11.046,8.954,20,20,20  s20-8.954,20-20v-5.653c32.764-2.498,58.664-29.936,58.664-63.329v-55.866c0.213-0.033,0.428-0.066,0.626-0.095  C377.978,168.296,382.131,162.706,381.244,156.695z M32.35,188.045c0-2.761,2.238-5,5-5c2.762,0,5,2.239,5,5v17.637  c0,2.761-2.238,5-5,5c-2.762,0-5-2.239-5-5V188.045z M70.391,262.045c-20.976,0-38.041-17.065-38.041-38.041c0-2.761,2.238-5,5-5  c2.762,0,5,2.239,5,5c0,15.462,12.579,28.041,28.041,28.041c2.762,0,5,2.239,5,5C75.391,259.806,73.152,262.045,70.391,262.045z" fill="#FFFFFF"/>
<g>
</g>
<g>
</g>
<g>
</g>
<g>
</g>
<g>
</g>
<g>
</g>
<g>
</g>
<g>
</g>
<g>
</g>
<g>
</g>
<g>
</g>
<g>
</g>
<g>
</g>
<g>
</g>
<g>
</g>
</svg>
