<?xml version="1.0" encoding="iso-8859-1"?>
<!DOCTYPE svg PUBLIC "-//W3C//DTD SVG 1.1//EN" "http://www.w3.org/Graphics/SVG/1.1/DTD/svg11.dtd">
<svg xmlns="http://www.w3.org/2000/svg" xmlns:xlink="http://www.w3.org/1999/xlink" version="1.1" viewBox="0 0 512 512" enable-background="new 0 0 512 512" width="512px" height="512px">
  <path d="m464,176c0-17.672-14.328-32-32-32v-80c17.672,0 32-14.328 32-32s-14.328-32-32-32h-32-288-32c-17.672,0-32,14.328-32,32s14.328,32 32,32v80c-17.672,0-32,14.328-32,32s14.328,32 32,32v96c-17.672,0-32,14.328-32,32s14.328,32 32,32v80c-17.672,0-32,14.328-32,32s14.328,32 32,32h32 288 32c17.672,0 32-14.328 32-32s-14.328-32-32-32v-80c17.672,0 32-14.328 32-32s-14.328-32-32-32v-96c17.672,0 32-14.328 32-32zm-208,176c-35.344,0-64-27.344-64-61.088 0-43.646 64-130.912 64-130.912s64,87.266 64,130.912c0,33.744-28.656,61.088-64,61.088z" fill="#FFFFFF"/>
</svg>
