<?xml version="1.0" encoding="iso-8859-1"?>
<!-- Generator: Adobe Illustrator 16.0.0, SVG Export Plug-In . SVG Version: 6.00 Build 0)  -->
<!DOCTYPE svg PUBLIC "-//W3C//DTD SVG 1.1//EN" "http://www.w3.org/Graphics/SVG/1.1/DTD/svg11.dtd">
<svg xmlns="http://www.w3.org/2000/svg" xmlns:xlink="http://www.w3.org/1999/xlink" version="1.1" id="Capa_1" x="0px" y="0px" width="512px" height="512px" viewBox="0 0 79.536 79.536" style="enable-background:new 0 0 79.536 79.536;" xml:space="preserve">
<g>
	<path d="M46.883,79.536c0,0,3.459-0.555,4.407-5.08c1.01-4.857-0.031-8.067-0.627-10.791   c-0.585-2.734-0.394-4.117,0.518-8.529c1.445-7.088,1.331-19.334,0.549-25.228c-0.781-5.887-3.606-9.584-4.958-12.37   C44.535,12.955,44.501,7.28,44.501,7.28h1.248V5.1l-0.453-0.342V0.351c0,0-2.03-0.45-5.53-0.331   c-3.498-0.114-5.53,0.331-5.53,0.331v4.407L33.775,5.1v2.18h1.246c0,0-0.021,5.675-2.258,10.258   c-1.352,2.786-4.179,6.483-4.958,12.37c-0.779,5.893-0.896,18.14,0.551,25.228c0.896,4.412,1.103,5.8,0.505,8.529   c-0.585,2.724-1.639,5.934-0.616,10.791c0.95,4.525,4.412,5.08,4.412,5.08H46.883z" fill="#FFFFFF"/>
</g>
<g>
</g>
<g>
</g>
<g>
</g>
<g>
</g>
<g>
</g>
<g>
</g>
<g>
</g>
<g>
</g>
<g>
</g>
<g>
</g>
<g>
</g>
<g>
</g>
<g>
</g>
<g>
</g>
<g>
</g>
</svg>
