<?xml version="1.0" encoding="iso-8859-1"?>
<!-- Generator: Adobe Illustrator 19.0.0, SVG Export Plug-In . SVG Version: 6.00 Build 0)  -->
<svg version="1.1" id="Layer_1" xmlns="http://www.w3.org/2000/svg" xmlns:xlink="http://www.w3.org/1999/xlink" x="0px" y="0px"
	 viewBox="0 0 511.999 511.999" style="enable-background:new 0 0 511.999 511.999;" xml:space="preserve">
<g>
	<g>
		<path d="M334.618,416.728c-6.521-6.521-17.104-6.521-23.625,0l-38.297,38.279V350.627c0-9.222-7.477-16.694-16.694-16.694
			c-9.216,0-16.694,7.472-16.694,16.694v104.379l-38.258-38.279c-6.521-6.521-17.075-6.521-23.596,0
			c-6.521,6.515-6.516,17.09,0.004,23.606l66.777,66.775c3.261,3.261,7.533,4.891,11.805,4.891c4.271,0,8.543-1.63,11.804-4.891
			l66.775-66.775C341.139,433.819,341.14,423.244,334.618,416.728z"/>
	</g>
</g>
<g>
	<g>
		<path d="M352.022,88.816c-15.009-13.917-35.648-21.649-58.2-21.77c-4.162,0-8.184,0.426-11.955,1.269
			c-9.662,2.179-17.291,6.182-23.704,9.558c-0.294,0.153-1.174,0.538-2.141,0.743c-0.903-0.201-1.968-0.625-3.206-1.278
			c-5.165-2.722-12.968-6.835-22.706-9.026c-3.749-0.842-7.77-1.272-12.021-1.272c-22.454,0.119-43.093,7.847-58.113,21.77
			c-20.194,18.737-31.289,45.435-31.235,75.159c0,15.617,2.978,32.3,8.858,49.592c4.456,13.14,11.063,27.111,18.607,39.37
			c9.706,15.704,20.291,27.714,31.496,35.724c19.41,13.77,41.572,15.216,60.286,3.712l1.642-1.022
			c2.217-1.369,4.315-2.701,6.369-3.76c1.956,0.999,4.054,2.326,6.445,3.798l1.642,1.195c8.26,5.092,17.508,7.966,26.725,7.966
			h0.098c11.423,0,22.66-4.07,33.431-11.732c11.161-7.977,21.747-20.074,31.463-35.811c7.521-12.226,14.128-26.239,18.607-39.384
			c5.868-17.27,8.846-33.98,8.846-49.594C383.323,134.284,372.237,107.57,352.022,88.816z"/>
	</g>
</g>
<g>
	<g>
		<path d="M311.687,0.061c0,0-1.9-0.161-4.739,0.042c-2.872,0.171-6.673,0.718-10.797,1.811c-8.241,2.192-17.148,7.199-24.087,14.17
			c-6.945,6.967-11.934,15.891-14.137,24.119c-1.095,4.12-1.652,7.912-1.832,10.777c-0.209,2.833-0.055,4.727-0.055,4.727
			s1.895,0.154,4.729-0.056c2.864-0.178,6.654-0.733,10.776-1.83c8.23-2.205,17.153-7.192,24.119-14.137
			c6.972-6.941,11.977-15.846,14.17-24.087c1.092-4.123,1.638-7.924,1.81-10.796C311.847,1.962,311.687,0.061,311.687,0.061z"/>
	</g>
</g>
<g>
</g>
<g>
</g>
<g>
</g>
<g>
</g>
<g>
</g>
<g>
</g>
<g>
</g>
<g>
</g>
<g>
</g>
<g>
</g>
<g>
</g>
<g>
</g>
<g>
</g>
<g>
</g>
<g>
</g>
</svg>
