<?xml version="1.0" encoding="iso-8859-1"?>
<!-- Generator: Adobe Illustrator 16.0.0, SVG Export Plug-In . SVG Version: 6.00 Build 0)  -->
<!DOCTYPE svg PUBLIC "-//W3C//DTD SVG 1.1//EN" "http://www.w3.org/Graphics/SVG/1.1/DTD/svg11.dtd">
<svg version="1.1" id="Capa_1" xmlns="http://www.w3.org/2000/svg" xmlns:xlink="http://www.w3.org/1999/xlink" x="0px" y="0px"
	 width="455.987px" height="455.987px" viewBox="0 0 455.987 455.987" style="enable-background:new 0 0 455.987 455.987;"
	 xml:space="preserve">
<g>
	<path d="M95.9,118.674l-6.637-2.917l1.16-2.649l6.638,2.903L95.9,118.674z M78.923,108.072l-11.505-5.042l-1.165,2.66l11.51,5.031
		L78.923,108.072z M55.916,97.99l-6.64-2.914l-1.166,2.662l6.64,2.914L55.916,97.99z M91.788,125.525l1.277,2.619l6.506-3.196
		l-1.277-2.605L91.788,125.525z M69.229,136.581l1.277,2.605l11.287-5.524l-1.284-2.605L69.229,136.581z M51.44,145.29l1.278,2.604
		l6.51-3.196l-1.284-2.604L51.44,145.29z M95.022,119.473l-7.24,0.309l0.119,2.903l7.245-0.32L95.022,119.473z M75.229,120.327
		l-12.544,0.536l0.118,2.892l12.545-0.539L75.229,120.327z M42.898,121.691l0.119,2.903l7.239-0.306l-0.124-2.903L42.898,121.691z
		 M413.089,140.179v269.592c0,25.527-20.689,46.217-46.211,46.217h-81.645c-25.529,0-46.219-20.689-46.219-46.217V170.505
		c-8.443,2.101-12.404,5.064-14.214,7.144c-2.223,2.561-2.045,4.739-2.013,4.979l0.191,0.887l-0.068,0.561v206.292
		c0,31.176-25.367,56.548-56.548,56.548c-31.183,0-56.548-25.363-56.548-56.548V193.299h-1.442v-67.405l-6.78-5.501l6.78-8.337
		v-6.121h19.517v87.369h-1.27v197.068c0,21.912,17.822,39.738,39.737,39.738c21.91,0,39.738-17.826,39.738-39.738V184.658
		c-0.329-2.848-0.418-9.924,5.162-17.007c5.502-6.971,14.859-11.71,27.751-14.271v-13.196c0-25.514,20.689-46.206,46.216-46.206
		h20.03V82.934c-14.157-7.3-23.888-22.044-23.888-39.026C281.367,19.702,301.072,0,325.275,0c24.21,0,43.909,19.702,43.909,43.908
		c0,10.875-4.007,20.829-10.595,28.498h28.411v-9.677c0-3.204,2.592-5.798,5.795-5.798c3.199,0,5.795,2.594,5.795,5.798v26.528
		c0,3.204-2.596,5.797-5.795,5.797c-3.203,0-5.795-2.593-5.795-5.797v-8.153h-38.529c-0.542,0.342-1.079,0.689-1.63,1.007v11.863
		h20.026C392.399,93.973,413.089,114.666,413.089,140.179z M344.971,72.4c9.034-6.258,14.975-16.692,14.975-28.498
		c0-19.12-15.549-34.663-34.659-34.663c-19.112,0-34.67,15.538-34.67,34.663c0,11.806,5.943,22.24,14.993,28.498h38.599
		c0.024,0,0.038,0,0.057,0H344.971z M384.111,143.815h-5.8v245.594h5.8V143.815z M326.052,39.855c-0.602,0-1.188,0.118-1.738,0.31
		l-19.055-4.731l15.223,11.645c0.64,2.496,2.89,4.331,5.57,4.331c3.197,0,5.779-2.583,5.779-5.765
		C331.831,42.452,329.249,39.855,326.052,39.855z"/>
</g>
<g>
</g>
<g>
</g>
<g>
</g>
<g>
</g>
<g>
</g>
<g>
</g>
<g>
</g>
<g>
</g>
<g>
</g>
<g>
</g>
<g>
</g>
<g>
</g>
<g>
</g>
<g>
</g>
<g>
</g>
</svg>
