<?xml version="1.0" encoding="iso-8859-1"?>
<!-- Generator: Adobe Illustrator 19.0.0, SVG Export Plug-In . SVG Version: 6.00 Build 0)  -->
<svg version="1.1" id="Layer_1" xmlns="http://www.w3.org/2000/svg" xmlns:xlink="http://www.w3.org/1999/xlink" x="0px" y="0px"
	 viewBox="0 0 297.022 297.022" style="enable-background:new 0 0 297.022 297.022;" xml:space="preserve">
<g>
	<g>
		<g>
			<path d="M170.381,145.244c-3.373-5.842-8.818-10.02-15.334-11.766c-2.031-0.545-4.091-0.832-6.139-0.868
				c-4.525-0.079-9.003,1.069-13.023,3.391c-5.842,3.373-10.021,8.818-11.767,15.334c-1.746,6.516-0.85,13.321,2.523,19.164
				c3.373,5.841,8.818,10.02,15.334,11.766c6.519,1.747,13.322,0.85,19.164-2.523C173.197,172.778,177.343,157.303,170.381,145.244z
				"/>
			<path d="M121.196,126.724c2.022-1.766,4.23-3.348,6.607-4.721c9.579-5.532,20.74-7,31.427-4.138
				c6.242,1.673,11.878,4.715,16.595,8.859l49.899-86.428c1.072-1.858,1.362-4.065,0.807-6.137
				c-0.557-2.071-1.913-3.836-3.771-4.907C176.924,2.845,120.024,2.854,74.264,29.273c-1.857,1.072-3.211,2.837-3.766,4.907
				c-0.554,2.07-0.264,4.276,0.808,6.132L121.196,126.724z"/>
			<path d="M294.658,152.16c-1.515-1.518-3.548-2.409-5.717-2.37l-99.82,0.001c3.351,16.918-4.157,34.857-19.903,43.949
				c-2.377,1.373-4.854,2.485-7.395,3.354l49.894,86.418c1.072,1.857,2.837,3.211,4.907,3.766c0.642,0.172,1.297,0.262,1.951,0.274
				c1.454,0.025,2.901-0.342,4.181-1.081c45.759-26.419,74.216-75.692,74.266-128.59
				C297.025,155.734,296.175,153.676,294.658,152.16z"/>
			<path d="M112.643,178.579c-5.078-8.795-6.721-18.921-4.743-28.789H8.081c-4.461,0-8.076,3.613-8.081,8.074
				c-0.025,25.97,6.861,51.646,19.913,74.254c13.052,22.608,31.846,41.409,54.348,54.373c1.228,0.707,2.563,1.055,3.886,1.078
				c2.842,0.05,5.625-1.404,7.147-4.04l49.91-86.445C125.668,193.861,117.721,187.374,112.643,178.579z"/>
		</g>
	</g>
</g>
<g>
</g>
<g>
</g>
<g>
</g>
<g>
</g>
<g>
</g>
<g>
</g>
<g>
</g>
<g>
</g>
<g>
</g>
<g>
</g>
<g>
</g>
<g>
</g>
<g>
</g>
<g>
</g>
<g>
</g>
</svg>
