<?xml version="1.0" encoding="iso-8859-1"?>
<!-- Generator: Adobe Illustrator 19.0.0, SVG Export Plug-In . SVG Version: 6.00 Build 0)  -->
<svg version="1.1" id="Layer_1" xmlns="http://www.w3.org/2000/svg" xmlns:xlink="http://www.w3.org/1999/xlink" x="0px" y="0px"
	 viewBox="0 0 511.999 511.999" style="enable-background:new 0 0 511.999 511.999;" xml:space="preserve">
<g>
	<g>
		<path d="M101.556,48.777v0.001H86.34H60.064C26.945,48.778,0,75.723,0,108.842v171.766h30.432V108.842
			c0-16.339,13.293-29.632,29.632-29.632H86.34v131.581v183.483c0,38.019,30.929,68.948,68.947,68.948h245.996
			c38.017,0,68.946-30.93,68.946-68.948V210.791v-86.6l41.769-75.414H101.556z M142.132,160.363h75.784v30.432h-75.784V160.363z
			 M142.132,261.803h75.784v30.432h-75.784V261.803z M247.845,342.956H142.132v-30.432h105.712V342.956z M247.845,241.515H142.132
			v-30.432h105.712V241.515z M247.845,140.075H142.132v-30.432h105.712V140.075z"/>
	</g>
</g>
<g>
</g>
<g>
</g>
<g>
</g>
<g>
</g>
<g>
</g>
<g>
</g>
<g>
</g>
<g>
</g>
<g>
</g>
<g>
</g>
<g>
</g>
<g>
</g>
<g>
</g>
<g>
</g>
<g>
</g>
</svg>
