<?xml version="1.0" encoding="UTF-8" standalone="no"?>
<!-- Generator: Adobe Illustrator 18.1.1, SVG Export Plug-In . SVG Version: 6.00 Build 0)  -->

<svg
   xmlns:dc="http://purl.org/dc/elements/1.1/"
   xmlns:cc="http://creativecommons.org/ns#"
   xmlns:rdf="http://www.w3.org/1999/02/22-rdf-syntax-ns#"
   xmlns:svg="http://www.w3.org/2000/svg"
   xmlns="http://www.w3.org/2000/svg"
   xmlns:sodipodi="http://sodipodi.sourceforge.net/DTD/sodipodi-0.dtd"
   xmlns:inkscape="http://www.inkscape.org/namespaces/inkscape"
   version="1.1"
   id="Capa_1"
   x="0px"
   y="0px"
   viewBox="0 0 58.32 58.32"
   style="enable-background:new 0 0 58.32 58.32;"
   xml:space="preserve"
   width="512px"
   height="512px"
   inkscape:version="0.91 r13725"
   sodipodi:docname="crime-index.svg"><metadata
     id="metadata47"><rdf:RDF><cc:Work
         rdf:about=""><dc:format>image/svg+xml</dc:format><dc:type
           rdf:resource="http://purl.org/dc/dcmitype/StillImage" /></cc:Work></rdf:RDF></metadata><defs
     id="defs45" /><sodipodi:namedview
     pagecolor="#ffffff"
     bordercolor="#666666"
     borderopacity="1"
     objecttolerance="10"
     gridtolerance="10"
     guidetolerance="10"
     inkscape:pageopacity="0"
     inkscape:pageshadow="2"
     inkscape:window-width="640"
     inkscape:window-height="480"
     id="namedview43"
     showgrid="false"
     inkscape:zoom="0.4609375"
     inkscape:cx="256"
     inkscape:cy="256"
     inkscape:window-x="0"
     inkscape:window-y="0"
     inkscape:window-maximized="0"
     inkscape:current-layer="Capa_1" /><g
     id="g3"><g
       id="g5"><path
         d="m 33.47,36.538 c 0.102,-0.43 0.172,-0.885 0.193,-1.372 0.404,-8.843 -4.428,-16.084 -11.671,-20.739 -4.308,-2.77 -8.394,0.25 -9.432,4.101 -2.67,-2.125 -7.294,1.055 -5.214,4.548 0.076,0.127 0.154,0.255 0.232,0.383 -2.088,-0.008 -8.742,-0.029 -6.879,0.002 2.202,0.038 7.486,5.964 7.486,5.964 l 0,-5 c 1.623,2.482 3.698,4.804 6.786,5.155 1.408,0.161 2.571,-0.275 3.527,-1.038 1.207,1.477 1.822,3.135 1.942,5.125 -1.057,-0.016 -2.117,0.027 -3.187,0.152 -3.691,0.435 -5.969,1.248 -6.715,5.109 -1.122,5.824 1.907,10.078 5.174,14.53 2.658,3.621 8.776,0.112 6.083,-3.56 -2.202,-3 -4.417,-5.465 -4.326,-8.951 2.152,-0.327 4.292,-0.239 6.477,-0.03 1.069,0.46 2.275,0.646 3.469,0.553 1.781,5.955 5.163,11.259 9.543,15.783 3.166,3.271 8.143,-1.722 4.982,-4.979 -4.343,-4.492 -7.252,-9.689 -8.47,-15.736 z"
         id="path7"
         inkscape:connector-curvature="0"
         style="fill:#ffffff" /><path
         d="m 6.805,7.951 c 0.009,0.1 0.012,0.2 0.026,0.301 0.449,3.26 3.454,5.539 6.712,5.09 3.26,-0.448 5.536,-3.452 5.09,-6.712 C 18.541,5.952 18.333,5.321 18.039,4.745 18.24,4.648 18.331,4.417 18.263,3.936 L 18.069,2.513 C 17.849,0.922 16.382,-0.192 14.793,0.028 L 8.451,0.898 C 6.856,1.118 5.745,2.585 5.964,4.178 L 6.119,5.329 C 5.23,6.038 4.479,6.934 4.642,7.884 4.784,8.727 5.718,8.518 6.805,7.951 Z"
         id="path9"
         inkscape:connector-curvature="0"
         style="fill:#ffffff" /><path
         d="m 22.894,13.399 c 0,0 14.28,7.656 12.593,18.94 -3.698,9.408 12.449,19.098 21.229,-2.6 -10e-4,0 11.179,-29.738 -33.822,-16.34 z m 24.177,17.706 0,1.814 -1.93,0 0,-1.707 c -0.894,-0.084 -1.783,-0.379 -2.358,-0.787 l -0.271,-0.195 0.7,-1.958 0.47,0.313 c 0.609,0.407 1.396,0.642 2.15,0.642 0.923,0 1.539,-0.479 1.539,-1.19 0,-0.48 -0.191,-1.001 -1.604,-1.573 -1.492,-0.584 -3.021,-1.435 -3.021,-3.287 0,-1.489 0.979,-2.65 2.514,-3.037 l 0,-1.763 1.913,0 0,1.643 c 0.731,0.074 1.37,0.277 1.945,0.614 l 0.321,0.19 -0.73,1.928 -0.45,-0.256 c -0.264,-0.151 -0.887,-0.508 -1.876,-0.508 -0.975,0 -1.322,0.512 -1.322,0.991 0,0.519 0.258,0.855 1.791,1.491 1.326,0.54 2.853,1.422 2.853,3.451 -0.003,1.537 -1.046,2.779 -2.634,3.184 z"
         id="path11"
         inkscape:connector-curvature="0"
         style="fill:#ffffff" /></g></g><g
     id="g13" /><g
     id="g15" /><g
     id="g17" /><g
     id="g19" /><g
     id="g21" /><g
     id="g23" /><g
     id="g25" /><g
     id="g27" /><g
     id="g29" /><g
     id="g31" /><g
     id="g33" /><g
     id="g35" /><g
     id="g37" /><g
     id="g39" /><g
     id="g41" /></svg>