<?xml version="1.0" encoding="iso-8859-1"?>
<!-- Generator: Adobe Illustrator 18.0.0, SVG Export Plug-In . SVG Version: 6.00 Build 0)  -->
<!DOCTYPE svg PUBLIC "-//W3C//DTD SVG 1.1//EN" "http://www.w3.org/Graphics/SVG/1.1/DTD/svg11.dtd">
<svg xmlns="http://www.w3.org/2000/svg" xmlns:xlink="http://www.w3.org/1999/xlink" version="1.1" id="Capa_1" x="0px" y="0px" viewBox="0 0 495.283 495.283" style="enable-background:new 0 0 495.283 495.283;" xml:space="preserve" width="512px" height="512px">
<g id="XMLID_12_">
	<path id="XMLID_19_" d="M315.464,190.994c-5.093,0-8.577,0.492-10.381,0.984v32.843c2.158,0.492,4.771,0.66,8.419,0.66   c13.38,0,21.604-6.769,21.604-18.152C335.106,197.097,328.013,190.994,315.464,190.994z" fill="#FFFFFF"/>
	<path id="XMLID_18_" d="M171.524,190.664c-6.09,0-9.574,0.493-11.379,0.821v30.689h9.896c12.547,0,19.963-6.27,19.963-16.002   C190.004,195.945,183.068,190.826,171.524,190.664z" fill="#FFFFFF"/>
	<path id="XMLID_13_" d="M438.868,435.354h-23.573V123.119c0-7.649-6.192-13.85-13.847-13.85h-22.779   c0-23.498-21.561-44.247-54.564-57.017C316.033,22.346,284.948,0,247.623,0c-37.308,0-68.392,22.346-76.465,52.252   c-33.003,12.77-54.576,33.519-54.576,57.017H93.816c-7.643,0-13.847,6.2-13.847,13.85v312.235H56.376   c-7.637,0-13.828,6.198-13.828,13.847v32.23c0,7.649,6.191,13.851,13.828,13.851h382.492c7.657,0,13.867-6.202,13.867-13.851   v-32.23C452.735,441.553,446.524,435.354,438.868,435.354z M212.524,279.427c-2.241,2.91-5.693,4.626-9.367,4.626h-1.016   c-5.53,0-10.396-3.635-11.98-8.95c-1.306-4.377-2.789-10.083-4.449-16.96c-2.967-13.857-7.769-17.653-17.995-17.814h-7.573v31.262   c0,6.883-5.58,12.462-12.466,12.462c-6.879,0-12.458-5.579-12.458-12.462V185.36c0-6.45,4.93-11.845,11.348-12.405   c6.514-0.574,14.094-0.938,22.154-0.938c16.512,0,28.055,2.477,35.951,8.748c6.609,5.279,10.257,13.033,10.257,23.264   c0,14.189-10.062,23.928-19.642,27.383v0.502c7.744,3.134,12.03,10.56,14.838,20.79c1.515,5.457,3.03,11.285,4.431,16.482   C215.509,272.728,214.764,276.515,212.524,279.427z M258.358,271.431c0,6.971-5.643,12.623-12.604,12.623   c-6.98,0-12.642-5.652-12.642-12.623v-88.262c0-6.972,5.651-12.623,12.623-12.623s12.623,5.651,12.623,12.623V271.431z    M349.806,233.066c-8.609,8.085-21.314,11.714-36.147,11.714c-3.288,0-6.286-0.161-8.577-0.493v27.304   c0,6.883-5.58,12.462-12.46,12.462c-6.886,0-12.465-5.579-12.465-12.462v-87.933c0-6.382,5.161-11.559,11.543-11.581   c10.022-0.035,20.826-0.061,22.445-0.061c15.507,0,26.565,2.966,33.987,8.909c7.088,5.61,11.897,14.848,11.897,25.738   C360.031,217.556,356.383,226.796,349.806,233.066z" fill="#FFFFFF"/>
</g>
<g>
</g>
<g>
</g>
<g>
</g>
<g>
</g>
<g>
</g>
<g>
</g>
<g>
</g>
<g>
</g>
<g>
</g>
<g>
</g>
<g>
</g>
<g>
</g>
<g>
</g>
<g>
</g>
<g>
</g>
</svg>
