<?xml version="1.0" encoding="iso-8859-1"?>
<!-- Generator: Adobe Illustrator 19.1.0, SVG Export Plug-In . SVG Version: 6.00 Build 0)  -->
<svg xmlns="http://www.w3.org/2000/svg" xmlns:xlink="http://www.w3.org/1999/xlink" version="1.1" id="Capa_1" x="0px" y="0px" viewBox="0 0 487 487" style="enable-background:new 0 0 487 487;" xml:space="preserve" width="512px" height="512px">
<g>
	<g>
		<g>
			<path d="M279.1,367.5c0-20,5-39.2,14.3-56.3c-13.3-7.4-23-12.4-27.1-14.3c-1.3-0.6-2-1.9-2-3.3v-78.7     c9.9-6.6,16.4-17.8,16.4-30.6v-81.6c0-40.6-32.9-73.5-73.5-73.5h-8.8h-8.8c-40.6,0-73.5,32.9-73.5,73.5v81.6     c0,12.8,6.5,24,16.4,30.6v78.7c0,1.4-0.8,2.7-2,3.3c-11.1,5.4-65.6,33-116.1,74.5C5.3,378.9,0,390.1,0,401.9v55.9h198.3h122.8     c-2.7-2.2-5.2-4.6-7.7-7C291.4,428.5,279.1,398.9,279.1,367.5z" fill="#FFFFFF"/>
		</g>
		<g>
			<path d="M396.8,277.2c-49.8,0-90.2,40.4-90.2,90.2s40.4,90.2,90.2,90.2s90.2-40.4,90.2-90.2S446.6,277.2,396.8,277.2z      M423.9,404.8c-4.1,5-9.5,8.4-15.8,10.1c-2.7,0.7-4,2.2-3.8,5c0.1,2.8,0,5.6,0,8.4c0,2.5-1.3,3.8-3.7,3.9c-3,0.1-6,0.1-9,0     c-2.6,0-3.9-1.5-3.9-4.1c0-2,0-4.1-0.1-6.1c0-4.5-0.2-4.7-4.5-5.4c-5.5-0.9-11-2.1-16-4.6c-4-1.9-4.4-2.9-3.2-7.1     c0.8-3.1,1.7-6.2,2.7-9.3c1.1-3.6,2.1-4,5.4-2.3c5.6,2.9,11.6,4.6,17.8,5.3c4,0.5,8,0.1,11.7-1.5c6.9-3,8-11.1,2.2-15.9     c-2-1.6-4.3-2.9-6.6-3.9c-6.1-2.7-12.4-4.7-18.2-8.2c-9.3-5.6-15.3-13.3-14.6-24.6c0.8-12.8,8-20.9,19.8-25.1     c4.9-1.8,4.9-1.7,4.9-6.8c0-1.7,0-3.4,0-5.2c0.1-3.8,0.8-4.5,4.6-4.6c1.2,0,2.4,0,3.5,0c8.1,0,8.1,0,8.2,8.1c0,5.7,0,5.8,5.7,6.7     c4.4,0.7,8.6,2,12.6,3.8c2.2,1,3.1,2.5,2.4,4.9c-1,3.5-2,7-3.1,10.5c-1.1,3.3-2.1,3.8-5.3,2.2c-6.3-3.1-13-4.3-20-4     c-1.8,0.1-3.6,0.3-5.3,1.1c-6.1,2.6-7,9.3-1.9,13.4c2.6,2.1,5.6,3.6,8.7,4.9c5.4,2.2,10.8,4.3,15.8,7.2     C431,370.5,435.4,390.9,423.9,404.8z" fill="#FFFFFF"/>
		</g>
	</g>
</g>
<g>
</g>
<g>
</g>
<g>
</g>
<g>
</g>
<g>
</g>
<g>
</g>
<g>
</g>
<g>
</g>
<g>
</g>
<g>
</g>
<g>
</g>
<g>
</g>
<g>
</g>
<g>
</g>
<g>
</g>
</svg>
