<?xml version="1.0" encoding="UTF-8" standalone="no"?>
<!-- Generator: Adobe Illustrator 16.0.0, SVG Export Plug-In . SVG Version: 6.00 Build 0)  -->

<svg
   xmlns:dc="http://purl.org/dc/elements/1.1/"
   xmlns:cc="http://creativecommons.org/ns#"
   xmlns:rdf="http://www.w3.org/1999/02/22-rdf-syntax-ns#"
   xmlns:svg="http://www.w3.org/2000/svg"
   xmlns="http://www.w3.org/2000/svg"
   xmlns:sodipodi="http://sodipodi.sourceforge.net/DTD/sodipodi-0.dtd"
   xmlns:inkscape="http://www.inkscape.org/namespaces/inkscape"
   version="1.1"
   id="Capa_1"
   x="0px"
   y="0px"
   width="512px"
   height="512px"
   viewBox="0 0 484.017 484.017"
   style="enable-background:new 0 0 484.017 484.017;"
   xml:space="preserve"
   inkscape:version="0.91 r13725"
   sodipodi:docname="guns.svg"><metadata
     id="metadata45"><rdf:RDF><cc:Work
         rdf:about=""><dc:format>image/svg+xml</dc:format><dc:type
           rdf:resource="http://purl.org/dc/dcmitype/StillImage" /></cc:Work></rdf:RDF></metadata><defs
     id="defs43" /><sodipodi:namedview
     pagecolor="#ffffff"
     bordercolor="#666666"
     borderopacity="1"
     objecttolerance="10"
     gridtolerance="10"
     guidetolerance="10"
     inkscape:pageopacity="0"
     inkscape:pageshadow="2"
     inkscape:window-width="640"
     inkscape:window-height="480"
     id="namedview41"
     showgrid="false"
     inkscape:zoom="0.4609375"
     inkscape:cx="256"
     inkscape:cy="256"
     inkscape:window-x="0"
     inkscape:window-y="0"
     inkscape:window-maximized="0"
     inkscape:current-layer="Capa_1" /><g
     id="g3"
     transform="matrix(-1,0,0,1,484.01631,0)"><g
       id="g5"><path
         d="m 406.686,170.655 c -23.596,2.854 -66.692,-2.1 -50.453,-26.881 7.576,-4.412 15.119,-7.908 18.537,-7.908 6.779,0 12.275,-5.496 12.275,-12.275 0,-6.781 -5.496,-12.277 -12.275,-12.277 -10.022,0 -22.739,6.27 -32.242,11.971 -7.827,-3.873 -12.575,-15.551 -12.575,-15.551 l -287.945,0 -21.543,-20.065 0,18.016 -20.465,0 0,66.506 148.291,0 c 22.467,0 57.717,12.479 60.912,46.105 -0.357,2.428 -0.598,4.885 -0.598,7.391 0,33.115 32.107,60.057 71.57,60.057 22.572,0 42.738,-8.812 55.867,-22.547 0.785,-0.821 1.498,-1.684 2.229,-2.543 l 0.006,0.031 c 0,0 0.031,-0.066 0.044,-0.084 20.849,-76.651 68.365,-89.946 68.365,-89.946 z m -158.204,-41.951 58.316,0 c 4.447,0 8.059,3.607 8.059,8.057 0,4.447 -3.61,8.057 -8.059,8.057 l -58.316,0 c -4.449,0 -8.057,-3.609 -8.057,-8.057 10e-4,-4.449 3.608,-8.057 8.057,-8.057 z m 0,26.856 58.316,0 c 4.447,0 8.059,3.609 8.059,8.057 0,4.449 -3.61,8.057 -8.059,8.057 l -58.316,0 c -4.449,0 -8.057,-3.607 -8.057,-8.057 10e-4,-4.448 3.608,-8.057 8.057,-8.057 z m 31.694,102.75 c -23.924,0 -44.139,-14.938 -44.139,-32.623 0,-17.684 20.215,-32.629 44.139,-32.629 5.924,0 11.619,0.922 16.84,2.57 -5.508,12.529 -15.322,28.943 -25.256,30.143 -5.047,0.611 -8.645,5.203 -8.033,10.252 0.564,4.67 4.537,8.1 9.131,8.1 0.371,0 0.744,-0.021 1.121,-0.066 19.674,-2.387 32.875,-25.299 39.295,-39.65 6.822,5.768 11.043,13.23 11.043,21.281 -0.001,17.684 -20.215,32.622 -44.141,32.622 z"
         id="path7"
         inkscape:connector-curvature="0"
         style="fill:#ffffff" /><path
         d="m 416.4,180.366 c -54.221,16.883 -64.455,83.389 -64.455,83.389 21.648,2.373 25.58,78.783 25.58,78.783 -7.266,38.59 60.994,89.309 93.615,17.897 44.454,-97.307 -39.224,-177.108 -54.74,-180.069 z"
         id="path9"
         inkscape:connector-curvature="0"
         style="fill:#ffffff" /></g></g><g
     id="g11" /><g
     id="g13" /><g
     id="g15" /><g
     id="g17" /><g
     id="g19" /><g
     id="g21" /><g
     id="g23" /><g
     id="g25" /><g
     id="g27" /><g
     id="g29" /><g
     id="g31" /><g
     id="g33" /><g
     id="g35" /><g
     id="g37" /><g
     id="g39" /></svg>