<?xml version="1.0" encoding="iso-8859-1"?>
<!-- Generator: Adobe Illustrator 19.0.0, SVG Export Plug-In . SVG Version: 6.00 Build 0)  -->
<svg xmlns="http://www.w3.org/2000/svg" xmlns:xlink="http://www.w3.org/1999/xlink" version="1.1" id="Layer_1" x="0px" y="0px" viewBox="0 0 511.99 511.99" style="enable-background:new 0 0 511.99 511.99;" xml:space="preserve" width="512px" height="512px">
<g>
	<g>
		<circle cx="135.854" cy="43.681" r="43.681" fill="#FFFFFF"/>
	</g>
</g>
<g>
	<g>
		<path d="M195.195,204.381l-61.049-17.318l-13.39-48.47l19.09,32.53l4.078,1.117l7.891-33.551    c3.729-15.857-6.101-31.734-21.957-35.464L77.282,90.859c-15.857-3.729-31.734,6.101-35.464,21.957L4.878,268.682v217.744    c-0.037,14.083,11.07,25.529,25.154,25.564c0.022,0,0.044,0,0.066,0c14.052,0,25.72-11.373,25.756-25.433V285.494l10.65,2.444    l0.015,198.554c0,14.083,11.418,25.497,25.502,25.496c14.083,0,25.497-11.418,25.497-25.502l-0.015-201.919l8.313-35.342    c-22.174-6.072-16.433-4.5-28.635-7.841c-11.708-3.206-19.419-13.799-19.523-25.367l-0.546-65.374l16.818,60.879    c2.126,7.694,8.144,13.699,15.842,15.806l73.464,20.716c12.044,3.302,24.508-3.786,27.814-15.856    C214.353,220.135,207.254,207.682,195.195,204.381z" fill="#FFFFFF"/>
	</g>
</g>
<g>
	<g>
		<path d="M483.282,464.33h-79.183v-53.669c-5.688,2.152-11.926,3.441-18.573,3.706c-2.692,0.107-14.733,0.364-29.083,0.607v73.184    c0,13.16,10.668,23.828,23.828,23.828h103.011c13.16,0,23.828-10.668,23.828-23.828S496.442,464.33,483.282,464.33z" fill="#FFFFFF"/>
	</g>
</g>
<g>
	<g>
		<path d="M385.578,216.979h-30.587c-17.136,0.123-33.331,13.506-32.982,35.623l0.236,14.965c1.553,1.054,3.1,2.12,4.638,3.2    c7.281-8.816,15.661-18.151,24.694-26.917l-25.659,45.986l-50.071-30.567c-5.01-3.058-10.832-3.612-16.043-2.051v-11.013    c0-4.472-3.651-8.085-8.085-8.085H230.6c-4.466,0-8.085,3.62-8.085,8.085v15.457c0,4.475,3.63,8.085,8.085,8.085h16.135    c-2.983,8.63,0.307,18.465,8.419,23.417l67.697,41.327c9.601,5.859,22.184,2.588,27.686-7.273l30.884-55.355    c-4.449,20.961-10.828,41.416-18.514,61.323c-0.187,0.486-0.386,0.962-0.595,1.43c-4.146,9.253-13.627,14.955-23.766,14.955    h-69.786c-0.022,0-0.045,0-0.068,0c-16.685,0-28.378,16.799-22.156,32.519l45.442,114.836    c4.807,12.147,18.638,18.253,30.923,13.388c12.265-4.854,18.221-18.712,13.388-30.923l-32.503-82.297    c0,0,42.065,0.036,76.956,0.033c20.985-0.001,37.989-17.013,37.989-37.998V250.21    C418.779,232.233,404.671,216.979,385.578,216.979z" fill="#FFFFFF"/>
	</g>
</g>
<g>
	<g>
		<path d="M387.759,151.437c-3.655-23.927-26.014-40.361-49.941-36.706c-23.927,3.655-40.361,26.014-36.706,49.941    c3.671,24.036,26.158,40.339,49.941,36.707C374.811,197.749,391.435,175.499,387.759,151.437z" fill="#FFFFFF"/>
	</g>
</g>
<g>
</g>
<g>
</g>
<g>
</g>
<g>
</g>
<g>
</g>
<g>
</g>
<g>
</g>
<g>
</g>
<g>
</g>
<g>
</g>
<g>
</g>
<g>
</g>
<g>
</g>
<g>
</g>
<g>
</g>
</svg>
