<?xml version="1.0" encoding="iso-8859-1"?>
<!-- Generator: Adobe Illustrator 16.0.0, SVG Export Plug-In . SVG Version: 6.00 Build 0)  -->
<!DOCTYPE svg PUBLIC "-//W3C//DTD SVG 1.1//EN" "http://www.w3.org/Graphics/SVG/1.1/DTD/svg11.dtd">
<svg xmlns="http://www.w3.org/2000/svg" xmlns:xlink="http://www.w3.org/1999/xlink" version="1.1" id="Capa_1" x="0px" y="0px" width="512px" height="512px" viewBox="0 0 952.859 952.859" style="enable-background:new 0 0 952.859 952.859;" xml:space="preserve">
<g>
	<g>
		<path d="M94.503,246.101v52.632c13.297-23.158,62.636-40.354,121.479-40.354c58.82,0,108.143,17.183,121.463,40.328v-52.605    c0-28.375-54.385-51.377-121.471-51.377C148.888,194.725,94.503,217.726,94.503,246.101z" fill="#FFFFFF"/>
		<path d="M93.503,923.045c0,5.521,4.477,10,10,10h222.942c5.523,0,10-4.479,10-10V353.747    c-13.32-23.144-62.643-40.328-121.463-40.328c-58.843,0-108.182,17.197-121.479,40.354V923.045L93.503,923.045z" fill="#FFFFFF"/>
		<path d="M0,611.869v311.174c0,5.522,4.477,10,10,10h53.496c5.523,0,10-4.478,10-10V611.869c0-5.522-4.477-10-10-10H10    C4.477,601.869,0,606.347,0,611.869z" fill="#FFFFFF"/>
		<path d="M276.913,161.648c-0.189,2.407-0.153,4.574-0.027,6.431c0.07,0.934,0.135,1.783,0.238,2.563    c0.124,0.789,0.218,1.482,0.347,2.114c0.477,2.505,1.011,3.761,1.011,3.761s0.792-1.109,2.35-2.918    c0.777-0.903,1.781-1.971,2.922-3.166c0.604-0.591,1.214-1.217,1.917-1.854c0.667-0.649,1.376-1.32,2.166-1.995    c1.544-1.359,3.319-2.755,5.189-4.19c0.986-0.693,1.953-1.417,2.997-2.122c1.068-0.689,2.099-1.417,3.245-2.096    c4.498-2.761,9.556-5.403,15.22-7.671c11.295-4.581,24.668-7.929,39.677-10.317c7.503-1.19,15.375-2.19,23.54-3.037    c2.056-0.185,4.118-0.37,6.188-0.557c2.343-0.252,4.692-0.505,7.048-0.758c4.438-0.457,10.063-1.322,15.147-2.209    c10.121-1.809,20.287-4.374,30.198-7.781c9.92-3.374,19.59-7.675,28.629-12.87c9.031-5.229,17.397-11.433,24.526-18.326    c7.152-6.862,12.928-14.544,17.172-22.026c4.252-7.517,6.883-14.893,8.471-21.39c1.576-6.523,2.148-12.206,2.262-16.865    c0.172-4.637-0.115-8.272-0.359-10.748c-0.266-2.478-0.504-3.807-0.504-3.807s-1.027,0.907-2.775,2.62    c-0.885,0.851-1.988,1.883-3.197,3.107c-0.625,0.595-1.299,1.234-2.016,1.917c-0.68,0.691-1.432,1.402-2.223,2.141    c-3.17,2.957-6.896,6.414-11.191,9.849c-4.297,3.438-9.084,6.87-14.361,9.924c-5.311,3.043-10.98,5.832-17.235,8.253    c-6.24,2.434-12.96,4.62-20.172,6.625c-7.231,1.987-14.95,3.756-22.985,5.486c-8.052,1.679-16.403,3.33-24.953,4.859    c-4.259,0.734-7.979,1.489-12.902,2.3l-3.486,0.62l-3.455,0.666c-0.162,0.032-0.322,0.063-0.484,0.095    c1.256-1.886,2.417-3.775,3.481-5.652c4.252-7.517,6.883-14.893,8.47-21.39c1.577-6.523,2.149-12.206,2.262-16.865    c0.173-4.637-0.114-8.272-0.359-10.748c-0.266-2.478-0.503-3.807-0.503-3.807s-1.028,0.907-2.775,2.62    c-0.886,0.851-1.989,1.883-3.199,3.107c-0.625,0.595-1.298,1.234-2.015,1.917c-0.68,0.691-1.431,1.402-2.223,2.141    c-3.169,2.957-6.896,6.414-11.191,9.849c-4.297,3.438-9.084,6.87-14.363,9.924c-5.31,3.043-10.979,5.832-17.233,8.253    c-6.24,2.434-12.96,4.62-20.172,6.625c-7.231,1.987-14.95,3.756-22.985,5.486c-8.052,1.679-16.403,3.33-24.953,4.859    c-4.259,0.734-7.98,1.489-12.903,2.3l-3.486,0.62l-3.455,0.666c-2.582,0.515-5.149,0.978-7.703,1.582    c-10.236,2.32-20.273,5.6-29.726,9.759c-9.451,4.158-18.318,9.257-26.118,15.128c-7.805,5.857-14.515,12.487-19.775,19.33    c-5.288,6.823-9.035,13.924-11.464,20.401c-2.442,6.493-3.55,12.413-3.833,17.268c-0.189,2.407-0.153,4.574-0.027,6.431    c0.07,0.934,0.135,1.783,0.238,2.563c0.124,0.789,0.218,1.482,0.347,2.114c0.476,2.505,1.011,3.761,1.011,3.761    s0.792-1.109,2.35-2.918c0.777-0.903,1.78-1.971,2.923-3.166c0.603-0.591,1.213-1.217,1.917-1.854    c0.667-0.649,1.376-1.32,2.166-1.995c1.544-1.359,3.319-2.755,5.189-4.19c0.986-0.693,1.953-1.417,2.996-2.122    c1.068-0.689,2.099-1.417,3.245-2.096c4.498-2.761,9.556-5.403,15.22-7.671c11.295-4.581,24.668-7.929,39.677-10.317    c7.503-1.19,15.375-2.19,23.54-3.037c2.055-0.185,4.118-0.37,6.187-0.557c2.343-0.252,4.693-0.505,7.048-0.758    c4.439-0.457,10.064-1.322,15.148-2.209c2.94-0.526,5.883-1.123,8.825-1.778c-2.566,4.274-4.579,8.523-6.082,12.532    C278.304,150.874,277.195,156.793,276.913,161.648z" fill="#FFFFFF"/>
		<path d="M852.359,933.045h90.5c5.523,0,10-4.479,10-10V655.661v-53.792v-97.204c0-8.016-8.959-12.773-15.6-8.284l-135.018,91.269    c-6.641,4.489-15.6-0.269-15.6-8.285v-74.698c0-8.017-8.959-12.774-15.6-8.285l-135.018,91.269    c-6.641,4.489-15.6-0.269-15.6-8.285v-74.698c0-8.017-8.959-12.774-15.6-8.285L451.308,600.154    c-1.654,1.118-3.604,1.715-5.601,1.715h-78.225c-5.523,0-10,4.478-10,10v311.174c0,5.522,4.477,10,10,10h324.876    c5.523,0,10-4.478,10-10v-91.02c0-5.521,4.477-10,10-10h120c5.523,0,10,4.479,10,10v91.021    C842.359,928.566,846.836,933.045,852.359,933.045z M482.797,749.242c0,5.523-4.477,10-10,10H418.36c-5.523,0-10-4.477-10-10    v-54.438c0-5.523,4.477-10,10-10h54.438c5.523,0,10,4.477,10,10V749.242z M587.689,749.242c0,5.523-4.479,10-10,10H523.25    c-5.523,0-10-4.477-10-10v-54.438c0-5.523,4.477-10,10-10h54.438c5.523,0,10,4.477,10,10v54.438H587.689z M692.578,749.242    c0,5.523-4.477,10-10,10h-54.438c-5.523,0-10-4.477-10-10v-54.438c0-5.523,4.477-10,10-10h54.438c5.523,0,10,4.477,10,10V749.242z     M797.471,749.242c0,5.523-4.479,10-10,10h-54.439c-5.521,0-10-4.477-10-10v-54.438c0-5.523,4.479-10,10-10h54.439    c5.521,0,10,4.477,10,10V749.242z M837.922,759.242c-5.523,0-10-4.477-10-10v-54.438c0-5.523,4.477-10,10-10h54.438    c5.523,0,10,4.477,10,10v54.438c0,5.523-4.477,10-10,10H837.922z" fill="#FFFFFF"/>
	</g>
</g>
<g>
</g>
<g>
</g>
<g>
</g>
<g>
</g>
<g>
</g>
<g>
</g>
<g>
</g>
<g>
</g>
<g>
</g>
<g>
</g>
<g>
</g>
<g>
</g>
<g>
</g>
<g>
</g>
<g>
</g>
</svg>
