<?xml version="1.0" encoding="iso-8859-1"?>
<!-- Generator: Adobe Illustrator 16.0.0, SVG Export Plug-In . SVG Version: 6.00 Build 0)  -->
<!DOCTYPE svg PUBLIC "-//W3C//DTD SVG 1.1//EN" "http://www.w3.org/Graphics/SVG/1.1/DTD/svg11.dtd">
<svg xmlns="http://www.w3.org/2000/svg" xmlns:xlink="http://www.w3.org/1999/xlink" version="1.1" id="Capa_1" x="0px" y="0px" width="512px" height="512px" viewBox="0 0 182.33 182.331" style="enable-background:new 0 0 182.33 182.331;" xml:space="preserve">
<g>
	<g>
		<g>
			<g>
				<path d="M11.958,47.269c2.865,0,5.207-3.327,5.207-6.203c0-2.876-2.342-5.212-5.207-5.212c-2.885,0-5.227,2.336-5.227,5.212      C6.732,43.942,9.08,47.269,11.958,47.269z" fill="#FFFFFF"/>
				<path d="M22.238,51.173c-0.021-0.101-0.069-0.183-0.096-0.273c-0.042-0.151-0.081-0.298-0.135-0.443      c-0.056-0.101-0.137-0.178-0.196-0.268c-0.108-0.118-0.192-0.246-0.304-0.348c-0.103-0.08-0.201-0.123-0.301-0.191      c-0.112-0.06-0.198-0.145-0.321-0.183c-0.185-0.074-4.324-1.552-8.13-1.749l-0.532,1.043h-0.005l1.385,10.801l-1.65,2.881      l-1.653-2.881l1.384-10.801h-0.021l-0.509-1.043c-3.822,0.197-7.954,1.674-8.147,1.749c-0.124,0.038-0.213,0.124-0.315,0.189      c-0.112,0.057-0.212,0.106-0.304,0.186c-0.124,0.102-0.21,0.225-0.312,0.348c-0.063,0.096-0.134,0.167-0.181,0.263      c-0.082,0.145-0.117,0.292-0.14,0.443c-0.038,0.101-0.079,0.178-0.101,0.273L0.013,65.988c-0.128,1.138,0.688,2.154,1.816,2.276      c0.082,0.011,0.145,0.011,0.229,0.011c1.043,0,1.926-0.78,2.044-1.833l1.502-13.51c0.168-0.044,0.364-0.099,0.577-0.162v14.06      L4.547,87.204c-0.119,1.363,0.892,2.545,2.257,2.665c0.078,0.011,0.147,0.011,0.208,0.011c1.282,0,2.363-0.99,2.459-2.271      l1.485-18.418c0.302,0.134,0.627,0.208,1.002,0.208c0.346,0,0.678-0.073,0.998-0.208l1.47,18.418      c0.112,1.281,1.193,2.271,2.459,2.271c0.065,0,0.14,0,0.21-0.011c1.352-0.115,2.367-1.297,2.26-2.66l-1.642-20.372V52.776      c0.208,0.068,0.392,0.117,0.579,0.161l1.506,13.51c0.112,1.054,1.008,1.833,2.028,1.833c0.084,0,0.161,0,0.229-0.01      c1.132-0.124,1.952-1.144,1.816-2.276L22.238,51.173z" fill="#FFFFFF"/>
			</g>
			<g>
				<path d="M65.803,47.354c2.872,0,5.203-3.334,5.203-6.208c0-2.875-2.331-5.207-5.203-5.207c-2.882,0-5.208,2.331-5.208,5.207      C60.595,44.02,62.921,47.354,65.803,47.354z" fill="#FFFFFF"/>
				<path d="M76.085,51.252c0-0.101-0.059-0.181-0.091-0.269c-0.038-0.153-0.067-0.304-0.144-0.443      c-0.052-0.101-0.118-0.186-0.198-0.268c-0.089-0.123-0.167-0.246-0.295-0.347c-0.096-0.079-0.208-0.123-0.31-0.191      c-0.106-0.063-0.197-0.145-0.304-0.184c-0.183-0.074-4.331-1.56-8.144-1.751l-0.529,1.045h-0.005l1.385,10.802l-1.646,2.875      l-1.643-2.875l1.377-10.802h-0.012L65,47.799c-3.811,0.191-7.951,1.677-8.136,1.751c-0.119,0.033-0.203,0.121-0.32,0.189      c-0.1,0.063-0.201,0.107-0.296,0.18c-0.124,0.107-0.203,0.23-0.304,0.353c-0.07,0.083-0.145,0.162-0.193,0.263      c-0.075,0.14-0.107,0.29-0.143,0.448c-0.028,0.096-0.082,0.162-0.093,0.263L53.86,66.074c-0.118,1.126,0.688,2.153,1.832,2.273      c0.075,0.008,0.151,0.014,0.225,0.014c1.031,0,1.93-0.78,2.047-1.833l1.499-13.505c0.175-0.055,0.372-0.112,0.572-0.162v14.042      l-1.642,20.373c-0.107,1.367,0.909,2.56,2.26,2.67c0.065,0.005,0.145,0.005,0.209,0.005c1.272,0,2.352-0.979,2.45-2.27      l1.491-18.419c0.308,0.136,0.645,0.219,0.999,0.219c0.357,0,0.7-0.077,1.006-0.219l1.474,18.419      c0.107,1.29,1.183,2.27,2.46,2.27c0.068,0,0.124,0,0.197-0.005c1.361-0.12,2.376-1.303,2.257-2.67l-1.636-20.373V52.861      c0.203,0.049,0.406,0.107,0.583,0.162l1.497,13.505c0.124,1.053,1.015,1.833,2.043,1.833c0.081,0,0.159-0.005,0.231-0.014      c1.127-0.12,1.944-1.146,1.816-2.273L76.085,51.252z" fill="#FFFFFF"/>
			</g>
			<g>
				<path d="M38.877,47.312c2.914,0,5.257-3.37,5.257-6.273c0-2.914-2.348-5.267-5.257-5.267s-5.26,2.353-5.26,5.267      C33.617,43.942,35.968,47.312,38.877,47.312z" fill="#FFFFFF"/>
				<path d="M50.475,66.062L47.16,52.744c-0.023-0.028-0.033-0.033-0.039-0.063c-0.036-0.099-0.096-0.189-0.129-0.29      c-0.063-0.102-0.1-0.207-0.175-0.293c-0.005-0.027-0.005-0.038-0.038-0.059c-0.133-0.157-3.474-3.894-7.902-3.894      c-4.427,0-7.772,3.737-7.907,3.894c-0.016,0.015-0.016,0.037-0.033,0.059c-0.06,0.086-0.117,0.186-0.156,0.282      c-0.056,0.101-0.117,0.194-0.147,0.296c-0.011,0.021-0.021,0.036-0.026,0.063l-3.322,13.318      c-0.236,0.889,0.311,1.792,1.209,2.017c0.129,0.033,0.257,0.052,0.391,0.052c0.758,0,1.426-0.506,1.62-1.267l3.196-12.815      l0.845,7.822l-5.458,10.673c0,0.395,2.224,1.302,5.458,1.789l-1.069,13.373c-0.101,1.15,0.754,2.156,1.905,2.244      c0.057,0.005,0.106,0.005,0.168,0.005c1.076,0,1.985-0.826,2.071-1.909l1.078-13.382c0.056,0,0.123,0,0.173,0      c0.054,0,0.117,0,0.174,0l1.081,13.382c0.091,1.083,0.99,1.909,2.06,1.909c0.074,0,0.123,0,0.175-0.005      c1.15-0.099,2.006-1.101,1.905-2.244l-1.076-13.373c3.229-0.487,5.465-1.401,5.465-1.789l-5.465-10.667l0.847-7.828      l3.212,12.815c0.178,0.761,0.851,1.267,1.614,1.267c0.128,0,0.262-0.019,0.385-0.052C50.164,67.855,50.706,66.954,50.475,66.062      z" fill="#FFFFFF"/>
			</g>
			<g>
				<path d="M38.592,103.876c-2.881,0-5.207-3.338-5.207-6.209c0-2.886,2.326-5.206,5.207-5.206c2.878,0,5.204,2.331,5.204,5.206      C43.796,100.539,41.471,103.876,38.592,103.876z" fill="#FFFFFF"/>
				<path d="M28.311,107.767c0-0.088,0.072-0.181,0.088-0.268c0.04-0.153,0.068-0.307,0.147-0.438      c0.045-0.109,0.128-0.186,0.194-0.279c0.09-0.115,0.17-0.241,0.298-0.345c0.091-0.076,0.208-0.126,0.306-0.187      c0.112-0.065,0.198-0.146,0.304-0.186c0.191-0.076,4.332-1.553,8.147-1.751l0.532,1.045h0.004l-1.382,10.803l1.648,2.872      l1.642-2.872l-1.38-10.803h0.012l0.527-1.045c3.803,0.198,7.952,1.675,8.134,1.751c0.119,0.039,0.203,0.12,0.315,0.186      c0.102,0.061,0.203,0.11,0.309,0.187c0.124,0.104,0.212,0.229,0.296,0.351c0.075,0.088,0.145,0.164,0.198,0.262      c0.07,0.144,0.101,0.297,0.145,0.45c0.021,0.099,0.08,0.175,0.089,0.263l1.648,14.829c0.117,1.126-0.69,2.149-1.828,2.275      c-0.072,0-0.15,0.012-0.231,0.012c-1.023,0-1.919-0.794-2.038-1.839l-1.502-13.503c-0.175-0.057-0.352-0.117-0.576-0.167v14.048      l1.646,20.383c0.119,1.352-0.913,2.55-2.263,2.659c-0.063,0-0.14,0.006-0.208,0.006c-1.272,0-2.348-0.98-2.449-2.277      l-1.491-18.412c-0.306,0.136-0.643,0.215-0.995,0.215c-0.359,0-0.7-0.079-0.999-0.215l-1.492,18.412      c-0.1,1.297-1.176,2.277-2.454,2.277c-0.065,0-0.128-0.006-0.194-0.006c-1.368-0.109-2.378-1.302-2.266-2.659l1.647-20.383      V109.37c-0.209,0.05-0.408,0.11-0.583,0.167l-1.499,13.503c-0.117,1.045-1.009,1.839-2.04,1.839      c-0.08,0-0.152-0.012-0.231-0.012c-1.133-0.126-1.95-1.149-1.814-2.275L28.311,107.767z" fill="#FFFFFF"/>
			</g>
			<g>
				<path d="M11.667,103.91c-2.909,0-5.267-3.371-5.267-6.271c0-2.917,2.365-5.266,5.267-5.266c2.904,0,5.257,2.354,5.257,5.266      C16.929,100.539,14.571,103.91,11.667,103.91z" fill="#FFFFFF"/>
				<path d="M0.06,122.667l3.332-13.322c0-0.014,0.028-0.041,0.028-0.052c0.035-0.109,0.1-0.191,0.142-0.295      c0.054-0.104,0.098-0.208,0.173-0.296c0.004-0.016,0.004-0.038,0.016-0.054c0.145-0.159,3.49-3.897,7.917-3.897      c4.433,0,7.774,3.738,7.907,3.897c0.016,0.01,0.023,0.038,0.033,0.054c0.068,0.088,0.112,0.186,0.161,0.284      c0.053,0.105,0.107,0.191,0.137,0.297c0,0.021,0.033,0.043,0.033,0.054l3.327,13.324c0.219,0.893-0.317,1.789-1.214,2.009      c-0.129,0.032-0.269,0.06-0.397,0.06c-0.748,0-1.431-0.509-1.615-1.264l-3.211-12.813l-0.824,7.817l5.458,10.664      c0,0.405-2.23,1.308-5.464,1.796l1.074,13.373c0.091,1.149-0.765,2.156-1.914,2.246c-0.059,0-0.112,0-0.156,0      c-1.083,0-1.998-0.822-2.085-1.918l-1.078-13.368c-0.06,0-0.117,0-0.166,0c-0.063,0-0.119,0-0.187,0l-1.069,13.368      c-0.088,1.096-0.991,1.918-2.08,1.918c-0.048,0-0.103,0-0.156,0c-1.144-0.095-2-1.097-1.91-2.246l1.076-13.373      c-3.24-0.488-5.47-1.391-5.47-1.796l5.47-10.652l-0.84-7.829l-3.207,12.813c-0.188,0.755-0.866,1.264-1.614,1.264      c-0.133,0-0.272-0.027-0.401-0.06C0.377,124.451-0.16,123.559,0.06,122.667z" fill="#FFFFFF"/>
			</g>
			<g>
				<path d="M65.515,103.91c-2.914,0-5.256-3.371-5.256-6.271c0-2.917,2.349-5.266,5.256-5.266c2.908,0,5.267,2.354,5.267,5.266      C70.781,100.539,68.418,103.91,65.515,103.91z" fill="#FFFFFF"/>
				<path d="M53.917,122.667l3.328-13.322c0.005-0.014,0.019-0.041,0.03-0.052c0.033-0.109,0.087-0.191,0.128-0.295      c0.059-0.104,0.101-0.208,0.171-0.296c0.018-0.016,0.018-0.038,0.037-0.054c0.139-0.159,3.477-3.897,7.903-3.897      c4.428,0,7.769,3.738,7.902,3.897c0.028,0.01,0.028,0.038,0.033,0.054c0.068,0.088,0.124,0.186,0.164,0.284      c0.056,0.105,0.119,0.191,0.146,0.297c0.005,0.021,0.021,0.043,0.033,0.054l3.318,13.324c0.236,0.893-0.32,1.789-1.216,2.009      c-0.119,0.032-0.252,0.06-0.387,0.06c-0.757,0-1.427-0.509-1.619-1.264l-3.198-12.813l-0.843,7.817l5.458,10.664      c0,0.405-2.231,1.308-5.458,1.796l1.072,13.373c0.098,1.149-0.764,2.156-1.908,2.246c-0.054,0-0.112,0-0.166,0      c-1.076,0-1.984-0.822-2.068-1.918l-1.076-13.368c-0.063,0-0.128,0-0.18,0c-0.056,0-0.119,0-0.168,0l-1.09,13.368      c-0.091,1.096-0.994,1.918-2.063,1.918c-0.068,0-0.117,0-0.176,0c-1.141-0.095-1.988-1.097-1.904-2.246l1.071-13.373      c-3.221-0.488-5.459-1.391-5.459-1.796l5.459-10.652l-0.835-7.829l-3.198,12.813c-0.191,0.755-0.87,1.264-1.613,1.264      c-0.145,0-0.268-0.027-0.399-0.06C54.231,124.451,53.683,123.559,53.917,122.667z" fill="#FFFFFF"/>
			</g>
		</g>
		<g>
			<rect x="116.53" y="91.198" width="19.635" height="55.36" fill="#FFFFFF"/>
			<rect x="139.616" y="65.603" width="19.628" height="80.956" fill="#FFFFFF"/>
			<rect x="162.704" y="35.849" width="19.626" height="110.709" fill="#FFFFFF"/>
		</g>
		<polygon points="109.592,91.165 88.36,76.552 91.525,86.76 82.244,86.76 82.244,95.571 91.525,95.571 88.36,105.782   " fill="#FFFFFF"/>
	</g>
</g>
<g>
</g>
<g>
</g>
<g>
</g>
<g>
</g>
<g>
</g>
<g>
</g>
<g>
</g>
<g>
</g>
<g>
</g>
<g>
</g>
<g>
</g>
<g>
</g>
<g>
</g>
<g>
</g>
<g>
</g>
</svg>
