<?xml version="1.0" encoding="iso-8859-1"?>
<!-- Generator: Adobe Illustrator 18.0.0, SVG Export Plug-In . SVG Version: 6.00 Build 0)  -->
<!DOCTYPE svg PUBLIC "-//W3C//DTD SVG 1.1//EN" "http://www.w3.org/Graphics/SVG/1.1/DTD/svg11.dtd">
<svg xmlns="http://www.w3.org/2000/svg" xmlns:xlink="http://www.w3.org/1999/xlink" version="1.1" id="Capa_1" x="0px" y="0px" viewBox="0 0 471.512 471.512" style="enable-background:new 0 0 471.512 471.512;" xml:space="preserve" width="512px" height="512px">
<g>
	<path d="M466.814,317.388c-1.102-2.202-2.145-4.281-2.782-6.246c-0.682-2.099-1.087-4.476-1.516-6.993   c-0.816-4.797-1.742-10.234-4.998-14.708c-3.283-4.511-8.182-7.068-12.502-9.324c-2.248-1.173-4.371-2.282-6.124-3.558   c-1.649-1.2-3.06-3.289-4.554-5.501c-2.592-3.839-5.53-8.19-11.015-9.971c-1.638-0.532-3.42-0.79-5.449-0.79   c-3.661,0-7.477,0.853-11.167,1.678c-3.167,0.708-6.159,1.377-8.479,1.377c-2.218,0-4.948-0.989-7.839-2.035   c-3.468-1.256-7.053-2.554-10.819-2.554c-1.545,0-3.026,0.227-4.401,0.673c-5.427,1.762-9.06,6.659-12.266,10.98   c-1.792,2.415-3.645,4.913-5.336,6.144c-1.754,1.276-3.878,2.385-6.126,3.559c-4.321,2.255-9.219,4.811-12.504,9.323   c-0.516,0.708-0.955,1.447-1.362,2.197c-2.007-1.58-4.53-2.531-7.276-2.531h-2.598v-9.991c0-6.442-5.72-9.643-10.231-10.831   l-7.105-13.367c-0.61-1.148-1.741-1.928-3.031-2.091l-52.274-6.595l-5.332-8.448l85.733-40.432l-1.788,9.894   c-0.519,2.376-0.094,4.815,1.198,6.879c0.185,0.295,14.171,18.921,14.171,18.921c1.754,2.338,4.548,3.733,7.474,3.733   c2.034,0,3.971-0.646,5.6-1.869c4.118-3.091,4.954-8.957,1.864-13.076l-11.227-14.958l4.675-25.868   c0.051-0.281,0.066-0.56,0.058-0.835c0.106-1.87-0.24-3.79-1.105-5.595l-5.291-11.021c-1.001-2.087-2.608-3.779-4.545-4.917   c-0.322-0.271-0.683-0.507-1.095-0.67l-33.107-13.086c-0.073-0.029-0.147-0.056-0.222-0.08c-1.019-0.335-2.075-0.504-3.141-0.504   c-1.208,0-2.373,0.221-3.46,0.619c-0.276,0.07-0.549,0.163-0.814,0.295l-19.762,9.902c-0.088,0.044-0.173,0.091-0.257,0.141   c-4.762,2.84-6.195,9.245-3.359,14.001l0,0c1.805,3.025,5.115,4.903,8.641,4.903c1.753,0,3.48-0.462,5.004-1.337l14.436-7.233   l5.982,2.364l-49.003,22.554l-18.337-13.406c-1.874-1.546-4.234-2.395-6.664-2.395c-3.074,0-6.163,1.554-8.148,3.883l0,0   c-1.814,2.129-2.691,4.837-2.468,7.625c0.222,2.789,1.517,5.324,3.647,7.139c0.075,0.064,0.153,0.126,0.233,0.185l23.493,17.175   c0,0-19.687,8.99-19.798,9.035l-31.393-49.74c-0.733-1.161-2.01-1.865-3.383-1.865H88.95c-1.641,0-3.115,1.002-3.719,2.527   l-28.194,71.181H29.667c-12.137,0-19.097,6.961-19.097,19.098v28.22C4.639,289.787,0,294.815,0,300.907v10.369   c0,6.506,5.293,11.8,11.8,11.8h35.681c2.169,19.198,18.499,34.169,38.266,34.169c19.768,0,36.098-14.971,38.267-34.169h94.07   c2.169,19.198,18.498,34.169,38.264,34.169c19.77,0,36.1-14.971,38.269-34.169h32.376c-1.171,2.905-2.049,6.04-2.049,9.446   c0,5.751,2.496,10.735,4.697,15.131c1.104,2.203,2.146,4.283,2.783,6.249c0.669,2.061,2.589,3.457,4.756,3.457h122.096   c2.166,0,4.086-1.395,4.756-3.456c0.638-1.964,1.679-4.044,2.781-6.246c2.203-4.398,4.699-9.382,4.699-15.135   C471.512,326.769,469.016,321.785,466.814,317.388z M85.747,339.245c-11.314,0-20.519-9.206-20.519-20.521   c0-11.314,9.205-20.52,20.519-20.52c11.314,0,20.52,9.205,20.52,20.52C106.267,330.039,97.062,339.245,85.747,339.245z    M256.348,339.245c-11.312,0-20.516-9.206-20.516-20.521c0-11.314,9.204-20.52,20.516-20.52c11.315,0,20.522,9.205,20.522,20.52   C276.87,330.039,267.663,339.245,256.348,339.245z" fill="#FFFFFF"/>
	<path d="M370.11,178.797C370.11,178.797,370.11,178.797,370.11,178.797c2.291,0,4.52-0.479,6.622-1.424l13.102-5.889   c2.389-1.072,4.216-3.01,5.145-5.457c0.735-1.936,0.839-4.007,0.334-5.933c1.263-3.473,1.137-7.286-0.401-10.71   c-2.298-5.117-7.41-8.423-13.022-8.423c-2.021,0-3.986,0.422-5.84,1.255l-12.581,5.653c-8.131,3.657-11.771,13.249-8.117,21.382   C357.957,175.05,363.75,178.797,370.11,178.797z" fill="#FFFFFF"/>
	<path d="M219.918,173.902c1.077,0.803,2.335,1.19,3.582,1.19c1.83,0,3.637-0.834,4.815-2.414l36.489-48.937   c1.981-2.656,1.434-6.416-1.223-8.396c-2.657-1.98-6.416-1.433-8.396,1.224l-36.49,48.938   C216.714,168.162,217.262,171.921,219.918,173.902z" fill="#FFFFFF"/>
	<path d="M334.327,248.197c2.938,0,5.504-2.16,5.932-5.152c0.469-3.28-1.811-6.32-5.091-6.788l-45.895-6.557   c-3.277-0.466-6.319,1.811-6.788,5.091c-0.469,3.28,1.811,6.32,5.091,6.788l45.895,6.557   C333.758,248.177,334.043,248.197,334.327,248.197z" fill="#FFFFFF"/>
	<path d="M328.968,266.069l17.148,5.548c0.613,0.199,1.235,0.293,1.848,0.293c2.532,0,4.887-1.616,5.708-4.155   c1.02-3.153-0.709-6.535-3.862-7.555l-17.148-5.548c-3.15-1.02-6.536,0.708-7.556,3.862   C324.086,261.666,325.815,265.049,328.968,266.069z" fill="#FFFFFF"/>
</g>
<g>
</g>
<g>
</g>
<g>
</g>
<g>
</g>
<g>
</g>
<g>
</g>
<g>
</g>
<g>
</g>
<g>
</g>
<g>
</g>
<g>
</g>
<g>
</g>
<g>
</g>
<g>
</g>
<g>
</g>
</svg>
