<?xml version="1.0" encoding="iso-8859-1"?>
<!DOCTYPE svg PUBLIC "-//W3C//DTD SVG 1.1//EN" "http://www.w3.org/Graphics/SVG/1.1/DTD/svg11.dtd">
<svg xmlns="http://www.w3.org/2000/svg" xmlns:xlink="http://www.w3.org/1999/xlink" version="1.1" viewBox="0 0 509 509" enable-background="new 0 0 509 509" width="512px" height="512px">
  <path d="m309.799,273.443c-1.93-2.635-4.014-5.487-6.109-8.385 13.299-8.73 18.364-26.11 11.079-40.693-0.285-0.571-0.687-1.037-1.002-1.583 5.208-8.959 5.979-20.264 1.002-30.229-0.285-0.571-0.687-1.037-1.002-1.583 5.208-8.959 5.979-20.264 1.002-30.229-0.285-0.571-0.687-1.037-1.002-1.583 5.208-8.959 5.979-20.264 1.002-30.229-5.569-11.142-16.804-17.459-28.457-17.471v-79.645c0-17.569-14.244-31.813-31.812-31.813-17.568,0-31.813,14.244-31.813,31.813v107.585l-14.229,7.114c-15.712,7.86-22.081,26.966-14.229,42.686 0.284,0.567 0.738,0.973 1.049,1.514-5.246,8.971-6.041,20.307-1.049,30.298 0.284,0.567 0.738,0.973 1.049,1.514-5.246,8.971-6.041,20.307-1.049,30.298 0.284,0.567 0.738,0.973 1.049,1.514-4.756,8.133-5.698,18.176-2.136,27.437-23.671,32.602-49.988,71.979-49.988,115.883 0.002,69.714 41.624,111.344 111.346,111.344s111.344-41.63 111.344-111.344c0-47.672-31.075-90.109-56.045-124.213zm-55.299,171.932c-34.337,0-47.719-13.374-47.719-47.719 0-26.873 24.263-59.998 43.758-86.622 1.336-1.833 2.664-3.643 3.961-5.421 1.297,1.779 2.625,3.588 3.961,5.421 19.494,26.624 43.758,59.749 43.758,86.622 0,34.345-13.382,47.719-47.719,47.719z" fill="#FFFFFF"/>
</svg>
