<?xml version="1.0" encoding="iso-8859-1"?>
<!-- Generator: Adobe Illustrator 19.0.0, SVG Export Plug-In . SVG Version: 6.00 Build 0)  -->
<svg xmlns="http://www.w3.org/2000/svg" xmlns:xlink="http://www.w3.org/1999/xlink" version="1.1" id="Layer_1" x="0px" y="0px" viewBox="0 0 511.999 511.999" style="enable-background:new 0 0 511.999 511.999;" xml:space="preserve" width="512px" height="512px">
<g>
	<g>
		<path d="M105.814,348.258v25.307c0,76.333,62.101,138.434,138.434,138.434s138.434-62.102,138.434-138.434v-25.307H105.814z" fill="#FFFFFF"/>
	</g>
</g>
<g>
	<g>
		<path d="M386.335,171.425c-25.66-30.063-60.136-51.207-98.127-60.428V90.072h25.505V59.655h-25.505V43.96    c0-24.239-19.72-43.96-43.961-43.96c-15.585,0-29.291,8.159-37.099,20.422C193.738,7.776,175.685,0,155.841,0    c-41.28,0-74.864,33.584-74.864,74.864s33.584,74.864,74.864,74.864c16.631,0,32.007-5.458,44.447-14.666v26.197    c-54.849,18.416-94.474,70.303-94.474,131.275v25.307h276.867v-25.307c0-60.972-39.624-112.86-94.474-131.275v-18.775    c28.952,8.518,55.119,25.406,74.991,48.689c24.121,28.261,37.405,64.257,37.405,101.361v119.704h30.417V292.533    C431.021,248.197,415.152,205.187,386.335,171.425z M197.606,90.072c-6.224,17.041-22.596,29.238-41.765,29.238    c-24.508,0-44.447-19.938-44.447-44.447s19.938-44.447,44.447-44.447c19.169,0,35.54,12.197,41.765,29.238h-22.823v30.417H197.606    z" fill="#FFFFFF"/>
	</g>
</g>
<g>
</g>
<g>
</g>
<g>
</g>
<g>
</g>
<g>
</g>
<g>
</g>
<g>
</g>
<g>
</g>
<g>
</g>
<g>
</g>
<g>
</g>
<g>
</g>
<g>
</g>
<g>
</g>
<g>
</g>
</svg>
