<?xml version="1.0" encoding="iso-8859-1"?>
<!-- Generator: Adobe Illustrator 18.1.1, SVG Export Plug-In . SVG Version: 6.00 Build 0)  -->
<svg xmlns="http://www.w3.org/2000/svg" xmlns:xlink="http://www.w3.org/1999/xlink" version="1.1" id="Capa_1" x="0px" y="0px" viewBox="0 0 612 612" style="enable-background:new 0 0 612 612;" xml:space="preserve" width="512px" height="512px">
<g>
	<path d="M607.673,331.7l-27.397-40.088c-8.122-70.153-28.181-122.068-61.056-158.257c-38.485-42.367-93.486-62.961-168.145-62.961   c-10.522,0-21.611,0.42-32.961,1.251C190.886,80.947,122.765,227.489,95.8,303.661c-1.345,0.575-2.692,1.159-4.041,1.751   C29.948,332.57-0.068,362.807,0,397.843c0.026,13.219,7.795,27.339,25.187,45.783c12.635,13.397,29.878,28.34,48.548,42.074   c21.969,16.162,78.067,53.95,124.403,55.783c2.068,0.082,4.287,0.122,6.594,0.122c0.003,0-0.002,0,0.002,0   c72.946,0,303.843-43.021,402.652-181.5C613.431,351.637,613.546,340.291,607.673,331.7z M483.349,360.824   c-5.881,3.956-11.904,7.699-18.013,11.294c-13.322,7.838-27.069,14.937-41.109,21.394c-26.717,12.285-54.661,22.357-83.363,28.868   c-26.118,5.925-53.921,9.563-80.545,4.979c-25.609-4.409-50.805-13.146-73.678-25.478c-22.763-12.273-46.096-27.698-62.628-47.931   c10.327,4.541,20.74,8.852,31.255,12.94c6.754-23.263,14.575-46.318,23.98-68.649c9.149-21.723,19.862-42.606,35.441-60.436   c18.344-20.998,41.092-38.528,65.073-52.61c20.158-11.836,41.731-21.136,64.627-26.069c-9.079,3.358-17.856,7.315-26.315,12.039   c-25.252,14.106-47.963,33.104-67.129,54.71c-8.42,9.492-17.307,19.911-23.199,31.227c-6.517,12.52-10.727,25.968-14.186,39.616   c-6.81,27.099-10.818,54.97-13.437,82.767c-0.274,2.901-0.167,2.643,2.703,3.424c1.818,0.495,3.635,0.99,5.453,1.483   c3.286,0.967,6.618,1.767,9.948,2.567c6.906,1.659,13.848,3.104,20.808,4.531c41.818,8.948,97.502-1.321,131.974-8.986   c34.836-7.744,69.41-16.631,104.171-24.703c-0.019,0.002,0.288-0.07,1.098-0.258c5.175-1.173,4.011-0.904,2.102-0.467   c4.863-1.094,9.734-2.163,14.625-3.126C493.003,355.415,484.417,360.103,483.349,360.824z" fill="#FFFFFF"/>
</g>
<g>
</g>
<g>
</g>
<g>
</g>
<g>
</g>
<g>
</g>
<g>
</g>
<g>
</g>
<g>
</g>
<g>
</g>
<g>
</g>
<g>
</g>
<g>
</g>
<g>
</g>
<g>
</g>
<g>
</g>
</svg>
